<?xml version="1.0" encoding="utf-8" standalone="no"?>
<!DOCTYPE svg PUBLIC "-//W3C//DTD SVG 1.1//EN"
  "http://www.w3.org/Graphics/SVG/1.1/DTD/svg11.dtd">
<!-- Created with matplotlib (http://matplotlib.org/) -->
<svg height="403pt" version="1.1" viewBox="0 0 404 403" width="404pt" xmlns="http://www.w3.org/2000/svg" xmlns:xlink="http://www.w3.org/1999/xlink">
 <defs>
  <style type="text/css">
*{stroke-linecap:butt;stroke-linejoin:round;stroke-miterlimit:100000;}
  </style>
 </defs>
 <g id="figure_1">
  <g id="patch_1">
   <path d="M 0 403.8495 
L 404.087 403.8495 
L 404.087 0 
L 0 0 
z
" style="fill:#ffffff;"/>
  </g>
  <g id="axes_1">
   <g id="patch_2">
    <path d="M 62.0465 349.128 
L 339.485771 349.128 
L 339.485771 65.816229 
L 62.0465 65.816229 
z
" style="fill:#ffffff;"/>
   </g>
   <g id="matplotlib.axis_1">
    <g id="xtick_1">
     <g id="line2d_1">
      <defs>
       <path d="M 0 0 
L 0 0 
" id="m34e4c78b7e" style="stroke:#262626;stroke-width:1.6;"/>
      </defs>
      <g>
       <use style="fill:#262626;stroke:#262626;stroke-width:1.6;" x="62.0465" xlink:href="#m34e4c78b7e" y="349.128"/>
      </g>
     </g>
     <g id="text_1">
      <!-- −10 -->
      <defs>
       <path d="M 4.9375 29.6875 
L 4.9375 36.8125 
L 53.515625 36.8125 
L 53.515625 29.6875 
z
" id="LiberationSans-2212"/>
       <path d="M 7.625 0 
L 7.625 7.46875 
L 25.140625 7.46875 
L 25.140625 60.40625 
L 9.625 49.3125 
L 9.625 57.625 
L 25.875 68.796875 
L 33.984375 68.796875 
L 33.984375 7.46875 
L 50.734375 7.46875 
L 50.734375 0 
z
" id="LiberationSans-31"/>
       <path d="M 51.703125 34.421875 
Q 51.703125 24.515625 49.828125 17.75 
Q 47.953125 10.984375 44.703125 6.8125 
Q 41.453125 2.640625 37.0625 0.828125 
Q 32.671875 -0.984375 27.6875 -0.984375 
Q 22.65625 -0.984375 18.3125 0.828125 
Q 13.96875 2.640625 10.765625 6.78125 
Q 7.5625 10.9375 5.734375 17.703125 
Q 3.90625 24.46875 3.90625 34.421875 
Q 3.90625 44.828125 5.734375 51.640625 
Q 7.5625 58.453125 10.78125 62.5 
Q 14.015625 66.546875 18.40625 68.1875 
Q 22.796875 69.828125 27.984375 69.828125 
Q 32.90625 69.828125 37.21875 68.1875 
Q 41.546875 66.546875 44.765625 62.5 
Q 48 58.453125 49.84375 51.640625 
Q 51.703125 44.828125 51.703125 34.421875 
M 42.78125 34.421875 
Q 42.78125 42.625 41.796875 48.0625 
Q 40.828125 53.515625 38.921875 56.765625 
Q 37.015625 60.015625 34.25 61.359375 
Q 31.5 62.703125 27.984375 62.703125 
Q 24.265625 62.703125 21.4375 61.328125 
Q 18.609375 59.96875 16.671875 56.71875 
Q 14.75 53.46875 13.765625 48.015625 
Q 12.796875 42.578125 12.796875 34.421875 
Q 12.796875 26.515625 13.796875 21.09375 
Q 14.796875 15.671875 16.71875 12.375 
Q 18.65625 9.078125 21.4375 7.640625 
Q 24.21875 6.203125 27.78125 6.203125 
Q 31.25 6.203125 34.03125 7.640625 
Q 36.8125 9.078125 38.734375 12.375 
Q 40.671875 15.671875 41.71875 21.09375 
Q 42.78125 26.515625 42.78125 34.421875 
" id="LiberationSans-30"/>
      </defs>
      <g style="fill:#262626;" transform="translate(48.4765 371.923)scale(0.16 -0.16)">
       <use xlink:href="#LiberationSans-2212"/>
       <use x="58.3984375" xlink:href="#LiberationSans-31"/>
       <use x="114.013671875" xlink:href="#LiberationSans-30"/>
      </g>
     </g>
    </g>
    <g id="xtick_2">
     <g id="line2d_2">
      <g>
       <use style="fill:#262626;stroke:#262626;stroke-width:1.6;" x="101.680681633" xlink:href="#m34e4c78b7e" y="349.128"/>
      </g>
     </g>
     <g id="text_2">
      <!-- 0 -->
      <g style="fill:#262626;" transform="translate(97.2319316327 371.923)scale(0.16 -0.16)">
       <use xlink:href="#LiberationSans-30"/>
      </g>
     </g>
    </g>
    <g id="xtick_3">
     <g id="line2d_3">
      <g>
       <use style="fill:#262626;stroke:#262626;stroke-width:1.6;" x="141.314863265" xlink:href="#m34e4c78b7e" y="349.128"/>
      </g>
     </g>
     <g id="text_3">
      <!-- 10 -->
      <g style="fill:#262626;" transform="translate(132.417363265 371.923)scale(0.16 -0.16)">
       <use xlink:href="#LiberationSans-31"/>
       <use x="55.615234375" xlink:href="#LiberationSans-30"/>
      </g>
     </g>
    </g>
    <g id="xtick_4">
     <g id="line2d_4">
      <g>
       <use style="fill:#262626;stroke:#262626;stroke-width:1.6;" x="180.949044898" xlink:href="#m34e4c78b7e" y="349.128"/>
      </g>
     </g>
     <g id="text_4">
      <!-- 20 -->
      <defs>
       <path d="M 5.03125 0 
L 5.03125 6.203125 
Q 7.515625 11.921875 11.109375 16.28125 
Q 14.703125 20.65625 18.65625 24.1875 
Q 22.609375 27.734375 26.484375 30.765625 
Q 30.375 33.796875 33.5 36.8125 
Q 36.625 39.84375 38.546875 43.15625 
Q 40.484375 46.484375 40.484375 50.6875 
Q 40.484375 53.609375 39.59375 55.828125 
Q 38.71875 58.0625 37.0625 59.5625 
Q 35.40625 61.078125 33.078125 61.828125 
Q 30.765625 62.59375 27.9375 62.59375 
Q 25.296875 62.59375 22.96875 61.859375 
Q 20.65625 61.140625 18.84375 59.671875 
Q 17.046875 58.203125 15.890625 56.03125 
Q 14.75 53.859375 14.40625 50.984375 
L 5.421875 51.8125 
Q 5.859375 55.515625 7.46875 58.78125 
Q 9.078125 62.0625 11.90625 64.53125 
Q 14.75 67 18.71875 68.40625 
Q 22.703125 69.828125 27.9375 69.828125 
Q 33.0625 69.828125 37.0625 68.609375 
Q 41.0625 67.390625 43.8125 64.984375 
Q 46.578125 62.59375 48.046875 59.078125 
Q 49.515625 55.5625 49.515625 50.984375 
Q 49.515625 47.515625 48.265625 44.390625 
Q 47.015625 41.265625 44.9375 38.421875 
Q 42.875 35.59375 40.140625 32.953125 
Q 37.40625 30.328125 34.421875 27.8125 
Q 31.453125 25.296875 28.421875 22.828125 
Q 25.390625 20.359375 22.71875 17.859375 
Q 20.0625 15.375 17.96875 12.8125 
Q 15.875 10.25 14.703125 7.46875 
L 50.59375 7.46875 
L 50.59375 0 
z
" id="LiberationSans-32"/>
      </defs>
      <g style="fill:#262626;" transform="translate(172.051544898 371.923)scale(0.16 -0.16)">
       <use xlink:href="#LiberationSans-32"/>
       <use x="55.615234375" xlink:href="#LiberationSans-30"/>
      </g>
     </g>
    </g>
    <g id="xtick_5">
     <g id="line2d_5">
      <g>
       <use style="fill:#262626;stroke:#262626;stroke-width:1.6;" x="220.583226531" xlink:href="#m34e4c78b7e" y="349.128"/>
      </g>
     </g>
     <g id="text_5">
      <!-- 30 -->
      <defs>
       <path d="M 51.21875 19 
Q 51.21875 14.265625 49.671875 10.546875 
Q 48.140625 6.84375 45.1875 4.265625 
Q 42.234375 1.703125 37.859375 0.359375 
Q 33.5 -0.984375 27.875 -0.984375 
Q 21.484375 -0.984375 17.109375 0.609375 
Q 12.75 2.203125 9.90625 4.8125 
Q 7.078125 7.421875 5.65625 10.765625 
Q 4.25 14.109375 3.8125 17.671875 
L 12.890625 18.5 
Q 13.28125 15.765625 14.328125 13.515625 
Q 15.375 11.28125 17.1875 9.671875 
Q 19 8.0625 21.625 7.171875 
Q 24.265625 6.296875 27.875 6.296875 
Q 34.515625 6.296875 38.296875 9.5625 
Q 42.09375 12.84375 42.09375 19.28125 
Q 42.09375 23.09375 40.40625 25.40625 
Q 38.71875 27.734375 36.203125 29.03125 
Q 33.6875 30.328125 30.734375 30.765625 
Q 27.78125 31.203125 25.296875 31.203125 
L 20.3125 31.203125 
L 20.3125 38.8125 
L 25.09375 38.8125 
Q 27.59375 38.8125 30.265625 39.328125 
Q 32.953125 39.84375 35.171875 41.1875 
Q 37.40625 42.53125 38.84375 44.828125 
Q 40.28125 47.125 40.28125 50.6875 
Q 40.28125 56.203125 37.03125 59.390625 
Q 33.796875 62.59375 27.390625 62.59375 
Q 21.578125 62.59375 17.984375 59.609375 
Q 14.40625 56.640625 13.8125 51.21875 
L 4.984375 51.90625 
Q 5.515625 56.453125 7.46875 59.8125 
Q 9.421875 63.1875 12.421875 65.40625 
Q 15.4375 67.625 19.28125 68.71875 
Q 23.140625 69.828125 27.484375 69.828125 
Q 33.25 69.828125 37.390625 68.375 
Q 41.546875 66.9375 44.1875 64.46875 
Q 46.828125 62.015625 48.0625 58.6875 
Q 49.3125 55.375 49.3125 51.609375 
Q 49.3125 48.578125 48.484375 45.9375 
Q 47.65625 43.3125 45.890625 41.203125 
Q 44.140625 39.109375 41.421875 37.59375 
Q 38.71875 36.078125 34.90625 35.296875 
L 34.90625 35.109375 
Q 39.0625 34.671875 42.140625 33.21875 
Q 45.21875 31.78125 47.21875 29.625 
Q 49.21875 27.484375 50.21875 24.75 
Q 51.21875 22.015625 51.21875 19 
" id="LiberationSans-33"/>
      </defs>
      <g style="fill:#262626;" transform="translate(211.685726531 371.923)scale(0.16 -0.16)">
       <use xlink:href="#LiberationSans-33"/>
       <use x="55.615234375" xlink:href="#LiberationSans-30"/>
      </g>
     </g>
    </g>
    <g id="xtick_6">
     <g id="line2d_6">
      <g>
       <use style="fill:#262626;stroke:#262626;stroke-width:1.6;" x="260.217408163" xlink:href="#m34e4c78b7e" y="349.128"/>
      </g>
     </g>
     <g id="text_6">
      <!-- 40 -->
      <defs>
       <path d="M 43.015625 15.578125 
L 43.015625 0 
L 34.71875 0 
L 34.71875 15.578125 
L 2.296875 15.578125 
L 2.296875 22.40625 
L 33.796875 68.796875 
L 43.015625 68.796875 
L 43.015625 22.515625 
L 52.6875 22.515625 
L 52.6875 15.578125 
z
M 34.71875 58.890625 
Q 34.625 58.640625 34.234375 57.9375 
Q 33.84375 57.234375 33.34375 56.34375 
Q 32.859375 55.46875 32.34375 54.5625 
Q 31.84375 53.65625 31.453125 53.078125 
L 13.8125 27.09375 
Q 13.578125 26.703125 13.109375 26.0625 
Q 12.640625 25.4375 12.15625 24.78125 
Q 11.671875 24.125 11.171875 23.484375 
Q 10.6875 22.859375 10.40625 22.515625 
L 34.71875 22.515625 
z
" id="LiberationSans-34"/>
      </defs>
      <g style="fill:#262626;" transform="translate(251.319908163 371.923)scale(0.16 -0.16)">
       <use xlink:href="#LiberationSans-34"/>
       <use x="55.615234375" xlink:href="#LiberationSans-30"/>
      </g>
     </g>
    </g>
    <g id="xtick_7">
     <g id="line2d_7">
      <g>
       <use style="fill:#262626;stroke:#262626;stroke-width:1.6;" x="299.851589796" xlink:href="#m34e4c78b7e" y="349.128"/>
      </g>
     </g>
     <g id="text_7">
      <!-- 50 -->
      <defs>
       <path d="M 51.421875 22.40625 
Q 51.421875 17.234375 49.859375 12.9375 
Q 48.296875 8.640625 45.21875 5.53125 
Q 42.140625 2.4375 37.578125 0.71875 
Q 33.015625 -0.984375 27 -0.984375 
Q 21.578125 -0.984375 17.546875 0.28125 
Q 13.53125 1.5625 10.734375 3.78125 
Q 7.953125 6 6.3125 8.984375 
Q 4.6875 11.96875 4 15.375 
L 12.890625 16.40625 
Q 13.421875 14.453125 14.390625 12.625 
Q 15.375 10.796875 17.0625 9.34375 
Q 18.75 7.90625 21.21875 7.046875 
Q 23.6875 6.203125 27.203125 6.203125 
Q 30.609375 6.203125 33.390625 7.25 
Q 36.1875 8.296875 38.15625 10.34375 
Q 40.140625 12.40625 41.203125 15.375 
Q 42.28125 18.359375 42.28125 22.21875 
Q 42.28125 25.390625 41.25 28.046875 
Q 40.234375 30.71875 38.328125 32.640625 
Q 36.421875 34.578125 33.65625 35.640625 
Q 30.90625 36.71875 27.390625 36.71875 
Q 25.203125 36.71875 23.34375 36.328125 
Q 21.484375 35.9375 19.890625 35.25 
Q 18.3125 34.578125 17.015625 33.671875 
Q 15.71875 32.765625 14.59375 31.78125 
L 6 31.78125 
L 8.296875 68.796875 
L 47.40625 68.796875 
L 47.40625 61.328125 
L 16.3125 61.328125 
L 14.984375 39.5 
Q 17.328125 41.3125 20.84375 42.59375 
Q 24.359375 43.890625 29.203125 43.890625 
Q 34.328125 43.890625 38.421875 42.328125 
Q 42.53125 40.765625 45.40625 37.90625 
Q 48.296875 35.0625 49.859375 31.109375 
Q 51.421875 27.15625 51.421875 22.40625 
" id="LiberationSans-35"/>
      </defs>
      <g style="fill:#262626;" transform="translate(290.954089796 371.923)scale(0.16 -0.16)">
       <use xlink:href="#LiberationSans-35"/>
       <use x="55.615234375" xlink:href="#LiberationSans-30"/>
      </g>
     </g>
    </g>
    <g id="xtick_8">
     <g id="line2d_8">
      <g>
       <use style="fill:#262626;stroke:#262626;stroke-width:1.6;" x="339.485771429" xlink:href="#m34e4c78b7e" y="349.128"/>
      </g>
     </g>
     <g id="text_8">
      <!-- 60 -->
      <defs>
       <path d="M 51.21875 22.515625 
Q 51.21875 17.328125 49.78125 13 
Q 48.34375 8.6875 45.53125 5.578125 
Q 42.71875 2.484375 38.5625 0.75 
Q 34.421875 -0.984375 29 -0.984375 
Q 23 -0.984375 18.5 1.3125 
Q 14.015625 3.609375 11.03125 7.921875 
Q 8.0625 12.25 6.5625 18.53125 
Q 5.078125 24.8125 5.078125 32.8125 
Q 5.078125 42 6.765625 48.921875 
Q 8.453125 55.859375 11.625 60.5 
Q 14.796875 65.140625 19.359375 67.484375 
Q 23.921875 69.828125 29.6875 69.828125 
Q 33.203125 69.828125 36.28125 69.09375 
Q 39.359375 68.359375 41.875 66.71875 
Q 44.390625 65.09375 46.28125 62.40625 
Q 48.1875 59.71875 49.3125 55.8125 
L 40.921875 54.296875 
Q 39.546875 58.734375 36.546875 60.71875 
Q 33.546875 62.703125 29.59375 62.703125 
Q 25.984375 62.703125 23.046875 60.984375 
Q 20.125 59.28125 18.0625 55.875 
Q 16.015625 52.484375 14.90625 47.359375 
Q 13.8125 42.234375 13.8125 35.40625 
Q 16.21875 39.84375 20.5625 42.15625 
Q 24.90625 44.484375 30.515625 44.484375 
Q 35.203125 44.484375 39.015625 42.96875 
Q 42.828125 41.453125 45.53125 38.59375 
Q 48.25 35.75 49.734375 31.671875 
Q 51.21875 27.59375 51.21875 22.515625 
M 42.28125 22.125 
Q 42.28125 25.6875 41.40625 28.5625 
Q 40.53125 31.453125 38.765625 33.46875 
Q 37.015625 35.5 34.421875 36.59375 
Q 31.84375 37.703125 28.421875 37.703125 
Q 26.03125 37.703125 23.578125 36.984375 
Q 21.140625 36.28125 19.15625 34.6875 
Q 17.1875 33.109375 15.9375 30.515625 
Q 14.703125 27.9375 14.703125 24.21875 
Q 14.703125 20.40625 15.671875 17.109375 
Q 16.65625 13.8125 18.484375 11.375 
Q 20.3125 8.9375 22.890625 7.515625 
Q 25.484375 6.109375 28.71875 6.109375 
Q 31.890625 6.109375 34.40625 7.203125 
Q 36.921875 8.296875 38.671875 10.375 
Q 40.4375 12.453125 41.359375 15.421875 
Q 42.28125 18.40625 42.28125 22.125 
" id="LiberationSans-36"/>
      </defs>
      <g style="fill:#262626;" transform="translate(330.588271429 371.923)scale(0.16 -0.16)">
       <use xlink:href="#LiberationSans-36"/>
       <use x="55.615234375" xlink:href="#LiberationSans-30"/>
      </g>
     </g>
    </g>
    <g id="text_9">
     <!-- AQ -->
     <defs>
      <path d="M 73 34.71875 
Q 73 27.4375 71.109375 21.40625 
Q 69.234375 15.375 65.6875 10.828125 
Q 62.15625 6.296875 57 3.4375 
Q 51.859375 0.59375 45.3125 -0.296875 
Q 46.34375 -3.421875 47.625 -5.609375 
Q 48.921875 -7.8125 50.578125 -9.203125 
Q 52.25 -10.59375 54.265625 -11.25 
Q 56.296875 -11.921875 58.796875 -11.921875 
Q 60.15625 -11.921875 61.71875 -11.71875 
Q 63.28125 -11.53125 64.40625 -11.28125 
L 64.40625 -17.828125 
Q 62.546875 -18.265625 60.328125 -18.578125 
Q 58.109375 -18.890625 55.71875 -18.890625 
Q 51.515625 -18.890625 48.390625 -17.640625 
Q 45.265625 -16.40625 42.890625 -14.078125 
Q 40.53125 -11.765625 38.8125 -8.390625 
Q 37.109375 -5.03125 35.796875 -0.78125 
Q 28.078125 -0.390625 22.234375 2.40625 
Q 16.40625 5.21875 12.515625 9.9375 
Q 8.640625 14.65625 6.6875 20.96875 
Q 4.734375 27.296875 4.734375 34.71875 
Q 4.734375 42.78125 6.984375 49.265625 
Q 9.234375 55.765625 13.578125 60.328125 
Q 17.921875 64.890625 24.296875 67.359375 
Q 30.671875 69.828125 38.921875 69.828125 
Q 47.125 69.828125 53.484375 67.328125 
Q 59.859375 64.84375 64.171875 60.25 
Q 68.5 55.671875 70.75 49.171875 
Q 73 42.671875 73 34.71875 
M 63.484375 34.71875 
Q 63.484375 40.921875 61.890625 46 
Q 60.296875 51.078125 57.203125 54.6875 
Q 54.109375 58.296875 49.515625 60.25 
Q 44.921875 62.203125 38.921875 62.203125 
Q 32.765625 62.203125 28.125 60.25 
Q 23.484375 58.296875 20.375 54.6875 
Q 17.28125 51.078125 15.734375 46 
Q 14.203125 40.921875 14.203125 34.71875 
Q 14.203125 28.515625 15.796875 23.359375 
Q 17.390625 18.21875 20.484375 14.484375 
Q 23.578125 10.75 28.1875 8.671875 
Q 32.8125 6.59375 38.8125 6.59375 
Q 45.265625 6.59375 49.921875 8.6875 
Q 54.59375 10.796875 57.59375 14.53125 
Q 60.59375 18.265625 62.03125 23.4375 
Q 63.484375 28.609375 63.484375 34.71875 
" id="LiberationSans-51"/>
      <path d="M 56.984375 0 
L 49.125 20.125 
L 17.78125 20.125 
L 9.859375 0 
L 0.203125 0 
L 28.265625 68.796875 
L 38.875 68.796875 
L 66.5 0 
z
M 37.5 50.09375 
Q 36.71875 52.046875 36 54.046875 
Q 35.296875 56.0625 34.765625 57.6875 
Q 34.234375 59.328125 33.859375 60.421875 
Q 33.5 61.53125 33.453125 61.765625 
Q 33.34375 61.53125 33 60.40625 
Q 32.671875 59.28125 32.109375 57.609375 
Q 31.546875 55.953125 30.828125 53.953125 
Q 30.125 51.953125 29.390625 50 
L 20.609375 27.390625 
L 46.34375 27.390625 
z
" id="LiberationSans-41"/>
     </defs>
     <g style="fill:#262626;" transform="translate(188.051510714 392.9975)scale(0.176 -0.176)">
      <use xlink:href="#LiberationSans-41"/>
      <use x="66.69921875" xlink:href="#LiberationSans-51"/>
     </g>
    </g>
   </g>
   <g id="matplotlib.axis_2">
    <g id="ytick_1">
     <g id="line2d_9">
      <g>
       <use style="fill:#262626;stroke:#262626;stroke-width:1.6;" x="62.0465" xlink:href="#m34e4c78b7e" y="320.796822857"/>
      </g>
     </g>
     <g id="text_10">
      <!-- 0.0 -->
      <defs>
       <path d="M 9.125 0 
L 9.125 10.6875 
L 18.65625 10.6875 
L 18.65625 0 
z
" id="LiberationSans-2e"/>
      </defs>
      <g style="fill:#262626;" transform="translate(28.6065 324.934322857)scale(0.16 -0.16)">
       <use xlink:href="#LiberationSans-30"/>
       <use x="55.615234375" xlink:href="#LiberationSans-2e"/>
       <use x="83.3984375" xlink:href="#LiberationSans-30"/>
      </g>
     </g>
    </g>
    <g id="ytick_2">
     <g id="line2d_10">
      <g>
       <use style="fill:#262626;stroke:#262626;stroke-width:1.6;" x="62.0465" xlink:href="#m34e4c78b7e" y="264.134468571"/>
      </g>
     </g>
     <g id="text_11">
      <!-- 0.2 -->
      <g style="fill:#262626;" transform="translate(28.6065 268.271968571)scale(0.16 -0.16)">
       <use xlink:href="#LiberationSans-30"/>
       <use x="55.615234375" xlink:href="#LiberationSans-2e"/>
       <use x="83.3984375" xlink:href="#LiberationSans-32"/>
      </g>
     </g>
    </g>
    <g id="ytick_3">
     <g id="line2d_11">
      <g>
       <use style="fill:#262626;stroke:#262626;stroke-width:1.6;" x="62.0465" xlink:href="#m34e4c78b7e" y="207.472114286"/>
      </g>
     </g>
     <g id="text_12">
      <!-- 0.4 -->
      <g style="fill:#262626;" transform="translate(28.6065 211.609614286)scale(0.16 -0.16)">
       <use xlink:href="#LiberationSans-30"/>
       <use x="55.615234375" xlink:href="#LiberationSans-2e"/>
       <use x="83.3984375" xlink:href="#LiberationSans-34"/>
      </g>
     </g>
    </g>
    <g id="ytick_4">
     <g id="line2d_12">
      <g>
       <use style="fill:#262626;stroke:#262626;stroke-width:1.6;" x="62.0465" xlink:href="#m34e4c78b7e" y="150.80976"/>
      </g>
     </g>
     <g id="text_13">
      <!-- 0.6 -->
      <g style="fill:#262626;" transform="translate(28.6065 154.94726)scale(0.16 -0.16)">
       <use xlink:href="#LiberationSans-30"/>
       <use x="55.615234375" xlink:href="#LiberationSans-2e"/>
       <use x="83.3984375" xlink:href="#LiberationSans-36"/>
      </g>
     </g>
    </g>
    <g id="ytick_5">
     <g id="line2d_13">
      <g>
       <use style="fill:#262626;stroke:#262626;stroke-width:1.6;" x="62.0465" xlink:href="#m34e4c78b7e" y="94.1474057143"/>
      </g>
     </g>
     <g id="text_14">
      <!-- 0.8 -->
      <defs>
       <path d="M 51.265625 19.1875 
Q 51.265625 14.796875 49.875 11.109375 
Q 48.484375 7.421875 45.625 4.734375 
Q 42.78125 2.046875 38.328125 0.53125 
Q 33.890625 -0.984375 27.828125 -0.984375 
Q 21.78125 -0.984375 17.359375 0.53125 
Q 12.9375 2.046875 10.03125 4.703125 
Q 7.125 7.375 5.734375 11.0625 
Q 4.34375 14.75 4.34375 19.09375 
Q 4.34375 22.859375 5.484375 25.78125 
Q 6.640625 28.71875 8.5625 30.828125 
Q 10.5 32.953125 12.96875 34.25 
Q 15.4375 35.546875 18.0625 35.984375 
L 18.0625 36.1875 
Q 15.1875 36.859375 12.90625 38.375 
Q 10.640625 39.890625 9.09375 42.015625 
Q 7.5625 44.140625 6.75 46.71875 
Q 5.953125 49.3125 5.953125 52.203125 
Q 5.953125 55.8125 7.34375 59 
Q 8.734375 62.203125 11.46875 64.625 
Q 14.203125 67.046875 18.25 68.4375 
Q 22.3125 69.828125 27.640625 69.828125 
Q 33.25 69.828125 37.375 68.40625 
Q 41.5 67 44.203125 64.578125 
Q 46.921875 62.15625 48.234375 58.9375 
Q 49.5625 55.71875 49.5625 52.09375 
Q 49.5625 49.265625 48.75 46.671875 
Q 47.953125 44.09375 46.40625 41.96875 
Q 44.875 39.84375 42.59375 38.34375 
Q 40.328125 36.859375 37.359375 36.28125 
L 37.359375 36.078125 
Q 40.328125 35.59375 42.859375 34.296875 
Q 45.40625 33.015625 47.265625 30.890625 
Q 49.125 28.765625 50.1875 25.828125 
Q 51.265625 22.90625 51.265625 19.1875 
M 40.4375 51.609375 
Q 40.4375 54.203125 39.765625 56.34375 
Q 39.109375 58.5 37.59375 60.03125 
Q 36.078125 61.578125 33.640625 62.421875 
Q 31.203125 63.28125 27.640625 63.28125 
Q 24.171875 63.28125 21.78125 62.421875 
Q 19.390625 61.578125 17.84375 60.03125 
Q 16.3125 58.5 15.625 56.34375 
Q 14.9375 54.203125 14.9375 51.609375 
Q 14.9375 49.5625 15.46875 47.40625 
Q 16.015625 45.265625 17.421875 43.5 
Q 18.84375 41.75 21.328125 40.625 
Q 23.828125 39.5 27.734375 39.5 
Q 31.890625 39.5 34.40625 40.625 
Q 36.921875 41.75 38.25 43.5 
Q 39.59375 45.265625 40.015625 47.40625 
Q 40.4375 49.5625 40.4375 51.609375 
M 42.140625 20.015625 
Q 42.140625 22.515625 41.453125 24.828125 
Q 40.765625 27.15625 39.109375 28.9375 
Q 37.453125 30.71875 34.640625 31.8125 
Q 31.84375 32.90625 27.640625 32.90625 
Q 23.78125 32.90625 21.0625 31.8125 
Q 18.359375 30.71875 16.671875 28.90625 
Q 14.984375 27.09375 14.203125 24.71875 
Q 13.421875 22.359375 13.421875 19.828125 
Q 13.421875 16.65625 14.203125 14.03125 
Q 14.984375 11.421875 16.6875 9.546875 
Q 18.40625 7.671875 21.1875 6.640625 
Q 23.96875 5.609375 27.9375 5.609375 
Q 31.9375 5.609375 34.671875 6.640625 
Q 37.40625 7.671875 39.0625 9.546875 
Q 40.71875 11.421875 41.421875 14.078125 
Q 42.140625 16.75 42.140625 20.015625 
" id="LiberationSans-38"/>
      </defs>
      <g style="fill:#262626;" transform="translate(28.6065 98.2849057143)scale(0.16 -0.16)">
       <use xlink:href="#LiberationSans-30"/>
       <use x="55.615234375" xlink:href="#LiberationSans-2e"/>
       <use x="83.3984375" xlink:href="#LiberationSans-38"/>
      </g>
     </g>
    </g>
    <g id="text_15">
     <!-- Difference score -->
     <defs>
      <path d="M 46.390625 14.59375 
Q 46.390625 10.890625 44.9375 7.984375 
Q 43.5 5.078125 40.765625 3.09375 
Q 38.03125 1.125 34.046875 0.0625 
Q 30.078125 -0.984375 24.953125 -0.984375 
Q 20.359375 -0.984375 16.671875 -0.265625 
Q 12.984375 0.4375 10.203125 2 
Q 7.421875 3.5625 5.53125 6.125 
Q 3.65625 8.6875 2.78125 12.40625 
L 10.546875 13.921875 
Q 11.671875 9.671875 15.1875 7.6875 
Q 18.703125 5.71875 24.953125 5.71875 
Q 27.78125 5.71875 30.140625 6.109375 
Q 32.515625 6.5 34.21875 7.453125 
Q 35.9375 8.40625 36.890625 9.984375 
Q 37.84375 11.578125 37.84375 13.921875 
Q 37.84375 16.3125 36.71875 17.84375 
Q 35.59375 19.390625 33.59375 20.40625 
Q 31.59375 21.4375 28.734375 22.1875 
Q 25.875 22.953125 22.46875 23.875 
Q 19.28125 24.703125 16.15625 25.734375 
Q 13.03125 26.765625 10.515625 28.4375 
Q 8.015625 30.125 6.453125 32.609375 
Q 4.890625 35.109375 4.890625 38.875 
Q 4.890625 46.09375 10.03125 49.875 
Q 15.1875 53.65625 25.046875 53.65625 
Q 33.796875 53.65625 38.9375 50.578125 
Q 44.09375 47.515625 45.453125 40.71875 
L 37.546875 39.75 
Q 37.109375 41.796875 35.9375 43.1875 
Q 34.765625 44.578125 33.109375 45.4375 
Q 31.453125 46.296875 29.375 46.65625 
Q 27.296875 47.015625 25.046875 47.015625 
Q 19.09375 47.015625 16.25 45.203125 
Q 13.421875 43.40625 13.421875 39.75 
Q 13.421875 37.59375 14.46875 36.203125 
Q 15.53125 34.8125 17.40625 33.859375 
Q 19.28125 32.90625 21.921875 32.203125 
Q 24.5625 31.5 27.734375 30.71875 
Q 29.828125 30.171875 32.03125 29.5625 
Q 34.234375 28.953125 36.296875 28.09375 
Q 38.375 27.25 40.203125 26.09375 
Q 42.046875 24.953125 43.40625 23.34375 
Q 44.78125 21.734375 45.578125 19.578125 
Q 46.390625 17.4375 46.390625 14.59375 
" id="LiberationSans-73"/>
      <path d="M 13.484375 24.5625 
Q 13.484375 20.40625 14.328125 16.90625 
Q 15.1875 13.421875 16.96875 10.90625 
Q 18.75 8.40625 21.53125 7 
Q 24.3125 5.609375 28.21875 5.609375 
Q 33.9375 5.609375 37.375 7.90625 
Q 40.828125 10.203125 42.046875 13.71875 
L 49.75 11.53125 
Q 48.921875 9.328125 47.4375 7.109375 
Q 45.953125 4.890625 43.453125 3.09375 
Q 40.96875 1.3125 37.234375 0.15625 
Q 33.5 -0.984375 28.21875 -0.984375 
Q 16.5 -0.984375 10.375 6 
Q 4.25 12.984375 4.25 26.765625 
Q 4.25 34.1875 6.09375 39.328125 
Q 7.953125 44.484375 11.171875 47.703125 
Q 14.40625 50.921875 18.703125 52.359375 
Q 23 53.8125 27.875 53.8125 
Q 34.515625 53.8125 38.984375 51.65625 
Q 43.453125 49.515625 46.15625 45.71875 
Q 48.875 41.9375 50.015625 36.8125 
Q 51.171875 31.6875 51.171875 25.734375 
L 51.171875 24.5625 
z
M 42.09375 31.296875 
Q 41.359375 39.65625 37.84375 43.484375 
Q 34.328125 47.3125 27.734375 47.3125 
Q 25.53125 47.3125 23.109375 46.609375 
Q 20.703125 45.90625 18.65625 44.09375 
Q 16.609375 42.28125 15.1875 39.171875 
Q 13.765625 36.078125 13.578125 31.296875 
z
" id="LiberationSans-65"/>
      <path d="M 17.625 46.4375 
L 17.625 0 
L 8.84375 0 
L 8.84375 46.4375 
L 1.421875 46.4375 
L 1.421875 52.828125 
L 8.84375 52.828125 
L 8.84375 58.796875 
Q 8.84375 61.671875 9.375 64.140625 
Q 9.90625 66.609375 11.34375 68.4375 
Q 12.796875 70.265625 15.28125 71.3125 
Q 17.78125 72.359375 21.734375 72.359375 
Q 23.296875 72.359375 24.96875 72.21875 
Q 26.65625 72.078125 27.9375 71.78125 
L 27.9375 65.09375 
Q 27.09375 65.234375 26 65.359375 
Q 24.90625 65.484375 24.03125 65.484375 
Q 22.078125 65.484375 20.828125 64.9375 
Q 19.578125 64.40625 18.875 63.40625 
Q 18.171875 62.40625 17.890625 60.9375 
Q 17.625 59.46875 17.625 57.5625 
L 17.625 52.828125 
L 27.9375 52.828125 
L 27.9375 46.4375 
z
" id="LiberationSans-66"/>
      <path d="M 6.9375 0 
L 6.9375 40.53125 
Q 6.9375 42.1875 6.90625 43.921875 
Q 6.890625 45.65625 6.828125 47.265625 
Q 6.78125 48.875 6.734375 50.28125 
Q 6.6875 51.703125 6.640625 52.828125 
L 14.9375 52.828125 
Q 14.984375 51.703125 15.0625 50.265625 
Q 15.140625 48.828125 15.203125 47.3125 
Q 15.28125 45.796875 15.296875 44.40625 
Q 15.328125 43.015625 15.328125 42.046875 
L 15.53125 42.046875 
Q 16.453125 45.0625 17.5 47.28125 
Q 18.5625 49.515625 19.96875 50.953125 
Q 21.390625 52.390625 23.34375 53.09375 
Q 25.296875 53.8125 28.078125 53.8125 
Q 29.15625 53.8125 30.125 53.640625 
Q 31.109375 53.46875 31.640625 53.328125 
L 31.640625 45.265625 
Q 30.765625 45.515625 29.59375 45.625 
Q 28.421875 45.75 26.953125 45.75 
Q 23.921875 45.75 21.796875 44.375 
Q 19.671875 43.015625 18.328125 40.59375 
Q 17 38.1875 16.359375 34.84375 
Q 15.71875 31.5 15.71875 27.546875 
L 15.71875 0 
z
" id="LiberationSans-72"/>
      <path d="M 13.421875 26.65625 
Q 13.421875 22.125 14.078125 18.3125 
Q 14.75 14.5 16.3125 11.734375 
Q 17.875 8.984375 20.4375 7.46875 
Q 23 5.953125 26.765625 5.953125 
Q 31.453125 5.953125 34.59375 8.484375 
Q 37.75 11.03125 38.484375 16.3125 
L 47.359375 15.71875 
Q 46.921875 12.453125 45.453125 9.421875 
Q 44 6.390625 41.484375 4.09375 
Q 38.96875 1.8125 35.34375 0.40625 
Q 31.734375 -0.984375 27 -0.984375 
Q 20.796875 -0.984375 16.453125 1.109375 
Q 12.109375 3.21875 9.390625 6.90625 
Q 6.6875 10.59375 5.46875 15.59375 
Q 4.25 20.609375 4.25 26.46875 
Q 4.25 31.78125 5.125 35.859375 
Q 6 39.9375 7.59375 42.984375 
Q 9.1875 46.046875 11.328125 48.125 
Q 13.484375 50.203125 15.984375 51.4375 
Q 18.5 52.6875 21.28125 53.25 
Q 24.078125 53.8125 26.90625 53.8125 
Q 31.34375 53.8125 34.8125 52.59375 
Q 38.28125 51.375 40.796875 49.25 
Q 43.3125 47.125 44.875 44.234375 
Q 46.4375 41.359375 47.078125 38.03125 
L 38.03125 37.359375 
Q 37.359375 41.75 34.5625 44.328125 
Q 31.78125 46.921875 26.65625 46.921875 
Q 22.90625 46.921875 20.390625 45.671875 
Q 17.875 44.4375 16.3125 41.921875 
Q 14.75 39.40625 14.078125 35.59375 
Q 13.421875 31.78125 13.421875 26.65625 
" id="LiberationSans-63"/>
      <path d="M 6.6875 64.0625 
L 6.6875 72.46875 
L 15.484375 72.46875 
L 15.484375 64.0625 
z
M 6.6875 0 
L 6.6875 52.828125 
L 15.484375 52.828125 
L 15.484375 0 
z
" id="LiberationSans-69"/>
      <path d="M 40.28125 0 
L 40.28125 33.5 
Q 40.28125 37.359375 39.71875 39.9375 
Q 39.15625 42.53125 37.890625 44.109375 
Q 36.625 45.703125 34.546875 46.359375 
Q 32.46875 47.015625 29.390625 47.015625 
Q 26.265625 47.015625 23.75 45.921875 
Q 21.234375 44.828125 19.453125 42.75 
Q 17.671875 40.671875 16.6875 37.625 
Q 15.71875 34.578125 15.71875 30.609375 
L 15.71875 0 
L 6.9375 0 
L 6.9375 41.546875 
Q 6.9375 43.21875 6.90625 45.046875 
Q 6.890625 46.875 6.828125 48.5 
Q 6.78125 50.140625 6.734375 51.3125 
Q 6.6875 52.484375 6.640625 52.828125 
L 14.9375 52.828125 
Q 14.984375 52.59375 15.03125 51.515625 
Q 15.09375 50.4375 15.15625 49.046875 
Q 15.234375 47.65625 15.28125 46.21875 
Q 15.328125 44.78125 15.328125 43.796875 
L 15.484375 43.796875 
Q 16.75 46.09375 18.265625 47.953125 
Q 19.78125 49.8125 21.78125 51.09375 
Q 23.78125 52.390625 26.359375 53.09375 
Q 28.953125 53.8125 32.375 53.8125 
Q 36.765625 53.8125 39.9375 52.734375 
Q 43.109375 51.65625 45.15625 49.40625 
Q 47.21875 47.171875 48.171875 43.625 
Q 49.125 40.09375 49.125 35.203125 
L 49.125 0 
z
" id="LiberationSans-6e"/>
      <path d="M 51.421875 26.46875 
Q 51.421875 12.59375 45.3125 5.796875 
Q 39.203125 -0.984375 27.59375 -0.984375 
Q 22.078125 -0.984375 17.71875 0.671875 
Q 13.375 2.34375 10.375 5.765625 
Q 7.375 9.1875 5.78125 14.328125 
Q 4.203125 19.484375 4.203125 26.46875 
Q 4.203125 53.8125 27.875 53.8125 
Q 34.03125 53.8125 38.5 52.09375 
Q 42.96875 50.390625 45.828125 46.96875 
Q 48.6875 43.5625 50.046875 38.421875 
Q 51.421875 33.296875 51.421875 26.46875 
M 42.1875 26.46875 
Q 42.1875 32.625 41.234375 36.625 
Q 40.28125 40.625 38.453125 43.015625 
Q 36.625 45.40625 33.984375 46.359375 
Q 31.34375 47.3125 28.03125 47.3125 
Q 24.65625 47.3125 21.9375 46.3125 
Q 19.234375 45.3125 17.328125 42.890625 
Q 15.4375 40.484375 14.421875 36.46875 
Q 13.421875 32.46875 13.421875 26.46875 
Q 13.421875 20.3125 14.5 16.28125 
Q 15.578125 12.25 17.453125 9.859375 
Q 19.34375 7.46875 21.90625 6.484375 
Q 24.46875 5.515625 27.484375 5.515625 
Q 30.859375 5.515625 33.59375 6.46875 
Q 36.328125 7.421875 38.234375 9.8125 
Q 40.140625 12.203125 41.15625 16.25 
Q 42.1875 20.3125 42.1875 26.46875 
" id="LiberationSans-6f"/>
      <path id="LiberationSans-20"/>
      <path d="M 67.4375 35.109375 
Q 67.4375 26.515625 64.84375 19.9375 
Q 62.25 13.375 57.75 8.953125 
Q 53.265625 4.546875 47.140625 2.265625 
Q 41.015625 0 33.9375 0 
L 8.203125 0 
L 8.203125 68.796875 
L 30.953125 68.796875 
Q 38.921875 68.796875 45.625 66.8125 
Q 52.34375 64.84375 57.171875 60.71875 
Q 62.015625 56.59375 64.71875 50.234375 
Q 67.4375 43.890625 67.4375 35.109375 
M 58.0625 35.109375 
Q 58.0625 42.09375 56.046875 47.046875 
Q 54.046875 52 50.4375 55.171875 
Q 46.828125 58.34375 41.796875 59.828125 
Q 36.765625 61.328125 30.765625 61.328125 
L 17.53125 61.328125 
L 17.53125 7.46875 
L 32.859375 7.46875 
Q 38.28125 7.46875 42.890625 9.21875 
Q 47.515625 10.984375 50.875 14.453125 
Q 54.25 17.921875 56.15625 23.09375 
Q 58.0625 28.265625 58.0625 35.109375 
" id="LiberationSans-44"/>
     </defs>
     <g style="fill:#262626;" transform="translate(19.9545 271.537489286)rotate(-90.0)scale(0.176 -0.176)">
      <use xlink:href="#LiberationSans-44"/>
      <use x="72.216796875" xlink:href="#LiberationSans-69"/>
      <use x="94.43359375" xlink:href="#LiberationSans-66"/>
      <use x="122.201171875" xlink:href="#LiberationSans-66"/>
      <use x="149.984375" xlink:href="#LiberationSans-65"/>
      <use x="205.599609375" xlink:href="#LiberationSans-72"/>
      <use x="238.900390625" xlink:href="#LiberationSans-65"/>
      <use x="294.515625" xlink:href="#LiberationSans-6e"/>
      <use x="350.130859375" xlink:href="#LiberationSans-63"/>
      <use x="400.130859375" xlink:href="#LiberationSans-65"/>
      <use x="455.74609375" xlink:href="#LiberationSans-20"/>
      <use x="483.529296875" xlink:href="#LiberationSans-73"/>
      <use x="533.529296875" xlink:href="#LiberationSans-63"/>
      <use x="583.529296875" xlink:href="#LiberationSans-6f"/>
      <use x="639.14453125" xlink:href="#LiberationSans-72"/>
      <use x="672.4453125" xlink:href="#LiberationSans-65"/>
     </g>
    </g>
   </g>
   <g id="PathCollection_1">
    <defs>
     <path d="M 0 2.236068 
C 0.593012 2.236068 1.161816 2.000462 1.581139 1.581139 
C 2.000462 1.161816 2.236068 0.593012 2.236068 0 
C 2.236068 -0.593012 2.000462 -1.161816 1.581139 -1.581139 
C 1.161816 -2.000462 0.593012 -2.236068 0 -2.236068 
C -0.593012 -2.236068 -1.161816 -2.000462 -1.581139 -1.581139 
C -2.000462 -1.161816 -2.236068 -0.593012 -2.236068 0 
C -2.236068 0.593012 -2.000462 1.161816 -1.581139 1.581139 
C -1.161816 2.000462 -0.593012 2.236068 0 2.236068 
z
" id="m2d904c3da3"/>
    </defs>
    <g clip-path="url(#p4dd56104e2)">
     <use style="fill:#4c72b0;fill-opacity:0.8;" x="169.058790408" xlink:href="#m2d904c3da3" y="210.353250944"/>
     <use style="fill:#4c72b0;fill-opacity:0.8;" x="188.875881224" xlink:href="#m2d904c3da3" y="229.560828668"/>
     <use style="fill:#4c72b0;fill-opacity:0.8;" x="204.729553878" xlink:href="#m2d904c3da3" y="186.343778789"/>
     <use style="fill:#4c72b0;fill-opacity:0.8;" x="176.985626735" xlink:href="#m2d904c3da3" y="210.353250944"/>
     <use style="fill:#4c72b0;fill-opacity:0.8;" x="176.985626735" xlink:href="#m2d904c3da3" y="188.910308571"/>
     <use style="fill:#4c72b0;fill-opacity:0.8;" x="228.510062857" xlink:href="#m2d904c3da3" y="167.136201065"/>
     <use style="fill:#4c72b0;fill-opacity:0.8;" x="184.912463061" xlink:href="#m2d904c3da3" y="269.507622857"/>
     <use style="fill:#4c72b0;fill-opacity:0.8;" x="141.314863265" xlink:href="#m2d904c3da3" y="176.739989927"/>
     <use style="fill:#4c72b0;fill-opacity:0.8;" x="204.729553878" xlink:href="#m2d904c3da3" y="195.947567651"/>
     <use style="fill:#4c72b0;fill-opacity:0.8;" x="176.985626735" xlink:href="#m2d904c3da3" y="147.928623341"/>
     <use style="fill:#4c72b0;fill-opacity:0.8;" x="157.168535918" xlink:href="#m2d904c3da3" y="186.343778789"/>
     <use style="fill:#4c72b0;fill-opacity:0.8;" x="208.692972041" xlink:href="#m2d904c3da3" y="133.522940048"/>
     <use style="fill:#4c72b0;fill-opacity:0.8;" x="180.949044898" xlink:href="#m2d904c3da3" y="179.140937143"/>
     <use style="fill:#4c72b0;fill-opacity:0.8;" x="176.985626735" xlink:href="#m2d904c3da3" y="193.306525714"/>
     <use style="fill:#4c72b0;fill-opacity:0.8;" x="176.985626735" xlink:href="#m2d904c3da3" y="184.025622857"/>
     <use style="fill:#4c72b0;fill-opacity:0.8;" x="180.949044898" xlink:href="#m2d904c3da3" y="203.564365714"/>
     <use style="fill:#4c72b0;fill-opacity:0.8;" x="173.022208571" xlink:href="#m2d904c3da3" y="224.758934237"/>
     <use style="fill:#4c72b0;fill-opacity:0.8;" x="153.205117755" xlink:href="#m2d904c3da3" y="221.637702857"/>
     <use style="fill:#4c72b0;fill-opacity:0.8;" x="216.619808367" xlink:href="#m2d904c3da3" y="169.697211429"/>
     <use style="fill:#4c72b0;fill-opacity:0.8;" x="141.314863265" xlink:href="#m2d904c3da3" y="271.949965714"/>
     <use style="fill:#4c72b0;fill-opacity:0.8;" x="149.241699592" xlink:href="#m2d904c3da3" y="254.690742857"/>
     <use style="fill:#4c72b0;fill-opacity:0.8;" x="184.912463061" xlink:href="#m2d904c3da3" y="227.987794286"/>
     <use style="fill:#4c72b0;fill-opacity:0.8;" x="212.656390204" xlink:href="#m2d904c3da3" y="237.757165714"/>
     <use style="fill:#4c72b0;fill-opacity:0.8;" x="165.095372245" xlink:href="#m2d904c3da3" y="258.372195254"/>
     <use style="fill:#4c72b0;fill-opacity:0.8;" x="173.022208571" xlink:href="#m2d904c3da3" y="237.757165714"/>
     <use style="fill:#4c72b0;fill-opacity:0.8;" x="204.729553878" xlink:href="#m2d904c3da3" y="203.564365714"/>
     <use style="fill:#4c72b0;fill-opacity:0.8;" x="188.875881224" xlink:href="#m2d904c3da3" y="181.541884358"/>
     <use style="fill:#4c72b0;fill-opacity:0.8;" x="165.095372245" xlink:href="#m2d904c3da3" y="258.372195254"/>
     <use style="fill:#4c72b0;fill-opacity:0.8;" x="173.022208571" xlink:href="#m2d904c3da3" y="251.211475489"/>
     <use style="fill:#4c72b0;fill-opacity:0.8;" x="149.241699592" xlink:href="#m2d904c3da3" y="152.730517772"/>
     <use style="fill:#4c72b0;fill-opacity:0.8;" x="153.205117755" xlink:href="#m2d904c3da3" y="186.343778789"/>
     <use style="fill:#4c72b0;fill-opacity:0.8;" x="157.168535918" xlink:href="#m2d904c3da3" y="210.353250944"/>
     <use style="fill:#4c72b0;fill-opacity:0.8;" x="149.241699592" xlink:href="#m2d904c3da3" y="191.56689203"/>
     <use style="fill:#4c72b0;fill-opacity:0.8;" x="196.802717551" xlink:href="#m2d904c3da3" y="247.526537143"/>
     <use style="fill:#4c72b0;fill-opacity:0.8;" x="129.424608776" xlink:href="#m2d904c3da3" y="186.343778789"/>
     <use style="fill:#4c72b0;fill-opacity:0.8;" x="149.241699592" xlink:href="#m2d904c3da3" y="219.957039806"/>
     <use style="fill:#4c72b0;fill-opacity:0.8;" x="153.205117755" xlink:href="#m2d904c3da3" y="171.685364211"/>
     <use style="fill:#4c72b0;fill-opacity:0.8;" x="192.839299388" xlink:href="#m2d904c3da3" y="235.803291429"/>
     <use style="fill:#4c72b0;fill-opacity:0.8;" x="176.985626735" xlink:href="#m2d904c3da3" y="221.637702857"/>
     <use style="fill:#4c72b0;fill-opacity:0.8;" x="173.022208571" xlink:href="#m2d904c3da3" y="208.449051429"/>
     <use style="fill:#4c72b0;fill-opacity:0.8;" x="200.766135714" xlink:href="#m2d904c3da3" y="229.560828668"/>
     <use style="fill:#4c72b0;fill-opacity:0.8;" x="153.205117755" xlink:href="#m2d904c3da3" y="207.472114286"/>
     <use style="fill:#4c72b0;fill-opacity:0.8;" x="145.278281429" xlink:href="#m2d904c3da3" y="198.028388571"/>
     <use style="fill:#4c72b0;fill-opacity:0.8;" x="173.022208571" xlink:href="#m2d904c3da3" y="216.91584"/>
     <use style="fill:#4c72b0;fill-opacity:0.8;" x="188.875881224" xlink:href="#m2d904c3da3" y="186.343778789"/>
     <use style="fill:#4c72b0;fill-opacity:0.8;" x="169.058790408" xlink:href="#m2d904c3da3" y="218.218422857"/>
     <use style="fill:#4c72b0;fill-opacity:0.8;" x="165.095372245" xlink:href="#m2d904c3da3" y="183.8628"/>
     <use style="fill:#4c72b0;fill-opacity:0.8;" x="141.314863265" xlink:href="#m2d904c3da3" y="196.537273985"/>
     <use style="fill:#4c72b0;fill-opacity:0.8;" x="204.729553878" xlink:href="#m2d904c3da3" y="186.343778789"/>
     <use style="fill:#4c72b0;fill-opacity:0.8;" x="188.875881224" xlink:href="#m2d904c3da3" y="169.371565714"/>
     <use style="fill:#4c72b0;fill-opacity:0.8;" x="165.095372245" xlink:href="#m2d904c3da3" y="221.389183759"/>
     <use style="fill:#4c72b0;fill-opacity:0.8;" x="141.314863265" xlink:href="#m2d904c3da3" y="184.025622857"/>
     <use style="fill:#4c72b0;fill-opacity:0.8;" x="141.314863265" xlink:href="#m2d904c3da3" y="245.247017143"/>
     <use style="fill:#4c72b0;fill-opacity:0.8;" x="165.095372245" xlink:href="#m2d904c3da3" y="205.551356513"/>
     <use style="fill:#4c72b0;fill-opacity:0.8;" x="184.912463061" xlink:href="#m2d904c3da3" y="188.910308571"/>
     <use style="fill:#4c72b0;fill-opacity:0.8;" x="165.095372245" xlink:href="#m2d904c3da3" y="223.103108571"/>
     <use style="fill:#4c72b0;fill-opacity:0.8;" x="149.241699592" xlink:href="#m2d904c3da3" y="221.389183759"/>
     <use style="fill:#4c72b0;fill-opacity:0.8;" x="224.546644694" xlink:href="#m2d904c3da3" y="215.155145375"/>
     <use style="fill:#4c72b0;fill-opacity:0.8;" x="149.241699592" xlink:href="#m2d904c3da3" y="169.371565714"/>
     <use style="fill:#4c72b0;fill-opacity:0.8;" x="212.656390204" xlink:href="#m2d904c3da3" y="215.155145375"/>
     <use style="fill:#4c72b0;fill-opacity:0.8;" x="145.278281429" xlink:href="#m2d904c3da3" y="186.343778789"/>
     <use style="fill:#4c72b0;fill-opacity:0.8;" x="157.168535918" xlink:href="#m2d904c3da3" y="184.025622857"/>
     <use style="fill:#4c72b0;fill-opacity:0.8;" x="173.022208571" xlink:href="#m2d904c3da3" y="206.478037895"/>
     <use style="fill:#4c72b0;fill-opacity:0.8;" x="173.022208571" xlink:href="#m2d904c3da3" y="181.541884358"/>
     <use style="fill:#4c72b0;fill-opacity:0.8;" x="141.314863265" xlink:href="#m2d904c3da3" y="200.749462082"/>
     <use style="fill:#4c72b0;fill-opacity:0.8;" x="212.656390204" xlink:href="#m2d904c3da3" y="271.949965714"/>
     <use style="fill:#4c72b0;fill-opacity:0.8;" x="153.205117755" xlink:href="#m2d904c3da3" y="183.8628"/>
     <use style="fill:#4c72b0;fill-opacity:0.8;" x="236.436899184" xlink:href="#m2d904c3da3" y="262.180594286"/>
     <use style="fill:#4c72b0;fill-opacity:0.8;" x="180.949044898" xlink:href="#m2d904c3da3" y="239.16461753"/>
     <use style="fill:#4c72b0;fill-opacity:0.8;" x="137.351445102" xlink:href="#m2d904c3da3" y="239.16461753"/>
     <use style="fill:#4c72b0;fill-opacity:0.8;" x="145.278281429" xlink:href="#m2d904c3da3" y="198.67968"/>
     <use style="fill:#4c72b0;fill-opacity:0.8;" x="149.241699592" xlink:href="#m2d904c3da3" y="188.584662857"/>
     <use style="fill:#4c72b0;fill-opacity:0.8;" x="149.241699592" xlink:href="#m2d904c3da3" y="257.295908571"/>
     <use style="fill:#4c72b0;fill-opacity:0.8;" x="173.022208571" xlink:href="#m2d904c3da3" y="232.87248"/>
     <use style="fill:#4c72b0;fill-opacity:0.8;" x="220.583226531" xlink:href="#m2d904c3da3" y="224.758934237"/>
     <use style="fill:#4c72b0;fill-opacity:0.8;" x="133.388026939" xlink:href="#m2d904c3da3" y="157.532412203"/>
     <use style="fill:#4c72b0;fill-opacity:0.8;" x="141.314863265" xlink:href="#m2d904c3da3" y="191.14567322"/>
     <use style="fill:#4c72b0;fill-opacity:0.8;" x="137.351445102" xlink:href="#m2d904c3da3" y="206.478037895"/>
     <use style="fill:#4c72b0;fill-opacity:0.8;" x="196.802717551" xlink:href="#m2d904c3da3" y="219.957039806"/>
     <use style="fill:#4c72b0;fill-opacity:0.8;" x="153.205117755" xlink:href="#m2d904c3da3" y="246.241093534"/>
     <use style="fill:#4c72b0;fill-opacity:0.8;" x="212.656390204" xlink:href="#m2d904c3da3" y="167.136201065"/>
     <use style="fill:#4c72b0;fill-opacity:0.8;" x="161.131954082" xlink:href="#m2d904c3da3" y="219.957039806"/>
     <use style="fill:#4c72b0;fill-opacity:0.8;" x="165.095372245" xlink:href="#m2d904c3da3" y="152.730517772"/>
     <use style="fill:#4c72b0;fill-opacity:0.8;" x="165.095372245" xlink:href="#m2d904c3da3" y="200.749462082"/>
     <use style="fill:#4c72b0;fill-opacity:0.8;" x="141.314863265" xlink:href="#m2d904c3da3" y="223.103108571"/>
     <use style="fill:#4c72b0;fill-opacity:0.8;" x="161.131954082" xlink:href="#m2d904c3da3" y="188.910308571"/>
     <use style="fill:#4c72b0;fill-opacity:0.8;" x="208.692972041" xlink:href="#m2d904c3da3" y="227.987794286"/>
     <use style="fill:#4c72b0;fill-opacity:0.8;" x="161.131954082" xlink:href="#m2d904c3da3" y="179.140937143"/>
     <use style="fill:#4c72b0;fill-opacity:0.8;" x="149.241699592" xlink:href="#m2d904c3da3" y="164.48688"/>
     <use style="fill:#4c72b0;fill-opacity:0.8;" x="173.022208571" xlink:href="#m2d904c3da3" y="164.48688"/>
     <use style="fill:#4c72b0;fill-opacity:0.8;" x="165.095372245" xlink:href="#m2d904c3da3" y="198.67968"/>
     <use style="fill:#4c72b0;fill-opacity:0.8;" x="157.168535918" xlink:href="#m2d904c3da3" y="257.295908571"/>
     <use style="fill:#4c72b0;fill-opacity:0.8;" x="141.314863265" xlink:href="#m2d904c3da3" y="188.910308571"/>
     <use style="fill:#4c72b0;fill-opacity:0.8;" x="184.912463061" xlink:href="#m2d904c3da3" y="198.67968"/>
     <use style="fill:#4c72b0;fill-opacity:0.8;" x="129.424608776" xlink:href="#m2d904c3da3" y="200.749462082"/>
     <use style="fill:#4c72b0;fill-opacity:0.8;" x="153.205117755" xlink:href="#m2d904c3da3" y="176.739989927"/>
     <use style="fill:#4c72b0;fill-opacity:0.8;" x="137.351445102" xlink:href="#m2d904c3da3" y="154.717508571"/>
     <use style="fill:#4c72b0;fill-opacity:0.8;" x="141.314863265" xlink:href="#m2d904c3da3" y="181.62612812"/>
     <use style="fill:#4c72b0;fill-opacity:0.8;" x="184.912463061" xlink:href="#m2d904c3da3" y="237.757165714"/>
     <use style="fill:#4c72b0;fill-opacity:0.8;" x="125.461190612" xlink:href="#m2d904c3da3" y="213.333737143"/>
     <use style="fill:#4c72b0;fill-opacity:0.8;" x="145.278281429" xlink:href="#m2d904c3da3" y="186.596510075"/>
     <use style="fill:#4c72b0;fill-opacity:0.8;" x="196.802717551" xlink:href="#m2d904c3da3" y="188.910308571"/>
     <use style="fill:#4c72b0;fill-opacity:0.8;" x="153.205117755" xlink:href="#m2d904c3da3" y="195.947567651"/>
     <use style="fill:#4c72b0;fill-opacity:0.8;" x="165.095372245" xlink:href="#m2d904c3da3" y="171.938095496"/>
     <use style="fill:#4c72b0;fill-opacity:0.8;" x="153.205117755" xlink:href="#m2d904c3da3" y="181.541884358"/>
     <use style="fill:#4c72b0;fill-opacity:0.8;" x="220.583226531" xlink:href="#m2d904c3da3" y="179.140937143"/>
     <use style="fill:#4c72b0;fill-opacity:0.8;" x="165.095372245" xlink:href="#m2d904c3da3" y="179.140937143"/>
     <use style="fill:#4c72b0;fill-opacity:0.8;" x="149.241699592" xlink:href="#m2d904c3da3" y="210.353250944"/>
     <use style="fill:#4c72b0;fill-opacity:0.8;" x="165.095372245" xlink:href="#m2d904c3da3" y="200.749462082"/>
     <use style="fill:#4c72b0;fill-opacity:0.8;" x="192.839299388" xlink:href="#m2d904c3da3" y="210.353250944"/>
     <use style="fill:#4c72b0;fill-opacity:0.8;" x="180.949044898" xlink:href="#m2d904c3da3" y="171.938095496"/>
     <use style="fill:#4c72b0;fill-opacity:0.8;" x="133.388026939" xlink:href="#m2d904c3da3" y="203.564365714"/>
     <use style="fill:#4c72b0;fill-opacity:0.8;" x="165.095372245" xlink:href="#m2d904c3da3" y="208.449051429"/>
     <use style="fill:#4c72b0;fill-opacity:0.8;" x="145.278281429" xlink:href="#m2d904c3da3" y="167.136201065"/>
     <use style="fill:#4c72b0;fill-opacity:0.8;" x="180.949044898" xlink:href="#m2d904c3da3" y="171.938095496"/>
     <use style="fill:#4c72b0;fill-opacity:0.8;" x="272.107662653" xlink:href="#m2d904c3da3" y="223.103108571"/>
     <use style="fill:#4c72b0;fill-opacity:0.8;" x="173.022208571" xlink:href="#m2d904c3da3" y="200.749462082"/>
     <use style="fill:#4c72b0;fill-opacity:0.8;" x="169.058790408" xlink:href="#m2d904c3da3" y="276.834651429"/>
     <use style="fill:#4c72b0;fill-opacity:0.8;" x="212.656390204" xlink:href="#m2d904c3da3" y="213.333737143"/>
     <use style="fill:#4c72b0;fill-opacity:0.8;" x="161.131954082" xlink:href="#m2d904c3da3" y="226.359565714"/>
     <use style="fill:#4c72b0;fill-opacity:0.8;" x="192.839299388" xlink:href="#m2d904c3da3" y="174.256251429"/>
     <use style="fill:#4c72b0;fill-opacity:0.8;" x="188.875881224" xlink:href="#m2d904c3da3" y="227.987794286"/>
     <use style="fill:#4c72b0;fill-opacity:0.8;" x="212.656390204" xlink:href="#m2d904c3da3" y="218.218422857"/>
     <use style="fill:#4c72b0;fill-opacity:0.8;" x="188.875881224" xlink:href="#m2d904c3da3" y="195.947567651"/>
     <use style="fill:#4c72b0;fill-opacity:0.8;" x="165.095372245" xlink:href="#m2d904c3da3" y="239.16461753"/>
     <use style="fill:#4c72b0;fill-opacity:0.8;" x="224.546644694" xlink:href="#m2d904c3da3" y="171.938095496"/>
     <use style="fill:#4c72b0;fill-opacity:0.8;" x="260.217408163" xlink:href="#m2d904c3da3" y="162.334306634"/>
     <use style="fill:#4c72b0;fill-opacity:0.8;" x="153.205117755" xlink:href="#m2d904c3da3" y="210.353250944"/>
     <use style="fill:#4c72b0;fill-opacity:0.8;" x="184.912463061" xlink:href="#m2d904c3da3" y="196.537273985"/>
     <use style="fill:#4c72b0;fill-opacity:0.8;" x="153.205117755" xlink:href="#m2d904c3da3" y="201.50765594"/>
     <use style="fill:#4c72b0;fill-opacity:0.8;" x="180.949044898" xlink:href="#m2d904c3da3" y="218.218422857"/>
     <use style="fill:#4c72b0;fill-opacity:0.8;" x="176.985626735" xlink:href="#m2d904c3da3" y="219.957039806"/>
     <use style="fill:#4c72b0;fill-opacity:0.8;" x="180.949044898" xlink:href="#m2d904c3da3" y="162.334306634"/>
     <use style="fill:#4c72b0;fill-opacity:0.8;" x="212.656390204" xlink:href="#m2d904c3da3" y="181.541884358"/>
     <use style="fill:#4c72b0;fill-opacity:0.8;" x="204.729553878" xlink:href="#m2d904c3da3" y="186.343778789"/>
     <use style="fill:#4c72b0;fill-opacity:0.8;" x="173.022208571" xlink:href="#m2d904c3da3" y="196.537273985"/>
     <use style="fill:#4c72b0;fill-opacity:0.8;" x="200.766135714" xlink:href="#m2d904c3da3" y="210.353250944"/>
     <use style="fill:#4c72b0;fill-opacity:0.8;" x="173.022208571" xlink:href="#m2d904c3da3" y="208.449051429"/>
     <use style="fill:#4c72b0;fill-opacity:0.8;" x="196.802717551" xlink:href="#m2d904c3da3" y="160.253485714"/>
     <use style="fill:#4c72b0;fill-opacity:0.8;" x="228.510062857" xlink:href="#m2d904c3da3" y="202.750251429"/>
     <use style="fill:#4c72b0;fill-opacity:0.8;" x="161.131954082" xlink:href="#m2d904c3da3" y="215.155145375"/>
     <use style="fill:#4c72b0;fill-opacity:0.8;" x="157.168535918" xlink:href="#m2d904c3da3" y="208.449051429"/>
     <use style="fill:#4c72b0;fill-opacity:0.8;" x="153.205117755" xlink:href="#m2d904c3da3" y="252.411222857"/>
     <use style="fill:#4c72b0;fill-opacity:0.8;" x="113.570936122" xlink:href="#m2d904c3da3" y="186.343778789"/>
     <use style="fill:#4c72b0;fill-opacity:0.8;" x="188.875881224" xlink:href="#m2d904c3da3" y="252.411222857"/>
     <use style="fill:#4c72b0;fill-opacity:0.8;" x="173.022208571" xlink:href="#m2d904c3da3" y="144.948137143"/>
     <use style="fill:#4c72b0;fill-opacity:0.8;" x="192.839299388" xlink:href="#m2d904c3da3" y="221.389183759"/>
     <use style="fill:#4c72b0;fill-opacity:0.8;" x="161.131954082" xlink:href="#m2d904c3da3" y="234.362723099"/>
     <use style="fill:#4c72b0;fill-opacity:0.8;" x="180.949044898" xlink:href="#m2d904c3da3" y="213.333737143"/>
     <use style="fill:#4c72b0;fill-opacity:0.8;" x="169.058790408" xlink:href="#m2d904c3da3" y="188.910308571"/>
     <use style="fill:#4c72b0;fill-opacity:0.8;" x="180.949044898" xlink:href="#m2d904c3da3" y="164.975348571"/>
     <use style="fill:#4c72b0;fill-opacity:0.8;" x="149.241699592" xlink:href="#m2d904c3da3" y="184.025622857"/>
     <use style="fill:#4c72b0;fill-opacity:0.8;" x="204.729553878" xlink:href="#m2d904c3da3" y="205.551356513"/>
     <use style="fill:#4c72b0;fill-opacity:0.8;" x="149.241699592" xlink:href="#m2d904c3da3" y="169.371565714"/>
     <use style="fill:#4c72b0;fill-opacity:0.8;" x="145.278281429" xlink:href="#m2d904c3da3" y="181.62612812"/>
     <use style="fill:#4c72b0;fill-opacity:0.8;" x="196.802717551" xlink:href="#m2d904c3da3" y="205.551356513"/>
     <use style="fill:#4c72b0;fill-opacity:0.8;" x="184.912463061" xlink:href="#m2d904c3da3" y="231.329947669"/>
     <use style="fill:#4c72b0;fill-opacity:0.8;" x="133.388026939" xlink:href="#m2d904c3da3" y="171.938095496"/>
     <use style="fill:#4c72b0;fill-opacity:0.8;" x="200.766135714" xlink:href="#m2d904c3da3" y="219.957039806"/>
     <use style="fill:#4c72b0;fill-opacity:0.8;" x="141.314863265" xlink:href="#m2d904c3da3" y="207.472114286"/>
     <use style="fill:#4c72b0;fill-opacity:0.8;" x="204.729553878" xlink:href="#m2d904c3da3" y="147.928623341"/>
     <use style="fill:#4c72b0;fill-opacity:0.8;" x="133.388026939" xlink:href="#m2d904c3da3" y="200.749462082"/>
     <use style="fill:#4c72b0;fill-opacity:0.8;" x="125.461190612" xlink:href="#m2d904c3da3" y="188.584662857"/>
     <use style="fill:#4c72b0;fill-opacity:0.8;" x="228.510062857" xlink:href="#m2d904c3da3" y="193.306525714"/>
     <use style="fill:#4c72b0;fill-opacity:0.8;" x="252.290571837" xlink:href="#m2d904c3da3" y="179.140937143"/>
     <use style="fill:#4c72b0;fill-opacity:0.8;" x="184.912463061" xlink:href="#m2d904c3da3" y="198.67968"/>
     <use style="fill:#4c72b0;fill-opacity:0.8;" x="169.058790408" xlink:href="#m2d904c3da3" y="202.750251429"/>
     <use style="fill:#4c72b0;fill-opacity:0.8;" x="141.314863265" xlink:href="#m2d904c3da3" y="154.717508571"/>
     <use style="fill:#4c72b0;fill-opacity:0.8;" x="169.058790408" xlink:href="#m2d904c3da3" y="171.685364211"/>
     <use style="fill:#4c72b0;fill-opacity:0.8;" x="176.985626735" xlink:href="#m2d904c3da3" y="224.758934237"/>
     <use style="fill:#4c72b0;fill-opacity:0.8;" x="153.205117755" xlink:href="#m2d904c3da3" y="174.256251429"/>
     <use style="fill:#4c72b0;fill-opacity:0.8;" x="161.131954082" xlink:href="#m2d904c3da3" y="219.957039806"/>
     <use style="fill:#4c72b0;fill-opacity:0.8;" x="173.022208571" xlink:href="#m2d904c3da3" y="174.419074286"/>
     <use style="fill:#4c72b0;fill-opacity:0.8;" x="176.985626735" xlink:href="#m2d904c3da3" y="195.947567651"/>
     <use style="fill:#4c72b0;fill-opacity:0.8;" x="176.985626735" xlink:href="#m2d904c3da3" y="200.749462082"/>
     <use style="fill:#4c72b0;fill-opacity:0.8;" x="204.729553878" xlink:href="#m2d904c3da3" y="247.526537143"/>
     <use style="fill:#4c72b0;fill-opacity:0.8;" x="165.095372245" xlink:href="#m2d904c3da3" y="229.560828668"/>
     <use style="fill:#4c72b0;fill-opacity:0.8;" x="176.985626735" xlink:href="#m2d904c3da3" y="179.140937143"/>
     <use style="fill:#4c72b0;fill-opacity:0.8;" x="145.278281429" xlink:href="#m2d904c3da3" y="188.584662857"/>
     <use style="fill:#4c72b0;fill-opacity:0.8;" x="157.168535918" xlink:href="#m2d904c3da3" y="208.449051429"/>
     <use style="fill:#4c72b0;fill-opacity:0.8;" x="180.949044898" xlink:href="#m2d904c3da3" y="206.478037895"/>
     <use style="fill:#4c72b0;fill-opacity:0.8;" x="161.131954082" xlink:href="#m2d904c3da3" y="248.768406392"/>
     <use style="fill:#4c72b0;fill-opacity:0.8;" x="200.766135714" xlink:href="#m2d904c3da3" y="296.373394286"/>
     <use style="fill:#4c72b0;fill-opacity:0.8;" x="180.949044898" xlink:href="#m2d904c3da3" y="184.025622857"/>
     <use style="fill:#4c72b0;fill-opacity:0.8;" x="129.424608776" xlink:href="#m2d904c3da3" y="179.140937143"/>
     <use style="fill:#4c72b0;fill-opacity:0.8;" x="161.131954082" xlink:href="#m2d904c3da3" y="186.596510075"/>
     <use style="fill:#4c72b0;fill-opacity:0.8;" x="173.022208571" xlink:href="#m2d904c3da3" y="176.739989927"/>
     <use style="fill:#4c72b0;fill-opacity:0.8;" x="169.058790408" xlink:href="#m2d904c3da3" y="181.541884358"/>
     <use style="fill:#4c72b0;fill-opacity:0.8;" x="149.241699592" xlink:href="#m2d904c3da3" y="191.56689203"/>
     <use style="fill:#4c72b0;fill-opacity:0.8;" x="153.205117755" xlink:href="#m2d904c3da3" y="193.794994286"/>
     <use style="fill:#4c72b0;fill-opacity:0.8;" x="184.912463061" xlink:href="#m2d904c3da3" y="144.948137143"/>
     <use style="fill:#4c72b0;fill-opacity:0.8;" x="149.241699592" xlink:href="#m2d904c3da3" y="181.541884358"/>
     <use style="fill:#4c72b0;fill-opacity:0.8;" x="180.949044898" xlink:href="#m2d904c3da3" y="223.103108571"/>
     <use style="fill:#4c72b0;fill-opacity:0.8;" x="180.949044898" xlink:href="#m2d904c3da3" y="167.136201065"/>
     <use style="fill:#4c72b0;fill-opacity:0.8;" x="184.912463061" xlink:href="#m2d904c3da3" y="221.389183759"/>
     <use style="fill:#4c72b0;fill-opacity:0.8;" x="161.131954082" xlink:href="#m2d904c3da3" y="194.88048"/>
     <use style="fill:#4c72b0;fill-opacity:0.8;" x="208.692972041" xlink:href="#m2d904c3da3" y="221.389183759"/>
     <use style="fill:#4c72b0;fill-opacity:0.8;" x="196.802717551" xlink:href="#m2d904c3da3" y="227.987794286"/>
     <use style="fill:#4c72b0;fill-opacity:0.8;" x="180.949044898" xlink:href="#m2d904c3da3" y="164.975348571"/>
     <use style="fill:#4c72b0;fill-opacity:0.8;" x="204.729553878" xlink:href="#m2d904c3da3" y="224.758934237"/>
     <use style="fill:#4c72b0;fill-opacity:0.8;" x="208.692972041" xlink:href="#m2d904c3da3" y="292.465645714"/>
     <use style="fill:#4c72b0;fill-opacity:0.8;" x="141.314863265" xlink:href="#m2d904c3da3" y="188.910308571"/>
     <use style="fill:#4c72b0;fill-opacity:0.8;" x="208.692972041" xlink:href="#m2d904c3da3" y="149.832822857"/>
     <use style="fill:#4c72b0;fill-opacity:0.8;" x="149.241699592" xlink:href="#m2d904c3da3" y="203.564365714"/>
     <use style="fill:#4c72b0;fill-opacity:0.8;" x="176.985626735" xlink:href="#m2d904c3da3" y="213.333737143"/>
     <use style="fill:#4c72b0;fill-opacity:0.8;" x="157.168535918" xlink:href="#m2d904c3da3" y="226.359565714"/>
     <use style="fill:#4c72b0;fill-opacity:0.8;" x="129.424608776" xlink:href="#m2d904c3da3" y="198.67968"/>
     <use style="fill:#4c72b0;fill-opacity:0.8;" x="216.619808367" xlink:href="#m2d904c3da3" y="186.343778789"/>
     <use style="fill:#4c72b0;fill-opacity:0.8;" x="176.985626735" xlink:href="#m2d904c3da3" y="247.526537143"/>
     <use style="fill:#4c72b0;fill-opacity:0.8;" x="161.131954082" xlink:href="#m2d904c3da3" y="205.551356513"/>
     <use style="fill:#4c72b0;fill-opacity:0.8;" x="176.985626735" xlink:href="#m2d904c3da3" y="193.794994286"/>
     <use style="fill:#4c72b0;fill-opacity:0.8;" x="200.766135714" xlink:href="#m2d904c3da3" y="186.343778789"/>
     <use style="fill:#4c72b0;fill-opacity:0.8;" x="141.314863265" xlink:href="#m2d904c3da3" y="213.333737143"/>
     <use style="fill:#4c72b0;fill-opacity:0.8;" x="196.802717551" xlink:href="#m2d904c3da3" y="242.641851429"/>
     <use style="fill:#4c72b0;fill-opacity:0.8;" x="133.388026939" xlink:href="#m2d904c3da3" y="205.551356513"/>
     <use style="fill:#4c72b0;fill-opacity:0.8;" x="157.168535918" xlink:href="#m2d904c3da3" y="195.947567651"/>
     <use style="fill:#4c72b0;fill-opacity:0.8;" x="149.241699592" xlink:href="#m2d904c3da3" y="188.584662857"/>
     <use style="fill:#4c72b0;fill-opacity:0.8;" x="153.205117755" xlink:href="#m2d904c3da3" y="202.750251429"/>
     <use style="fill:#4c72b0;fill-opacity:0.8;" x="200.766135714" xlink:href="#m2d904c3da3" y="164.48688"/>
     <use style="fill:#4c72b0;fill-opacity:0.8;" x="133.388026939" xlink:href="#m2d904c3da3" y="179.140937143"/>
     <use style="fill:#4c72b0;fill-opacity:0.8;" x="180.949044898" xlink:href="#m2d904c3da3" y="208.449051429"/>
     <use style="fill:#4c72b0;fill-opacity:0.8;" x="137.351445102" xlink:href="#m2d904c3da3" y="223.103108571"/>
     <use style="fill:#4c72b0;fill-opacity:0.8;" x="192.839299388" xlink:href="#m2d904c3da3" y="184.025622857"/>
     <use style="fill:#4c72b0;fill-opacity:0.8;" x="161.131954082" xlink:href="#m2d904c3da3" y="203.564365714"/>
     <use style="fill:#4c72b0;fill-opacity:0.8;" x="141.314863265" xlink:href="#m2d904c3da3" y="208.449051429"/>
     <use style="fill:#4c72b0;fill-opacity:0.8;" x="216.619808367" xlink:href="#m2d904c3da3" y="196.537273985"/>
     <use style="fill:#4c72b0;fill-opacity:0.8;" x="169.058790408" xlink:href="#m2d904c3da3" y="196.537273985"/>
     <use style="fill:#4c72b0;fill-opacity:0.8;" x="125.461190612" xlink:href="#m2d904c3da3" y="171.938095496"/>
     <use style="fill:#4c72b0;fill-opacity:0.8;" x="196.802717551" xlink:href="#m2d904c3da3" y="181.541884358"/>
     <use style="fill:#4c72b0;fill-opacity:0.8;" x="180.949044898" xlink:href="#m2d904c3da3" y="206.478037895"/>
     <use style="fill:#4c72b0;fill-opacity:0.8;" x="204.729553878" xlink:href="#m2d904c3da3" y="186.343778789"/>
     <use style="fill:#4c72b0;fill-opacity:0.8;" x="141.314863265" xlink:href="#m2d904c3da3" y="167.136201065"/>
     <use style="fill:#4c72b0;fill-opacity:0.8;" x="149.241699592" xlink:href="#m2d904c3da3" y="232.87248"/>
     <use style="fill:#4c72b0;fill-opacity:0.8;" x="133.388026939" xlink:href="#m2d904c3da3" y="147.928623341"/>
     <use style="fill:#4c72b0;fill-opacity:0.8;" x="169.058790408" xlink:href="#m2d904c3da3" y="215.155145375"/>
     <use style="fill:#4c72b0;fill-opacity:0.8;" x="180.949044898" xlink:href="#m2d904c3da3" y="203.564365714"/>
     <use style="fill:#4c72b0;fill-opacity:0.8;" x="157.168535918" xlink:href="#m2d904c3da3" y="211.44841985"/>
     <use style="fill:#4c72b0;fill-opacity:0.8;" x="161.131954082" xlink:href="#m2d904c3da3" y="243.966511961"/>
     <use style="fill:#4c72b0;fill-opacity:0.8;" x="157.168535918" xlink:href="#m2d904c3da3" y="171.938095496"/>
     <use style="fill:#4c72b0;fill-opacity:0.8;" x="137.351445102" xlink:href="#m2d904c3da3" y="167.136201065"/>
     <use style="fill:#4c72b0;fill-opacity:0.8;" x="157.168535918" xlink:href="#m2d904c3da3" y="133.522940048"/>
     <use style="fill:#4c72b0;fill-opacity:0.8;" x="165.095372245" xlink:href="#m2d904c3da3" y="191.14567322"/>
     <use style="fill:#4c72b0;fill-opacity:0.8;" x="176.985626735" xlink:href="#m2d904c3da3" y="195.947567651"/>
     <use style="fill:#4c72b0;fill-opacity:0.8;" x="184.912463061" xlink:href="#m2d904c3da3" y="184.025622857"/>
     <use style="fill:#4c72b0;fill-opacity:0.8;" x="153.205117755" xlink:href="#m2d904c3da3" y="203.564365714"/>
     <use style="fill:#4c72b0;fill-opacity:0.8;" x="149.241699592" xlink:href="#m2d904c3da3" y="159.602194286"/>
     <use style="fill:#4c72b0;fill-opacity:0.8;" x="176.985626735" xlink:href="#m2d904c3da3" y="226.359565714"/>
     <use style="fill:#4c72b0;fill-opacity:0.8;" x="161.131954082" xlink:href="#m2d904c3da3" y="167.136201065"/>
     <use style="fill:#4c72b0;fill-opacity:0.8;" x="220.583226531" xlink:href="#m2d904c3da3" y="215.155145375"/>
     <use style="fill:#4c72b0;fill-opacity:0.8;" x="192.839299388" xlink:href="#m2d904c3da3" y="171.685364211"/>
     <use style="fill:#4c72b0;fill-opacity:0.8;" x="153.205117755" xlink:href="#m2d904c3da3" y="176.739989927"/>
     <use style="fill:#4c72b0;fill-opacity:0.8;" x="149.241699592" xlink:href="#m2d904c3da3" y="219.957039806"/>
     <use style="fill:#4c72b0;fill-opacity:0.8;" x="188.875881224" xlink:href="#m2d904c3da3" y="191.56689203"/>
     <use style="fill:#4c72b0;fill-opacity:0.8;" x="157.168535918" xlink:href="#m2d904c3da3" y="208.449051429"/>
     <use style="fill:#4c72b0;fill-opacity:0.8;" x="184.912463061" xlink:href="#m2d904c3da3" y="213.333737143"/>
     <use style="fill:#4c72b0;fill-opacity:0.8;" x="133.388026939" xlink:href="#m2d904c3da3" y="263.174089685"/>
     <use style="fill:#4c72b0;fill-opacity:0.8;" x="149.241699592" xlink:href="#m2d904c3da3" y="190.037543736"/>
     <use style="fill:#4c72b0;fill-opacity:0.8;" x="145.278281429" xlink:href="#m2d904c3da3" y="224.758934237"/>
     <use style="fill:#4c72b0;fill-opacity:0.8;" x="153.205117755" xlink:href="#m2d904c3da3" y="184.025622857"/>
     <use style="fill:#4c72b0;fill-opacity:0.8;" x="196.802717551" xlink:href="#m2d904c3da3" y="218.218422857"/>
     <use style="fill:#4c72b0;fill-opacity:0.8;" x="180.949044898" xlink:href="#m2d904c3da3" y="203.564365714"/>
     <use style="fill:#4c72b0;fill-opacity:0.8;" x="184.912463061" xlink:href="#m2d904c3da3" y="184.025622857"/>
     <use style="fill:#4c72b0;fill-opacity:0.8;" x="176.985626735" xlink:href="#m2d904c3da3" y="136.892690526"/>
     <use style="fill:#4c72b0;fill-opacity:0.8;" x="133.388026939" xlink:href="#m2d904c3da3" y="211.44841985"/>
     <use style="fill:#4c72b0;fill-opacity:0.8;" x="180.949044898" xlink:href="#m2d904c3da3" y="179.140937143"/>
     <use style="fill:#4c72b0;fill-opacity:0.8;" x="192.839299388" xlink:href="#m2d904c3da3" y="231.081428571"/>
     <use style="fill:#4c72b0;fill-opacity:0.8;" x="184.912463061" xlink:href="#m2d904c3da3" y="232.87248"/>
     <use style="fill:#4c72b0;fill-opacity:0.8;" x="200.766135714" xlink:href="#m2d904c3da3" y="213.333737143"/>
     <use style="fill:#4c72b0;fill-opacity:0.8;" x="161.131954082" xlink:href="#m2d904c3da3" y="181.62612812"/>
     <use style="fill:#4c72b0;fill-opacity:0.8;" x="169.058790408" xlink:href="#m2d904c3da3" y="234.362723099"/>
     <use style="fill:#4c72b0;fill-opacity:0.8;" x="200.766135714" xlink:href="#m2d904c3da3" y="169.371565714"/>
     <use style="fill:#4c72b0;fill-opacity:0.8;" x="188.875881224" xlink:href="#m2d904c3da3" y="258.372195254"/>
     <use style="fill:#4c72b0;fill-opacity:0.8;" x="176.985626735" xlink:href="#m2d904c3da3" y="198.67968"/>
     <use style="fill:#4c72b0;fill-opacity:0.8;" x="133.388026939" xlink:href="#m2d904c3da3" y="130.29408"/>
     <use style="fill:#4c72b0;fill-opacity:0.8;" x="137.351445102" xlink:href="#m2d904c3da3" y="210.353250944"/>
     <use style="fill:#4c72b0;fill-opacity:0.8;" x="184.912463061" xlink:href="#m2d904c3da3" y="248.768406392"/>
     <use style="fill:#4c72b0;fill-opacity:0.8;" x="212.656390204" xlink:href="#m2d904c3da3" y="232.87248"/>
     <use style="fill:#4c72b0;fill-opacity:0.8;" x="196.802717551" xlink:href="#m2d904c3da3" y="224.758934237"/>
     <use style="fill:#4c72b0;fill-opacity:0.8;" x="153.205117755" xlink:href="#m2d904c3da3" y="239.16461753"/>
     <use style="fill:#4c72b0;fill-opacity:0.8;" x="180.949044898" xlink:href="#m2d904c3da3" y="257.295908571"/>
     <use style="fill:#4c72b0;fill-opacity:0.8;" x="149.241699592" xlink:href="#m2d904c3da3" y="188.910308571"/>
     <use style="fill:#4c72b0;fill-opacity:0.8;" x="169.058790408" xlink:href="#m2d904c3da3" y="202.750251429"/>
    </g>
   </g>
   <g id="PolyCollection_1">
    <defs>
     <path d="M 62.0465 -229.026504 
L 62.0465 -199.062186 
L 64.848917 -199.140545 
L 67.651334 -199.249906 
L 70.453751 -199.36032 
L 73.256168 -199.470735 
L 76.058584 -199.581149 
L 78.861001 -199.613461 
L 81.663418 -199.612184 
L 84.465835 -199.610908 
L 87.268252 -199.609631 
L 90.070669 -199.608354 
L 92.873086 -199.607078 
L 95.675503 -199.603748 
L 98.477919 -199.601393 
L 101.280336 -199.597062 
L 104.082753 -199.637056 
L 106.88517 -199.793134 
L 109.687587 -199.83731 
L 112.490004 -199.73497 
L 115.292421 -199.743678 
L 118.094838 -199.818576 
L 120.897255 -199.931801 
L 123.699671 -199.900117 
L 126.502088 -199.848301 
L 129.304505 -199.873226 
L 132.106922 -199.961943 
L 134.909339 -200.051824 
L 137.711756 -200.034125 
L 140.514173 -199.984278 
L 143.31659 -199.999776 
L 146.119006 -199.978132 
L 148.921423 -199.92621 
L 151.72384 -199.781587 
L 154.526257 -199.556552 
L 157.328674 -199.545429 
L 160.131091 -199.515696 
L 162.933508 -199.294387 
L 165.735925 -199.033069 
L 168.538342 -198.714041 
L 171.340758 -198.468805 
L 174.143175 -198.152008 
L 176.945592 -197.857807 
L 179.748009 -197.453478 
L 182.550426 -197.072203 
L 185.352843 -196.574148 
L 188.15526 -195.9933 
L 190.957677 -195.40492 
L 193.760094 -194.775118 
L 196.56251 -194.256342 
L 199.364927 -193.593744 
L 202.167344 -193.099316 
L 204.969761 -192.413328 
L 207.772178 -191.734929 
L 210.574595 -191.044336 
L 213.377012 -190.353743 
L 216.179429 -189.79402 
L 218.981845 -189.108666 
L 221.784262 -188.423762 
L 224.586679 -187.82701 
L 227.389096 -187.168668 
L 230.191513 -186.510749 
L 232.99393 -185.824426 
L 235.796347 -185.089783 
L 238.598764 -184.413154 
L 241.401181 -183.755985 
L 244.203597 -183.101033 
L 247.006014 -182.44547 
L 249.808431 -181.784764 
L 252.610848 -181.103012 
L 255.413265 -180.395224 
L 258.215682 -179.687563 
L 261.018099 -179.011873 
L 263.820516 -178.311433 
L 266.622932 -177.68445 
L 269.425349 -177.020263 
L 272.227766 -176.356621 
L 275.030183 -175.693462 
L 277.8326 -175.00178 
L 280.635017 -174.310097 
L 283.437434 -173.618415 
L 286.239851 -172.926732 
L 289.042268 -172.23505 
L 291.844684 -171.543367 
L 294.647101 -170.861788 
L 297.449518 -170.215077 
L 300.251935 -169.568405 
L 303.054352 -168.910325 
L 305.856769 -168.19371 
L 308.659186 -167.454239 
L 311.461603 -166.72541 
L 314.264019 -166.004801 
L 317.066436 -165.311507 
L 319.868853 -164.618213 
L 322.67127 -163.924919 
L 325.473687 -163.233517 
L 328.276104 -162.542385 
L 331.078521 -161.874622 
L 333.880938 -161.231339 
L 336.683355 -160.588057 
L 339.485771 -159.944774 
L 339.485771 -206.933258 
L 339.485771 -206.933258 
L 336.683355 -206.87725 
L 333.880938 -206.821242 
L 331.078521 -206.765234 
L 328.276104 -206.709226 
L 325.473687 -206.653218 
L 322.67127 -206.59721 
L 319.868853 -206.541118 
L 317.066436 -206.484202 
L 314.264019 -206.42682 
L 311.461603 -206.369296 
L 308.659186 -206.311772 
L 305.856769 -206.206238 
L 303.054352 -206.081963 
L 300.251935 -205.95666 
L 297.449518 -205.831358 
L 294.647101 -205.748959 
L 291.844684 -205.700077 
L 289.042268 -205.651194 
L 286.239851 -205.585917 
L 283.437434 -205.485682 
L 280.635017 -205.403405 
L 277.8326 -205.343171 
L 275.030183 -205.282937 
L 272.227766 -205.190276 
L 269.425349 -205.16452 
L 266.622932 -205.106354 
L 263.820516 -205.048187 
L 261.018099 -204.990021 
L 258.215682 -204.931855 
L 255.413265 -204.87314 
L 252.610848 -204.814086 
L 249.808431 -204.753845 
L 247.006014 -204.693603 
L 244.203597 -204.633362 
L 241.401181 -204.57312 
L 238.598764 -204.543575 
L 235.796347 -204.575616 
L 232.99393 -204.614517 
L 230.191513 -204.650985 
L 227.389096 -204.536642 
L 224.586679 -204.414335 
L 221.784262 -204.290544 
L 218.981845 -204.214178 
L 216.179429 -204.175136 
L 213.377012 -204.157981 
L 210.574595 -204.094163 
L 207.772178 -204.119611 
L 204.969761 -204.113077 
L 202.167344 -204.067619 
L 199.364927 -204.084679 
L 196.56251 -204.081956 
L 193.760094 -204.105027 
L 190.957677 -204.171512 
L 188.15526 -204.322757 
L 185.352843 -204.375304 
L 182.550426 -204.464328 
L 179.748009 -204.69394 
L 176.945592 -204.986124 
L 174.143175 -205.192753 
L 171.340758 -205.350208 
L 168.538342 -205.692043 
L 165.735925 -206.184894 
L 162.933508 -206.417845 
L 160.131091 -206.744513 
L 157.328674 -207.269096 
L 154.526257 -207.812327 
L 151.72384 -208.252835 
L 148.921423 -208.845993 
L 146.119006 -209.445714 
L 143.31659 -210.053057 
L 140.514173 -210.676412 
L 137.711756 -211.345732 
L 134.909339 -211.993347 
L 132.106922 -212.627097 
L 129.304505 -213.225785 
L 126.502088 -213.820618 
L 123.699671 -214.417379 
L 120.897255 -215.13422 
L 118.094838 -215.791099 
L 115.292421 -216.479757 
L 112.490004 -217.111626 
L 109.687587 -217.688403 
L 106.88517 -218.26417 
L 104.082753 -218.916951 
L 101.280336 -219.590849 
L 98.477919 -220.220392 
L 95.675503 -220.802657 
L 92.873086 -221.486439 
L 90.070669 -222.094468 
L 87.268252 -222.7473 
L 84.465835 -223.452755 
L 81.663418 -224.178206 
L 78.861001 -224.938134 
L 76.058584 -225.630961 
L 73.256168 -226.352524 
L 70.453751 -227.030075 
L 67.651334 -227.705837 
L 64.848917 -228.381279 
L 62.0465 -229.026504 
z
" id="m7f6937ce50" style="stroke:#000000;stroke-opacity:0.15;stroke-width:0.48;"/>
    </defs>
    <g clip-path="url(#p4dd56104e2)">
     <use style="fill:#4c72b0;fill-opacity:0.15;stroke:#000000;stroke-opacity:0.15;stroke-width:0.48;" x="0.0" xlink:href="#m7f6937ce50" y="403.8495"/>
    </g>
   </g>
   <g id="line2d_14">
    <path clip-path="url(#p4dd56104e2)" d="M 62.0465 189.854997 
L 64.848917 190.162888 
L 67.651334 190.470778 
L 70.453751 190.778669 
L 73.256168 191.08656 
L 76.058584 191.394451 
L 78.861001 191.702342 
L 81.663418 192.010233 
L 84.465835 192.318124 
L 87.268252 192.626014 
L 90.070669 192.933905 
L 92.873086 193.241796 
L 95.675503 193.549687 
L 98.477919 193.857578 
L 101.280336 194.165469 
L 104.082753 194.47336 
L 106.88517 194.781251 
L 109.687587 195.089141 
L 112.490004 195.397032 
L 115.292421 195.704923 
L 118.094838 196.012814 
L 120.897255 196.320705 
L 123.699671 196.628596 
L 126.502088 196.936487 
L 129.304505 197.244377 
L 132.106922 197.552268 
L 134.909339 197.860159 
L 137.711756 198.16805 
L 140.514173 198.475941 
L 143.31659 198.783832 
L 146.119006 199.091723 
L 148.921423 199.399613 
L 151.72384 199.707504 
L 154.526257 200.015395 
L 157.328674 200.323286 
L 160.131091 200.631177 
L 162.933508 200.939068 
L 165.735925 201.246959 
L 168.538342 201.55485 
L 171.340758 201.86274 
L 174.143175 202.170631 
L 176.945592 202.478522 
L 179.748009 202.786413 
L 182.550426 203.094304 
L 185.352843 203.402195 
L 188.15526 203.710086 
L 190.957677 204.017976 
L 193.760094 204.325867 
L 196.56251 204.633758 
L 199.364927 204.941649 
L 202.167344 205.24954 
L 204.969761 205.557431 
L 207.772178 205.865322 
L 210.574595 206.173212 
L 213.377012 206.481103 
L 216.179429 206.788994 
L 218.981845 207.096885 
L 221.784262 207.404776 
L 224.586679 207.712667 
L 227.389096 208.020558 
L 230.191513 208.328449 
L 232.99393 208.636339 
L 235.796347 208.94423 
L 238.598764 209.252121 
L 241.401181 209.560012 
L 244.203597 209.867903 
L 247.006014 210.175794 
L 249.808431 210.483685 
L 252.610848 210.791575 
L 255.413265 211.099466 
L 258.215682 211.407357 
L 261.018099 211.715248 
L 263.820516 212.023139 
L 266.622932 212.33103 
L 269.425349 212.638921 
L 272.227766 212.946812 
L 275.030183 213.254702 
L 277.8326 213.562593 
L 280.635017 213.870484 
L 283.437434 214.178375 
L 286.239851 214.486266 
L 289.042268 214.794157 
L 291.844684 215.102048 
L 294.647101 215.409938 
L 297.449518 215.717829 
L 300.251935 216.02572 
L 303.054352 216.333611 
L 305.856769 216.641502 
L 308.659186 216.949393 
L 311.461603 217.257284 
L 314.264019 217.565174 
L 317.066436 217.873065 
L 319.868853 218.180956 
L 322.67127 218.488847 
L 325.473687 218.796738 
L 328.276104 219.104629 
L 331.078521 219.41252 
L 333.880938 219.720411 
L 336.683355 220.028301 
L 339.485771 220.336192 
" style="fill:none;stroke:#4c72b0;stroke-linecap:round;stroke-width:4.2;"/>
   </g>
   <g id="patch_3">
    <path d="M 62.0465 349.128 
L 339.485771 349.128 
" style="fill:none;stroke:#262626;stroke-linecap:square;stroke-linejoin:miter;stroke-width:1.25;"/>
   </g>
   <g id="patch_4">
    <path d="M 62.0465 349.128 
L 62.0465 65.816229 
" style="fill:none;stroke:#262626;stroke-linecap:square;stroke-linejoin:miter;stroke-width:1.25;"/>
   </g>
   <g id="legend_1">
    <g id="line2d_15"/>
    <g id="line2d_16"/>
    <g id="text_16">
     <!-- pearsonr = -0.099; p = 0.098 -->
     <defs>
      <path d="M 51.421875 26.65625 
Q 51.421875 20.65625 50.4375 15.578125 
Q 49.46875 10.5 47.1875 6.828125 
Q 44.921875 3.171875 41.1875 1.09375 
Q 37.453125 -0.984375 31.984375 -0.984375 
Q 26.3125 -0.984375 22.0625 1.171875 
Q 17.828125 3.328125 15.578125 8.203125 
L 15.328125 8.203125 
Q 15.375 8.109375 15.40625 7.328125 
Q 15.4375 6.546875 15.453125 5.375 
Q 15.484375 4.203125 15.5 2.75 
Q 15.53125 1.3125 15.53125 -0.09375 
L 15.53125 -20.75 
L 6.734375 -20.75 
L 6.734375 42.046875 
Q 6.734375 43.953125 6.703125 45.703125 
Q 6.6875 47.46875 6.640625 48.90625 
Q 6.59375 50.34375 6.546875 51.359375 
Q 6.5 52.390625 6.453125 52.828125 
L 14.9375 52.828125 
Q 14.984375 52.6875 15.0625 51.796875 
Q 15.140625 50.921875 15.203125 49.671875 
Q 15.28125 48.4375 15.359375 47.015625 
Q 15.4375 45.609375 15.4375 44.34375 
L 15.625 44.34375 
Q 16.84375 46.875 18.40625 48.65625 
Q 19.96875 50.4375 21.96875 51.578125 
Q 23.96875 52.734375 26.4375 53.25 
Q 28.90625 53.765625 31.984375 53.765625 
Q 37.453125 53.765625 41.1875 51.8125 
Q 44.921875 49.859375 47.1875 46.3125 
Q 49.46875 42.78125 50.4375 37.765625 
Q 51.421875 32.765625 51.421875 26.65625 
M 42.1875 26.46875 
Q 42.1875 31.34375 41.59375 35.15625 
Q 41.015625 38.96875 39.578125 41.59375 
Q 38.140625 44.234375 35.734375 45.59375 
Q 33.34375 46.96875 29.734375 46.96875 
Q 26.8125 46.96875 24.21875 46.140625 
Q 21.625 45.3125 19.703125 42.96875 
Q 17.78125 40.625 16.65625 36.5 
Q 15.53125 32.375 15.53125 25.78125 
Q 15.53125 20.171875 16.453125 16.28125 
Q 17.390625 12.40625 19.171875 10.015625 
Q 20.953125 7.625 23.578125 6.5625 
Q 26.21875 5.515625 29.640625 5.515625 
Q 33.296875 5.515625 35.71875 6.921875 
Q 38.140625 8.34375 39.578125 11.03125 
Q 41.015625 13.71875 41.59375 17.59375 
Q 42.1875 21.484375 42.1875 26.46875 
" id="LiberationSans-70"/>
      <path d="M 18.796875 10.109375 
L 18.796875 2.484375 
Q 18.796875 -0.09375 18.578125 -2.21875 
Q 18.359375 -4.34375 17.875 -6.171875 
Q 17.390625 -8.015625 16.671875 -9.625 
Q 15.96875 -11.234375 14.984375 -12.796875 
L 8.984375 -12.796875 
Q 11.1875 -9.625 12.375 -6.390625 
Q 13.578125 -3.171875 13.578125 0 
L 9.28125 0 
L 9.28125 10.109375 
z
M 9.28125 42.71875 
L 9.28125 52.828125 
L 18.796875 52.828125 
L 18.796875 42.71875 
z
" id="LiberationSans-3b"/>
      <path d="M 4.4375 22.65625 
L 4.4375 30.46875 
L 28.859375 30.46875 
L 28.859375 22.65625 
z
" id="LiberationSans-2d"/>
      <path d="M 4.890625 41.796875 
L 4.890625 49.03125 
L 53.46875 49.03125 
L 53.46875 41.796875 
z
M 4.890625 16.796875 
L 4.890625 24.03125 
L 53.46875 24.03125 
L 53.46875 16.796875 
z
" id="LiberationSans-3d"/>
      <path d="M 50.875 35.796875 
Q 50.875 26.609375 49.140625 19.703125 
Q 47.40625 12.796875 44.1875 8.203125 
Q 40.96875 3.609375 36.34375 1.3125 
Q 31.734375 -0.984375 25.984375 -0.984375 
Q 22.015625 -0.984375 18.84375 -0.171875 
Q 15.671875 0.640625 13.171875 2.34375 
Q 10.6875 4.046875 8.921875 6.78125 
Q 7.171875 9.515625 6.109375 13.375 
L 14.5 14.703125 
Q 15.875 10.25 18.78125 8.171875 
Q 21.6875 6.109375 26.125 6.109375 
Q 29.6875 6.109375 32.640625 7.78125 
Q 35.59375 9.46875 37.671875 12.84375 
Q 39.75 16.21875 40.921875 21.296875 
Q 42.09375 26.375 42.1875 33.203125 
Q 41.15625 30.90625 39.375 29.09375 
Q 37.59375 27.296875 35.328125 26.046875 
Q 33.0625 24.8125 30.421875 24.140625 
Q 27.78125 23.484375 25.09375 23.484375 
Q 20.40625 23.484375 16.625 25.171875 
Q 12.84375 26.859375 10.203125 29.875 
Q 7.5625 32.90625 6.125 37.171875 
Q 4.6875 41.453125 4.6875 46.6875 
Q 4.6875 52 6.21875 56.296875 
Q 7.765625 60.59375 10.6875 63.59375 
Q 13.625 66.609375 17.890625 68.21875 
Q 22.171875 69.828125 27.59375 69.828125 
Q 39.0625 69.828125 44.96875 61.328125 
Q 50.875 52.828125 50.875 35.796875 
M 41.3125 44.28125 
Q 41.3125 48.09375 40.40625 51.453125 
Q 39.5 54.828125 37.71875 57.3125 
Q 35.9375 59.8125 33.328125 61.25 
Q 30.71875 62.703125 27.296875 62.703125 
Q 24.125 62.703125 21.578125 61.578125 
Q 19.046875 60.453125 17.28125 58.375 
Q 15.53125 56.296875 14.578125 53.3125 
Q 13.625 50.34375 13.625 46.6875 
Q 13.625 43.21875 14.46875 40.234375 
Q 15.328125 37.25 17.03125 35.078125 
Q 18.75 32.90625 21.28125 31.65625 
Q 23.828125 30.421875 27.203125 30.421875 
Q 29.640625 30.421875 32.15625 31.25 
Q 34.671875 32.078125 36.6875 33.78125 
Q 38.71875 35.5 40.015625 38.109375 
Q 41.3125 40.71875 41.3125 44.28125 
" id="LiberationSans-39"/>
      <path d="M 20.21875 -0.984375 
Q 12.25 -0.984375 8.25 3.21875 
Q 4.25 7.421875 4.25 14.75 
Q 4.25 19.96875 6.21875 23.3125 
Q 8.203125 26.65625 11.390625 28.5625 
Q 14.59375 30.46875 18.6875 31.203125 
Q 22.796875 31.9375 27.046875 32.03125 
L 38.921875 32.234375 
L 38.921875 35.109375 
Q 38.921875 38.375 38.234375 40.671875 
Q 37.546875 42.96875 36.125 44.375 
Q 34.71875 45.796875 32.59375 46.453125 
Q 30.46875 47.125 27.59375 47.125 
Q 25.046875 47.125 23 46.75 
Q 20.953125 46.390625 19.4375 45.4375 
Q 17.921875 44.484375 16.984375 42.84375 
Q 16.0625 41.21875 15.765625 38.71875 
L 6.59375 39.546875 
Q 7.078125 42.671875 8.4375 45.28125 
Q 9.8125 47.90625 12.328125 49.796875 
Q 14.84375 51.703125 18.625 52.75 
Q 22.40625 53.8125 27.78125 53.8125 
Q 37.75 53.8125 42.765625 49.234375 
Q 47.796875 44.671875 47.796875 36.03125 
L 47.796875 13.28125 
Q 47.796875 9.375 48.828125 7.390625 
Q 49.859375 5.421875 52.734375 5.421875 
Q 53.46875 5.421875 54.203125 5.515625 
Q 54.9375 5.609375 55.609375 5.765625 
L 55.609375 0.296875 
Q 53.953125 -0.09375 52.3125 -0.28125 
Q 50.6875 -0.484375 48.828125 -0.484375 
Q 46.34375 -0.484375 44.5625 0.171875 
Q 42.78125 0.828125 41.65625 2.171875 
Q 40.53125 3.515625 39.9375 5.484375 
Q 39.359375 7.46875 39.203125 10.109375 
L 38.921875 10.109375 
Q 37.5 7.5625 35.8125 5.515625 
Q 34.125 3.46875 31.875 2.03125 
Q 29.640625 0.59375 26.78125 -0.1875 
Q 23.921875 -0.984375 20.21875 -0.984375 
M 22.21875 5.609375 
Q 26.421875 5.609375 29.5625 7.140625 
Q 32.71875 8.6875 34.78125 11.078125 
Q 36.859375 13.484375 37.890625 16.3125 
Q 38.921875 19.140625 38.921875 21.734375 
L 38.921875 26.078125 
L 29.296875 25.875 
Q 26.078125 25.828125 23.171875 25.40625 
Q 20.265625 25 18.0625 23.78125 
Q 15.875 22.5625 14.578125 20.359375 
Q 13.28125 18.171875 13.28125 14.59375 
Q 13.28125 10.296875 15.59375 7.953125 
Q 17.921875 5.609375 22.21875 5.609375 
" id="LiberationSans-61"/>
     </defs>
     <g style="fill:#262626;" transform="translate(122.288271429 91.8112285714)scale(0.16 -0.16)">
      <use xlink:href="#LiberationSans-70"/>
      <use x="55.615234375" xlink:href="#LiberationSans-65"/>
      <use x="111.23046875" xlink:href="#LiberationSans-61"/>
      <use x="166.845703125" xlink:href="#LiberationSans-72"/>
      <use x="200.146484375" xlink:href="#LiberationSans-73"/>
      <use x="250.146484375" xlink:href="#LiberationSans-6f"/>
      <use x="305.76171875" xlink:href="#LiberationSans-6e"/>
      <use x="361.376953125" xlink:href="#LiberationSans-72"/>
      <use x="394.677734375" xlink:href="#LiberationSans-20"/>
      <use x="422.4609375" xlink:href="#LiberationSans-3d"/>
      <use x="480.859375" xlink:href="#LiberationSans-20"/>
      <use x="508.642578125" xlink:href="#LiberationSans-2d"/>
      <use x="541.943359375" xlink:href="#LiberationSans-30"/>
      <use x="597.55859375" xlink:href="#LiberationSans-2e"/>
      <use x="625.341796875" xlink:href="#LiberationSans-30"/>
      <use x="680.95703125" xlink:href="#LiberationSans-39"/>
      <use x="736.572265625" xlink:href="#LiberationSans-39"/>
      <use x="792.1875" xlink:href="#LiberationSans-3b"/>
      <use x="819.970703125" xlink:href="#LiberationSans-20"/>
      <use x="847.75390625" xlink:href="#LiberationSans-70"/>
      <use x="903.369140625" xlink:href="#LiberationSans-20"/>
      <use x="931.15234375" xlink:href="#LiberationSans-3d"/>
      <use x="989.55078125" xlink:href="#LiberationSans-20"/>
      <use x="1017.33398438" xlink:href="#LiberationSans-30"/>
      <use x="1072.94921875" xlink:href="#LiberationSans-2e"/>
      <use x="1100.73242188" xlink:href="#LiberationSans-30"/>
      <use x="1156.34765625" xlink:href="#LiberationSans-39"/>
      <use x="1211.96289062" xlink:href="#LiberationSans-38"/>
     </g>
    </g>
   </g>
  </g>
  <g id="axes_2">
   <g id="patch_5">
    <path d="M 62.0465 56.046857 
L 339.485771 56.046857 
L 339.485771 7.2 
L 62.0465 7.2 
z
" style="fill:#ffffff;"/>
   </g>
   <g id="matplotlib.axis_3">
    <g id="xtick_9">
     <g id="line2d_17">
      <g>
       <use style="fill:#262626;stroke:#262626;stroke-width:1.6;" x="62.0465" xlink:href="#m34e4c78b7e" y="56.0468571429"/>
      </g>
     </g>
    </g>
    <g id="xtick_10">
     <g id="line2d_18">
      <g>
       <use style="fill:#262626;stroke:#262626;stroke-width:1.6;" x="101.680681633" xlink:href="#m34e4c78b7e" y="56.0468571429"/>
      </g>
     </g>
    </g>
    <g id="xtick_11">
     <g id="line2d_19">
      <g>
       <use style="fill:#262626;stroke:#262626;stroke-width:1.6;" x="141.314863265" xlink:href="#m34e4c78b7e" y="56.0468571429"/>
      </g>
     </g>
    </g>
    <g id="xtick_12">
     <g id="line2d_20">
      <g>
       <use style="fill:#262626;stroke:#262626;stroke-width:1.6;" x="180.949044898" xlink:href="#m34e4c78b7e" y="56.0468571429"/>
      </g>
     </g>
    </g>
    <g id="xtick_13">
     <g id="line2d_21">
      <g>
       <use style="fill:#262626;stroke:#262626;stroke-width:1.6;" x="220.583226531" xlink:href="#m34e4c78b7e" y="56.0468571429"/>
      </g>
     </g>
    </g>
    <g id="xtick_14">
     <g id="line2d_22">
      <g>
       <use style="fill:#262626;stroke:#262626;stroke-width:1.6;" x="260.217408163" xlink:href="#m34e4c78b7e" y="56.0468571429"/>
      </g>
     </g>
    </g>
    <g id="xtick_15">
     <g id="line2d_23">
      <g>
       <use style="fill:#262626;stroke:#262626;stroke-width:1.6;" x="299.851589796" xlink:href="#m34e4c78b7e" y="56.0468571429"/>
      </g>
     </g>
    </g>
    <g id="xtick_16">
     <g id="line2d_24">
      <g>
       <use style="fill:#262626;stroke:#262626;stroke-width:1.6;" x="339.485771429" xlink:href="#m34e4c78b7e" y="56.0468571429"/>
      </g>
     </g>
    </g>
   </g>
   <g id="matplotlib.axis_4">
    <g id="ytick_6"/>
    <g id="ytick_7"/>
    <g id="ytick_8"/>
    <g id="ytick_9"/>
    <g id="ytick_10"/>
    <g id="ytick_11"/>
    <g id="ytick_12"/>
    <g id="ytick_13"/>
    <g id="ytick_14"/>
   </g>
   <g id="patch_6">
    <path clip-path="url(#p49e9970770)" d="M 113.570936 56.046857 
L 124.140051 56.046857 
L 124.140051 55.234908 
L 113.570936 55.234908 
z
" style="fill:#4c72b0;opacity:0.4;stroke:#000000;stroke-linejoin:miter;stroke-width:0.48;"/>
   </g>
   <g id="patch_7">
    <path clip-path="url(#p49e9970770)" d="M 124.140051 56.046857 
L 134.709166 56.046857 
L 134.709166 42.243723 
L 124.140051 42.243723 
z
" style="fill:#4c72b0;opacity:0.4;stroke:#000000;stroke-linejoin:miter;stroke-width:0.48;"/>
   </g>
   <g id="patch_8">
    <path clip-path="url(#p49e9970770)" d="M 134.709166 56.046857 
L 145.278281 56.046857 
L 145.278281 38.183977 
L 134.709166 38.183977 
z
" style="fill:#4c72b0;opacity:0.4;stroke:#000000;stroke-linejoin:miter;stroke-width:0.48;"/>
   </g>
   <g id="patch_9">
    <path clip-path="url(#p49e9970770)" d="M 145.278281 56.046857 
L 155.847397 56.046857 
L 155.847397 17.073301 
L 145.278281 17.073301 
z
" style="fill:#4c72b0;opacity:0.4;stroke:#000000;stroke-linejoin:miter;stroke-width:0.48;"/>
   </g>
   <g id="patch_10">
    <path clip-path="url(#p49e9970770)" d="M 155.847397 56.046857 
L 166.416512 56.046857 
L 166.416512 21.133046 
L 155.847397 21.133046 
z
" style="fill:#4c72b0;opacity:0.4;stroke:#000000;stroke-linejoin:miter;stroke-width:0.48;"/>
   </g>
   <g id="patch_11">
    <path clip-path="url(#p49e9970770)" d="M 166.416512 56.046857 
L 176.985627 56.046857 
L 176.985627 34.936181 
L 166.416512 34.936181 
z
" style="fill:#4c72b0;opacity:0.4;stroke:#000000;stroke-linejoin:miter;stroke-width:0.48;"/>
   </g>
   <g id="patch_12">
    <path clip-path="url(#p49e9970770)" d="M 176.985627 56.046857 
L 187.554742 56.046857 
L 187.554742 13.013555 
L 176.985627 13.013555 
z
" style="fill:#4c72b0;opacity:0.4;stroke:#000000;stroke-linejoin:miter;stroke-width:0.48;"/>
   </g>
   <g id="patch_13">
    <path clip-path="url(#p49e9970770)" d="M 187.554742 56.046857 
L 198.123857 56.046857 
L 198.123857 34.936181 
L 187.554742 34.936181 
z
" style="fill:#4c72b0;opacity:0.4;stroke:#000000;stroke-linejoin:miter;stroke-width:0.48;"/>
   </g>
   <g id="patch_14">
    <path clip-path="url(#p49e9970770)" d="M 198.123857 56.046857 
L 208.692972 56.046857 
L 208.692972 41.431774 
L 198.123857 41.431774 
z
" style="fill:#4c72b0;opacity:0.4;stroke:#000000;stroke-linejoin:miter;stroke-width:0.48;"/>
   </g>
   <g id="patch_15">
    <path clip-path="url(#p49e9970770)" d="M 208.692972 56.046857 
L 219.262087 56.046857 
L 219.262087 43.055672 
L 208.692972 43.055672 
z
" style="fill:#4c72b0;opacity:0.4;stroke:#000000;stroke-linejoin:miter;stroke-width:0.48;"/>
   </g>
   <g id="patch_16">
    <path clip-path="url(#p49e9970770)" d="M 219.262087 56.046857 
L 229.831202 56.046857 
L 229.831202 49.551264 
L 219.262087 49.551264 
z
" style="fill:#4c72b0;opacity:0.4;stroke:#000000;stroke-linejoin:miter;stroke-width:0.48;"/>
   </g>
   <g id="patch_17">
    <path clip-path="url(#p49e9970770)" d="M 229.831202 56.046857 
L 240.400317 56.046857 
L 240.400317 55.234908 
L 229.831202 55.234908 
z
" style="fill:#4c72b0;opacity:0.4;stroke:#000000;stroke-linejoin:miter;stroke-width:0.48;"/>
   </g>
   <g id="patch_18">
    <path clip-path="url(#p49e9970770)" d="M 240.400317 56.046857 
L 250.969432 56.046857 
L 250.969432 56.046857 
L 240.400317 56.046857 
z
" style="fill:#4c72b0;opacity:0.4;stroke:#000000;stroke-linejoin:miter;stroke-width:0.48;"/>
   </g>
   <g id="patch_19">
    <path clip-path="url(#p49e9970770)" d="M 250.969432 56.046857 
L 261.538548 56.046857 
L 261.538548 54.422959 
L 250.969432 54.422959 
z
" style="fill:#4c72b0;opacity:0.4;stroke:#000000;stroke-linejoin:miter;stroke-width:0.48;"/>
   </g>
   <g id="patch_20">
    <path clip-path="url(#p49e9970770)" d="M 261.538548 56.046857 
L 272.107663 56.046857 
L 272.107663 55.234908 
L 261.538548 55.234908 
z
" style="fill:#4c72b0;opacity:0.4;stroke:#000000;stroke-linejoin:miter;stroke-width:0.48;"/>
   </g>
   <g id="line2d_25">
    <path clip-path="url(#p49e9970770)" d="M 86.625906 56.039715 
L 98.334469 55.936033 
L 105.025076 55.641977 
L 108.37038 55.328504 
L 111.715684 54.805242 
L 115.060988 53.952765 
L 116.733639 53.359785 
L 118.406291 52.633941 
L 120.078943 51.76284 
L 121.751595 50.739182 
L 123.424247 49.561894 
L 126.769551 46.775014 
L 130.114854 43.515364 
L 135.13281 38.122799 
L 140.150766 32.715304 
L 143.496069 29.46508 
L 145.168721 28.038557 
L 146.841373 26.784322 
L 148.514025 25.726296 
L 150.186677 24.879504 
L 151.859329 24.247217 
L 153.53198 23.819359 
L 155.204632 23.572644 
L 158.549936 23.476782 
L 165.240544 23.690644 
L 168.585847 23.554592 
L 173.603803 23.262396 
L 175.276455 23.309399 
L 176.949107 23.509281 
L 178.621759 23.899625 
L 180.29441 24.501808 
L 181.967062 25.317113 
L 183.639714 26.325902 
L 186.985018 28.75856 
L 192.002973 32.638555 
L 195.348277 34.881845 
L 198.693581 36.745718 
L 212.074796 43.502705 
L 220.438055 48.157247 
L 223.783359 49.782255 
L 227.128663 51.197593 
L 230.473966 52.399643 
L 233.81927 53.38926 
L 237.164574 54.160528 
L 240.509878 54.708334 
L 243.855181 55.044092 
L 248.873137 55.237784 
L 272.290263 55.480004 
L 290.689434 55.999602 
L 299.052693 56.039773 
L 299.052693 56.039773 
" style="fill:none;stroke:#4c72b0;stroke-linecap:round;stroke-width:2.8;"/>
   </g>
   <g id="patch_21">
    <path d="M 62.0465 56.046857 
L 339.485771 56.046857 
" style="fill:none;stroke:#262626;stroke-linecap:square;stroke-linejoin:miter;stroke-width:1.25;"/>
   </g>
  </g>
  <g id="axes_3">
   <g id="patch_22">
    <path d="M 349.052643 349.128 
L 396.887 349.128 
L 396.887 65.816229 
L 349.052643 65.816229 
z
" style="fill:#ffffff;"/>
   </g>
   <g id="matplotlib.axis_5">
    <g id="xtick_17"/>
    <g id="xtick_18"/>
    <g id="xtick_19"/>
    <g id="xtick_20"/>
    <g id="xtick_21"/>
    <g id="xtick_22"/>
   </g>
   <g id="matplotlib.axis_6">
    <g id="ytick_15">
     <g id="line2d_26">
      <g>
       <use style="fill:#262626;stroke:#262626;stroke-width:1.6;" x="349.052642857" xlink:href="#m34e4c78b7e" y="320.796822857"/>
      </g>
     </g>
    </g>
    <g id="ytick_16">
     <g id="line2d_27">
      <g>
       <use style="fill:#262626;stroke:#262626;stroke-width:1.6;" x="349.052642857" xlink:href="#m34e4c78b7e" y="264.134468571"/>
      </g>
     </g>
    </g>
    <g id="ytick_17">
     <g id="line2d_28">
      <g>
       <use style="fill:#262626;stroke:#262626;stroke-width:1.6;" x="349.052642857" xlink:href="#m34e4c78b7e" y="207.472114286"/>
      </g>
     </g>
    </g>
    <g id="ytick_18">
     <g id="line2d_29">
      <g>
       <use style="fill:#262626;stroke:#262626;stroke-width:1.6;" x="349.052642857" xlink:href="#m34e4c78b7e" y="150.80976"/>
      </g>
     </g>
    </g>
    <g id="ytick_19">
     <g id="line2d_30">
      <g>
       <use style="fill:#262626;stroke:#262626;stroke-width:1.6;" x="349.052642857" xlink:href="#m34e4c78b7e" y="94.1474057143"/>
      </g>
     </g>
    </g>
   </g>
   <g id="patch_23">
    <path clip-path="url(#p5d1302433a)" d="M 349.052643 296.373394 
L 350.673064 296.373394 
L 350.673064 284.510586 
L 349.052643 284.510586 
z
" style="fill:#4c72b0;opacity:0.4;stroke:#000000;stroke-linejoin:miter;stroke-width:0.48;"/>
   </g>
   <g id="patch_24">
    <path clip-path="url(#p5d1302433a)" d="M 349.052643 284.510586 
L 349.862853 284.510586 
L 349.862853 272.647778 
L 349.052643 272.647778 
z
" style="fill:#4c72b0;opacity:0.4;stroke:#000000;stroke-linejoin:miter;stroke-width:0.48;"/>
   </g>
   <g id="patch_25">
    <path clip-path="url(#p5d1302433a)" d="M 349.052643 272.647778 
L 353.103696 272.647778 
L 353.103696 260.78497 
L 349.052643 260.78497 
z
" style="fill:#4c72b0;opacity:0.4;stroke:#000000;stroke-linejoin:miter;stroke-width:0.48;"/>
   </g>
   <g id="patch_26">
    <path clip-path="url(#p5d1302433a)" d="M 349.052643 260.78497 
L 357.154749 260.78497 
L 357.154749 248.922162 
L 349.052643 248.922162 
z
" style="fill:#4c72b0;opacity:0.4;stroke:#000000;stroke-linejoin:miter;stroke-width:0.48;"/>
   </g>
   <g id="patch_27">
    <path clip-path="url(#p5d1302433a)" d="M 349.052643 248.922162 
L 362.016013 248.922162 
L 362.016013 237.059353 
L 349.052643 237.059353 
z
" style="fill:#4c72b0;opacity:0.4;stroke:#000000;stroke-linejoin:miter;stroke-width:0.48;"/>
   </g>
   <g id="patch_28">
    <path clip-path="url(#p5d1302433a)" d="M 349.052643 237.059353 
L 364.446645 237.059353 
L 364.446645 225.196545 
L 349.052643 225.196545 
z
" style="fill:#4c72b0;opacity:0.4;stroke:#000000;stroke-linejoin:miter;stroke-width:0.48;"/>
   </g>
   <g id="patch_29">
    <path clip-path="url(#p5d1302433a)" d="M 349.052643 225.196545 
L 381.461068 225.196545 
L 381.461068 213.333737 
L 349.052643 213.333737 
z
" style="fill:#4c72b0;opacity:0.4;stroke:#000000;stroke-linejoin:miter;stroke-width:0.48;"/>
   </g>
   <g id="patch_30">
    <path clip-path="url(#p5d1302433a)" d="M 349.052643 213.333737 
L 384.701911 213.333737 
L 384.701911 201.470929 
L 349.052643 201.470929 
z
" style="fill:#4c72b0;opacity:0.4;stroke:#000000;stroke-linejoin:miter;stroke-width:0.48;"/>
   </g>
   <g id="patch_31">
    <path clip-path="url(#p5d1302433a)" d="M 349.052643 201.470929 
L 378.220226 201.470929 
L 378.220226 189.608121 
L 349.052643 189.608121 
z
" style="fill:#4c72b0;opacity:0.4;stroke:#000000;stroke-linejoin:miter;stroke-width:0.48;"/>
   </g>
   <g id="patch_32">
    <path clip-path="url(#p5d1302433a)" d="M 349.052643 189.608121 
L 394.424439 189.608121 
L 394.424439 177.745313 
L 349.052643 177.745313 
z
" style="fill:#4c72b0;opacity:0.4;stroke:#000000;stroke-linejoin:miter;stroke-width:0.48;"/>
   </g>
   <g id="patch_33">
    <path clip-path="url(#p5d1302433a)" d="M 349.052643 177.745313 
L 372.548751 177.745313 
L 372.548751 165.882504 
L 349.052643 165.882504 
z
" style="fill:#4c72b0;opacity:0.4;stroke:#000000;stroke-linejoin:miter;stroke-width:0.48;"/>
   </g>
   <g id="patch_34">
    <path clip-path="url(#p5d1302433a)" d="M 349.052643 165.882504 
L 358.775171 165.882504 
L 358.775171 154.019696 
L 349.052643 154.019696 
z
" style="fill:#4c72b0;opacity:0.4;stroke:#000000;stroke-linejoin:miter;stroke-width:0.48;"/>
   </g>
   <g id="patch_35">
    <path clip-path="url(#p5d1302433a)" d="M 349.052643 154.019696 
L 355.534328 154.019696 
L 355.534328 142.156888 
L 349.052643 142.156888 
z
" style="fill:#4c72b0;opacity:0.4;stroke:#000000;stroke-linejoin:miter;stroke-width:0.48;"/>
   </g>
   <g id="patch_36">
    <path clip-path="url(#p5d1302433a)" d="M 349.052643 142.156888 
L 352.293485 142.156888 
L 352.293485 130.29408 
L 349.052643 130.29408 
z
" style="fill:#4c72b0;opacity:0.4;stroke:#000000;stroke-linejoin:miter;stroke-width:0.48;"/>
   </g>
   <g id="line2d_31">
    <path clip-path="url(#p5d1302433a)" d="M 349.063233 326.388763 
L 349.175982 313.926004 
L 349.502858 305.024034 
L 350.681564 281.87891 
L 351.14079 278.318122 
L 351.761892 274.757334 
L 352.985173 269.416152 
L 354.489469 264.074969 
L 359.965005 246.271028 
L 361.408708 242.71024 
L 363.22746 239.149452 
L 365.458958 235.588664 
L 368.029156 232.027875 
L 374.747785 223.125905 
L 377.100024 219.565117 
L 379.135466 216.004328 
L 380.836642 212.44354 
L 382.190171 208.882752 
L 383.195108 205.321964 
L 383.892855 201.761175 
L 384.357321 198.200387 
L 384.620932 194.639599 
L 384.594295 191.078811 
L 384.409304 189.298417 
L 384.069692 187.518023 
L 383.549497 185.737628 
L 382.831589 183.957234 
L 381.910553 182.17684 
L 380.793444 180.396446 
L 379.498433 178.616052 
L 376.484839 175.055264 
L 371.376708 169.714081 
L 366.241855 164.372899 
L 363.116962 160.812111 
L 360.400364 157.251323 
L 358.162936 153.690534 
L 356.388671 150.129746 
L 354.997375 146.568958 
L 353.889894 143.00817 
L 352.981176 139.447382 
L 351.858824 134.106199 
L 350.639388 126.984623 
L 349.927449 121.643441 
L 349.44751 116.302258 
L 349.194009 110.961076 
L 349.069033 102.059105 
L 349.06443 100.278711 
L 349.06443 100.278711 
" style="fill:none;stroke:#4c72b0;stroke-linecap:round;stroke-width:2.8;"/>
   </g>
   <g id="patch_37">
    <path d="M 349.052643 349.128 
L 349.052643 65.816229 
" style="fill:none;stroke:#262626;stroke-linecap:square;stroke-linejoin:miter;stroke-width:1.25;"/>
   </g>
  </g>
 </g>
 <defs>
  <clipPath id="p49e9970770">
   <rect height="48.8468571429" width="277.439271429" x="62.0465" y="7.2"/>
  </clipPath>
  <clipPath id="p5d1302433a">
   <rect height="283.311771429" width="47.8343571429" x="349.052642857" y="65.8162285714"/>
  </clipPath>
  <clipPath id="p4dd56104e2">
   <rect height="283.311771429" width="277.439271429" x="62.0465" y="65.8162285714"/>
  </clipPath>
 </defs>
</svg>
