<?xml version="1.0" encoding="utf-8" standalone="no"?>
<!DOCTYPE svg PUBLIC "-//W3C//DTD SVG 1.1//EN"
  "http://www.w3.org/Graphics/SVG/1.1/DTD/svg11.dtd">
<!-- Created with matplotlib (http://matplotlib.org/) -->
<svg height="633pt" version="1.1" viewBox="0 0 921 633" width="921pt" xmlns="http://www.w3.org/2000/svg" xmlns:xlink="http://www.w3.org/1999/xlink">
 <defs>
  <style type="text/css">
*{stroke-linecap:butt;stroke-linejoin:round;}
  </style>
 </defs>
 <g id="figure_1">
  <g id="patch_1">
   <path d="M 0 633.6 
L 921.6 633.6 
L 921.6 0 
L 0 0 
z
" style="fill:#ffffff;"/>
  </g>
  <g id="axes_1">
   <g id="patch_2">
    <path d="M 115.2 554.4 
L 829.44 554.4 
L 829.44 76.032 
L 115.2 76.032 
z
" style="fill:#ffffff;"/>
   </g>
   <g id="matplotlib.axis_1">
    <g id="xtick_1">
     <g id="line2d_1">
      <defs>
       <path d="M 0 0 
L 0 6 
" id="m9b0d4fd65a" style="stroke:#262626;stroke-width:1.6;"/>
      </defs>
      <g>
       <use style="fill:#262626;stroke:#262626;stroke-width:1.6;" x="293.76" xlink:href="#m9b0d4fd65a" y="564.4"/>
      </g>
     </g>
     <g id="text_1">
      <!-- Pre -->
      <defs>
       <path d="M 7.71875 0 
L 7.71875 71.578125 
L 34.71875 71.578125 
Q 41.84375 71.578125 45.609375 70.90625 
Q 50.875 70.015625 54.4375 67.546875 
Q 58.015625 65.09375 60.1875 60.640625 
Q 62.359375 56.203125 62.359375 50.875 
Q 62.359375 41.75 56.546875 35.421875 
Q 50.734375 29.109375 35.546875 29.109375 
L 17.1875 29.109375 
L 17.1875 0 
z
M 17.1875 37.546875 
L 35.6875 37.546875 
Q 44.875 37.546875 48.734375 40.96875 
Q 52.59375 44.390625 52.59375 50.59375 
Q 52.59375 55.078125 50.3125 58.265625 
Q 48.046875 61.46875 44.34375 62.5 
Q 41.9375 63.140625 35.5 63.140625 
L 17.1875 63.140625 
z
" id="ArialMT-50"/>
       <path d="M 6.5 0 
L 6.5 51.859375 
L 14.40625 51.859375 
L 14.40625 44 
Q 17.4375 49.515625 20 51.265625 
Q 22.5625 53.03125 25.640625 53.03125 
Q 30.078125 53.03125 34.671875 50.203125 
L 31.640625 42.046875 
Q 28.421875 43.953125 25.203125 43.953125 
Q 22.3125 43.953125 20.015625 42.21875 
Q 17.71875 40.484375 16.75 37.40625 
Q 15.28125 32.71875 15.28125 27.15625 
L 15.28125 0 
z
" id="ArialMT-72"/>
       <path d="M 42.09375 16.703125 
L 51.171875 15.578125 
Q 49.03125 7.625 43.21875 3.21875 
Q 37.40625 -1.171875 28.375 -1.171875 
Q 17 -1.171875 10.328125 5.828125 
Q 3.65625 12.84375 3.65625 25.484375 
Q 3.65625 38.578125 10.390625 45.796875 
Q 17.140625 53.03125 27.875 53.03125 
Q 38.28125 53.03125 44.875 45.953125 
Q 51.46875 38.875 51.46875 26.03125 
Q 51.46875 25.25 51.421875 23.6875 
L 12.75 23.6875 
Q 13.234375 15.140625 17.578125 10.59375 
Q 21.921875 6.0625 28.421875 6.0625 
Q 33.25 6.0625 36.671875 8.59375 
Q 40.09375 11.140625 42.09375 16.703125 
z
M 13.234375 30.90625 
L 42.1875 30.90625 
Q 41.609375 37.453125 38.875 40.71875 
Q 34.671875 45.796875 27.984375 45.796875 
Q 21.921875 45.796875 17.796875 41.75 
Q 13.671875 37.703125 13.234375 30.90625 
z
" id="ArialMT-65"/>
      </defs>
      <g style="fill:#262626;" transform="translate(281.31125 593.0525)scale(0.16 -0.16)">
       <use xlink:href="#ArialMT-50"/>
       <use x="66.699219" xlink:href="#ArialMT-72"/>
       <use x="100" xlink:href="#ArialMT-65"/>
      </g>
     </g>
    </g>
    <g id="xtick_2">
     <g id="line2d_2">
      <g>
       <use style="fill:#262626;stroke:#262626;stroke-width:1.6;" x="650.88" xlink:href="#m9b0d4fd65a" y="564.4"/>
      </g>
     </g>
     <g id="text_2">
      <!-- Post -->
      <defs>
       <path d="M 3.328125 25.921875 
Q 3.328125 40.328125 11.328125 47.265625 
Q 18.015625 53.03125 27.640625 53.03125 
Q 38.328125 53.03125 45.109375 46.015625 
Q 51.90625 39.015625 51.90625 26.65625 
Q 51.90625 16.65625 48.90625 10.90625 
Q 45.90625 5.171875 40.15625 2 
Q 34.421875 -1.171875 27.640625 -1.171875 
Q 16.75 -1.171875 10.03125 5.8125 
Q 3.328125 12.796875 3.328125 25.921875 
z
M 12.359375 25.921875 
Q 12.359375 15.96875 16.703125 11.015625 
Q 21.046875 6.0625 27.640625 6.0625 
Q 34.1875 6.0625 38.53125 11.03125 
Q 42.875 16.015625 42.875 26.21875 
Q 42.875 35.84375 38.5 40.796875 
Q 34.125 45.75 27.640625 45.75 
Q 21.046875 45.75 16.703125 40.8125 
Q 12.359375 35.890625 12.359375 25.921875 
z
" id="ArialMT-6f"/>
       <path d="M 3.078125 15.484375 
L 11.765625 16.84375 
Q 12.5 11.625 15.84375 8.84375 
Q 19.1875 6.0625 25.203125 6.0625 
Q 31.25 6.0625 34.171875 8.515625 
Q 37.109375 10.984375 37.109375 14.3125 
Q 37.109375 17.28125 34.515625 19 
Q 32.71875 20.171875 25.53125 21.96875 
Q 15.875 24.421875 12.140625 26.203125 
Q 8.40625 27.984375 6.46875 31.125 
Q 4.546875 34.28125 4.546875 38.09375 
Q 4.546875 41.546875 6.125 44.5 
Q 7.71875 47.46875 10.453125 49.421875 
Q 12.5 50.921875 16.03125 51.96875 
Q 19.578125 53.03125 23.640625 53.03125 
Q 29.734375 53.03125 34.34375 51.265625 
Q 38.96875 49.515625 41.15625 46.5 
Q 43.359375 43.5 44.1875 38.484375 
L 35.59375 37.3125 
Q 35.015625 41.3125 32.203125 43.546875 
Q 29.390625 45.796875 24.265625 45.796875 
Q 18.21875 45.796875 15.625 43.796875 
Q 13.03125 41.796875 13.03125 39.109375 
Q 13.03125 37.40625 14.109375 36.03125 
Q 15.1875 34.625 17.484375 33.6875 
Q 18.796875 33.203125 25.25 31.453125 
Q 34.578125 28.953125 38.25 27.359375 
Q 41.9375 25.78125 44.03125 22.75 
Q 46.140625 19.734375 46.140625 15.234375 
Q 46.140625 10.84375 43.578125 6.953125 
Q 41.015625 3.078125 36.171875 0.953125 
Q 31.34375 -1.171875 25.25 -1.171875 
Q 15.140625 -1.171875 9.84375 3.03125 
Q 4.546875 7.234375 3.078125 15.484375 
z
" id="ArialMT-73"/>
       <path d="M 25.78125 7.859375 
L 27.046875 0.09375 
Q 23.34375 -0.6875 20.40625 -0.6875 
Q 15.625 -0.6875 12.984375 0.828125 
Q 10.359375 2.34375 9.28125 4.8125 
Q 8.203125 7.28125 8.203125 15.1875 
L 8.203125 45.015625 
L 1.765625 45.015625 
L 1.765625 51.859375 
L 8.203125 51.859375 
L 8.203125 64.703125 
L 16.9375 69.96875 
L 16.9375 51.859375 
L 25.78125 51.859375 
L 25.78125 45.015625 
L 16.9375 45.015625 
L 16.9375 14.703125 
Q 16.9375 10.9375 17.40625 9.859375 
Q 17.875 8.796875 18.921875 8.15625 
Q 19.96875 7.515625 21.921875 7.515625 
Q 23.390625 7.515625 25.78125 7.859375 
z
" id="ArialMT-74"/>
      </defs>
      <g style="fill:#262626;" transform="translate(634.8725 593.0525)scale(0.16 -0.16)">
       <use xlink:href="#ArialMT-50"/>
       <use x="66.699219" xlink:href="#ArialMT-6f"/>
       <use x="122.314453" xlink:href="#ArialMT-73"/>
       <use x="172.314453" xlink:href="#ArialMT-74"/>
      </g>
     </g>
    </g>
   </g>
   <g id="matplotlib.axis_2">
    <g id="ytick_1">
     <g id="line2d_3">
      <defs>
       <path d="M 0 0 
L -6 0 
" id="m209054f4cf" style="stroke:#262626;stroke-width:1.6;"/>
      </defs>
      <g>
       <use style="fill:#262626;stroke:#262626;stroke-width:1.6;" x="105.2" xlink:href="#m209054f4cf" y="490.412483"/>
      </g>
     </g>
     <g id="text_3">
      <!-- 0.0 -->
      <defs>
       <path d="M 4.15625 35.296875 
Q 4.15625 48 6.765625 55.734375 
Q 9.375 63.484375 14.515625 67.671875 
Q 19.671875 71.875 27.484375 71.875 
Q 33.25 71.875 37.59375 69.546875 
Q 41.9375 67.234375 44.765625 62.859375 
Q 47.609375 58.5 49.21875 52.21875 
Q 50.828125 45.953125 50.828125 35.296875 
Q 50.828125 22.703125 48.234375 14.96875 
Q 45.65625 7.234375 40.5 3 
Q 35.359375 -1.21875 27.484375 -1.21875 
Q 17.140625 -1.21875 11.234375 6.203125 
Q 4.15625 15.140625 4.15625 35.296875 
z
M 13.1875 35.296875 
Q 13.1875 17.671875 17.3125 11.828125 
Q 21.4375 6 27.484375 6 
Q 33.546875 6 37.671875 11.859375 
Q 41.796875 17.71875 41.796875 35.296875 
Q 41.796875 52.984375 37.671875 58.78125 
Q 33.546875 64.59375 27.390625 64.59375 
Q 21.34375 64.59375 17.71875 59.46875 
Q 13.1875 52.9375 13.1875 35.296875 
z
" id="ArialMT-30"/>
       <path d="M 9.078125 0 
L 9.078125 10.015625 
L 19.09375 10.015625 
L 19.09375 0 
z
" id="ArialMT-2e"/>
      </defs>
      <g style="fill:#262626;" transform="translate(65.76 496.138733)scale(0.16 -0.16)">
       <use xlink:href="#ArialMT-30"/>
       <use x="55.615234" xlink:href="#ArialMT-2e"/>
       <use x="83.398438" xlink:href="#ArialMT-30"/>
      </g>
     </g>
    </g>
    <g id="ytick_2">
     <g id="line2d_4">
      <g>
       <use style="fill:#262626;stroke:#262626;stroke-width:1.6;" x="105.2" xlink:href="#m209054f4cf" y="416.193341"/>
      </g>
     </g>
     <g id="text_4">
      <!-- 0.2 -->
      <defs>
       <path d="M 50.34375 8.453125 
L 50.34375 0 
L 3.03125 0 
Q 2.9375 3.171875 4.046875 6.109375 
Q 5.859375 10.9375 9.828125 15.625 
Q 13.8125 20.3125 21.34375 26.46875 
Q 33.015625 36.03125 37.109375 41.625 
Q 41.21875 47.21875 41.21875 52.203125 
Q 41.21875 57.421875 37.46875 61 
Q 33.734375 64.59375 27.734375 64.59375 
Q 21.390625 64.59375 17.578125 60.78125 
Q 13.765625 56.984375 13.71875 50.25 
L 4.6875 51.171875 
Q 5.609375 61.28125 11.65625 66.578125 
Q 17.71875 71.875 27.9375 71.875 
Q 38.234375 71.875 44.234375 66.15625 
Q 50.25 60.453125 50.25 52 
Q 50.25 47.703125 48.484375 43.546875 
Q 46.734375 39.40625 42.65625 34.8125 
Q 38.578125 30.21875 29.109375 22.21875 
Q 21.1875 15.578125 18.9375 13.203125 
Q 16.703125 10.84375 15.234375 8.453125 
z
" id="ArialMT-32"/>
      </defs>
      <g style="fill:#262626;" transform="translate(65.76 421.919591)scale(0.16 -0.16)">
       <use xlink:href="#ArialMT-30"/>
       <use x="55.615234" xlink:href="#ArialMT-2e"/>
       <use x="83.398438" xlink:href="#ArialMT-32"/>
      </g>
     </g>
    </g>
    <g id="ytick_3">
     <g id="line2d_5">
      <g>
       <use style="fill:#262626;stroke:#262626;stroke-width:1.6;" x="105.2" xlink:href="#m209054f4cf" y="341.974199"/>
      </g>
     </g>
     <g id="text_5">
      <!-- 0.4 -->
      <defs>
       <path d="M 32.328125 0 
L 32.328125 17.140625 
L 1.265625 17.140625 
L 1.265625 25.203125 
L 33.9375 71.578125 
L 41.109375 71.578125 
L 41.109375 25.203125 
L 50.78125 25.203125 
L 50.78125 17.140625 
L 41.109375 17.140625 
L 41.109375 0 
z
M 32.328125 25.203125 
L 32.328125 57.46875 
L 9.90625 25.203125 
z
" id="ArialMT-34"/>
      </defs>
      <g style="fill:#262626;" transform="translate(65.76 347.700449)scale(0.16 -0.16)">
       <use xlink:href="#ArialMT-30"/>
       <use x="55.615234" xlink:href="#ArialMT-2e"/>
       <use x="83.398438" xlink:href="#ArialMT-34"/>
      </g>
     </g>
    </g>
    <g id="ytick_4">
     <g id="line2d_6">
      <g>
       <use style="fill:#262626;stroke:#262626;stroke-width:1.6;" x="105.2" xlink:href="#m209054f4cf" y="267.755057"/>
      </g>
     </g>
     <g id="text_6">
      <!-- 0.6 -->
      <defs>
       <path d="M 49.75 54.046875 
L 41.015625 53.375 
Q 39.84375 58.546875 37.703125 60.890625 
Q 34.125 64.65625 28.90625 64.65625 
Q 24.703125 64.65625 21.53125 62.3125 
Q 17.390625 59.28125 14.984375 53.46875 
Q 12.59375 47.65625 12.5 36.921875 
Q 15.671875 41.75 20.265625 44.09375 
Q 24.859375 46.4375 29.890625 46.4375 
Q 38.671875 46.4375 44.84375 39.96875 
Q 51.03125 33.5 51.03125 23.25 
Q 51.03125 16.5 48.125 10.71875 
Q 45.21875 4.9375 40.140625 1.859375 
Q 35.0625 -1.21875 28.609375 -1.21875 
Q 17.625 -1.21875 10.6875 6.859375 
Q 3.765625 14.9375 3.765625 33.5 
Q 3.765625 54.25 11.421875 63.671875 
Q 18.109375 71.875 29.4375 71.875 
Q 37.890625 71.875 43.28125 67.140625 
Q 48.6875 62.40625 49.75 54.046875 
z
M 13.875 23.1875 
Q 13.875 18.65625 15.796875 14.5 
Q 17.71875 10.359375 21.1875 8.171875 
Q 24.65625 6 28.46875 6 
Q 34.03125 6 38.03125 10.484375 
Q 42.046875 14.984375 42.046875 22.703125 
Q 42.046875 30.125 38.078125 34.390625 
Q 34.125 38.671875 28.125 38.671875 
Q 22.171875 38.671875 18.015625 34.390625 
Q 13.875 30.125 13.875 23.1875 
z
" id="ArialMT-36"/>
      </defs>
      <g style="fill:#262626;" transform="translate(65.76 273.481307)scale(0.16 -0.16)">
       <use xlink:href="#ArialMT-30"/>
       <use x="55.615234" xlink:href="#ArialMT-2e"/>
       <use x="83.398438" xlink:href="#ArialMT-36"/>
      </g>
     </g>
    </g>
    <g id="ytick_5">
     <g id="line2d_7">
      <g>
       <use style="fill:#262626;stroke:#262626;stroke-width:1.6;" x="105.2" xlink:href="#m209054f4cf" y="193.535916"/>
      </g>
     </g>
     <g id="text_7">
      <!-- 0.8 -->
      <defs>
       <path d="M 17.671875 38.8125 
Q 12.203125 40.828125 9.5625 44.53125 
Q 6.9375 48.25 6.9375 53.421875 
Q 6.9375 61.234375 12.546875 66.546875 
Q 18.171875 71.875 27.484375 71.875 
Q 36.859375 71.875 42.578125 66.421875 
Q 48.296875 60.984375 48.296875 53.171875 
Q 48.296875 48.1875 45.671875 44.5 
Q 43.0625 40.828125 37.75 38.8125 
Q 44.34375 36.671875 47.78125 31.875 
Q 51.21875 27.09375 51.21875 20.453125 
Q 51.21875 11.28125 44.71875 5.03125 
Q 38.234375 -1.21875 27.640625 -1.21875 
Q 17.046875 -1.21875 10.546875 5.046875 
Q 4.046875 11.328125 4.046875 20.703125 
Q 4.046875 27.6875 7.59375 32.390625 
Q 11.140625 37.109375 17.671875 38.8125 
z
M 15.921875 53.71875 
Q 15.921875 48.640625 19.1875 45.40625 
Q 22.46875 42.1875 27.6875 42.1875 
Q 32.765625 42.1875 36.015625 45.375 
Q 39.265625 48.578125 39.265625 53.21875 
Q 39.265625 58.0625 35.90625 61.359375 
Q 32.5625 64.65625 27.59375 64.65625 
Q 22.5625 64.65625 19.234375 61.421875 
Q 15.921875 58.203125 15.921875 53.71875 
z
M 13.09375 20.65625 
Q 13.09375 16.890625 14.875 13.375 
Q 16.65625 9.859375 20.171875 7.921875 
Q 23.6875 6 27.734375 6 
Q 34.03125 6 38.125 10.046875 
Q 42.234375 14.109375 42.234375 20.359375 
Q 42.234375 26.703125 38.015625 30.859375 
Q 33.796875 35.015625 27.4375 35.015625 
Q 21.234375 35.015625 17.15625 30.90625 
Q 13.09375 26.8125 13.09375 20.65625 
z
" id="ArialMT-38"/>
      </defs>
      <g style="fill:#262626;" transform="translate(65.76 199.262166)scale(0.16 -0.16)">
       <use xlink:href="#ArialMT-30"/>
       <use x="55.615234" xlink:href="#ArialMT-2e"/>
       <use x="83.398438" xlink:href="#ArialMT-38"/>
      </g>
     </g>
    </g>
    <g id="ytick_6">
     <g id="line2d_8">
      <g>
       <use style="fill:#262626;stroke:#262626;stroke-width:1.6;" x="105.2" xlink:href="#m209054f4cf" y="119.316774"/>
      </g>
     </g>
     <g id="text_8">
      <!-- 1.0 -->
      <defs>
       <path d="M 37.25 0 
L 28.46875 0 
L 28.46875 56 
Q 25.296875 52.984375 20.140625 49.953125 
Q 14.984375 46.921875 10.890625 45.40625 
L 10.890625 53.90625 
Q 18.265625 57.375 23.78125 62.296875 
Q 29.296875 67.234375 31.59375 71.875 
L 37.25 71.875 
z
" id="ArialMT-31"/>
      </defs>
      <g style="fill:#262626;" transform="translate(65.76 125.043024)scale(0.16 -0.16)">
       <use xlink:href="#ArialMT-31"/>
       <use x="55.615234" xlink:href="#ArialMT-2e"/>
       <use x="83.398438" xlink:href="#ArialMT-30"/>
      </g>
     </g>
    </g>
    <g id="text_9">
     <!-- Mean accuracy -->
     <defs>
      <path d="M 7.421875 0 
L 7.421875 71.578125 
L 21.6875 71.578125 
L 38.625 20.90625 
Q 40.96875 13.8125 42.046875 10.296875 
Q 43.265625 14.203125 45.84375 21.78125 
L 62.984375 71.578125 
L 75.734375 71.578125 
L 75.734375 0 
L 66.609375 0 
L 66.609375 59.90625 
L 45.796875 0 
L 37.25 0 
L 16.546875 60.9375 
L 16.546875 0 
z
" id="ArialMT-4d"/>
      <path d="M 40.4375 6.390625 
Q 35.546875 2.25 31.03125 0.53125 
Q 26.515625 -1.171875 21.34375 -1.171875 
Q 12.796875 -1.171875 8.203125 3 
Q 3.609375 7.171875 3.609375 13.671875 
Q 3.609375 17.484375 5.34375 20.625 
Q 7.078125 23.78125 9.890625 25.6875 
Q 12.703125 27.59375 16.21875 28.5625 
Q 18.796875 29.25 24.03125 29.890625 
Q 34.671875 31.15625 39.703125 32.90625 
Q 39.75 34.71875 39.75 35.203125 
Q 39.75 40.578125 37.25 42.78125 
Q 33.890625 45.75 27.25 45.75 
Q 21.046875 45.75 18.09375 43.578125 
Q 15.140625 41.40625 13.71875 35.890625 
L 5.125 37.0625 
Q 6.296875 42.578125 8.984375 45.96875 
Q 11.671875 49.359375 16.75 51.1875 
Q 21.828125 53.03125 28.515625 53.03125 
Q 35.15625 53.03125 39.296875 51.46875 
Q 43.453125 49.90625 45.40625 47.53125 
Q 47.359375 45.171875 48.140625 41.546875 
Q 48.578125 39.3125 48.578125 33.453125 
L 48.578125 21.734375 
Q 48.578125 9.46875 49.140625 6.21875 
Q 49.703125 2.984375 51.375 0 
L 42.1875 0 
Q 40.828125 2.734375 40.4375 6.390625 
z
M 39.703125 26.03125 
Q 34.90625 24.078125 25.34375 22.703125 
Q 19.921875 21.921875 17.671875 20.9375 
Q 15.4375 19.96875 14.203125 18.09375 
Q 12.984375 16.21875 12.984375 13.921875 
Q 12.984375 10.40625 15.640625 8.0625 
Q 18.3125 5.71875 23.4375 5.71875 
Q 28.515625 5.71875 32.46875 7.9375 
Q 36.421875 10.15625 38.28125 14.015625 
Q 39.703125 17 39.703125 22.796875 
z
" id="ArialMT-61"/>
      <path d="M 6.59375 0 
L 6.59375 51.859375 
L 14.5 51.859375 
L 14.5 44.484375 
Q 20.21875 53.03125 31 53.03125 
Q 35.6875 53.03125 39.625 51.34375 
Q 43.5625 49.65625 45.515625 46.921875 
Q 47.46875 44.1875 48.25 40.4375 
Q 48.734375 37.984375 48.734375 31.890625 
L 48.734375 0 
L 39.9375 0 
L 39.9375 31.546875 
Q 39.9375 36.921875 38.90625 39.578125 
Q 37.890625 42.234375 35.28125 43.8125 
Q 32.671875 45.40625 29.15625 45.40625 
Q 23.53125 45.40625 19.453125 41.84375 
Q 15.375 38.28125 15.375 28.328125 
L 15.375 0 
z
" id="ArialMT-6e"/>
      <path id="ArialMT-20"/>
      <path d="M 40.4375 19 
L 49.078125 17.875 
Q 47.65625 8.9375 41.8125 3.875 
Q 35.984375 -1.171875 27.484375 -1.171875 
Q 16.84375 -1.171875 10.375 5.78125 
Q 3.90625 12.75 3.90625 25.734375 
Q 3.90625 34.125 6.6875 40.421875 
Q 9.46875 46.734375 15.15625 49.875 
Q 20.84375 53.03125 27.546875 53.03125 
Q 35.984375 53.03125 41.359375 48.75 
Q 46.734375 44.484375 48.25 36.625 
L 39.703125 35.296875 
Q 38.484375 40.53125 35.375 43.15625 
Q 32.28125 45.796875 27.875 45.796875 
Q 21.234375 45.796875 17.078125 41.03125 
Q 12.9375 36.28125 12.9375 25.984375 
Q 12.9375 15.53125 16.9375 10.796875 
Q 20.953125 6.0625 27.390625 6.0625 
Q 32.5625 6.0625 36.03125 9.234375 
Q 39.5 12.40625 40.4375 19 
z
" id="ArialMT-63"/>
      <path d="M 40.578125 0 
L 40.578125 7.625 
Q 34.515625 -1.171875 24.125 -1.171875 
Q 19.53125 -1.171875 15.546875 0.578125 
Q 11.578125 2.34375 9.640625 5 
Q 7.71875 7.671875 6.9375 11.53125 
Q 6.390625 14.109375 6.390625 19.734375 
L 6.390625 51.859375 
L 15.1875 51.859375 
L 15.1875 23.09375 
Q 15.1875 16.21875 15.71875 13.8125 
Q 16.546875 10.359375 19.234375 8.375 
Q 21.921875 6.390625 25.875 6.390625 
Q 29.828125 6.390625 33.296875 8.421875 
Q 36.765625 10.453125 38.203125 13.9375 
Q 39.65625 17.4375 39.65625 24.078125 
L 39.65625 51.859375 
L 48.4375 51.859375 
L 48.4375 0 
z
" id="ArialMT-75"/>
      <path d="M 6.203125 -19.96875 
L 5.21875 -11.71875 
Q 8.109375 -12.5 10.25 -12.5 
Q 13.1875 -12.5 14.9375 -11.515625 
Q 16.703125 -10.546875 17.828125 -8.796875 
Q 18.65625 -7.46875 20.515625 -2.25 
Q 20.75 -1.515625 21.296875 -0.09375 
L 1.609375 51.859375 
L 11.078125 51.859375 
L 21.875 21.828125 
Q 23.96875 16.109375 25.640625 9.8125 
Q 27.15625 15.875 29.25 21.625 
L 40.328125 51.859375 
L 49.125 51.859375 
L 29.390625 -0.875 
Q 26.21875 -9.421875 24.46875 -12.640625 
Q 22.125 -17 19.09375 -19.015625 
Q 16.0625 -21.046875 11.859375 -21.046875 
Q 9.328125 -21.046875 6.203125 -19.96875 
z
" id="ArialMT-79"/>
     </defs>
     <g style="fill:#262626;" transform="translate(58.05575 374.88275)rotate(-90)scale(0.176 -0.176)">
      <use xlink:href="#ArialMT-4d"/>
      <use x="83.300781" xlink:href="#ArialMT-65"/>
      <use x="138.916016" xlink:href="#ArialMT-61"/>
      <use x="194.53125" xlink:href="#ArialMT-6e"/>
      <use x="250.146484" xlink:href="#ArialMT-20"/>
      <use x="277.929688" xlink:href="#ArialMT-61"/>
      <use x="333.544922" xlink:href="#ArialMT-63"/>
      <use x="383.544922" xlink:href="#ArialMT-63"/>
      <use x="433.544922" xlink:href="#ArialMT-75"/>
      <use x="489.160156" xlink:href="#ArialMT-72"/>
      <use x="522.460938" xlink:href="#ArialMT-61"/>
      <use x="578.076172" xlink:href="#ArialMT-63"/>
      <use x="628.076172" xlink:href="#ArialMT-79"/>
     </g>
    </g>
   </g>
   <g id="PolyCollection_1">
    <defs>
     <path d="M 293.76 -152.308643 
L 291.906265 -152.308643 
L 291.416514 -154.248495 
L 290.831966 -156.188346 
L 290.143929 -158.128198 
L 289.345312 -160.06805 
L 288.431204 -162.007901 
L 287.399389 -163.947753 
L 286.250747 -165.887605 
L 284.989457 -167.827457 
L 283.622958 -169.767308 
L 282.161612 -171.70716 
L 280.618023 -173.647012 
L 279.006028 -175.586863 
L 277.339364 -177.526715 
L 275.630086 -179.466567 
L 273.886823 -181.406418 
L 272.113006 -183.34627 
L 270.305225 -185.286122 
L 268.45188 -187.225973 
L 266.532314 -189.165825 
L 264.516562 -191.105677 
L 262.36587 -193.045528 
L 260.034036 -194.98538 
L 257.469596 -196.925232 
L 254.618792 -198.865084 
L 251.429172 -200.804935 
L 247.853628 -202.744787 
L 243.854572 -204.684639 
L 239.407952 -206.62449 
L 234.506763 -208.564342 
L 229.163742 -210.504194 
L 223.412966 -212.444045 
L 217.310167 -214.383897 
L 210.931663 -216.323749 
L 204.371926 -218.2636 
L 197.739928 -220.203452 
L 191.154503 -222.143304 
L 184.739085 -224.083155 
L 178.616181 -226.023007 
L 172.902022 -227.962859 
L 167.70176 -229.902711 
L 163.10554 -231.842562 
L 159.185684 -233.782414 
L 155.995098 -235.722266 
L 153.566896 -237.662117 
L 151.915128 -239.601969 
L 151.036381 -241.541821 
L 150.912 -243.481672 
L 151.510595 -245.421524 
L 152.79057 -247.361376 
L 154.702411 -249.301227 
L 157.190575 -251.241079 
L 160.194895 -253.180931 
L 163.651516 -255.120782 
L 167.493445 -257.060634 
L 171.650889 -259.000486 
L 176.051544 -260.940338 
L 180.621036 -262.880189 
L 185.283671 -264.820041 
L 189.963595 -266.759893 
L 194.586408 -268.699744 
L 199.081194 -270.639596 
L 203.382861 -272.579448 
L 207.43462 -274.519299 
L 211.190413 -276.459151 
L 214.617067 -278.399003 
L 217.695953 -280.338854 
L 220.424003 -282.278706 
L 222.813929 -284.218558 
L 224.893593 -286.158409 
L 226.704531 -288.098261 
L 228.299684 -290.038113 
L 229.740482 -291.977965 
L 231.093448 -293.917816 
L 232.426527 -295.857668 
L 233.805382 -297.79752 
L 235.289869 -299.737371 
L 236.930931 -301.677223 
L 238.76806 -303.617075 
L 240.8275 -305.556926 
L 243.121268 -307.496778 
L 245.647021 -309.43663 
L 248.388756 -311.376481 
L 251.318263 -313.316333 
L 254.397197 -315.256185 
L 257.579612 -317.196036 
L 260.814772 -319.135888 
L 264.05004 -321.07574 
L 267.233657 -323.015592 
L 270.317242 -324.955443 
L 273.257882 -326.895295 
L 276.019711 -328.835147 
L 278.574928 -330.774998 
L 280.904259 -332.71485 
L 282.996885 -334.654702 
L 284.849918 -336.594553 
L 286.467516 -338.534405 
L 287.859744 -340.474257 
L 289.041288 -342.414108 
L 290.030143 -344.35396 
L 293.76 -344.35396 
L 293.76 -344.35396 
L 293.76 -342.414108 
L 293.76 -340.474257 
L 293.76 -338.534405 
L 293.76 -336.594553 
L 293.76 -334.654702 
L 293.76 -332.71485 
L 293.76 -330.774998 
L 293.76 -328.835147 
L 293.76 -326.895295 
L 293.76 -324.955443 
L 293.76 -323.015592 
L 293.76 -321.07574 
L 293.76 -319.135888 
L 293.76 -317.196036 
L 293.76 -315.256185 
L 293.76 -313.316333 
L 293.76 -311.376481 
L 293.76 -309.43663 
L 293.76 -307.496778 
L 293.76 -305.556926 
L 293.76 -303.617075 
L 293.76 -301.677223 
L 293.76 -299.737371 
L 293.76 -297.79752 
L 293.76 -295.857668 
L 293.76 -293.917816 
L 293.76 -291.977965 
L 293.76 -290.038113 
L 293.76 -288.098261 
L 293.76 -286.158409 
L 293.76 -284.218558 
L 293.76 -282.278706 
L 293.76 -280.338854 
L 293.76 -278.399003 
L 293.76 -276.459151 
L 293.76 -274.519299 
L 293.76 -272.579448 
L 293.76 -270.639596 
L 293.76 -268.699744 
L 293.76 -266.759893 
L 293.76 -264.820041 
L 293.76 -262.880189 
L 293.76 -260.940338 
L 293.76 -259.000486 
L 293.76 -257.060634 
L 293.76 -255.120782 
L 293.76 -253.180931 
L 293.76 -251.241079 
L 293.76 -249.301227 
L 293.76 -247.361376 
L 293.76 -245.421524 
L 293.76 -243.481672 
L 293.76 -241.541821 
L 293.76 -239.601969 
L 293.76 -237.662117 
L 293.76 -235.722266 
L 293.76 -233.782414 
L 293.76 -231.842562 
L 293.76 -229.902711 
L 293.76 -227.962859 
L 293.76 -226.023007 
L 293.76 -224.083155 
L 293.76 -222.143304 
L 293.76 -220.203452 
L 293.76 -218.2636 
L 293.76 -216.323749 
L 293.76 -214.383897 
L 293.76 -212.444045 
L 293.76 -210.504194 
L 293.76 -208.564342 
L 293.76 -206.62449 
L 293.76 -204.684639 
L 293.76 -202.744787 
L 293.76 -200.804935 
L 293.76 -198.865084 
L 293.76 -196.925232 
L 293.76 -194.98538 
L 293.76 -193.045528 
L 293.76 -191.105677 
L 293.76 -189.165825 
L 293.76 -187.225973 
L 293.76 -185.286122 
L 293.76 -183.34627 
L 293.76 -181.406418 
L 293.76 -179.466567 
L 293.76 -177.526715 
L 293.76 -175.586863 
L 293.76 -173.647012 
L 293.76 -171.70716 
L 293.76 -169.767308 
L 293.76 -167.827457 
L 293.76 -165.887605 
L 293.76 -163.947753 
L 293.76 -162.007901 
L 293.76 -160.06805 
L 293.76 -158.128198 
L 293.76 -156.188346 
L 293.76 -154.248495 
L 293.76 -152.308643 
z
" id="m669f38be62" style="stroke:#5875a4;stroke-width:2.8;"/>
    </defs>
    <g clip-path="url(#pba140ae8a5)">
     <use style="fill:#5875a4;stroke:#5875a4;stroke-width:2.8;" x="0" xlink:href="#m669f38be62" y="633.6"/>
    </g>
   </g>
   <g id="PolyCollection_2">
    <defs>
     <path d="M 294.977842 -100.944 
L 293.76 -100.944 
L 293.76 -103.734099 
L 293.76 -106.524198 
L 293.76 -109.314298 
L 293.76 -112.104397 
L 293.76 -114.894496 
L 293.76 -117.684595 
L 293.76 -120.474694 
L 293.76 -123.264793 
L 293.76 -126.054893 
L 293.76 -128.844992 
L 293.76 -131.635091 
L 293.76 -134.42519 
L 293.76 -137.215289 
L 293.76 -140.005388 
L 293.76 -142.795488 
L 293.76 -145.585587 
L 293.76 -148.375686 
L 293.76 -151.165785 
L 293.76 -153.955884 
L 293.76 -156.745983 
L 293.76 -159.536083 
L 293.76 -162.326182 
L 293.76 -165.116281 
L 293.76 -167.90638 
L 293.76 -170.696479 
L 293.76 -173.486578 
L 293.76 -176.276678 
L 293.76 -179.066777 
L 293.76 -181.856876 
L 293.76 -184.646975 
L 293.76 -187.437074 
L 293.76 -190.227173 
L 293.76 -193.017273 
L 293.76 -195.807372 
L 293.76 -198.597471 
L 293.76 -201.38757 
L 293.76 -204.177669 
L 293.76 -206.967768 
L 293.76 -209.757868 
L 293.76 -212.547967 
L 293.76 -215.338066 
L 293.76 -218.128165 
L 293.76 -220.918264 
L 293.76 -223.708363 
L 293.76 -226.498463 
L 293.76 -229.288562 
L 293.76 -232.078661 
L 293.76 -234.86876 
L 293.76 -237.658859 
L 293.76 -240.448958 
L 293.76 -243.239058 
L 293.76 -246.029157 
L 293.76 -248.819256 
L 293.76 -251.609355 
L 293.76 -254.399454 
L 293.76 -257.189553 
L 293.76 -259.979653 
L 293.76 -262.769752 
L 293.76 -265.559851 
L 293.76 -268.34995 
L 293.76 -271.140049 
L 293.76 -273.930148 
L 293.76 -276.720248 
L 293.76 -279.510347 
L 293.76 -282.300446 
L 293.76 -285.090545 
L 293.76 -287.880644 
L 293.76 -290.670743 
L 293.76 -293.460843 
L 293.76 -296.250942 
L 293.76 -299.041041 
L 293.76 -301.83114 
L 293.76 -304.621239 
L 293.76 -307.411338 
L 293.76 -310.201438 
L 293.76 -312.991537 
L 293.76 -315.781636 
L 293.76 -318.571735 
L 293.76 -321.361834 
L 293.76 -324.151934 
L 293.76 -326.942033 
L 293.76 -329.732132 
L 293.76 -332.522231 
L 293.76 -335.31233 
L 293.76 -338.102429 
L 293.76 -340.892529 
L 293.76 -343.682628 
L 293.76 -346.472727 
L 293.76 -349.262826 
L 293.76 -352.052925 
L 293.76 -354.843024 
L 293.76 -357.633124 
L 293.76 -360.423223 
L 293.76 -363.213322 
L 293.76 -366.003421 
L 293.76 -368.79352 
L 293.76 -371.583619 
L 293.76 -374.373719 
L 293.76 -377.163818 
L 295.393633 -377.163818 
L 295.393633 -377.163818 
L 295.852587 -374.373719 
L 296.410011 -371.583619 
L 297.078355 -368.79352 
L 297.869543 -366.003421 
L 298.794473 -363.213322 
L 299.862517 -360.423223 
L 301.08108 -357.633124 
L 302.455239 -354.843024 
L 303.987533 -352.052925 
L 305.677916 -349.262826 
L 307.523903 -346.472727 
L 309.520911 -343.682628 
L 311.662775 -340.892529 
L 313.942391 -338.102429 
L 316.352437 -335.31233 
L 318.886077 -332.522231 
L 321.537583 -329.732132 
L 324.302767 -326.942033 
L 327.179175 -324.151934 
L 330.165973 -321.361834 
L 333.263514 -318.571735 
L 336.472596 -315.781636 
L 339.793457 -312.991537 
L 343.224585 -310.201438 
L 346.761449 -307.411338 
L 350.395269 -304.621239 
L 354.11194 -301.83114 
L 357.891214 -299.041041 
L 361.706229 -296.250942 
L 365.523438 -293.460843 
L 369.302938 -290.670743 
L 372.999211 -287.880644 
L 376.562199 -285.090545 
L 379.93867 -282.300446 
L 383.07378 -279.510347 
L 385.912772 -276.720248 
L 388.402722 -273.930148 
L 390.494291 -271.140049 
L 392.143434 -268.34995 
L 393.313038 -265.559851 
L 393.974452 -262.769752 
L 394.108893 -259.979653 
L 393.708661 -257.189553 
L 392.778125 -254.399454 
L 391.334389 -251.609355 
L 389.40756 -248.819256 
L 387.040505 -246.029157 
L 384.288046 -243.239058 
L 381.215511 -240.448958 
L 377.896637 -237.658859 
L 374.410877 -234.86876 
L 370.840183 -232.078661 
L 367.265456 -229.288562 
L 363.762856 -226.498463 
L 360.400223 -223.708363 
L 357.233886 -220.918264 
L 354.306095 -218.128165 
L 351.643303 -215.338066 
L 349.255451 -212.547967 
L 347.136323 -209.757868 
L 345.264971 -206.967768 
L 343.608076 -204.177669 
L 342.123069 -201.38757 
L 340.761745 -198.597471 
L 339.474061 -195.807372 
L 338.211818 -193.017273 
L 336.931914 -190.227173 
L 335.598941 -187.437074 
L 334.186945 -184.646975 
L 332.680264 -181.856876 
L 331.073462 -179.066777 
L 329.370444 -176.276678 
L 327.582929 -173.486578 
L 325.728485 -170.696479 
L 323.828378 -167.90638 
L 321.905449 -165.116281 
L 319.982232 -162.326182 
L 318.079447 -159.536083 
L 316.214969 -156.745983 
L 314.403279 -153.955884 
L 312.655369 -151.165785 
L 310.979021 -148.375686 
L 309.379331 -145.585587 
L 307.859371 -142.795488 
L 306.420867 -140.005388 
L 305.06479 -137.215289 
L 303.791807 -134.42519 
L 302.602543 -131.635091 
L 301.497673 -128.844992 
L 300.477852 -126.054893 
L 299.543539 -123.264793 
L 298.694766 -120.474694 
L 297.930897 -117.684595 
L 297.250432 -114.894496 
L 296.650886 -112.104397 
L 296.128744 -109.314298 
L 295.679517 -106.524198 
L 295.297876 -103.734099 
L 294.977842 -100.944 
z
" id="me545681576" style="stroke:#5f9e6e;stroke-width:2.8;"/>
    </defs>
    <g clip-path="url(#pba140ae8a5)">
     <use style="fill:#5f9e6e;stroke:#5f9e6e;stroke-width:2.8;" x="0" xlink:href="#me545681576" y="633.6"/>
    </g>
   </g>
   <g id="PolyCollection_3">
    <defs>
     <path d="M 650.88 -282.454884 
L 649.171953 -282.454884 
L 648.733618 -285.014168 
L 648.212182 -287.573452 
L 647.599767 -290.132736 
L 646.889605 -292.69202 
L 646.076465 -295.251304 
L 645.157054 -297.810588 
L 644.130356 -300.369872 
L 642.997855 -302.929156 
L 641.763634 -305.48844 
L 640.434305 -308.047724 
L 639.01877 -310.607008 
L 637.527803 -313.166292 
L 635.973484 -315.725576 
L 634.368508 -318.28486 
L 632.725427 -320.844144 
L 631.055876 -323.403428 
L 629.369869 -325.962712 
L 627.675209 -328.521996 
L 625.977086 -331.08128 
L 624.277915 -333.640564 
L 622.577419 -336.199848 
L 620.872978 -338.759132 
L 619.160217 -341.318416 
L 617.433771 -343.8777 
L 615.688174 -346.436984 
L 613.918773 -348.996268 
L 612.122577 -351.555552 
L 610.298958 -354.114836 
L 608.450103 -356.67412 
L 606.58118 -359.233404 
L 604.70016 -361.792688 
L 602.817308 -364.351972 
L 600.944359 -366.911256 
L 599.093444 -369.47054 
L 597.275834 -372.029824 
L 595.500624 -374.589108 
L 593.773447 -377.148392 
L 592.095334 -379.707676 
L 590.461818 -382.26696 
L 588.862364 -384.826244 
L 587.280171 -387.385528 
L 585.692381 -389.944812 
L 584.070692 -392.504096 
L 582.382342 -395.06338 
L 580.591418 -397.622664 
L 578.66043 -400.181948 
L 576.552064 -402.741232 
L 574.231068 -405.300516 
L 571.666178 -407.8598 
L 568.832043 -410.419084 
L 565.711082 -412.978368 
L 562.295237 -415.537652 
L 558.587565 -418.096936 
L 554.603606 -420.65622 
L 550.372474 -423.215504 
L 545.937575 -425.774788 
L 541.356864 -428.334072 
L 536.702547 -430.893356 
L 532.060135 -433.45264 
L 527.526773 -436.011924 
L 523.208827 -438.571208 
L 519.21873 -441.130492 
L 515.67118 -443.689776 
L 512.678828 -446.24906 
L 510.34767 -448.808344 
L 508.772398 -451.367628 
L 508.032 -453.926912 
L 508.185899 -456.486196 
L 509.270906 -459.04548 
L 511.299202 -461.604764 
L 514.257492 -464.164048 
L 518.107399 -466.723332 
L 522.787064 -469.282616 
L 528.213816 -471.8419 
L 534.287742 -474.401184 
L 540.895886 -476.960468 
L 547.916807 -479.519752 
L 555.225223 -482.079036 
L 562.69646 -484.63832 
L 570.210506 -487.197604 
L 577.655486 -489.756888 
L 584.930451 -492.316172 
L 591.947427 -494.875456 
L 598.63273 -497.43474 
L 604.92757 -499.994024 
L 610.788044 -502.553308 
L 616.184593 -505.112592 
L 621.101026 -507.671876 
L 625.533237 -510.23116 
L 629.487685 -512.790444 
L 632.979759 -515.349728 
L 636.03208 -517.909012 
L 638.672831 -520.468296 
L 640.934153 -523.02758 
L 642.850667 -525.586864 
L 644.458141 -528.146148 
L 645.792336 -530.705432 
L 646.888043 -533.264716 
L 647.778318 -535.824 
L 650.88 -535.824 
L 650.88 -535.824 
L 650.88 -533.264716 
L 650.88 -530.705432 
L 650.88 -528.146148 
L 650.88 -525.586864 
L 650.88 -523.02758 
L 650.88 -520.468296 
L 650.88 -517.909012 
L 650.88 -515.349728 
L 650.88 -512.790444 
L 650.88 -510.23116 
L 650.88 -507.671876 
L 650.88 -505.112592 
L 650.88 -502.553308 
L 650.88 -499.994024 
L 650.88 -497.43474 
L 650.88 -494.875456 
L 650.88 -492.316172 
L 650.88 -489.756888 
L 650.88 -487.197604 
L 650.88 -484.63832 
L 650.88 -482.079036 
L 650.88 -479.519752 
L 650.88 -476.960468 
L 650.88 -474.401184 
L 650.88 -471.8419 
L 650.88 -469.282616 
L 650.88 -466.723332 
L 650.88 -464.164048 
L 650.88 -461.604764 
L 650.88 -459.04548 
L 650.88 -456.486196 
L 650.88 -453.926912 
L 650.88 -451.367628 
L 650.88 -448.808344 
L 650.88 -446.24906 
L 650.88 -443.689776 
L 650.88 -441.130492 
L 650.88 -438.571208 
L 650.88 -436.011924 
L 650.88 -433.45264 
L 650.88 -430.893356 
L 650.88 -428.334072 
L 650.88 -425.774788 
L 650.88 -423.215504 
L 650.88 -420.65622 
L 650.88 -418.096936 
L 650.88 -415.537652 
L 650.88 -412.978368 
L 650.88 -410.419084 
L 650.88 -407.8598 
L 650.88 -405.300516 
L 650.88 -402.741232 
L 650.88 -400.181948 
L 650.88 -397.622664 
L 650.88 -395.06338 
L 650.88 -392.504096 
L 650.88 -389.944812 
L 650.88 -387.385528 
L 650.88 -384.826244 
L 650.88 -382.26696 
L 650.88 -379.707676 
L 650.88 -377.148392 
L 650.88 -374.589108 
L 650.88 -372.029824 
L 650.88 -369.47054 
L 650.88 -366.911256 
L 650.88 -364.351972 
L 650.88 -361.792688 
L 650.88 -359.233404 
L 650.88 -356.67412 
L 650.88 -354.114836 
L 650.88 -351.555552 
L 650.88 -348.996268 
L 650.88 -346.436984 
L 650.88 -343.8777 
L 650.88 -341.318416 
L 650.88 -338.759132 
L 650.88 -336.199848 
L 650.88 -333.640564 
L 650.88 -331.08128 
L 650.88 -328.521996 
L 650.88 -325.962712 
L 650.88 -323.403428 
L 650.88 -320.844144 
L 650.88 -318.28486 
L 650.88 -315.725576 
L 650.88 -313.166292 
L 650.88 -310.607008 
L 650.88 -308.047724 
L 650.88 -305.48844 
L 650.88 -302.929156 
L 650.88 -300.369872 
L 650.88 -297.810588 
L 650.88 -295.251304 
L 650.88 -292.69202 
L 650.88 -290.132736 
L 650.88 -287.573452 
L 650.88 -285.014168 
L 650.88 -282.454884 
z
" id="ma63432dc65" style="stroke:#5875a4;stroke-width:2.8;"/>
    </defs>
    <g clip-path="url(#pba140ae8a5)">
     <use style="fill:#5875a4;stroke:#5875a4;stroke-width:2.8;" x="0" xlink:href="#ma63432dc65" y="633.6"/>
    </g>
   </g>
   <g id="PolyCollection_4">
    <defs>
     <path d="M 653.757481 -311.123361 
L 650.88 -311.123361 
L 650.88 -313.35338 
L 650.88 -315.583399 
L 650.88 -317.813418 
L 650.88 -320.043437 
L 650.88 -322.273456 
L 650.88 -324.503475 
L 650.88 -326.733494 
L 650.88 -328.963513 
L 650.88 -331.193532 
L 650.88 -333.423551 
L 650.88 -335.65357 
L 650.88 -337.883589 
L 650.88 -340.113608 
L 650.88 -342.343627 
L 650.88 -344.573646 
L 650.88 -346.803664 
L 650.88 -349.033683 
L 650.88 -351.263702 
L 650.88 -353.493721 
L 650.88 -355.72374 
L 650.88 -357.953759 
L 650.88 -360.183778 
L 650.88 -362.413797 
L 650.88 -364.643816 
L 650.88 -366.873835 
L 650.88 -369.103854 
L 650.88 -371.333873 
L 650.88 -373.563892 
L 650.88 -375.793911 
L 650.88 -378.02393 
L 650.88 -380.253949 
L 650.88 -382.483968 
L 650.88 -384.713986 
L 650.88 -386.944005 
L 650.88 -389.174024 
L 650.88 -391.404043 
L 650.88 -393.634062 
L 650.88 -395.864081 
L 650.88 -398.0941 
L 650.88 -400.324119 
L 650.88 -402.554138 
L 650.88 -404.784157 
L 650.88 -407.014176 
L 650.88 -409.244195 
L 650.88 -411.474214 
L 650.88 -413.704233 
L 650.88 -415.934252 
L 650.88 -418.164271 
L 650.88 -420.39429 
L 650.88 -422.624308 
L 650.88 -424.854327 
L 650.88 -427.084346 
L 650.88 -429.314365 
L 650.88 -431.544384 
L 650.88 -433.774403 
L 650.88 -436.004422 
L 650.88 -438.234441 
L 650.88 -440.46446 
L 650.88 -442.694479 
L 650.88 -444.924498 
L 650.88 -447.154517 
L 650.88 -449.384536 
L 650.88 -451.614555 
L 650.88 -453.844574 
L 650.88 -456.074593 
L 650.88 -458.304611 
L 650.88 -460.53463 
L 650.88 -462.764649 
L 650.88 -464.994668 
L 650.88 -467.224687 
L 650.88 -469.454706 
L 650.88 -471.684725 
L 650.88 -473.914744 
L 650.88 -476.144763 
L 650.88 -478.374782 
L 650.88 -480.604801 
L 650.88 -482.83482 
L 650.88 -485.064839 
L 650.88 -487.294858 
L 650.88 -489.524877 
L 650.88 -491.754896 
L 650.88 -493.984915 
L 650.88 -496.214933 
L 650.88 -498.444952 
L 650.88 -500.674971 
L 650.88 -502.90499 
L 650.88 -505.135009 
L 650.88 -507.365028 
L 650.88 -509.595047 
L 650.88 -511.825066 
L 650.88 -514.055085 
L 650.88 -516.285104 
L 650.88 -518.515123 
L 650.88 -520.745142 
L 650.88 -522.975161 
L 650.88 -525.20518 
L 650.88 -527.435199 
L 650.88 -529.665218 
L 650.88 -531.895237 
L 654.844632 -531.895237 
L 654.844632 -531.895237 
L 655.879853 -529.665218 
L 657.12318 -527.435199 
L 658.599415 -525.20518 
L 660.332176 -522.975161 
L 662.342796 -520.745142 
L 664.649143 -518.515123 
L 667.264429 -516.285104 
L 670.19607 -514.055085 
L 673.444685 -511.825066 
L 677.003311 -509.595047 
L 680.85691 -507.365028 
L 684.982236 -505.135009 
L 689.348101 -502.90499 
L 693.916062 -500.674971 
L 698.641522 -498.444952 
L 703.475207 -496.214933 
L 708.364946 -493.984915 
L 713.257666 -491.754896 
L 718.101496 -489.524877 
L 722.847833 -487.294858 
L 727.453275 -485.064839 
L 731.881272 -482.83482 
L 736.103411 -480.604801 
L 740.100235 -478.374782 
L 743.861553 -476.144763 
L 747.38621 -473.914744 
L 750.681328 -471.684725 
L 753.761054 -469.454706 
L 756.644892 -467.224687 
L 759.355707 -464.994668 
L 761.917513 -462.764649 
L 764.353192 -460.53463 
L 766.682255 -458.304611 
L 768.918813 -456.074593 
L 771.069866 -453.844574 
L 773.134051 -451.614555 
L 775.100922 -449.384536 
L 776.95086 -447.154517 
L 778.655618 -444.924498 
L 780.179509 -442.694479 
L 781.481186 -440.46446 
L 782.515921 -438.234441 
L 783.238243 -436.004422 
L 783.604792 -433.774403 
L 783.577184 -431.544384 
L 783.124712 -429.314365 
L 782.226686 -427.084346 
L 780.874266 -424.854327 
L 779.071625 -422.624308 
L 776.836401 -420.39429 
L 774.199361 -418.164271 
L 771.203331 -415.934252 
L 767.901447 -413.704233 
L 764.354846 -411.474214 
L 760.629959 -409.244195 
L 756.795561 -407.014176 
L 752.919779 -404.784157 
L 749.067217 -402.554138 
L 745.296353 -400.324119 
L 741.657351 -398.0941 
L 738.190364 -395.864081 
L 734.924399 -393.634062 
L 731.876756 -391.404043 
L 729.053044 -389.174024 
L 726.447722 -386.944005 
L 724.045113 -384.713986 
L 721.820817 -382.483968 
L 719.743428 -380.253949 
L 717.776477 -378.02393 
L 715.880489 -375.793911 
L 714.015083 -373.563892 
L 712.141004 -371.333873 
L 710.222024 -369.103854 
L 708.226622 -366.873835 
L 706.12938 -364.643816 
L 703.91205 -362.413797 
L 701.564239 -360.183778 
L 699.0837 -357.953759 
L 696.476225 -355.72374 
L 693.755149 -353.493721 
L 690.940507 -351.263702 
L 688.0579 -349.033683 
L 685.137137 -346.803664 
L 682.210728 -344.573646 
L 679.312329 -342.343627 
L 676.475215 -340.113608 
L 673.730866 -337.883589 
L 671.107738 -335.65357 
L 668.630272 -333.423551 
L 666.318179 -331.193532 
L 664.186015 -328.963513 
L 662.243048 -326.733494 
L 660.493384 -324.503475 
L 658.936331 -322.273456 
L 657.566942 -320.043437 
L 656.376685 -317.813418 
L 655.354194 -315.583399 
L 654.486041 -313.35338 
L 653.757481 -311.123361 
z
" id="m8e6690817c" style="stroke:#5f9e6e;stroke-width:2.8;"/>
    </defs>
    <g clip-path="url(#pba140ae8a5)">
     <use style="fill:#5f9e6e;stroke:#5f9e6e;stroke-width:2.8;" x="0" xlink:href="#m8e6690817c" y="633.6"/>
    </g>
   </g>
   <g id="patch_3">
    <path clip-path="url(#pba140ae8a5)" d="M 293.76 490.412483 
L 293.76 490.412483 
L 293.76 490.412483 
L 293.76 490.412483 
z
" style="fill:#5875a4;stroke:#4c4c4c;stroke-linejoin:miter;stroke-width:1.4;"/>
   </g>
   <g id="patch_4">
    <path clip-path="url(#pba140ae8a5)" d="M 293.76 490.412483 
L 293.76 490.412483 
L 293.76 490.412483 
L 293.76 490.412483 
z
" style="fill:#5f9e6e;stroke:#4c4c4c;stroke-linejoin:miter;stroke-width:1.4;"/>
   </g>
   <g id="line2d_9">
    <path clip-path="url(#pba140ae8a5)" d="M 164.952601 379.08377 
L 293.76 379.08377 
" style="fill:none;stroke:#4c4c4c;stroke-linecap:round;stroke-width:1.4;"/>
   </g>
   <g id="line2d_10">
    <path clip-path="url(#pba140ae8a5)" d="M 185.829294 410.008412 
L 293.76 410.008412 
" style="fill:none;stroke:#4c4c4c;stroke-linecap:round;stroke-width:1.4;"/>
   </g>
   <g id="line2d_11">
    <path clip-path="url(#pba140ae8a5)" d="M 234.404928 335.789271 
L 293.76 335.789271 
" style="fill:none;stroke:#4c4c4c;stroke-linecap:round;stroke-width:1.4;"/>
   </g>
   <g id="line2d_12">
    <path clip-path="url(#pba140ae8a5)" d="M 268.704962 447.117983 
L 293.76 447.117983 
" style="fill:none;stroke:#4c4c4c;stroke-linecap:round;stroke-width:1.4;"/>
   </g>
   <g id="line2d_13">
    <path clip-path="url(#pba140ae8a5)" d="M 168.962343 403.823484 
L 293.76 403.823484 
" style="fill:none;stroke:#4c4c4c;stroke-linecap:round;stroke-width:1.4;"/>
   </g>
   <g id="line2d_14">
    <path clip-path="url(#pba140ae8a5)" d="M 185.829294 410.008412 
L 293.76 410.008412 
" style="fill:none;stroke:#4c4c4c;stroke-linecap:round;stroke-width:1.4;"/>
   </g>
   <g id="line2d_15">
    <path clip-path="url(#pba140ae8a5)" d="M 177.228629 372.898841 
L 293.76 372.898841 
" style="fill:none;stroke:#4c4c4c;stroke-linecap:round;stroke-width:1.4;"/>
   </g>
   <g id="line2d_16">
    <path clip-path="url(#pba140ae8a5)" d="M 164.952601 379.08377 
L 293.76 379.08377 
" style="fill:none;stroke:#4c4c4c;stroke-linecap:round;stroke-width:1.4;"/>
   </g>
   <g id="line2d_17">
    <path clip-path="url(#pba140ae8a5)" d="M 168.962343 403.823484 
L 293.76 403.823484 
" style="fill:none;stroke:#4c4c4c;stroke-linecap:round;stroke-width:1.4;"/>
   </g>
   <g id="line2d_18">
    <path clip-path="url(#pba140ae8a5)" d="M 234.404928 335.789271 
L 293.76 335.789271 
" style="fill:none;stroke:#4c4c4c;stroke-linecap:round;stroke-width:1.4;"/>
   </g>
   <g id="line2d_19">
    <path clip-path="url(#pba140ae8a5)" d="M 204.286632 360.528985 
L 293.76 360.528985 
" style="fill:none;stroke:#4c4c4c;stroke-linecap:round;stroke-width:1.4;"/>
   </g>
   <g id="line2d_20">
    <path clip-path="url(#pba140ae8a5)" d="M 246.12815 323.419414 
L 293.76 323.419414 
" style="fill:none;stroke:#4c4c4c;stroke-linecap:round;stroke-width:1.4;"/>
   </g>
   <g id="line2d_21">
    <path clip-path="url(#pba140ae8a5)" d="M 164.952601 379.08377 
L 293.76 379.08377 
" style="fill:none;stroke:#4c4c4c;stroke-linecap:round;stroke-width:1.4;"/>
   </g>
   <g id="line2d_22">
    <path clip-path="url(#pba140ae8a5)" d="M 152.463617 391.453627 
L 293.76 391.453627 
" style="fill:none;stroke:#4c4c4c;stroke-linecap:round;stroke-width:1.4;"/>
   </g>
   <g id="line2d_23">
    <path clip-path="url(#pba140ae8a5)" d="M 168.962343 403.823484 
L 293.76 403.823484 
" style="fill:none;stroke:#4c4c4c;stroke-linecap:round;stroke-width:1.4;"/>
   </g>
   <g id="line2d_24">
    <path clip-path="url(#pba140ae8a5)" d="M 152.463617 391.453627 
L 293.76 391.453627 
" style="fill:none;stroke:#4c4c4c;stroke-linecap:round;stroke-width:1.4;"/>
   </g>
   <g id="line2d_25">
    <path clip-path="url(#pba140ae8a5)" d="M 152.463617 391.453627 
L 293.76 391.453627 
" style="fill:none;stroke:#4c4c4c;stroke-linecap:round;stroke-width:1.4;"/>
   </g>
   <g id="line2d_26">
    <path clip-path="url(#pba140ae8a5)" d="M 177.228629 372.898841 
L 293.76 372.898841 
" style="fill:none;stroke:#4c4c4c;stroke-linecap:round;stroke-width:1.4;"/>
   </g>
   <g id="line2d_27">
    <path clip-path="url(#pba140ae8a5)" d="M 157.372747 397.638555 
L 293.76 397.638555 
" style="fill:none;stroke:#4c4c4c;stroke-linecap:round;stroke-width:1.4;"/>
   </g>
   <g id="line2d_28">
    <path clip-path="url(#pba140ae8a5)" d="M 255.010204 434.748126 
L 293.76 434.748126 
" style="fill:none;stroke:#4c4c4c;stroke-linecap:round;stroke-width:1.4;"/>
   </g>
   <g id="line2d_29">
    <path clip-path="url(#pba140ae8a5)" d="M 246.12815 323.419414 
L 293.76 323.419414 
" style="fill:none;stroke:#4c4c4c;stroke-linecap:round;stroke-width:1.4;"/>
   </g>
   <g id="line2d_30">
    <path clip-path="url(#pba140ae8a5)" d="M 225.582258 348.159128 
L 293.76 348.159128 
" style="fill:none;stroke:#4c4c4c;stroke-linecap:round;stroke-width:1.4;"/>
   </g>
   <g id="line2d_31">
    <path clip-path="url(#pba140ae8a5)" d="M 157.372747 397.638555 
L 293.76 397.638555 
" style="fill:none;stroke:#4c4c4c;stroke-linecap:round;stroke-width:1.4;"/>
   </g>
   <g id="line2d_32">
    <path clip-path="url(#pba140ae8a5)" d="M 191.001559 366.713913 
L 293.76 366.713913 
" style="fill:none;stroke:#4c4c4c;stroke-linecap:round;stroke-width:1.4;"/>
   </g>
   <g id="line2d_33">
    <path clip-path="url(#pba140ae8a5)" d="M 293.76 385.268698 
L 388.451084 385.268698 
" style="fill:none;stroke:#4c4c4c;stroke-linecap:round;stroke-width:1.4;"/>
   </g>
   <g id="line2d_34">
    <path clip-path="url(#pba140ae8a5)" d="M 293.76 341.974199 
L 368.547509 341.974199 
" style="fill:none;stroke:#4c4c4c;stroke-linecap:round;stroke-width:1.4;"/>
   </g>
   <g id="line2d_35">
    <path clip-path="url(#pba140ae8a5)" d="M 293.76 385.268698 
L 388.451084 385.268698 
" style="fill:none;stroke:#4c4c4c;stroke-linecap:round;stroke-width:1.4;"/>
   </g>
   <g id="line2d_36">
    <path clip-path="url(#pba140ae8a5)" d="M 293.76 329.604342 
L 349.828917 329.604342 
" style="fill:none;stroke:#4c4c4c;stroke-linecap:round;stroke-width:1.4;"/>
   </g>
   <g id="line2d_37">
    <path clip-path="url(#pba140ae8a5)" d="M 293.76 410.008412 
L 359.733821 410.008412 
" style="fill:none;stroke:#4c4c4c;stroke-linecap:round;stroke-width:1.4;"/>
   </g>
   <g id="line2d_38">
    <path clip-path="url(#pba140ae8a5)" d="M 293.76 447.117983 
L 335.180552 447.117983 
" style="fill:none;stroke:#4c4c4c;stroke-linecap:round;stroke-width:1.4;"/>
   </g>
   <g id="line2d_39">
    <path clip-path="url(#pba140ae8a5)" d="M 293.76 372.898841 
L 393.105404 372.898841 
" style="fill:none;stroke:#4c4c4c;stroke-linecap:round;stroke-width:1.4;"/>
   </g>
   <g id="line2d_40">
    <path clip-path="url(#pba140ae8a5)" d="M 293.76 397.638555 
L 373.604368 397.638555 
" style="fill:none;stroke:#4c4c4c;stroke-linecap:round;stroke-width:1.4;"/>
   </g>
   <g id="line2d_41">
    <path clip-path="url(#pba140ae8a5)" d="M 293.76 360.528985 
L 387.456295 360.528985 
" style="fill:none;stroke:#4c4c4c;stroke-linecap:round;stroke-width:1.4;"/>
   </g>
   <g id="line2d_42">
    <path clip-path="url(#pba140ae8a5)" d="M 293.76 317.234485 
L 336.04547 317.234485 
" style="fill:none;stroke:#4c4c4c;stroke-linecap:round;stroke-width:1.4;"/>
   </g>
   <g id="line2d_43">
    <path clip-path="url(#pba140ae8a5)" d="M 293.76 484.227554 
L 310.806831 484.227554 
" style="fill:none;stroke:#4c4c4c;stroke-linecap:round;stroke-width:1.4;"/>
   </g>
   <g id="line2d_44">
    <path clip-path="url(#pba140ae8a5)" d="M 293.76 304.864628 
L 321.259807 304.864628 
" style="fill:none;stroke:#4c4c4c;stroke-linecap:round;stroke-width:1.4;"/>
   </g>
   <g id="line2d_45">
    <path clip-path="url(#pba140ae8a5)" d="M 293.76 348.159128 
L 375.734177 348.159128 
" style="fill:none;stroke:#4c4c4c;stroke-linecap:round;stroke-width:1.4;"/>
   </g>
   <g id="line2d_46">
    <path clip-path="url(#pba140ae8a5)" d="M 293.76 372.898841 
L 393.105404 372.898841 
" style="fill:none;stroke:#4c4c4c;stroke-linecap:round;stroke-width:1.4;"/>
   </g>
   <g id="line2d_47">
    <path clip-path="url(#pba140ae8a5)" d="M 293.76 360.528985 
L 387.456295 360.528985 
" style="fill:none;stroke:#4c4c4c;stroke-linecap:round;stroke-width:1.4;"/>
   </g>
   <g id="line2d_48">
    <path clip-path="url(#pba140ae8a5)" d="M 293.76 397.638555 
L 373.604368 397.638555 
" style="fill:none;stroke:#4c4c4c;stroke-linecap:round;stroke-width:1.4;"/>
   </g>
   <g id="line2d_49">
    <path clip-path="url(#pba140ae8a5)" d="M 293.76 354.344056 
L 382.180642 354.344056 
" style="fill:none;stroke:#4c4c4c;stroke-linecap:round;stroke-width:1.4;"/>
   </g>
   <g id="line2d_50">
    <path clip-path="url(#pba140ae8a5)" d="M 293.76 434.748126 
L 340.291727 434.748126 
" style="fill:none;stroke:#4c4c4c;stroke-linecap:round;stroke-width:1.4;"/>
   </g>
   <g id="line2d_51">
    <path clip-path="url(#pba140ae8a5)" d="M 293.76 385.268698 
L 388.451084 385.268698 
" style="fill:none;stroke:#4c4c4c;stroke-linecap:round;stroke-width:1.4;"/>
   </g>
   <g id="line2d_52">
    <path clip-path="url(#pba140ae8a5)" d="M 293.76 360.528985 
L 387.456295 360.528985 
" style="fill:none;stroke:#4c4c4c;stroke-linecap:round;stroke-width:1.4;"/>
   </g>
   <g id="line2d_53">
    <path clip-path="url(#pba140ae8a5)" d="M 293.76 385.268698 
L 388.451084 385.268698 
" style="fill:none;stroke:#4c4c4c;stroke-linecap:round;stroke-width:1.4;"/>
   </g>
   <g id="line2d_54">
    <path clip-path="url(#pba140ae8a5)" d="M 293.76 440.933055 
L 337.7673 440.933055 
" style="fill:none;stroke:#4c4c4c;stroke-linecap:round;stroke-width:1.4;"/>
   </g>
   <g id="line2d_55">
    <path clip-path="url(#pba140ae8a5)" d="M 293.76 453.302912 
L 330.700327 453.302912 
" style="fill:none;stroke:#4c4c4c;stroke-linecap:round;stroke-width:1.4;"/>
   </g>
   <g id="line2d_56">
    <path clip-path="url(#pba140ae8a5)" d="M 555.56637 212.090701 
L 650.88 212.090701 
" style="fill:none;stroke:#4c4c4c;stroke-linecap:round;stroke-width:1.4;"/>
   </g>
   <g id="line2d_57">
    <path clip-path="url(#pba140ae8a5)" d="M 627.907257 304.864628 
L 650.88 304.864628 
" style="fill:none;stroke:#4c4c4c;stroke-linecap:round;stroke-width:1.4;"/>
   </g>
   <g id="line2d_58">
    <path clip-path="url(#pba140ae8a5)" d="M 578.387731 144.056488 
L 650.88 144.056488 
" style="fill:none;stroke:#4c4c4c;stroke-linecap:round;stroke-width:1.4;"/>
   </g>
   <g id="line2d_59">
    <path clip-path="url(#pba140ae8a5)" d="M 586.344257 243.015343 
L 650.88 243.015343 
" style="fill:none;stroke:#4c4c4c;stroke-linecap:round;stroke-width:1.4;"/>
   </g>
   <g id="line2d_60">
    <path clip-path="url(#pba140ae8a5)" d="M 529.440478 162.611273 
L 650.88 162.611273 
" style="fill:none;stroke:#4c4c4c;stroke-linecap:round;stroke-width:1.4;"/>
   </g>
   <g id="line2d_61">
    <path clip-path="url(#pba140ae8a5)" d="M 616.040093 286.309843 
L 650.88 286.309843 
" style="fill:none;stroke:#4c4c4c;stroke-linecap:round;stroke-width:1.4;"/>
   </g>
   <g id="line2d_62">
    <path clip-path="url(#pba140ae8a5)" d="M 542.452095 205.905773 
L 650.88 205.905773 
" style="fill:none;stroke:#4c4c4c;stroke-linecap:round;stroke-width:1.4;"/>
   </g>
   <g id="line2d_63">
    <path clip-path="url(#pba140ae8a5)" d="M 597.811876 261.570129 
L 650.88 261.570129 
" style="fill:none;stroke:#4c4c4c;stroke-linecap:round;stroke-width:1.4;"/>
   </g>
   <g id="line2d_64">
    <path clip-path="url(#pba140ae8a5)" d="M 510.193474 181.166059 
L 650.88 181.166059 
" style="fill:none;stroke:#4c4c4c;stroke-linecap:round;stroke-width:1.4;"/>
   </g>
   <g id="line2d_65">
    <path clip-path="url(#pba140ae8a5)" d="M 586.344257 243.015343 
L 650.88 243.015343 
" style="fill:none;stroke:#4c4c4c;stroke-linecap:round;stroke-width:1.4;"/>
   </g>
   <g id="line2d_66">
    <path clip-path="url(#pba140ae8a5)" d="M 555.56637 212.090701 
L 650.88 212.090701 
" style="fill:none;stroke:#4c4c4c;stroke-linecap:round;stroke-width:1.4;"/>
   </g>
   <g id="line2d_67">
    <path clip-path="url(#pba140ae8a5)" d="M 556.18177 150.241416 
L 650.88 150.241416 
" style="fill:none;stroke:#4c4c4c;stroke-linecap:round;stroke-width:1.4;"/>
   </g>
   <g id="line2d_68">
    <path clip-path="url(#pba140ae8a5)" d="M 510.193474 181.166059 
L 650.88 181.166059 
" style="fill:none;stroke:#4c4c4c;stroke-linecap:round;stroke-width:1.4;"/>
   </g>
   <g id="line2d_69">
    <path clip-path="url(#pba140ae8a5)" d="M 515.623717 168.796202 
L 650.88 168.796202 
" style="fill:none;stroke:#4c4c4c;stroke-linecap:round;stroke-width:1.4;"/>
   </g>
   <g id="line2d_70">
    <path clip-path="url(#pba140ae8a5)" d="M 515.623717 168.796202 
L 650.88 168.796202 
" style="fill:none;stroke:#4c4c4c;stroke-linecap:round;stroke-width:1.4;"/>
   </g>
   <g id="line2d_71">
    <path clip-path="url(#pba140ae8a5)" d="M 510.686997 174.98113 
L 650.88 174.98113 
" style="fill:none;stroke:#4c4c4c;stroke-linecap:round;stroke-width:1.4;"/>
   </g>
   <g id="line2d_72">
    <path clip-path="url(#pba140ae8a5)" d="M 529.440478 162.611273 
L 650.88 162.611273 
" style="fill:none;stroke:#4c4c4c;stroke-linecap:round;stroke-width:1.4;"/>
   </g>
   <g id="line2d_73">
    <path clip-path="url(#pba140ae8a5)" d="M 510.193474 181.166059 
L 650.88 181.166059 
" style="fill:none;stroke:#4c4c4c;stroke-linecap:round;stroke-width:1.4;"/>
   </g>
   <g id="line2d_74">
    <path clip-path="url(#pba140ae8a5)" d="M 514.06084 187.350987 
L 650.88 187.350987 
" style="fill:none;stroke:#4c4c4c;stroke-linecap:round;stroke-width:1.4;"/>
   </g>
   <g id="line2d_75">
    <path clip-path="url(#pba140ae8a5)" d="M 577.295343 230.645486 
L 650.88 230.645486 
" style="fill:none;stroke:#4c4c4c;stroke-linecap:round;stroke-width:1.4;"/>
   </g>
   <g id="line2d_76">
    <path clip-path="url(#pba140ae8a5)" d="M 510.686997 174.98113 
L 650.88 174.98113 
" style="fill:none;stroke:#4c4c4c;stroke-linecap:round;stroke-width:1.4;"/>
   </g>
   <g id="line2d_77">
    <path clip-path="url(#pba140ae8a5)" d="M 533.248334 199.720844 
L 650.88 199.720844 
" style="fill:none;stroke:#4c4c4c;stroke-linecap:round;stroke-width:1.4;"/>
   </g>
   <g id="line2d_78">
    <path clip-path="url(#pba140ae8a5)" d="M 597.811876 261.570129 
L 650.88 261.570129 
" style="fill:none;stroke:#4c4c4c;stroke-linecap:round;stroke-width:1.4;"/>
   </g>
   <g id="line2d_79">
    <path clip-path="url(#pba140ae8a5)" d="M 510.193474 181.166059 
L 650.88 181.166059 
" style="fill:none;stroke:#4c4c4c;stroke-linecap:round;stroke-width:1.4;"/>
   </g>
   <g id="line2d_80">
    <path clip-path="url(#pba140ae8a5)" d="M 650.88 218.27563 
L 770.000098 218.27563 
" style="fill:none;stroke:#4c4c4c;stroke-linecap:round;stroke-width:1.4;"/>
   </g>
   <g id="line2d_81">
    <path clip-path="url(#pba140ae8a5)" d="M 650.88 162.611273 
L 749.683314 162.611273 
" style="fill:none;stroke:#4c4c4c;stroke-linecap:round;stroke-width:1.4;"/>
   </g>
   <g id="line2d_82">
    <path clip-path="url(#pba140ae8a5)" d="M 650.88 205.905773 
L 780.91322 205.905773 
" style="fill:none;stroke:#4c4c4c;stroke-linecap:round;stroke-width:1.4;"/>
   </g>
   <g id="line2d_83">
    <path clip-path="url(#pba140ae8a5)" d="M 650.88 193.535916 
L 780.175174 193.535916 
" style="fill:none;stroke:#4c4c4c;stroke-linecap:round;stroke-width:1.4;"/>
   </g>
   <g id="line2d_84">
    <path clip-path="url(#pba140ae8a5)" d="M 650.88 261.570129 
L 711.528394 261.570129 
" style="fill:none;stroke:#4c4c4c;stroke-linecap:round;stroke-width:1.4;"/>
   </g>
   <g id="line2d_85">
    <path clip-path="url(#pba140ae8a5)" d="M 650.88 273.939986 
L 701.057396 273.939986 
" style="fill:none;stroke:#4c4c4c;stroke-linecap:round;stroke-width:1.4;"/>
   </g>
   <g id="line2d_86">
    <path clip-path="url(#pba140ae8a5)" d="M 650.88 150.241416 
L 731.07126 150.241416 
" style="fill:none;stroke:#4c4c4c;stroke-linecap:round;stroke-width:1.4;"/>
   </g>
   <g id="line2d_87">
    <path clip-path="url(#pba140ae8a5)" d="M 650.88 150.241416 
L 731.07126 150.241416 
" style="fill:none;stroke:#4c4c4c;stroke-linecap:round;stroke-width:1.4;"/>
   </g>
   <g id="line2d_88">
    <path clip-path="url(#pba140ae8a5)" d="M 650.88 174.98113 
L 765.524233 174.98113 
" style="fill:none;stroke:#4c4c4c;stroke-linecap:round;stroke-width:1.4;"/>
   </g>
   <g id="line2d_89">
    <path clip-path="url(#pba140ae8a5)" d="M 650.88 205.905773 
L 780.91322 205.905773 
" style="fill:none;stroke:#4c4c4c;stroke-linecap:round;stroke-width:1.4;"/>
   </g>
   <g id="line2d_90">
    <path clip-path="url(#pba140ae8a5)" d="M 650.88 280.124914 
L 693.326397 280.124914 
" style="fill:none;stroke:#4c4c4c;stroke-linecap:round;stroke-width:1.4;"/>
   </g>
   <g id="line2d_91">
    <path clip-path="url(#pba140ae8a5)" d="M 650.88 212.090701 
L 775.576837 212.090701 
" style="fill:none;stroke:#4c4c4c;stroke-linecap:round;stroke-width:1.4;"/>
   </g>
   <g id="line2d_92">
    <path clip-path="url(#pba140ae8a5)" d="M 650.88 144.056488 
L 717.429281 144.056488 
" style="fill:none;stroke:#4c4c4c;stroke-linecap:round;stroke-width:1.4;"/>
   </g>
   <g id="line2d_93">
    <path clip-path="url(#pba140ae8a5)" d="M 650.88 174.98113 
L 765.524233 174.98113 
" style="fill:none;stroke:#4c4c4c;stroke-linecap:round;stroke-width:1.4;"/>
   </g>
   <g id="line2d_94">
    <path clip-path="url(#pba140ae8a5)" d="M 650.88 212.090701 
L 775.576837 212.090701 
" style="fill:none;stroke:#4c4c4c;stroke-linecap:round;stroke-width:1.4;"/>
   </g>
   <g id="line2d_95">
    <path clip-path="url(#pba140ae8a5)" d="M 650.88 236.830415 
L 737.31726 236.830415 
" style="fill:none;stroke:#4c4c4c;stroke-linecap:round;stroke-width:1.4;"/>
   </g>
   <g id="line2d_96">
    <path clip-path="url(#pba140ae8a5)" d="M 650.88 199.720844 
L 782.277544 199.720844 
" style="fill:none;stroke:#4c4c4c;stroke-linecap:round;stroke-width:1.4;"/>
   </g>
   <g id="line2d_97">
    <path clip-path="url(#pba140ae8a5)" d="M 650.88 218.27563 
L 770.000098 218.27563 
" style="fill:none;stroke:#4c4c4c;stroke-linecap:round;stroke-width:1.4;"/>
   </g>
   <g id="line2d_98">
    <path clip-path="url(#pba140ae8a5)" d="M 650.88 193.535916 
L 780.175174 193.535916 
" style="fill:none;stroke:#4c4c4c;stroke-linecap:round;stroke-width:1.4;"/>
   </g>
   <g id="line2d_99">
    <path clip-path="url(#pba140ae8a5)" d="M 650.88 162.611273 
L 749.683314 162.611273 
" style="fill:none;stroke:#4c4c4c;stroke-linecap:round;stroke-width:1.4;"/>
   </g>
   <g id="line2d_100">
    <path clip-path="url(#pba140ae8a5)" d="M 650.88 181.166059 
L 771.91151 181.166059 
" style="fill:none;stroke:#4c4c4c;stroke-linecap:round;stroke-width:1.4;"/>
   </g>
   <g id="line2d_101">
    <path clip-path="url(#pba140ae8a5)" d="M 650.88 236.830415 
L 737.31726 236.830415 
" style="fill:none;stroke:#4c4c4c;stroke-linecap:round;stroke-width:1.4;"/>
   </g>
   <g id="line2d_102">
    <path clip-path="url(#pba140ae8a5)" d="M 650.88 255.3852 
L 717.107512 255.3852 
" style="fill:none;stroke:#4c4c4c;stroke-linecap:round;stroke-width:1.4;"/>
   </g>
   <g id="patch_5">
    <path d="M 105.2 490.412483 
L 105.2 119.316774 
" style="fill:none;stroke:#262626;stroke-linecap:square;stroke-linejoin:miter;stroke-width:1.25;"/>
   </g>
   <g id="patch_6">
    <path d="M 293.76 564.4 
L 650.88 564.4 
" style="fill:none;stroke:#262626;stroke-linecap:square;stroke-linejoin:miter;stroke-width:1.25;"/>
   </g>
   <g id="legend_1">
    <g id="patch_7">
     <path d="M 132.48 107.055 
L 170.88 107.055 
L 170.88 93.615 
L 132.48 93.615 
z
" style="fill:#5875a4;stroke:#4c4c4c;stroke-linejoin:miter;stroke-width:1.4;"/>
    </g>
    <g id="text_10">
     <!-- TD -->
     <defs>
      <path d="M 25.921875 0 
L 25.921875 63.140625 
L 2.34375 63.140625 
L 2.34375 71.578125 
L 59.078125 71.578125 
L 59.078125 63.140625 
L 35.40625 63.140625 
L 35.40625 0 
z
" id="ArialMT-54"/>
      <path d="M 7.71875 0 
L 7.71875 71.578125 
L 32.375 71.578125 
Q 40.71875 71.578125 45.125 70.5625 
Q 51.265625 69.140625 55.609375 65.4375 
Q 61.28125 60.640625 64.078125 53.1875 
Q 66.890625 45.75 66.890625 36.1875 
Q 66.890625 28.03125 64.984375 21.734375 
Q 63.09375 15.4375 60.109375 11.296875 
Q 57.125 7.171875 53.578125 4.796875 
Q 50.046875 2.4375 45.046875 1.21875 
Q 40.046875 0 33.546875 0 
z
M 17.1875 8.453125 
L 32.46875 8.453125 
Q 39.546875 8.453125 43.578125 9.765625 
Q 47.609375 11.078125 50 13.484375 
Q 53.375 16.84375 55.25 22.53125 
Q 57.125 28.21875 57.125 36.328125 
Q 57.125 47.5625 53.4375 53.59375 
Q 49.75 59.625 44.484375 61.671875 
Q 40.671875 63.140625 32.234375 63.140625 
L 17.1875 63.140625 
z
" id="ArialMT-44"/>
     </defs>
     <g style="fill:#262626;" transform="translate(186.24 107.055)scale(0.192 -0.192)">
      <use xlink:href="#ArialMT-54"/>
      <use x="61.083984" xlink:href="#ArialMT-44"/>
     </g>
    </g>
    <g id="patch_8">
     <path d="M 132.48 134.214 
L 170.88 134.214 
L 170.88 120.774 
L 132.48 120.774 
z
" style="fill:#5f9e6e;stroke:#4c4c4c;stroke-linejoin:miter;stroke-width:1.4;"/>
    </g>
    <g id="text_11">
     <!-- ASD -->
     <defs>
      <path d="M -0.140625 0 
L 27.34375 71.578125 
L 37.546875 71.578125 
L 66.84375 0 
L 56.0625 0 
L 47.703125 21.6875 
L 17.78125 21.6875 
L 9.90625 0 
z
M 20.515625 29.390625 
L 44.78125 29.390625 
L 37.3125 49.21875 
Q 33.890625 58.25 32.234375 64.0625 
Q 30.859375 57.171875 28.375 50.390625 
z
" id="ArialMT-41"/>
      <path d="M 4.5 23 
L 13.421875 23.78125 
Q 14.0625 18.40625 16.375 14.96875 
Q 18.703125 11.53125 23.578125 9.40625 
Q 28.46875 7.28125 34.578125 7.28125 
Q 39.984375 7.28125 44.140625 8.890625 
Q 48.296875 10.5 50.3125 13.296875 
Q 52.34375 16.109375 52.34375 19.4375 
Q 52.34375 22.796875 50.390625 25.3125 
Q 48.4375 27.828125 43.953125 29.546875 
Q 41.0625 30.671875 31.203125 33.03125 
Q 21.34375 35.40625 17.390625 37.5 
Q 12.25 40.1875 9.734375 44.15625 
Q 7.234375 48.140625 7.234375 53.078125 
Q 7.234375 58.5 10.296875 63.203125 
Q 13.375 67.921875 19.28125 70.359375 
Q 25.203125 72.796875 32.421875 72.796875 
Q 40.375 72.796875 46.453125 70.234375 
Q 52.546875 67.671875 55.8125 62.6875 
Q 59.078125 57.71875 59.328125 51.421875 
L 50.25 50.734375 
Q 49.515625 57.515625 45.28125 60.984375 
Q 41.0625 64.453125 32.8125 64.453125 
Q 24.21875 64.453125 20.28125 61.296875 
Q 16.359375 58.15625 16.359375 53.71875 
Q 16.359375 49.859375 19.140625 47.359375 
Q 21.875 44.875 33.421875 42.265625 
Q 44.96875 39.65625 49.265625 37.703125 
Q 55.515625 34.8125 58.484375 30.390625 
Q 61.46875 25.984375 61.46875 20.21875 
Q 61.46875 14.5 58.203125 9.4375 
Q 54.9375 4.390625 48.796875 1.578125 
Q 42.671875 -1.21875 35.015625 -1.21875 
Q 25.296875 -1.21875 18.71875 1.609375 
Q 12.15625 4.4375 8.421875 10.125 
Q 4.6875 15.828125 4.5 23 
z
" id="ArialMT-53"/>
     </defs>
     <g style="fill:#262626;" transform="translate(186.24 134.214)scale(0.192 -0.192)">
      <use xlink:href="#ArialMT-41"/>
      <use x="66.699219" xlink:href="#ArialMT-53"/>
      <use x="133.398438" xlink:href="#ArialMT-44"/>
     </g>
    </g>
   </g>
  </g>
 </g>
 <defs>
  <clipPath id="pba140ae8a5">
   <rect height="478.368" width="714.24" x="115.2" y="76.032"/>
  </clipPath>
 </defs>
</svg>
