<?xml version="1.0" encoding="utf-8" standalone="no"?>
<!DOCTYPE svg PUBLIC "-//W3C//DTD SVG 1.1//EN"
  "http://www.w3.org/Graphics/SVG/1.1/DTD/svg11.dtd">
<!-- Created with matplotlib (http://matplotlib.org/) -->
<svg height="633pt" version="1.1" viewBox="0 0 921 633" width="921pt" xmlns="http://www.w3.org/2000/svg" xmlns:xlink="http://www.w3.org/1999/xlink">
 <defs>
  <style type="text/css">
*{stroke-linecap:butt;stroke-linejoin:round;stroke-miterlimit:100000;}
  </style>
 </defs>
 <g id="figure_1">
  <g id="patch_1">
   <path d="M 0 633.6 
L 921.6 633.6 
L 921.6 0 
L 0 0 
z
" style="fill:#ffffff;"/>
  </g>
  <g id="axes_1">
   <g id="patch_2">
    <path d="M 115.2 554.4 
L 829.44 554.4 
L 829.44 63.36 
L 115.2 63.36 
z
" style="fill:#ffffff;"/>
   </g>
   <g id="matplotlib.axis_1">
    <g id="xtick_1">
     <g id="line2d_1">
      <defs>
       <path d="M 0 0 
L 0 6 
" id="m37faf71f53" style="stroke:#262626;stroke-width:1.6;"/>
      </defs>
      <g>
       <use style="fill:#262626;stroke:#262626;stroke-width:1.6;" x="293.76" xlink:href="#m37faf71f53" y="564.4"/>
      </g>
     </g>
     <g id="text_1">
      <!-- Pre -->
      <defs>
       <path d="M 6.9375 0 
L 6.9375 40.53125 
Q 6.9375 42.1875 6.90625 43.921875 
Q 6.890625 45.65625 6.828125 47.265625 
Q 6.78125 48.875 6.734375 50.28125 
Q 6.6875 51.703125 6.640625 52.828125 
L 14.9375 52.828125 
Q 14.984375 51.703125 15.0625 50.265625 
Q 15.140625 48.828125 15.203125 47.3125 
Q 15.28125 45.796875 15.296875 44.40625 
Q 15.328125 43.015625 15.328125 42.046875 
L 15.53125 42.046875 
Q 16.453125 45.0625 17.5 47.28125 
Q 18.5625 49.515625 19.96875 50.953125 
Q 21.390625 52.390625 23.34375 53.09375 
Q 25.296875 53.8125 28.078125 53.8125 
Q 29.15625 53.8125 30.125 53.640625 
Q 31.109375 53.46875 31.640625 53.328125 
L 31.640625 45.265625 
Q 30.765625 45.515625 29.59375 45.625 
Q 28.421875 45.75 26.953125 45.75 
Q 23.921875 45.75 21.796875 44.375 
Q 19.671875 43.015625 18.328125 40.59375 
Q 17 38.1875 16.359375 34.84375 
Q 15.71875 31.5 15.71875 27.546875 
L 15.71875 0 
z
" id="LiberationSans-72"/>
       <path d="M 61.421875 48.09375 
Q 61.421875 43.609375 59.9375 39.71875 
Q 58.453125 35.84375 55.5 32.984375 
Q 52.546875 30.125 48.09375 28.46875 
Q 43.65625 26.8125 37.75 26.8125 
L 17.53125 26.8125 
L 17.53125 0 
L 8.203125 0 
L 8.203125 68.796875 
L 37.15625 68.796875 
Q 43.265625 68.796875 47.796875 67.3125 
Q 52.34375 65.828125 55.375 63.109375 
Q 58.40625 60.40625 59.90625 56.5625 
Q 61.421875 52.734375 61.421875 48.09375 
M 52.046875 48 
Q 52.046875 54.546875 48.046875 57.9375 
Q 44.046875 61.328125 36.03125 61.328125 
L 17.53125 61.328125 
L 17.53125 34.1875 
L 36.421875 34.1875 
Q 44.484375 34.1875 48.265625 37.75 
Q 52.046875 41.3125 52.046875 48 
" id="LiberationSans-50"/>
       <path d="M 13.484375 24.5625 
Q 13.484375 20.40625 14.328125 16.90625 
Q 15.1875 13.421875 16.96875 10.90625 
Q 18.75 8.40625 21.53125 7 
Q 24.3125 5.609375 28.21875 5.609375 
Q 33.9375 5.609375 37.375 7.90625 
Q 40.828125 10.203125 42.046875 13.71875 
L 49.75 11.53125 
Q 48.921875 9.328125 47.4375 7.109375 
Q 45.953125 4.890625 43.453125 3.09375 
Q 40.96875 1.3125 37.234375 0.15625 
Q 33.5 -0.984375 28.21875 -0.984375 
Q 16.5 -0.984375 10.375 6 
Q 4.25 12.984375 4.25 26.765625 
Q 4.25 34.1875 6.09375 39.328125 
Q 7.953125 44.484375 11.171875 47.703125 
Q 14.40625 50.921875 18.703125 52.359375 
Q 23 53.8125 27.875 53.8125 
Q 34.515625 53.8125 38.984375 51.65625 
Q 43.453125 49.515625 46.15625 45.71875 
Q 48.875 41.9375 50.015625 36.8125 
Q 51.171875 31.6875 51.171875 25.734375 
L 51.171875 24.5625 
z
M 42.09375 31.296875 
Q 41.359375 39.65625 37.84375 43.484375 
Q 34.328125 47.3125 27.734375 47.3125 
Q 25.53125 47.3125 23.109375 46.609375 
Q 20.703125 45.90625 18.65625 44.09375 
Q 16.609375 42.28125 15.1875 39.171875 
Q 13.765625 36.078125 13.578125 31.296875 
z
" id="LiberationSans-65"/>
      </defs>
      <g style="fill:#262626;" transform="translate(281.31125 593.195)scale(0.16 -0.16)">
       <use xlink:href="#LiberationSans-50"/>
       <use x="66.69921875" xlink:href="#LiberationSans-72"/>
       <use x="100.0" xlink:href="#LiberationSans-65"/>
      </g>
     </g>
    </g>
    <g id="xtick_2">
     <g id="line2d_2">
      <g>
       <use style="fill:#262626;stroke:#262626;stroke-width:1.6;" x="650.88" xlink:href="#m37faf71f53" y="564.4"/>
      </g>
     </g>
     <g id="text_2">
      <!-- Post -->
      <defs>
       <path d="M 46.390625 14.59375 
Q 46.390625 10.890625 44.9375 7.984375 
Q 43.5 5.078125 40.765625 3.09375 
Q 38.03125 1.125 34.046875 0.0625 
Q 30.078125 -0.984375 24.953125 -0.984375 
Q 20.359375 -0.984375 16.671875 -0.265625 
Q 12.984375 0.4375 10.203125 2 
Q 7.421875 3.5625 5.53125 6.125 
Q 3.65625 8.6875 2.78125 12.40625 
L 10.546875 13.921875 
Q 11.671875 9.671875 15.1875 7.6875 
Q 18.703125 5.71875 24.953125 5.71875 
Q 27.78125 5.71875 30.140625 6.109375 
Q 32.515625 6.5 34.21875 7.453125 
Q 35.9375 8.40625 36.890625 9.984375 
Q 37.84375 11.578125 37.84375 13.921875 
Q 37.84375 16.3125 36.71875 17.84375 
Q 35.59375 19.390625 33.59375 20.40625 
Q 31.59375 21.4375 28.734375 22.1875 
Q 25.875 22.953125 22.46875 23.875 
Q 19.28125 24.703125 16.15625 25.734375 
Q 13.03125 26.765625 10.515625 28.4375 
Q 8.015625 30.125 6.453125 32.609375 
Q 4.890625 35.109375 4.890625 38.875 
Q 4.890625 46.09375 10.03125 49.875 
Q 15.1875 53.65625 25.046875 53.65625 
Q 33.796875 53.65625 38.9375 50.578125 
Q 44.09375 47.515625 45.453125 40.71875 
L 37.546875 39.75 
Q 37.109375 41.796875 35.9375 43.1875 
Q 34.765625 44.578125 33.109375 45.4375 
Q 31.453125 46.296875 29.375 46.65625 
Q 27.296875 47.015625 25.046875 47.015625 
Q 19.09375 47.015625 16.25 45.203125 
Q 13.421875 43.40625 13.421875 39.75 
Q 13.421875 37.59375 14.46875 36.203125 
Q 15.53125 34.8125 17.40625 33.859375 
Q 19.28125 32.90625 21.921875 32.203125 
Q 24.5625 31.5 27.734375 30.71875 
Q 29.828125 30.171875 32.03125 29.5625 
Q 34.234375 28.953125 36.296875 28.09375 
Q 38.375 27.25 40.203125 26.09375 
Q 42.046875 24.953125 43.40625 23.34375 
Q 44.78125 21.734375 45.578125 19.578125 
Q 46.390625 17.4375 46.390625 14.59375 
" id="LiberationSans-73"/>
       <path d="M 51.421875 26.46875 
Q 51.421875 12.59375 45.3125 5.796875 
Q 39.203125 -0.984375 27.59375 -0.984375 
Q 22.078125 -0.984375 17.71875 0.671875 
Q 13.375 2.34375 10.375 5.765625 
Q 7.375 9.1875 5.78125 14.328125 
Q 4.203125 19.484375 4.203125 26.46875 
Q 4.203125 53.8125 27.875 53.8125 
Q 34.03125 53.8125 38.5 52.09375 
Q 42.96875 50.390625 45.828125 46.96875 
Q 48.6875 43.5625 50.046875 38.421875 
Q 51.421875 33.296875 51.421875 26.46875 
M 42.1875 26.46875 
Q 42.1875 32.625 41.234375 36.625 
Q 40.28125 40.625 38.453125 43.015625 
Q 36.625 45.40625 33.984375 46.359375 
Q 31.34375 47.3125 28.03125 47.3125 
Q 24.65625 47.3125 21.9375 46.3125 
Q 19.234375 45.3125 17.328125 42.890625 
Q 15.4375 40.484375 14.421875 36.46875 
Q 13.421875 32.46875 13.421875 26.46875 
Q 13.421875 20.3125 14.5 16.28125 
Q 15.578125 12.25 17.453125 9.859375 
Q 19.34375 7.46875 21.90625 6.484375 
Q 24.46875 5.515625 27.484375 5.515625 
Q 30.859375 5.515625 33.59375 6.46875 
Q 36.328125 7.421875 38.234375 9.8125 
Q 40.140625 12.203125 41.15625 16.25 
Q 42.1875 20.3125 42.1875 26.46875 
" id="LiberationSans-6f"/>
       <path d="M 27.046875 0.390625 
Q 25.046875 -0.140625 22.96875 -0.453125 
Q 20.90625 -0.78125 18.171875 -0.78125 
Q 7.625 -0.78125 7.625 11.1875 
L 7.625 46.4375 
L 1.515625 46.4375 
L 1.515625 52.828125 
L 7.953125 52.828125 
L 10.546875 64.65625 
L 16.40625 64.65625 
L 16.40625 52.828125 
L 26.171875 52.828125 
L 26.171875 46.4375 
L 16.40625 46.4375 
L 16.40625 13.09375 
Q 16.40625 9.28125 17.640625 7.734375 
Q 18.890625 6.203125 21.96875 6.203125 
Q 23.25 6.203125 24.4375 6.390625 
Q 25.640625 6.59375 27.046875 6.890625 
z
" id="LiberationSans-74"/>
      </defs>
      <g style="fill:#262626;" transform="translate(634.8725 593.195)scale(0.16 -0.16)">
       <use xlink:href="#LiberationSans-50"/>
       <use x="66.69921875" xlink:href="#LiberationSans-6f"/>
       <use x="122.314453125" xlink:href="#LiberationSans-73"/>
       <use x="172.314453125" xlink:href="#LiberationSans-74"/>
      </g>
     </g>
    </g>
   </g>
   <g id="matplotlib.axis_2">
    <g id="ytick_1">
     <g id="line2d_3">
      <defs>
       <path d="M 0 0 
L -6 0 
" id="m19614bedae" style="stroke:#262626;stroke-width:1.6;"/>
      </defs>
      <g>
       <use style="fill:#262626;stroke:#262626;stroke-width:1.6;" x="105.2" xlink:href="#m19614bedae" y="554.4"/>
      </g>
     </g>
     <g id="text_3">
      <!-- −0.2 -->
      <defs>
       <path d="M 5.03125 0 
L 5.03125 6.203125 
Q 7.515625 11.921875 11.109375 16.28125 
Q 14.703125 20.65625 18.65625 24.1875 
Q 22.609375 27.734375 26.484375 30.765625 
Q 30.375 33.796875 33.5 36.8125 
Q 36.625 39.84375 38.546875 43.15625 
Q 40.484375 46.484375 40.484375 50.6875 
Q 40.484375 53.609375 39.59375 55.828125 
Q 38.71875 58.0625 37.0625 59.5625 
Q 35.40625 61.078125 33.078125 61.828125 
Q 30.765625 62.59375 27.9375 62.59375 
Q 25.296875 62.59375 22.96875 61.859375 
Q 20.65625 61.140625 18.84375 59.671875 
Q 17.046875 58.203125 15.890625 56.03125 
Q 14.75 53.859375 14.40625 50.984375 
L 5.421875 51.8125 
Q 5.859375 55.515625 7.46875 58.78125 
Q 9.078125 62.0625 11.90625 64.53125 
Q 14.75 67 18.71875 68.40625 
Q 22.703125 69.828125 27.9375 69.828125 
Q 33.0625 69.828125 37.0625 68.609375 
Q 41.0625 67.390625 43.8125 64.984375 
Q 46.578125 62.59375 48.046875 59.078125 
Q 49.515625 55.5625 49.515625 50.984375 
Q 49.515625 47.515625 48.265625 44.390625 
Q 47.015625 41.265625 44.9375 38.421875 
Q 42.875 35.59375 40.140625 32.953125 
Q 37.40625 30.328125 34.421875 27.8125 
Q 31.453125 25.296875 28.421875 22.828125 
Q 25.390625 20.359375 22.71875 17.859375 
Q 20.0625 15.375 17.96875 12.8125 
Q 15.875 10.25 14.703125 7.46875 
L 50.59375 7.46875 
L 50.59375 0 
z
" id="LiberationSans-32"/>
       <path d="M 4.9375 29.6875 
L 4.9375 36.8125 
L 53.515625 36.8125 
L 53.515625 29.6875 
z
" id="LiberationSans-2212"/>
       <path d="M 9.125 0 
L 9.125 10.6875 
L 18.65625 10.6875 
L 18.65625 0 
z
" id="LiberationSans-2e"/>
       <path d="M 51.703125 34.421875 
Q 51.703125 24.515625 49.828125 17.75 
Q 47.953125 10.984375 44.703125 6.8125 
Q 41.453125 2.640625 37.0625 0.828125 
Q 32.671875 -0.984375 27.6875 -0.984375 
Q 22.65625 -0.984375 18.3125 0.828125 
Q 13.96875 2.640625 10.765625 6.78125 
Q 7.5625 10.9375 5.734375 17.703125 
Q 3.90625 24.46875 3.90625 34.421875 
Q 3.90625 44.828125 5.734375 51.640625 
Q 7.5625 58.453125 10.78125 62.5 
Q 14.015625 66.546875 18.40625 68.1875 
Q 22.796875 69.828125 27.984375 69.828125 
Q 32.90625 69.828125 37.21875 68.1875 
Q 41.546875 66.546875 44.765625 62.5 
Q 48 58.453125 49.84375 51.640625 
Q 51.703125 44.828125 51.703125 34.421875 
M 42.78125 34.421875 
Q 42.78125 42.625 41.796875 48.0625 
Q 40.828125 53.515625 38.921875 56.765625 
Q 37.015625 60.015625 34.25 61.359375 
Q 31.5 62.703125 27.984375 62.703125 
Q 24.265625 62.703125 21.4375 61.328125 
Q 18.609375 59.96875 16.671875 56.71875 
Q 14.75 53.46875 13.765625 48.015625 
Q 12.796875 42.578125 12.796875 34.421875 
Q 12.796875 26.515625 13.796875 21.09375 
Q 14.796875 15.671875 16.71875 12.375 
Q 18.65625 9.078125 21.4375 7.640625 
Q 24.21875 6.203125 27.78125 6.203125 
Q 31.25 6.203125 34.03125 7.640625 
Q 36.8125 9.078125 38.734375 12.375 
Q 40.671875 15.671875 41.71875 21.09375 
Q 42.78125 26.515625 42.78125 34.421875 
" id="LiberationSans-30"/>
      </defs>
      <g style="fill:#262626;" transform="translate(56.415 558.5375)scale(0.16 -0.16)">
       <use xlink:href="#LiberationSans-2212"/>
       <use x="58.3984375" xlink:href="#LiberationSans-30"/>
       <use x="114.013671875" xlink:href="#LiberationSans-2e"/>
       <use x="141.796875" xlink:href="#LiberationSans-32"/>
      </g>
     </g>
    </g>
    <g id="ytick_2">
     <g id="line2d_4">
      <g>
       <use style="fill:#262626;stroke:#262626;stroke-width:1.6;" x="105.2" xlink:href="#m19614bedae" y="484.251428571"/>
      </g>
     </g>
     <g id="text_4">
      <!-- 0.0 -->
      <g style="fill:#262626;" transform="translate(65.76 488.388928571)scale(0.16 -0.16)">
       <use xlink:href="#LiberationSans-30"/>
       <use x="55.615234375" xlink:href="#LiberationSans-2e"/>
       <use x="83.3984375" xlink:href="#LiberationSans-30"/>
      </g>
     </g>
    </g>
    <g id="ytick_3">
     <g id="line2d_5">
      <g>
       <use style="fill:#262626;stroke:#262626;stroke-width:1.6;" x="105.2" xlink:href="#m19614bedae" y="414.102857143"/>
      </g>
     </g>
     <g id="text_5">
      <!-- 0.2 -->
      <g style="fill:#262626;" transform="translate(65.76 418.240357143)scale(0.16 -0.16)">
       <use xlink:href="#LiberationSans-30"/>
       <use x="55.615234375" xlink:href="#LiberationSans-2e"/>
       <use x="83.3984375" xlink:href="#LiberationSans-32"/>
      </g>
     </g>
    </g>
    <g id="ytick_4">
     <g id="line2d_6">
      <g>
       <use style="fill:#262626;stroke:#262626;stroke-width:1.6;" x="105.2" xlink:href="#m19614bedae" y="343.954285714"/>
      </g>
     </g>
     <g id="text_6">
      <!-- 0.4 -->
      <defs>
       <path d="M 43.015625 15.578125 
L 43.015625 0 
L 34.71875 0 
L 34.71875 15.578125 
L 2.296875 15.578125 
L 2.296875 22.40625 
L 33.796875 68.796875 
L 43.015625 68.796875 
L 43.015625 22.515625 
L 52.6875 22.515625 
L 52.6875 15.578125 
z
M 34.71875 58.890625 
Q 34.625 58.640625 34.234375 57.9375 
Q 33.84375 57.234375 33.34375 56.34375 
Q 32.859375 55.46875 32.34375 54.5625 
Q 31.84375 53.65625 31.453125 53.078125 
L 13.8125 27.09375 
Q 13.578125 26.703125 13.109375 26.0625 
Q 12.640625 25.4375 12.15625 24.78125 
Q 11.671875 24.125 11.171875 23.484375 
Q 10.6875 22.859375 10.40625 22.515625 
L 34.71875 22.515625 
z
" id="LiberationSans-34"/>
      </defs>
      <g style="fill:#262626;" transform="translate(65.76 348.091785714)scale(0.16 -0.16)">
       <use xlink:href="#LiberationSans-30"/>
       <use x="55.615234375" xlink:href="#LiberationSans-2e"/>
       <use x="83.3984375" xlink:href="#LiberationSans-34"/>
      </g>
     </g>
    </g>
    <g id="ytick_5">
     <g id="line2d_7">
      <g>
       <use style="fill:#262626;stroke:#262626;stroke-width:1.6;" x="105.2" xlink:href="#m19614bedae" y="273.805714286"/>
      </g>
     </g>
     <g id="text_7">
      <!-- 0.6 -->
      <defs>
       <path d="M 51.21875 22.515625 
Q 51.21875 17.328125 49.78125 13 
Q 48.34375 8.6875 45.53125 5.578125 
Q 42.71875 2.484375 38.5625 0.75 
Q 34.421875 -0.984375 29 -0.984375 
Q 23 -0.984375 18.5 1.3125 
Q 14.015625 3.609375 11.03125 7.921875 
Q 8.0625 12.25 6.5625 18.53125 
Q 5.078125 24.8125 5.078125 32.8125 
Q 5.078125 42 6.765625 48.921875 
Q 8.453125 55.859375 11.625 60.5 
Q 14.796875 65.140625 19.359375 67.484375 
Q 23.921875 69.828125 29.6875 69.828125 
Q 33.203125 69.828125 36.28125 69.09375 
Q 39.359375 68.359375 41.875 66.71875 
Q 44.390625 65.09375 46.28125 62.40625 
Q 48.1875 59.71875 49.3125 55.8125 
L 40.921875 54.296875 
Q 39.546875 58.734375 36.546875 60.71875 
Q 33.546875 62.703125 29.59375 62.703125 
Q 25.984375 62.703125 23.046875 60.984375 
Q 20.125 59.28125 18.0625 55.875 
Q 16.015625 52.484375 14.90625 47.359375 
Q 13.8125 42.234375 13.8125 35.40625 
Q 16.21875 39.84375 20.5625 42.15625 
Q 24.90625 44.484375 30.515625 44.484375 
Q 35.203125 44.484375 39.015625 42.96875 
Q 42.828125 41.453125 45.53125 38.59375 
Q 48.25 35.75 49.734375 31.671875 
Q 51.21875 27.59375 51.21875 22.515625 
M 42.28125 22.125 
Q 42.28125 25.6875 41.40625 28.5625 
Q 40.53125 31.453125 38.765625 33.46875 
Q 37.015625 35.5 34.421875 36.59375 
Q 31.84375 37.703125 28.421875 37.703125 
Q 26.03125 37.703125 23.578125 36.984375 
Q 21.140625 36.28125 19.15625 34.6875 
Q 17.1875 33.109375 15.9375 30.515625 
Q 14.703125 27.9375 14.703125 24.21875 
Q 14.703125 20.40625 15.671875 17.109375 
Q 16.65625 13.8125 18.484375 11.375 
Q 20.3125 8.9375 22.890625 7.515625 
Q 25.484375 6.109375 28.71875 6.109375 
Q 31.890625 6.109375 34.40625 7.203125 
Q 36.921875 8.296875 38.671875 10.375 
Q 40.4375 12.453125 41.359375 15.421875 
Q 42.28125 18.40625 42.28125 22.125 
" id="LiberationSans-36"/>
      </defs>
      <g style="fill:#262626;" transform="translate(65.76 277.943214286)scale(0.16 -0.16)">
       <use xlink:href="#LiberationSans-30"/>
       <use x="55.615234375" xlink:href="#LiberationSans-2e"/>
       <use x="83.3984375" xlink:href="#LiberationSans-36"/>
      </g>
     </g>
    </g>
    <g id="ytick_6">
     <g id="line2d_8">
      <g>
       <use style="fill:#262626;stroke:#262626;stroke-width:1.6;" x="105.2" xlink:href="#m19614bedae" y="203.657142857"/>
      </g>
     </g>
     <g id="text_8">
      <!-- 0.8 -->
      <defs>
       <path d="M 51.265625 19.1875 
Q 51.265625 14.796875 49.875 11.109375 
Q 48.484375 7.421875 45.625 4.734375 
Q 42.78125 2.046875 38.328125 0.53125 
Q 33.890625 -0.984375 27.828125 -0.984375 
Q 21.78125 -0.984375 17.359375 0.53125 
Q 12.9375 2.046875 10.03125 4.703125 
Q 7.125 7.375 5.734375 11.0625 
Q 4.34375 14.75 4.34375 19.09375 
Q 4.34375 22.859375 5.484375 25.78125 
Q 6.640625 28.71875 8.5625 30.828125 
Q 10.5 32.953125 12.96875 34.25 
Q 15.4375 35.546875 18.0625 35.984375 
L 18.0625 36.1875 
Q 15.1875 36.859375 12.90625 38.375 
Q 10.640625 39.890625 9.09375 42.015625 
Q 7.5625 44.140625 6.75 46.71875 
Q 5.953125 49.3125 5.953125 52.203125 
Q 5.953125 55.8125 7.34375 59 
Q 8.734375 62.203125 11.46875 64.625 
Q 14.203125 67.046875 18.25 68.4375 
Q 22.3125 69.828125 27.640625 69.828125 
Q 33.25 69.828125 37.375 68.40625 
Q 41.5 67 44.203125 64.578125 
Q 46.921875 62.15625 48.234375 58.9375 
Q 49.5625 55.71875 49.5625 52.09375 
Q 49.5625 49.265625 48.75 46.671875 
Q 47.953125 44.09375 46.40625 41.96875 
Q 44.875 39.84375 42.59375 38.34375 
Q 40.328125 36.859375 37.359375 36.28125 
L 37.359375 36.078125 
Q 40.328125 35.59375 42.859375 34.296875 
Q 45.40625 33.015625 47.265625 30.890625 
Q 49.125 28.765625 50.1875 25.828125 
Q 51.265625 22.90625 51.265625 19.1875 
M 40.4375 51.609375 
Q 40.4375 54.203125 39.765625 56.34375 
Q 39.109375 58.5 37.59375 60.03125 
Q 36.078125 61.578125 33.640625 62.421875 
Q 31.203125 63.28125 27.640625 63.28125 
Q 24.171875 63.28125 21.78125 62.421875 
Q 19.390625 61.578125 17.84375 60.03125 
Q 16.3125 58.5 15.625 56.34375 
Q 14.9375 54.203125 14.9375 51.609375 
Q 14.9375 49.5625 15.46875 47.40625 
Q 16.015625 45.265625 17.421875 43.5 
Q 18.84375 41.75 21.328125 40.625 
Q 23.828125 39.5 27.734375 39.5 
Q 31.890625 39.5 34.40625 40.625 
Q 36.921875 41.75 38.25 43.5 
Q 39.59375 45.265625 40.015625 47.40625 
Q 40.4375 49.5625 40.4375 51.609375 
M 42.140625 20.015625 
Q 42.140625 22.515625 41.453125 24.828125 
Q 40.765625 27.15625 39.109375 28.9375 
Q 37.453125 30.71875 34.640625 31.8125 
Q 31.84375 32.90625 27.640625 32.90625 
Q 23.78125 32.90625 21.0625 31.8125 
Q 18.359375 30.71875 16.671875 28.90625 
Q 14.984375 27.09375 14.203125 24.71875 
Q 13.421875 22.359375 13.421875 19.828125 
Q 13.421875 16.65625 14.203125 14.03125 
Q 14.984375 11.421875 16.6875 9.546875 
Q 18.40625 7.671875 21.1875 6.640625 
Q 23.96875 5.609375 27.9375 5.609375 
Q 31.9375 5.609375 34.671875 6.640625 
Q 37.40625 7.671875 39.0625 9.546875 
Q 40.71875 11.421875 41.421875 14.078125 
Q 42.140625 16.75 42.140625 20.015625 
" id="LiberationSans-38"/>
      </defs>
      <g style="fill:#262626;" transform="translate(65.76 207.794642857)scale(0.16 -0.16)">
       <use xlink:href="#LiberationSans-30"/>
       <use x="55.615234375" xlink:href="#LiberationSans-2e"/>
       <use x="83.3984375" xlink:href="#LiberationSans-38"/>
      </g>
     </g>
    </g>
    <g id="ytick_7">
     <g id="line2d_9">
      <g>
       <use style="fill:#262626;stroke:#262626;stroke-width:1.6;" x="105.2" xlink:href="#m19614bedae" y="133.508571429"/>
      </g>
     </g>
     <g id="text_9">
      <!-- 1.0 -->
      <defs>
       <path d="M 7.625 0 
L 7.625 7.46875 
L 25.140625 7.46875 
L 25.140625 60.40625 
L 9.625 49.3125 
L 9.625 57.625 
L 25.875 68.796875 
L 33.984375 68.796875 
L 33.984375 7.46875 
L 50.734375 7.46875 
L 50.734375 0 
z
" id="LiberationSans-31"/>
      </defs>
      <g style="fill:#262626;" transform="translate(65.76 137.646071429)scale(0.16 -0.16)">
       <use xlink:href="#LiberationSans-31"/>
       <use x="55.615234375" xlink:href="#LiberationSans-2e"/>
       <use x="83.3984375" xlink:href="#LiberationSans-30"/>
      </g>
     </g>
    </g>
    <g id="ytick_8">
     <g id="line2d_10">
      <g>
       <use style="fill:#262626;stroke:#262626;stroke-width:1.6;" x="105.2" xlink:href="#m19614bedae" y="63.36"/>
      </g>
     </g>
     <g id="text_10">
      <!-- 1.2 -->
      <g style="fill:#262626;" transform="translate(65.76 67.4975)scale(0.16 -0.16)">
       <use xlink:href="#LiberationSans-31"/>
       <use x="55.615234375" xlink:href="#LiberationSans-2e"/>
       <use x="83.3984375" xlink:href="#LiberationSans-32"/>
      </g>
     </g>
    </g>
    <g id="text_11">
     <!-- Mean accuracy -->
     <defs>
      <path d="M 20.21875 -0.984375 
Q 12.25 -0.984375 8.25 3.21875 
Q 4.25 7.421875 4.25 14.75 
Q 4.25 19.96875 6.21875 23.3125 
Q 8.203125 26.65625 11.390625 28.5625 
Q 14.59375 30.46875 18.6875 31.203125 
Q 22.796875 31.9375 27.046875 32.03125 
L 38.921875 32.234375 
L 38.921875 35.109375 
Q 38.921875 38.375 38.234375 40.671875 
Q 37.546875 42.96875 36.125 44.375 
Q 34.71875 45.796875 32.59375 46.453125 
Q 30.46875 47.125 27.59375 47.125 
Q 25.046875 47.125 23 46.75 
Q 20.953125 46.390625 19.4375 45.4375 
Q 17.921875 44.484375 16.984375 42.84375 
Q 16.0625 41.21875 15.765625 38.71875 
L 6.59375 39.546875 
Q 7.078125 42.671875 8.4375 45.28125 
Q 9.8125 47.90625 12.328125 49.796875 
Q 14.84375 51.703125 18.625 52.75 
Q 22.40625 53.8125 27.78125 53.8125 
Q 37.75 53.8125 42.765625 49.234375 
Q 47.796875 44.671875 47.796875 36.03125 
L 47.796875 13.28125 
Q 47.796875 9.375 48.828125 7.390625 
Q 49.859375 5.421875 52.734375 5.421875 
Q 53.46875 5.421875 54.203125 5.515625 
Q 54.9375 5.609375 55.609375 5.765625 
L 55.609375 0.296875 
Q 53.953125 -0.09375 52.3125 -0.28125 
Q 50.6875 -0.484375 48.828125 -0.484375 
Q 46.34375 -0.484375 44.5625 0.171875 
Q 42.78125 0.828125 41.65625 2.171875 
Q 40.53125 3.515625 39.9375 5.484375 
Q 39.359375 7.46875 39.203125 10.109375 
L 38.921875 10.109375 
Q 37.5 7.5625 35.8125 5.515625 
Q 34.125 3.46875 31.875 2.03125 
Q 29.640625 0.59375 26.78125 -0.1875 
Q 23.921875 -0.984375 20.21875 -0.984375 
M 22.21875 5.609375 
Q 26.421875 5.609375 29.5625 7.140625 
Q 32.71875 8.6875 34.78125 11.078125 
Q 36.859375 13.484375 37.890625 16.3125 
Q 38.921875 19.140625 38.921875 21.734375 
L 38.921875 26.078125 
L 29.296875 25.875 
Q 26.078125 25.828125 23.171875 25.40625 
Q 20.265625 25 18.0625 23.78125 
Q 15.875 22.5625 14.578125 20.359375 
Q 13.28125 18.171875 13.28125 14.59375 
Q 13.28125 10.296875 15.59375 7.953125 
Q 17.921875 5.609375 22.21875 5.609375 
" id="LiberationSans-61"/>
      <path d="M 15.328125 52.828125 
L 15.328125 19.34375 
Q 15.328125 15.484375 15.890625 12.890625 
Q 16.453125 10.296875 17.71875 8.703125 
Q 19 7.125 21.0625 6.46875 
Q 23.140625 5.8125 26.21875 5.8125 
Q 29.34375 5.8125 31.859375 6.90625 
Q 34.375 8.015625 36.15625 10.078125 
Q 37.9375 12.15625 38.90625 15.203125 
Q 39.890625 18.265625 39.890625 22.21875 
L 39.890625 52.828125 
L 48.6875 52.828125 
L 48.6875 11.28125 
Q 48.6875 9.625 48.703125 7.78125 
Q 48.734375 5.953125 48.78125 4.3125 
Q 48.828125 2.6875 48.875 1.515625 
Q 48.921875 0.34375 48.96875 0 
L 40.671875 0 
Q 40.625 0.25 40.578125 1.3125 
Q 40.53125 2.390625 40.453125 3.78125 
Q 40.375 5.171875 40.328125 6.609375 
Q 40.28125 8.0625 40.28125 9.03125 
L 40.140625 9.03125 
Q 38.875 6.734375 37.359375 4.875 
Q 35.84375 3.03125 33.84375 1.734375 
Q 31.84375 0.4375 29.25 -0.265625 
Q 26.65625 -0.984375 23.25 -0.984375 
Q 18.84375 -0.984375 15.671875 0.09375 
Q 12.5 1.171875 10.453125 3.421875 
Q 8.40625 5.671875 7.453125 9.1875 
Q 6.5 12.703125 6.5 17.625 
L 6.5 52.828125 
z
" id="LiberationSans-75"/>
      <path d="M 13.421875 26.65625 
Q 13.421875 22.125 14.078125 18.3125 
Q 14.75 14.5 16.3125 11.734375 
Q 17.875 8.984375 20.4375 7.46875 
Q 23 5.953125 26.765625 5.953125 
Q 31.453125 5.953125 34.59375 8.484375 
Q 37.75 11.03125 38.484375 16.3125 
L 47.359375 15.71875 
Q 46.921875 12.453125 45.453125 9.421875 
Q 44 6.390625 41.484375 4.09375 
Q 38.96875 1.8125 35.34375 0.40625 
Q 31.734375 -0.984375 27 -0.984375 
Q 20.796875 -0.984375 16.453125 1.109375 
Q 12.109375 3.21875 9.390625 6.90625 
Q 6.6875 10.59375 5.46875 15.59375 
Q 4.25 20.609375 4.25 26.46875 
Q 4.25 31.78125 5.125 35.859375 
Q 6 39.9375 7.59375 42.984375 
Q 9.1875 46.046875 11.328125 48.125 
Q 13.484375 50.203125 15.984375 51.4375 
Q 18.5 52.6875 21.28125 53.25 
Q 24.078125 53.8125 26.90625 53.8125 
Q 31.34375 53.8125 34.8125 52.59375 
Q 38.28125 51.375 40.796875 49.25 
Q 43.3125 47.125 44.875 44.234375 
Q 46.4375 41.359375 47.078125 38.03125 
L 38.03125 37.359375 
Q 37.359375 41.75 34.5625 44.328125 
Q 31.78125 46.921875 26.65625 46.921875 
Q 22.90625 46.921875 20.390625 45.671875 
Q 17.875 44.4375 16.3125 41.921875 
Q 14.75 39.40625 14.078125 35.59375 
Q 13.421875 31.78125 13.421875 26.65625 
" id="LiberationSans-63"/>
      <path d="M 66.703125 0 
L 66.703125 45.90625 
Q 66.703125 48.390625 66.75 50.96875 
Q 66.796875 53.5625 66.890625 55.71875 
Q 67 58.203125 67.140625 60.546875 
Q 66.453125 58.0625 65.71875 55.609375 
Q 65.09375 53.515625 64.328125 51.140625 
Q 63.578125 48.78125 62.84375 46.875 
L 45.0625 0 
L 38.53125 0 
L 20.515625 46.875 
Q 20.21875 47.609375 19.890625 48.578125 
Q 19.578125 49.5625 19.203125 50.65625 
Q 18.84375 51.765625 18.46875 52.90625 
Q 18.109375 54.046875 17.78125 55.171875 
Q 16.9375 57.765625 16.15625 60.546875 
Q 16.21875 57.8125 16.3125 55.125 
Q 16.40625 52.828125 16.453125 50.3125 
Q 16.5 47.796875 16.5 45.90625 
L 16.5 0 
L 8.203125 0 
L 8.203125 68.796875 
L 20.453125 68.796875 
L 38.765625 21.09375 
Q 39.109375 20.125 39.59375 18.578125 
Q 40.09375 17.046875 40.53125 15.421875 
Q 40.96875 13.8125 41.328125 12.375 
Q 41.703125 10.9375 41.84375 10.15625 
Q 42 10.9375 42.390625 12.40625 
Q 42.78125 13.875 43.28125 15.484375 
Q 43.796875 17.09375 44.28125 18.609375 
Q 44.78125 20.125 45.171875 21.09375 
L 63.140625 68.796875 
L 75.09375 68.796875 
L 75.09375 0 
z
" id="LiberationSans-4d"/>
      <path d="M 40.28125 0 
L 40.28125 33.5 
Q 40.28125 37.359375 39.71875 39.9375 
Q 39.15625 42.53125 37.890625 44.109375 
Q 36.625 45.703125 34.546875 46.359375 
Q 32.46875 47.015625 29.390625 47.015625 
Q 26.265625 47.015625 23.75 45.921875 
Q 21.234375 44.828125 19.453125 42.75 
Q 17.671875 40.671875 16.6875 37.625 
Q 15.71875 34.578125 15.71875 30.609375 
L 15.71875 0 
L 6.9375 0 
L 6.9375 41.546875 
Q 6.9375 43.21875 6.90625 45.046875 
Q 6.890625 46.875 6.828125 48.5 
Q 6.78125 50.140625 6.734375 51.3125 
Q 6.6875 52.484375 6.640625 52.828125 
L 14.9375 52.828125 
Q 14.984375 52.59375 15.03125 51.515625 
Q 15.09375 50.4375 15.15625 49.046875 
Q 15.234375 47.65625 15.28125 46.21875 
Q 15.328125 44.78125 15.328125 43.796875 
L 15.484375 43.796875 
Q 16.75 46.09375 18.265625 47.953125 
Q 19.78125 49.8125 21.78125 51.09375 
Q 23.78125 52.390625 26.359375 53.09375 
Q 28.953125 53.8125 32.375 53.8125 
Q 36.765625 53.8125 39.9375 52.734375 
Q 43.109375 51.65625 45.15625 49.40625 
Q 47.21875 47.171875 48.171875 43.625 
Q 49.125 40.09375 49.125 35.203125 
L 49.125 0 
z
" id="LiberationSans-6e"/>
      <path id="LiberationSans-20"/>
      <path d="M 29.5 0 
Q 27.640625 -4.78125 25.703125 -8.609375 
Q 23.78125 -12.453125 21.390625 -15.15625 
Q 19 -17.875 16.0625 -19.3125 
Q 13.140625 -20.75 9.328125 -20.75 
Q 7.671875 -20.75 6.25 -20.65625 
Q 4.828125 -20.5625 3.265625 -20.21875 
L 3.265625 -13.625 
Q 4.203125 -13.765625 5.375 -13.84375 
Q 6.546875 -13.921875 7.375 -13.921875 
Q 11.234375 -13.921875 14.546875 -11.03125 
Q 17.875 -8.15625 20.359375 -1.859375 
L 21.1875 0.25 
L 0.25 52.828125 
L 9.625 52.828125 
L 20.75 23.640625 
Q 21.234375 22.3125 21.984375 20.109375 
Q 22.75 17.921875 23.5 15.71875 
Q 24.265625 13.53125 24.84375 11.765625 
Q 25.4375 10.015625 25.53125 9.578125 
Q 25.6875 10.109375 26.25 11.6875 
Q 26.8125 13.28125 27.515625 15.234375 
Q 28.21875 17.1875 28.953125 19.1875 
Q 29.6875 21.1875 30.171875 22.65625 
L 40.53125 52.828125 
L 49.8125 52.828125 
z
" id="LiberationSans-79"/>
     </defs>
     <g style="fill:#262626;" transform="translate(47.763 368.54675)rotate(-90.0)scale(0.176 -0.176)">
      <use xlink:href="#LiberationSans-4d"/>
      <use x="83.30078125" xlink:href="#LiberationSans-65"/>
      <use x="138.916015625" xlink:href="#LiberationSans-61"/>
      <use x="194.53125" xlink:href="#LiberationSans-6e"/>
      <use x="250.146484375" xlink:href="#LiberationSans-20"/>
      <use x="277.9296875" xlink:href="#LiberationSans-61"/>
      <use x="333.544921875" xlink:href="#LiberationSans-63"/>
      <use x="383.544921875" xlink:href="#LiberationSans-63"/>
      <use x="433.544921875" xlink:href="#LiberationSans-75"/>
      <use x="489.16015625" xlink:href="#LiberationSans-72"/>
      <use x="522.4609375" xlink:href="#LiberationSans-61"/>
      <use x="578.076171875" xlink:href="#LiberationSans-63"/>
      <use x="628.076171875" xlink:href="#LiberationSans-79"/>
     </g>
    </g>
   </g>
   <g id="PolyCollection_1">
    <defs>
     <path d="M 293.76 -158.489735 
L 291.902068 -158.489735 
L 291.403524 -160.312684 
L 290.806164 -162.135633 
L 290.100094 -163.958582 
L 289.276734 -165.781531 
L 288.329319 -167.60448 
L 287.253328 -169.427429 
L 286.046766 -171.250378 
L 284.710245 -173.073327 
L 283.246807 -174.896276 
L 281.661451 -176.719225 
L 279.960343 -178.542175 
L 278.149731 -180.365124 
L 276.234627 -182.188073 
L 274.217316 -184.011022 
L 272.09586 -185.833971 
L 269.862713 -187.65692 
L 267.503646 -189.479869 
L 264.997144 -191.302818 
L 262.314433 -193.125767 
L 259.420265 -194.948716 
L 256.274512 -196.771665 
L 252.834589 -198.594614 
L 249.058599 -200.417564 
L 244.909041 -202.240513 
L 240.356842 -204.063462 
L 235.385407 -205.886411 
L 229.994339 -207.70936 
L 224.202489 -209.532309 
L 218.050017 -211.355258 
L 211.599197 -213.178207 
L 204.933807 -215.001156 
L 198.157041 -216.824105 
L 191.388021 -218.647054 
L 184.757093 -220.470003 
L 178.400207 -222.292953 
L 172.452761 -224.115902 
L 167.043331 -225.938851 
L 162.287724 -227.7618 
L 158.283741 -229.584749 
L 155.106987 -231.407698 
L 152.807966 -233.230647 
L 151.41057 -235.053596 
L 150.912 -236.876545 
L 151.283998 -238.699494 
L 152.475243 -240.522443 
L 154.414643 -242.345392 
L 157.015275 -244.168342 
L 160.178679 -245.991291 
L 163.79925 -247.81424 
L 167.768495 -249.637189 
L 171.978983 -251.460138 
L 176.327846 -253.283087 
L 180.719756 -255.106036 
L 185.069322 -256.928985 
L 189.302924 -258.751934 
L 193.359967 -260.574883 
L 197.193612 -262.397832 
L 200.770998 -264.220782 
L 204.073017 -266.043731 
L 207.093662 -267.86668 
L 209.839004 -269.689629 
L 212.325843 -271.512578 
L 214.580092 -273.335527 
L 216.634951 -275.158476 
L 218.528947 -276.981425 
L 220.303927 -278.804374 
L 222.003083 -280.627323 
L 223.669091 -282.450272 
L 225.342444 -284.273221 
L 227.060026 -286.096171 
L 228.853982 -287.91912 
L 230.750874 -289.742069 
L 232.771145 -291.565018 
L 234.928833 -293.387967 
L 237.231524 -295.210916 
L 239.680476 -297.033865 
L 242.270898 -298.856814 
L 244.992324 -300.679763 
L 247.829091 -302.502712 
L 250.760893 -304.325661 
L 253.763429 -306.14861 
L 256.809148 -307.97156 
L 259.868095 -309.794509 
L 262.908857 -311.617458 
L 265.899601 -313.440407 
L 268.809154 -315.263356 
L 271.608095 -317.086305 
L 274.269787 -318.909254 
L 276.771295 -320.732203 
L 279.094128 -322.555152 
L 281.224752 -324.378101 
L 283.154844 -326.20105 
L 284.881285 -328.023999 
L 286.405889 -329.846949 
L 287.734912 -331.669898 
L 288.878383 -333.492847 
L 289.849318 -335.315796 
L 290.662877 -337.138745 
L 291.335532 -338.961694 
L 293.76 -338.961694 
L 293.76 -338.961694 
L 293.76 -337.138745 
L 293.76 -335.315796 
L 293.76 -333.492847 
L 293.76 -331.669898 
L 293.76 -329.846949 
L 293.76 -328.023999 
L 293.76 -326.20105 
L 293.76 -324.378101 
L 293.76 -322.555152 
L 293.76 -320.732203 
L 293.76 -318.909254 
L 293.76 -317.086305 
L 293.76 -315.263356 
L 293.76 -313.440407 
L 293.76 -311.617458 
L 293.76 -309.794509 
L 293.76 -307.97156 
L 293.76 -306.14861 
L 293.76 -304.325661 
L 293.76 -302.502712 
L 293.76 -300.679763 
L 293.76 -298.856814 
L 293.76 -297.033865 
L 293.76 -295.210916 
L 293.76 -293.387967 
L 293.76 -291.565018 
L 293.76 -289.742069 
L 293.76 -287.91912 
L 293.76 -286.096171 
L 293.76 -284.273221 
L 293.76 -282.450272 
L 293.76 -280.627323 
L 293.76 -278.804374 
L 293.76 -276.981425 
L 293.76 -275.158476 
L 293.76 -273.335527 
L 293.76 -271.512578 
L 293.76 -269.689629 
L 293.76 -267.86668 
L 293.76 -266.043731 
L 293.76 -264.220782 
L 293.76 -262.397832 
L 293.76 -260.574883 
L 293.76 -258.751934 
L 293.76 -256.928985 
L 293.76 -255.106036 
L 293.76 -253.283087 
L 293.76 -251.460138 
L 293.76 -249.637189 
L 293.76 -247.81424 
L 293.76 -245.991291 
L 293.76 -244.168342 
L 293.76 -242.345392 
L 293.76 -240.522443 
L 293.76 -238.699494 
L 293.76 -236.876545 
L 293.76 -235.053596 
L 293.76 -233.230647 
L 293.76 -231.407698 
L 293.76 -229.584749 
L 293.76 -227.7618 
L 293.76 -225.938851 
L 293.76 -224.115902 
L 293.76 -222.292953 
L 293.76 -220.470003 
L 293.76 -218.647054 
L 293.76 -216.824105 
L 293.76 -215.001156 
L 293.76 -213.178207 
L 293.76 -211.355258 
L 293.76 -209.532309 
L 293.76 -207.70936 
L 293.76 -205.886411 
L 293.76 -204.063462 
L 293.76 -202.240513 
L 293.76 -200.417564 
L 293.76 -198.594614 
L 293.76 -196.771665 
L 293.76 -194.948716 
L 293.76 -193.125767 
L 293.76 -191.302818 
L 293.76 -189.479869 
L 293.76 -187.65692 
L 293.76 -185.833971 
L 293.76 -184.011022 
L 293.76 -182.188073 
L 293.76 -180.365124 
L 293.76 -178.542175 
L 293.76 -176.719225 
L 293.76 -174.896276 
L 293.76 -173.073327 
L 293.76 -171.250378 
L 293.76 -169.427429 
L 293.76 -167.60448 
L 293.76 -165.781531 
L 293.76 -163.958582 
L 293.76 -162.135633 
L 293.76 -160.312684 
L 293.76 -158.489735 
z
" id="m41120d1590" style="stroke:#4c4c4c;stroke-width:2.8;"/>
    </defs>
    <g clip-path="url(#p9a8b84780e)">
     <use style="fill:#5875a4;stroke:#4c4c4c;stroke-width:2.8;" x="0.0" xlink:href="#m41120d1590" y="633.6"/>
    </g>
   </g>
   <g id="PolyCollection_2">
    <defs>
     <path d="M 294.99082 -110.86755 
L 293.76 -110.86755 
L 293.76 -113.475421 
L 293.76 -116.083292 
L 293.76 -118.691162 
L 293.76 -121.299033 
L 293.76 -123.906903 
L 293.76 -126.514774 
L 293.76 -129.122644 
L 293.76 -131.730515 
L 293.76 -134.338385 
L 293.76 -136.946256 
L 293.76 -139.554127 
L 293.76 -142.161997 
L 293.76 -144.769868 
L 293.76 -147.377738 
L 293.76 -149.985609 
L 293.76 -152.593479 
L 293.76 -155.20135 
L 293.76 -157.80922 
L 293.76 -160.417091 
L 293.76 -163.024962 
L 293.76 -165.632832 
L 293.76 -168.240703 
L 293.76 -170.848573 
L 293.76 -173.456444 
L 293.76 -176.064314 
L 293.76 -178.672185 
L 293.76 -181.280055 
L 293.76 -183.887926 
L 293.76 -186.495797 
L 293.76 -189.103667 
L 293.76 -191.711538 
L 293.76 -194.319408 
L 293.76 -196.927279 
L 293.76 -199.535149 
L 293.76 -202.14302 
L 293.76 -204.75089 
L 293.76 -207.358761 
L 293.76 -209.966631 
L 293.76 -212.574502 
L 293.76 -215.182373 
L 293.76 -217.790243 
L 293.76 -220.398114 
L 293.76 -223.005984 
L 293.76 -225.613855 
L 293.76 -228.221725 
L 293.76 -230.829596 
L 293.76 -233.437466 
L 293.76 -236.045337 
L 293.76 -238.653208 
L 293.76 -241.261078 
L 293.76 -243.868949 
L 293.76 -246.476819 
L 293.76 -249.08469 
L 293.76 -251.69256 
L 293.76 -254.300431 
L 293.76 -256.908301 
L 293.76 -259.516172 
L 293.76 -262.124043 
L 293.76 -264.731913 
L 293.76 -267.339784 
L 293.76 -269.947654 
L 293.76 -272.555525 
L 293.76 -275.163395 
L 293.76 -277.771266 
L 293.76 -280.379136 
L 293.76 -282.987007 
L 293.76 -285.594878 
L 293.76 -288.202748 
L 293.76 -290.810619 
L 293.76 -293.418489 
L 293.76 -296.02636 
L 293.76 -298.63423 
L 293.76 -301.242101 
L 293.76 -303.849971 
L 293.76 -306.457842 
L 293.76 -309.065713 
L 293.76 -311.673583 
L 293.76 -314.281454 
L 293.76 -316.889324 
L 293.76 -319.497195 
L 293.76 -322.105065 
L 293.76 -324.712936 
L 293.76 -327.320806 
L 293.76 -329.928677 
L 293.76 -332.536547 
L 293.76 -335.144418 
L 293.76 -337.752289 
L 293.76 -340.360159 
L 293.76 -342.96803 
L 293.76 -345.5759 
L 293.76 -348.183771 
L 293.76 -350.791641 
L 293.76 -353.399512 
L 293.76 -356.007382 
L 293.76 -358.615253 
L 293.76 -361.223124 
L 293.76 -363.830994 
L 293.76 -366.438865 
L 293.76 -369.046735 
L 295.333875 -369.046735 
L 295.333875 -369.046735 
L 295.776691 -366.438865 
L 296.312409 -363.830994 
L 296.951329 -361.223124 
L 297.702594 -358.615253 
L 298.573619 -356.007382 
L 299.569566 -353.399512 
L 300.692926 -350.791641 
L 301.943256 -348.183771 
L 303.317139 -345.5759 
L 304.808398 -342.96803 
L 306.408586 -340.360159 
L 308.107746 -337.752289 
L 309.895391 -335.144418 
L 311.761653 -332.536547 
L 313.698488 -329.928677 
L 315.700824 -327.320806 
L 317.767536 -324.712936 
L 319.902126 -322.105065 
L 322.112999 -319.497195 
L 324.413284 -316.889324 
L 326.820157 -314.281454 
L 329.353687 -311.673583 
L 332.035281 -309.065713 
L 334.885812 -306.457842 
L 337.923583 -303.849971 
L 341.162256 -301.242101 
L 344.608924 -298.63423 
L 348.262434 -296.02636 
L 352.112088 -293.418489 
L 356.136806 -290.810619 
L 360.304763 -288.202748 
L 364.573542 -285.594878 
L 368.890746 -282.987007 
L 373.195051 -280.379136 
L 377.417643 -277.771266 
L 381.483983 -275.163395 
L 385.315871 -272.555525 
L 388.833764 -269.947654 
L 391.95931 -267.339784 
L 394.618083 -264.731913 
L 396.742437 -262.124043 
L 398.27443 -259.516172 
L 399.16868 -256.908301 
L 399.395031 -254.300431 
L 398.940831 -251.69256 
L 397.812639 -249.08469 
L 396.037147 -246.476819 
L 393.661162 -243.868949 
L 390.750496 -241.261078 
L 387.387741 -238.653208 
L 383.668931 -236.045337 
L 379.699255 -233.437466 
L 375.588039 -230.829596 
L 371.44332 -228.221725 
L 367.366385 -225.613855 
L 363.446685 -223.005984 
L 359.757506 -220.398114 
L 356.352742 -217.790243 
L 353.265022 -215.182373 
L 350.505335 -212.574502 
L 348.064152 -209.966631 
L 345.913933 -207.358761 
L 344.012767 -204.75089 
L 342.308817 -202.14302 
L 340.745153 -199.535149 
L 339.264551 -196.927279 
L 337.813874 -194.319408 
L 336.347666 -191.711538 
L 334.830733 -189.103667 
L 333.239571 -186.495797 
L 331.562621 -183.887926 
L 329.799475 -181.280055 
L 327.95921 -178.672185 
L 326.058137 -176.064314 
L 324.117252 -173.456444 
L 322.159692 -170.848573 
L 320.208451 -168.240703 
L 318.284546 -165.632832 
L 316.405769 -163.024962 
L 314.586025 -160.417091 
L 312.835249 -157.80922 
L 311.159777 -155.20135 
L 309.563035 -152.593479 
L 308.046388 -149.985609 
L 306.610002 -147.377738 
L 305.253595 -144.769868 
L 303.976988 -142.161997 
L 302.780414 -139.554127 
L 301.664602 -136.946256 
L 300.63064 -134.338385 
L 299.67971 -131.730515 
L 298.812739 -129.122644 
L 298.030045 -126.514774 
L 297.331038 -123.906903 
L 296.714014 -121.299033 
L 296.176064 -118.691162 
L 295.713105 -116.083292 
L 295.32001 -113.475421 
L 294.99082 -110.86755 
z
" id="mf751cd0f16" style="stroke:#4c4c4c;stroke-width:2.8;"/>
    </defs>
    <g clip-path="url(#p9a8b84780e)">
     <use style="fill:#5f9e6e;stroke:#4c4c4c;stroke-width:2.8;" x="0.0" xlink:href="#mf751cd0f16" y="633.6"/>
    </g>
   </g>
   <g id="PolyCollection_3">
    <defs>
     <path d="M 650.88 -268.418464 
L 649.25429 -268.418464 
L 648.837217 -270.913964 
L 648.341404 -273.409464 
L 647.759391 -275.904964 
L 647.08465 -278.400464 
L 646.311917 -280.895964 
L 645.437478 -283.391464 
L 644.459385 -285.886964 
L 643.377562 -288.382464 
L 642.193816 -290.877964 
L 640.911711 -293.373464 
L 639.536341 -295.868964 
L 638.074001 -298.364464 
L 636.531807 -300.859964 
L 634.917295 -303.355464 
L 633.238045 -305.850964 
L 631.501388 -308.346464 
L 629.714219 -310.841964 
L 627.88296 -313.337464 
L 626.013666 -315.832964 
L 624.112274 -318.328464 
L 622.184967 -320.823964 
L 620.238587 -323.319464 
L 618.28106 -325.814964 
L 616.321745 -328.310464 
L 614.371637 -330.805964 
L 612.443376 -333.301464 
L 610.550999 -335.796964 
L 608.709418 -338.292464 
L 606.933613 -340.787964 
L 605.237578 -343.283464 
L 603.633058 -345.778964 
L 602.128167 -348.274464 
L 600.725978 -350.769964 
L 599.423206 -353.265464 
L 598.209095 -355.760964 
L 597.06464 -358.256464 
L 595.962252 -360.751964 
L 594.86594 -363.247464 
L 593.732095 -365.742964 
L 592.510873 -368.238464 
L 591.148171 -370.733964 
L 589.588121 -373.229464 
L 587.775976 -375.724964 
L 585.661253 -378.220464 
L 583.200919 -380.715964 
L 580.36243 -383.211464 
L 577.126397 -385.706964 
L 573.488693 -388.202464 
L 569.461827 -390.697964 
L 565.075483 -393.193464 
L 560.376164 -395.688964 
L 555.42595 -398.184464 
L 550.30047 -400.679964 
L 545.086216 -403.175464 
L 539.877394 -405.670964 
L 534.772526 -408.166464 
L 529.871027 -410.661964 
L 525.269965 -413.157464 
L 521.061173 -415.652964 
L 517.328828 -418.148464 
L 514.147579 -420.643964 
L 511.581216 -423.139464 
L 509.681844 -425.634964 
L 508.489484 -428.130464 
L 508.032 -430.625964 
L 508.325253 -433.121464 
L 509.373381 -435.616964 
L 511.16915 -438.112464 
L 513.694339 -440.607964 
L 516.920142 -443.103464 
L 520.807628 -445.598964 
L 525.308296 -448.094464 
L 530.364762 -450.589964 
L 535.911647 -453.085464 
L 541.876673 -455.580964 
L 548.182004 -458.076464 
L 554.745798 -460.571964 
L 561.483948 -463.067464 
L 568.311944 -465.562964 
L 575.146797 -468.058464 
L 581.908926 -470.553964 
L 588.523942 -473.049464 
L 594.924241 -475.544964 
L 601.05035 -478.040464 
L 606.851966 -480.535964 
L 612.288658 -483.031464 
L 617.330219 -485.526964 
L 621.956662 -488.022464 
L 626.157886 -490.517964 
L 629.933044 -493.013464 
L 633.289649 -495.508964 
L 636.242486 -498.004464 
L 638.812386 -500.499964 
L 641.024915 -502.995464 
L 642.909061 -505.490964 
L 644.49595 -507.986464 
L 645.81767 -510.481964 
L 646.906215 -512.977464 
L 647.792598 -515.472964 
L 650.88 -515.472964 
L 650.88 -515.472964 
L 650.88 -512.977464 
L 650.88 -510.481964 
L 650.88 -507.986464 
L 650.88 -505.490964 
L 650.88 -502.995464 
L 650.88 -500.499964 
L 650.88 -498.004464 
L 650.88 -495.508964 
L 650.88 -493.013464 
L 650.88 -490.517964 
L 650.88 -488.022464 
L 650.88 -485.526964 
L 650.88 -483.031464 
L 650.88 -480.535964 
L 650.88 -478.040464 
L 650.88 -475.544964 
L 650.88 -473.049464 
L 650.88 -470.553964 
L 650.88 -468.058464 
L 650.88 -465.562964 
L 650.88 -463.067464 
L 650.88 -460.571964 
L 650.88 -458.076464 
L 650.88 -455.580964 
L 650.88 -453.085464 
L 650.88 -450.589964 
L 650.88 -448.094464 
L 650.88 -445.598964 
L 650.88 -443.103464 
L 650.88 -440.607964 
L 650.88 -438.112464 
L 650.88 -435.616964 
L 650.88 -433.121464 
L 650.88 -430.625964 
L 650.88 -428.130464 
L 650.88 -425.634964 
L 650.88 -423.139464 
L 650.88 -420.643964 
L 650.88 -418.148464 
L 650.88 -415.652964 
L 650.88 -413.157464 
L 650.88 -410.661964 
L 650.88 -408.166464 
L 650.88 -405.670964 
L 650.88 -403.175464 
L 650.88 -400.679964 
L 650.88 -398.184464 
L 650.88 -395.688964 
L 650.88 -393.193464 
L 650.88 -390.697964 
L 650.88 -388.202464 
L 650.88 -385.706964 
L 650.88 -383.211464 
L 650.88 -380.715964 
L 650.88 -378.220464 
L 650.88 -375.724964 
L 650.88 -373.229464 
L 650.88 -370.733964 
L 650.88 -368.238464 
L 650.88 -365.742964 
L 650.88 -363.247464 
L 650.88 -360.751964 
L 650.88 -358.256464 
L 650.88 -355.760964 
L 650.88 -353.265464 
L 650.88 -350.769964 
L 650.88 -348.274464 
L 650.88 -345.778964 
L 650.88 -343.283464 
L 650.88 -340.787964 
L 650.88 -338.292464 
L 650.88 -335.796964 
L 650.88 -333.301464 
L 650.88 -330.805964 
L 650.88 -328.310464 
L 650.88 -325.814964 
L 650.88 -323.319464 
L 650.88 -320.823964 
L 650.88 -318.328464 
L 650.88 -315.832964 
L 650.88 -313.337464 
L 650.88 -310.841964 
L 650.88 -308.346464 
L 650.88 -305.850964 
L 650.88 -303.355464 
L 650.88 -300.859964 
L 650.88 -298.364464 
L 650.88 -295.868964 
L 650.88 -293.373464 
L 650.88 -290.877964 
L 650.88 -288.382464 
L 650.88 -285.886964 
L 650.88 -283.391464 
L 650.88 -280.895964 
L 650.88 -278.400464 
L 650.88 -275.904964 
L 650.88 -273.409464 
L 650.88 -270.913964 
L 650.88 -268.418464 
z
" id="m099f1593f0" style="stroke:#4c4c4c;stroke-width:2.8;"/>
    </defs>
    <g clip-path="url(#p9a8b84780e)">
     <use style="fill:#5875a4;stroke:#4c4c4c;stroke-width:2.8;" x="0.0" xlink:href="#m099f1593f0" y="633.6"/>
    </g>
   </g>
   <g id="PolyCollection_4">
    <defs>
     <path d="M 653.703056 -302.733933 
L 650.88 -302.733933 
L 650.88 -304.890477 
L 650.88 -307.047021 
L 650.88 -309.203565 
L 650.88 -311.360109 
L 650.88 -313.516653 
L 650.88 -315.673197 
L 650.88 -317.829741 
L 650.88 -319.986285 
L 650.88 -322.142829 
L 650.88 -324.299373 
L 650.88 -326.455917 
L 650.88 -328.61246 
L 650.88 -330.769004 
L 650.88 -332.925548 
L 650.88 -335.082092 
L 650.88 -337.238636 
L 650.88 -339.39518 
L 650.88 -341.551724 
L 650.88 -343.708268 
L 650.88 -345.864812 
L 650.88 -348.021356 
L 650.88 -350.1779 
L 650.88 -352.334443 
L 650.88 -354.490987 
L 650.88 -356.647531 
L 650.88 -358.804075 
L 650.88 -360.960619 
L 650.88 -363.117163 
L 650.88 -365.273707 
L 650.88 -367.430251 
L 650.88 -369.586795 
L 650.88 -371.743339 
L 650.88 -373.899883 
L 650.88 -376.056427 
L 650.88 -378.21297 
L 650.88 -380.369514 
L 650.88 -382.526058 
L 650.88 -384.682602 
L 650.88 -386.839146 
L 650.88 -388.99569 
L 650.88 -391.152234 
L 650.88 -393.308778 
L 650.88 -395.465322 
L 650.88 -397.621866 
L 650.88 -399.77841 
L 650.88 -401.934953 
L 650.88 -404.091497 
L 650.88 -406.248041 
L 650.88 -408.404585 
L 650.88 -410.561129 
L 650.88 -412.717673 
L 650.88 -414.874217 
L 650.88 -417.030761 
L 650.88 -419.187305 
L 650.88 -421.343849 
L 650.88 -423.500393 
L 650.88 -425.656936 
L 650.88 -427.81348 
L 650.88 -429.970024 
L 650.88 -432.126568 
L 650.88 -434.283112 
L 650.88 -436.439656 
L 650.88 -438.5962 
L 650.88 -440.752744 
L 650.88 -442.909288 
L 650.88 -445.065832 
L 650.88 -447.222376 
L 650.88 -449.37892 
L 650.88 -451.535463 
L 650.88 -453.692007 
L 650.88 -455.848551 
L 650.88 -458.005095 
L 650.88 -460.161639 
L 650.88 -462.318183 
L 650.88 -464.474727 
L 650.88 -466.631271 
L 650.88 -468.787815 
L 650.88 -470.944359 
L 650.88 -473.100903 
L 650.88 -475.257446 
L 650.88 -477.41399 
L 650.88 -479.570534 
L 650.88 -481.727078 
L 650.88 -483.883622 
L 650.88 -486.040166 
L 650.88 -488.19671 
L 650.88 -490.353254 
L 650.88 -492.509798 
L 650.88 -494.666342 
L 650.88 -496.822886 
L 650.88 -498.979429 
L 650.88 -501.135973 
L 650.88 -503.292517 
L 650.88 -505.449061 
L 650.88 -507.605605 
L 650.88 -509.762149 
L 650.88 -511.918693 
L 650.88 -514.075237 
L 650.88 -516.231781 
L 653.454758 -516.231781 
L 653.454758 -516.231781 
L 654.157359 -514.075237 
L 655.011367 -511.918693 
L 656.038346 -509.762149 
L 657.260307 -507.605605 
L 658.699105 -505.449061 
L 660.375748 -503.292517 
L 662.309641 -501.135973 
L 664.517775 -498.979429 
L 667.013926 -496.822886 
L 669.807863 -494.666342 
L 672.904639 -492.509798 
L 676.303975 -490.353254 
L 679.999798 -488.19671 
L 683.979954 -486.040166 
L 688.226137 -483.883622 
L 692.714053 -481.727078 
L 697.413833 -479.570534 
L 702.290708 -477.41399 
L 707.305933 -475.257446 
L 712.417924 -473.100903 
L 717.583589 -470.944359 
L 722.759767 -468.787815 
L 727.904715 -466.631271 
L 732.979523 -464.474727 
L 737.949386 -462.318183 
L 742.784582 -460.161639 
L 747.461098 -458.005095 
L 751.960784 -455.848551 
L 756.271021 -453.692007 
L 760.383871 -451.535463 
L 764.29477 -449.37892 
L 768.000849 -447.222376 
L 771.499049 -445.065832 
L 774.784197 -442.909288 
L 777.847267 -440.752744 
L 780.674042 -438.5962 
L 783.244355 -436.439656 
L 785.532063 -434.283112 
L 787.505823 -432.126568 
L 789.130673 -429.970024 
L 790.370295 -427.81348 
L 791.189817 -425.656936 
L 791.558871 -423.500393 
L 791.454634 -421.343849 
L 790.864537 -419.187305 
L 789.788365 -417.030761 
L 788.239515 -414.874217 
L 786.245251 -412.717673 
L 783.845931 -410.561129 
L 781.093223 -408.404585 
L 778.047487 -406.248041 
L 774.774549 -404.091497 
L 771.342137 -401.934953 
L 767.81631 -399.77841 
L 764.258162 -397.621866 
L 760.721064 -395.465322 
L 757.248634 -393.308778 
L 753.873544 -391.152234 
L 750.617191 -388.99569 
L 747.490166 -386.839146 
L 744.493395 -384.682602 
L 741.619774 -382.526058 
L 738.856089 -380.369514 
L 736.185017 -378.21297 
L 733.587022 -376.056427 
L 731.041997 -373.899883 
L 728.530555 -371.743339 
L 726.034923 -369.586795 
L 723.539464 -367.430251 
L 721.030859 -365.273707 
L 718.498062 -363.117163 
L 715.93211 -360.960619 
L 713.325907 -358.804075 
L 710.674063 -356.647531 
L 707.972845 -354.490987 
L 705.220285 -352.334443 
L 702.416415 -350.1779 
L 699.563616 -348.021356 
L 696.666987 -345.864812 
L 693.734685 -343.708268 
L 690.778139 -341.551724 
L 687.81208 -339.39518 
L 684.85434 -337.238636 
L 681.925393 -335.082092 
L 679.047666 -332.925548 
L 676.24465 -330.769004 
L 673.539882 -328.61246 
L 670.955871 -326.455917 
L 668.513071 -324.299373 
L 666.22896 -322.142829 
L 664.117313 -319.986285 
L 662.187709 -317.829741 
L 660.445296 -315.673197 
L 658.890815 -313.516653 
L 657.520867 -311.360109 
L 656.328375 -309.203565 
L 655.303191 -307.047021 
L 654.432802 -304.890477 
L 653.703056 -302.733933 
z
" id="m98f7ce6dcc" style="stroke:#4c4c4c;stroke-width:2.8;"/>
    </defs>
    <g clip-path="url(#p9a8b84780e)">
     <use style="fill:#5f9e6e;stroke:#4c4c4c;stroke-width:2.8;" x="0.0" xlink:href="#m98f7ce6dcc" y="633.6"/>
    </g>
   </g>
   <g id="patch_3">
    <path clip-path="url(#p9a8b84780e)" d="M 293.76 484.251429 
L 293.76 484.251429 
L 293.76 484.251429 
L 293.76 484.251429 
z
" style="fill:#5875a4;stroke:#4c4c4c;stroke-linejoin:miter;stroke-width:1.4;"/>
   </g>
   <g id="patch_4">
    <path clip-path="url(#p9a8b84780e)" d="M 293.76 484.251429 
L 293.76 484.251429 
L 293.76 484.251429 
L 293.76 484.251429 
z
" style="fill:#5f9e6e;stroke:#4c4c4c;stroke-linejoin:miter;stroke-width:1.4;"/>
   </g>
   <g id="line2d_11">
    <path clip-path="url(#p9a8b84780e)" d="M 165.098857 384.874286 
L 293.76 384.874286 
" style="fill:none;stroke:#4c4c4c;stroke-linecap:round;stroke-width:1.4;"/>
   </g>
   <g id="line2d_12">
    <path clip-path="url(#p9a8b84780e)" d="M 192.411741 414.102857 
L 293.76 414.102857 
" style="fill:none;stroke:#4c4c4c;stroke-linecap:round;stroke-width:1.4;"/>
   </g>
   <g id="line2d_13">
    <path clip-path="url(#p9a8b84780e)" d="M 231.380965 343.954286 
L 293.76 343.954286 
" style="fill:none;stroke:#4c4c4c;stroke-linecap:round;stroke-width:1.4;"/>
   </g>
   <g id="line2d_14">
    <path clip-path="url(#p9a8b84780e)" d="M 267.76621 443.331429 
L 293.76 443.331429 
" style="fill:none;stroke:#4c4c4c;stroke-linecap:round;stroke-width:1.4;"/>
   </g>
   <g id="line2d_15">
    <path clip-path="url(#p9a8b84780e)" d="M 156.493517 402.411429 
L 293.76 402.411429 
" style="fill:none;stroke:#4c4c4c;stroke-linecap:round;stroke-width:1.4;"/>
   </g>
   <g id="line2d_16">
    <path clip-path="url(#p9a8b84780e)" d="M 168.310497 408.257143 
L 293.76 408.257143 
" style="fill:none;stroke:#4c4c4c;stroke-linecap:round;stroke-width:1.4;"/>
   </g>
   <g id="line2d_17">
    <path clip-path="url(#p9a8b84780e)" d="M 181.850158 379.028571 
L 293.76 379.028571 
" style="fill:none;stroke:#4c4c4c;stroke-linecap:round;stroke-width:1.4;"/>
   </g>
   <g id="line2d_18">
    <path clip-path="url(#p9a8b84780e)" d="M 152.34048 396.565714 
L 293.76 396.565714 
" style="fill:none;stroke:#4c4c4c;stroke-linecap:round;stroke-width:1.4;"/>
   </g>
   <g id="line2d_19">
    <path clip-path="url(#p9a8b84780e)" d="M 168.310497 408.257143 
L 293.76 408.257143 
" style="fill:none;stroke:#4c4c4c;stroke-linecap:round;stroke-width:1.4;"/>
   </g>
   <g id="line2d_20">
    <path clip-path="url(#p9a8b84780e)" d="M 226.026619 349.8 
L 293.76 349.8 
" style="fill:none;stroke:#4c4c4c;stroke-linecap:round;stroke-width:1.4;"/>
   </g>
   <g id="line2d_21">
    <path clip-path="url(#p9a8b84780e)" d="M 213.140184 361.491429 
L 293.76 361.491429 
" style="fill:none;stroke:#4c4c4c;stroke-linecap:round;stroke-width:1.4;"/>
   </g>
   <g id="line2d_22">
    <path clip-path="url(#p9a8b84780e)" d="M 245.480001 332.262857 
L 293.76 332.262857 
" style="fill:none;stroke:#4c4c4c;stroke-linecap:round;stroke-width:1.4;"/>
   </g>
   <g id="line2d_23">
    <path clip-path="url(#p9a8b84780e)" d="M 165.098857 384.874286 
L 293.76 384.874286 
" style="fill:none;stroke:#4c4c4c;stroke-linecap:round;stroke-width:1.4;"/>
   </g>
   <g id="line2d_24">
    <path clip-path="url(#p9a8b84780e)" d="M 155.808096 390.72 
L 293.76 390.72 
" style="fill:none;stroke:#4c4c4c;stroke-linecap:round;stroke-width:1.4;"/>
   </g>
   <g id="line2d_25">
    <path clip-path="url(#p9a8b84780e)" d="M 156.493517 402.411429 
L 293.76 402.411429 
" style="fill:none;stroke:#4c4c4c;stroke-linecap:round;stroke-width:1.4;"/>
   </g>
   <g id="line2d_26">
    <path clip-path="url(#p9a8b84780e)" d="M 152.34048 396.565714 
L 293.76 396.565714 
" style="fill:none;stroke:#4c4c4c;stroke-linecap:round;stroke-width:1.4;"/>
   </g>
   <g id="line2d_27">
    <path clip-path="url(#p9a8b84780e)" d="M 155.808096 390.72 
L 293.76 390.72 
" style="fill:none;stroke:#4c4c4c;stroke-linecap:round;stroke-width:1.4;"/>
   </g>
   <g id="line2d_28">
    <path clip-path="url(#p9a8b84780e)" d="M 194.363968 373.182857 
L 293.76 373.182857 
" style="fill:none;stroke:#4c4c4c;stroke-linecap:round;stroke-width:1.4;"/>
   </g>
   <g id="line2d_29">
    <path clip-path="url(#p9a8b84780e)" d="M 156.493517 402.411429 
L 293.76 402.411429 
" style="fill:none;stroke:#4c4c4c;stroke-linecap:round;stroke-width:1.4;"/>
   </g>
   <g id="line2d_30">
    <path clip-path="url(#p9a8b84780e)" d="M 245.397551 431.64 
L 293.76 431.64 
" style="fill:none;stroke:#4c4c4c;stroke-linecap:round;stroke-width:1.4;"/>
   </g>
   <g id="line2d_31">
    <path clip-path="url(#p9a8b84780e)" d="M 257.178657 326.417143 
L 293.76 326.417143 
" style="fill:none;stroke:#4c4c4c;stroke-linecap:round;stroke-width:1.4;"/>
   </g>
   <g id="line2d_32">
    <path clip-path="url(#p9a8b84780e)" d="M 226.026619 349.8 
L 293.76 349.8 
" style="fill:none;stroke:#4c4c4c;stroke-linecap:round;stroke-width:1.4;"/>
   </g>
   <g id="line2d_33">
    <path clip-path="url(#p9a8b84780e)" d="M 168.310497 408.257143 
L 293.76 408.257143 
" style="fill:none;stroke:#4c4c4c;stroke-linecap:round;stroke-width:1.4;"/>
   </g>
   <g id="line2d_34">
    <path clip-path="url(#p9a8b84780e)" d="M 204.969887 367.337143 
L 293.76 367.337143 
" style="fill:none;stroke:#4c4c4c;stroke-linecap:round;stroke-width:1.4;"/>
   </g>
   <g id="line2d_35">
    <path clip-path="url(#p9a8b84780e)" d="M 293.76 390.72 
L 392.66215 390.72 
" style="fill:none;stroke:#4c4c4c;stroke-linecap:round;stroke-width:1.4;"/>
   </g>
   <g id="line2d_36">
    <path clip-path="url(#p9a8b84780e)" d="M 293.76 355.645714 
L 376.581067 355.645714 
" style="fill:none;stroke:#4c4c4c;stroke-linecap:round;stroke-width:1.4;"/>
   </g>
   <g id="line2d_37">
    <path clip-path="url(#p9a8b84780e)" d="M 293.76 390.72 
L 392.66215 390.72 
" style="fill:none;stroke:#4c4c4c;stroke-linecap:round;stroke-width:1.4;"/>
   </g>
   <g id="line2d_38">
    <path clip-path="url(#p9a8b84780e)" d="M 293.76 338.108571 
L 347.717409 338.108571 
" style="fill:none;stroke:#4c4c4c;stroke-linecap:round;stroke-width:1.4;"/>
   </g>
   <g id="line2d_39">
    <path clip-path="url(#p9a8b84780e)" d="M 293.76 408.257143 
L 366.630321 408.257143 
" style="fill:none;stroke:#4c4c4c;stroke-linecap:round;stroke-width:1.4;"/>
   </g>
   <g id="line2d_40">
    <path clip-path="url(#p9a8b84780e)" d="M 293.76 443.331429 
L 334.420026 443.331429 
" style="fill:none;stroke:#4c4c4c;stroke-linecap:round;stroke-width:1.4;"/>
   </g>
   <g id="line2d_41">
    <path clip-path="url(#p9a8b84780e)" d="M 293.76 379.028571 
L 398.338681 379.028571 
" style="fill:none;stroke:#4c4c4c;stroke-linecap:round;stroke-width:1.4;"/>
   </g>
   <g id="line2d_42">
    <path clip-path="url(#p9a8b84780e)" d="M 293.76 396.565714 
L 382.769842 396.565714 
" style="fill:none;stroke:#4c4c4c;stroke-linecap:round;stroke-width:1.4;"/>
   </g>
   <g id="line2d_43">
    <path clip-path="url(#p9a8b84780e)" d="M 293.76 367.337143 
L 390.977317 367.337143 
" style="fill:none;stroke:#4c4c4c;stroke-linecap:round;stroke-width:1.4;"/>
   </g>
   <g id="line2d_44">
    <path clip-path="url(#p9a8b84780e)" d="M 293.76 320.571429 
L 326.489555 320.571429 
" style="fill:none;stroke:#4c4c4c;stroke-linecap:round;stroke-width:1.4;"/>
   </g>
   <g id="line2d_45">
    <path clip-path="url(#p9a8b84780e)" d="M 293.76 478.405714 
L 310.98578 478.405714 
" style="fill:none;stroke:#4c4c4c;stroke-linecap:round;stroke-width:1.4;"/>
   </g>
   <g id="line2d_46">
    <path clip-path="url(#p9a8b84780e)" d="M 293.76 308.88 
L 317.527461 308.88 
" style="fill:none;stroke:#4c4c4c;stroke-linecap:round;stroke-width:1.4;"/>
   </g>
   <g id="line2d_47">
    <path clip-path="url(#p9a8b84780e)" d="M 293.76 349.8 
L 368.139439 349.8 
" style="fill:none;stroke:#4c4c4c;stroke-linecap:round;stroke-width:1.4;"/>
   </g>
   <g id="line2d_48">
    <path clip-path="url(#p9a8b84780e)" d="M 293.76 379.028571 
L 398.338681 379.028571 
" style="fill:none;stroke:#4c4c4c;stroke-linecap:round;stroke-width:1.4;"/>
   </g>
   <g id="line2d_49">
    <path clip-path="url(#p9a8b84780e)" d="M 293.76 361.491429 
L 384.400313 361.491429 
" style="fill:none;stroke:#4c4c4c;stroke-linecap:round;stroke-width:1.4;"/>
   </g>
   <g id="line2d_50">
    <path clip-path="url(#p9a8b84780e)" d="M 293.76 396.565714 
L 382.769842 396.565714 
" style="fill:none;stroke:#4c4c4c;stroke-linecap:round;stroke-width:1.4;"/>
   </g>
   <g id="line2d_51">
    <path clip-path="url(#p9a8b84780e)" d="M 293.76 361.491429 
L 384.400313 361.491429 
" style="fill:none;stroke:#4c4c4c;stroke-linecap:round;stroke-width:1.4;"/>
   </g>
   <g id="line2d_52">
    <path clip-path="url(#p9a8b84780e)" d="M 293.76 431.64 
L 341.823329 431.64 
" style="fill:none;stroke:#4c4c4c;stroke-linecap:round;stroke-width:1.4;"/>
   </g>
   <g id="line2d_53">
    <path clip-path="url(#p9a8b84780e)" d="M 293.76 384.874286 
L 396.772113 384.874286 
" style="fill:none;stroke:#4c4c4c;stroke-linecap:round;stroke-width:1.4;"/>
   </g>
   <g id="line2d_54">
    <path clip-path="url(#p9a8b84780e)" d="M 293.76 373.182857 
L 397.229286 373.182857 
" style="fill:none;stroke:#4c4c4c;stroke-linecap:round;stroke-width:1.4;"/>
   </g>
   <g id="line2d_55">
    <path clip-path="url(#p9a8b84780e)" d="M 293.76 384.874286 
L 396.772113 384.874286 
" style="fill:none;stroke:#4c4c4c;stroke-linecap:round;stroke-width:1.4;"/>
   </g>
   <g id="line2d_56">
    <path clip-path="url(#p9a8b84780e)" d="M 293.76 437.485714 
L 338.809506 437.485714 
" style="fill:none;stroke:#4c4c4c;stroke-linecap:round;stroke-width:1.4;"/>
   </g>
   <g id="line2d_57">
    <path clip-path="url(#p9a8b84780e)" d="M 293.76 449.177143 
L 331.184595 449.177143 
" style="fill:none;stroke:#4c4c4c;stroke-linecap:round;stroke-width:1.4;"/>
   </g>
   <g id="line2d_58">
    <path clip-path="url(#p9a8b84780e)" d="M 526.526066 221.194286 
L 650.88 221.194286 
" style="fill:none;stroke:#4c4c4c;stroke-linecap:round;stroke-width:1.4;"/>
   </g>
   <g id="line2d_59">
    <path clip-path="url(#p9a8b84780e)" d="M 628.11293 320.571429 
L 650.88 320.571429 
" style="fill:none;stroke:#4c4c4c;stroke-linecap:round;stroke-width:1.4;"/>
   </g>
   <g id="line2d_60">
    <path clip-path="url(#p9a8b84780e)" d="M 569.137624 168.582857 
L 650.88 168.582857 
" style="fill:none;stroke:#4c4c4c;stroke-linecap:round;stroke-width:1.4;"/>
   </g>
   <g id="line2d_61">
    <path clip-path="url(#p9a8b84780e)" d="M 586.31344 256.268571 
L 650.88 256.268571 
" style="fill:none;stroke:#4c4c4c;stroke-linecap:round;stroke-width:1.4;"/>
   </g>
   <g id="line2d_62">
    <path clip-path="url(#p9a8b84780e)" d="M 537.06133 180.274286 
L 650.88 180.274286 
" style="fill:none;stroke:#4c4c4c;stroke-linecap:round;stroke-width:1.4;"/>
   </g>
   <g id="line2d_63">
    <path clip-path="url(#p9a8b84780e)" d="M 610.954289 297.188571 
L 650.88 297.188571 
" style="fill:none;stroke:#4c4c4c;stroke-linecap:round;stroke-width:1.4;"/>
   </g>
   <g id="line2d_64">
    <path clip-path="url(#p9a8b84780e)" d="M 540.98742 227.04 
L 650.88 227.04 
" style="fill:none;stroke:#4c4c4c;stroke-linecap:round;stroke-width:1.4;"/>
   </g>
   <g id="line2d_65">
    <path clip-path="url(#p9a8b84780e)" d="M 602.615685 285.497143 
L 650.88 285.497143 
" style="fill:none;stroke:#4c4c4c;stroke-linecap:round;stroke-width:1.4;"/>
   </g>
   <g id="line2d_66">
    <path clip-path="url(#p9a8b84780e)" d="M 512.974204 209.502857 
L 650.88 209.502857 
" style="fill:none;stroke:#4c4c4c;stroke-linecap:round;stroke-width:1.4;"/>
   </g>
   <g id="line2d_67">
    <path clip-path="url(#p9a8b84780e)" d="M 596.51143 273.805714 
L 650.88 273.805714 
" style="fill:none;stroke:#4c4c4c;stroke-linecap:round;stroke-width:1.4;"/>
   </g>
   <g id="line2d_68">
    <path clip-path="url(#p9a8b84780e)" d="M 526.526066 221.194286 
L 650.88 221.194286 
" style="fill:none;stroke:#4c4c4c;stroke-linecap:round;stroke-width:1.4;"/>
   </g>
   <g id="line2d_69">
    <path clip-path="url(#p9a8b84780e)" d="M 582.598637 162.737143 
L 650.88 162.737143 
" style="fill:none;stroke:#4c4c4c;stroke-linecap:round;stroke-width:1.4;"/>
   </g>
   <g id="line2d_70">
    <path clip-path="url(#p9a8b84780e)" d="M 509.46048 203.657143 
L 650.88 203.657143 
" style="fill:none;stroke:#4c4c4c;stroke-linecap:round;stroke-width:1.4;"/>
   </g>
   <g id="line2d_71">
    <path clip-path="url(#p9a8b84780e)" d="M 515.066196 191.965714 
L 650.88 191.965714 
" style="fill:none;stroke:#4c4c4c;stroke-linecap:round;stroke-width:1.4;"/>
   </g>
   <g id="line2d_72">
    <path clip-path="url(#p9a8b84780e)" d="M 526.526066 221.194286 
L 650.88 221.194286 
" style="fill:none;stroke:#4c4c4c;stroke-linecap:round;stroke-width:1.4;"/>
   </g>
   <g id="line2d_73">
    <path clip-path="url(#p9a8b84780e)" d="M 510.788447 197.811429 
L 650.88 197.811429 
" style="fill:none;stroke:#4c4c4c;stroke-linecap:round;stroke-width:1.4;"/>
   </g>
   <g id="line2d_74">
    <path clip-path="url(#p9a8b84780e)" d="M 537.06133 180.274286 
L 650.88 180.274286 
" style="fill:none;stroke:#4c4c4c;stroke-linecap:round;stroke-width:1.4;"/>
   </g>
   <g id="line2d_75">
    <path clip-path="url(#p9a8b84780e)" d="M 515.066196 191.965714 
L 650.88 191.965714 
" style="fill:none;stroke:#4c4c4c;stroke-linecap:round;stroke-width:1.4;"/>
   </g>
   <g id="line2d_76">
    <path clip-path="url(#p9a8b84780e)" d="M 512.974204 209.502857 
L 650.88 209.502857 
" style="fill:none;stroke:#4c4c4c;stroke-linecap:round;stroke-width:1.4;"/>
   </g>
   <g id="line2d_77">
    <path clip-path="url(#p9a8b84780e)" d="M 561.281202 238.731429 
L 650.88 238.731429 
" style="fill:none;stroke:#4c4c4c;stroke-linecap:round;stroke-width:1.4;"/>
   </g>
   <g id="line2d_78">
    <path clip-path="url(#p9a8b84780e)" d="M 526.564013 186.12 
L 650.88 186.12 
" style="fill:none;stroke:#4c4c4c;stroke-linecap:round;stroke-width:1.4;"/>
   </g>
   <g id="line2d_79">
    <path clip-path="url(#p9a8b84780e)" d="M 518.664339 215.348571 
L 650.88 215.348571 
" style="fill:none;stroke:#4c4c4c;stroke-linecap:round;stroke-width:1.4;"/>
   </g>
   <g id="line2d_80">
    <path clip-path="url(#p9a8b84780e)" d="M 594.303574 267.96 
L 650.88 267.96 
" style="fill:none;stroke:#4c4c4c;stroke-linecap:round;stroke-width:1.4;"/>
   </g>
   <g id="line2d_81">
    <path clip-path="url(#p9a8b84780e)" d="M 515.066196 191.965714 
L 650.88 191.965714 
" style="fill:none;stroke:#4c4c4c;stroke-linecap:round;stroke-width:1.4;"/>
   </g>
   <g id="line2d_82">
    <path clip-path="url(#p9a8b84780e)" d="M 650.88 256.268571 
L 735.331966 256.268571 
" style="fill:none;stroke:#4c4c4c;stroke-linecap:round;stroke-width:1.4;"/>
   </g>
   <g id="line2d_83">
    <path clip-path="url(#p9a8b84780e)" d="M 650.88 180.274286 
L 755.217111 180.274286 
" style="fill:none;stroke:#4c4c4c;stroke-linecap:round;stroke-width:1.4;"/>
   </g>
   <g id="line2d_84">
    <path clip-path="url(#p9a8b84780e)" d="M 650.88 215.348571 
L 789.464692 215.348571 
" style="fill:none;stroke:#4c4c4c;stroke-linecap:round;stroke-width:1.4;"/>
   </g>
   <g id="line2d_85">
    <path clip-path="url(#p9a8b84780e)" d="M 650.88 215.348571 
L 789.464692 215.348571 
" style="fill:none;stroke:#4c4c4c;stroke-linecap:round;stroke-width:1.4;"/>
   </g>
   <g id="line2d_86">
    <path clip-path="url(#p9a8b84780e)" d="M 650.88 267.96 
L 720.32935 267.96 
" style="fill:none;stroke:#4c4c4c;stroke-linecap:round;stroke-width:1.4;"/>
   </g>
   <g id="line2d_87">
    <path clip-path="url(#p9a8b84780e)" d="M 650.88 291.342857 
L 690.379157 291.342857 
" style="fill:none;stroke:#4c4c4c;stroke-linecap:round;stroke-width:1.4;"/>
   </g>
   <g id="line2d_88">
    <path clip-path="url(#p9a8b84780e)" d="M 650.88 174.428571 
L 741.865536 174.428571 
" style="fill:none;stroke:#4c4c4c;stroke-linecap:round;stroke-width:1.4;"/>
   </g>
   <g id="line2d_89">
    <path clip-path="url(#p9a8b84780e)" d="M 650.88 168.582857 
L 732.158528 168.582857 
" style="fill:none;stroke:#4c4c4c;stroke-linecap:round;stroke-width:1.4;"/>
   </g>
   <g id="line2d_90">
    <path clip-path="url(#p9a8b84780e)" d="M 650.88 191.965714 
L 776.577594 191.965714 
" style="fill:none;stroke:#4c4c4c;stroke-linecap:round;stroke-width:1.4;"/>
   </g>
   <g id="line2d_91">
    <path clip-path="url(#p9a8b84780e)" d="M 650.88 215.348571 
L 789.464692 215.348571 
" style="fill:none;stroke:#4c4c4c;stroke-linecap:round;stroke-width:1.4;"/>
   </g>
   <g id="line2d_92">
    <path clip-path="url(#p9a8b84780e)" d="M 650.88 285.497143 
L 699.07678 285.497143 
" style="fill:none;stroke:#4c4c4c;stroke-linecap:round;stroke-width:1.4;"/>
   </g>
   <g id="line2d_93">
    <path clip-path="url(#p9a8b84780e)" d="M 650.88 221.194286 
L 784.891599 221.194286 
" style="fill:none;stroke:#4c4c4c;stroke-linecap:round;stroke-width:1.4;"/>
   </g>
   <g id="line2d_94">
    <path clip-path="url(#p9a8b84780e)" d="M 650.88 156.891429 
L 701.776601 156.891429 
" style="fill:none;stroke:#4c4c4c;stroke-linecap:round;stroke-width:1.4;"/>
   </g>
   <g id="line2d_95">
    <path clip-path="url(#p9a8b84780e)" d="M 650.88 186.12 
L 766.82964 186.12 
" style="fill:none;stroke:#4c4c4c;stroke-linecap:round;stroke-width:1.4;"/>
   </g>
   <g id="line2d_96">
    <path clip-path="url(#p9a8b84780e)" d="M 650.88 221.194286 
L 784.891599 221.194286 
" style="fill:none;stroke:#4c4c4c;stroke-linecap:round;stroke-width:1.4;"/>
   </g>
   <g id="line2d_97">
    <path clip-path="url(#p9a8b84780e)" d="M 650.88 244.577143 
L 749.619819 244.577143 
" style="fill:none;stroke:#4c4c4c;stroke-linecap:round;stroke-width:1.4;"/>
   </g>
   <g id="line2d_98">
    <path clip-path="url(#p9a8b84780e)" d="M 650.88 203.657143 
L 787.748166 203.657143 
" style="fill:none;stroke:#4c4c4c;stroke-linecap:round;stroke-width:1.4;"/>
   </g>
   <g id="line2d_99">
    <path clip-path="url(#p9a8b84780e)" d="M 650.88 232.885714 
L 766.646946 232.885714 
" style="fill:none;stroke:#4c4c4c;stroke-linecap:round;stroke-width:1.4;"/>
   </g>
   <g id="line2d_100">
    <path clip-path="url(#p9a8b84780e)" d="M 650.88 215.348571 
L 789.464692 215.348571 
" style="fill:none;stroke:#4c4c4c;stroke-linecap:round;stroke-width:1.4;"/>
   </g>
   <g id="line2d_101">
    <path clip-path="url(#p9a8b84780e)" d="M 650.88 186.12 
L 766.82964 186.12 
" style="fill:none;stroke:#4c4c4c;stroke-linecap:round;stroke-width:1.4;"/>
   </g>
   <g id="line2d_102">
    <path clip-path="url(#p9a8b84780e)" d="M 650.88 203.657143 
L 787.748166 203.657143 
" style="fill:none;stroke:#4c4c4c;stroke-linecap:round;stroke-width:1.4;"/>
   </g>
   <g id="line2d_103">
    <path clip-path="url(#p9a8b84780e)" d="M 650.88 244.577143 
L 749.619819 244.577143 
" style="fill:none;stroke:#4c4c4c;stroke-linecap:round;stroke-width:1.4;"/>
   </g>
   <g id="line2d_104">
    <path clip-path="url(#p9a8b84780e)" d="M 650.88 262.114286 
L 727.754049 262.114286 
" style="fill:none;stroke:#4c4c4c;stroke-linecap:round;stroke-width:1.4;"/>
   </g>
   <g id="patch_5">
    <path d="M 293.76 564.4 
L 650.88 564.4 
" style="fill:none;stroke:#262626;stroke-linecap:square;stroke-linejoin:miter;stroke-width:1.25;"/>
   </g>
   <g id="patch_6">
    <path d="M 105.2 554.4 
L 105.2 63.36 
" style="fill:none;stroke:#262626;stroke-linecap:square;stroke-linejoin:miter;stroke-width:1.25;"/>
   </g>
   <g id="legend_1">
    <g id="patch_7">
     <path d="M 132.48 94.554 
L 170.88 94.554 
L 170.88 81.114 
L 132.48 81.114 
z
" style="fill:#5875a4;stroke:#4c4c4c;stroke-linejoin:miter;stroke-width:1.4;"/>
    </g>
    <g id="text_12">
     <!-- TD -->
     <defs>
      <path d="M 35.15625 61.1875 
L 35.15625 0 
L 25.875 0 
L 25.875 61.1875 
L 2.25 61.1875 
L 2.25 68.796875 
L 58.796875 68.796875 
L 58.796875 61.1875 
z
" id="LiberationSans-54"/>
      <path d="M 67.4375 35.109375 
Q 67.4375 26.515625 64.84375 19.9375 
Q 62.25 13.375 57.75 8.953125 
Q 53.265625 4.546875 47.140625 2.265625 
Q 41.015625 0 33.9375 0 
L 8.203125 0 
L 8.203125 68.796875 
L 30.953125 68.796875 
Q 38.921875 68.796875 45.625 66.8125 
Q 52.34375 64.84375 57.171875 60.71875 
Q 62.015625 56.59375 64.71875 50.234375 
Q 67.4375 43.890625 67.4375 35.109375 
M 58.0625 35.109375 
Q 58.0625 42.09375 56.046875 47.046875 
Q 54.046875 52 50.4375 55.171875 
Q 46.828125 58.34375 41.796875 59.828125 
Q 36.765625 61.328125 30.765625 61.328125 
L 17.53125 61.328125 
L 17.53125 7.46875 
L 32.859375 7.46875 
Q 38.28125 7.46875 42.890625 9.21875 
Q 47.515625 10.984375 50.875 14.453125 
Q 54.25 17.921875 56.15625 23.09375 
Q 58.0625 28.265625 58.0625 35.109375 
" id="LiberationSans-44"/>
     </defs>
     <g style="fill:#262626;" transform="translate(186.24 94.554)scale(0.192 -0.192)">
      <use xlink:href="#LiberationSans-54"/>
      <use x="61.083984375" xlink:href="#LiberationSans-44"/>
     </g>
    </g>
    <g id="patch_8">
     <path d="M 132.48 122.052 
L 170.88 122.052 
L 170.88 108.612 
L 132.48 108.612 
z
" style="fill:#5f9e6e;stroke:#4c4c4c;stroke-linejoin:miter;stroke-width:1.4;"/>
    </g>
    <g id="text_13">
     <!-- ASD -->
     <defs>
      <path d="M 62.109375 19 
Q 62.109375 14.65625 60.421875 10.984375 
Q 58.734375 7.328125 55.21875 4.65625 
Q 51.703125 2 46.359375 0.5 
Q 41.015625 -0.984375 33.6875 -0.984375 
Q 20.84375 -0.984375 13.671875 3.515625 
Q 6.5 8.015625 4.546875 16.5 
L 13.578125 18.3125 
Q 14.265625 15.625 15.671875 13.421875 
Q 17.09375 11.234375 19.5 9.640625 
Q 21.921875 8.0625 25.484375 7.171875 
Q 29.046875 6.296875 34.03125 6.296875 
Q 38.1875 6.296875 41.65625 7 
Q 45.125 7.71875 47.609375 9.171875 
Q 50.09375 10.640625 51.484375 12.953125 
Q 52.875 15.28125 52.875 18.5 
Q 52.875 21.875 51.34375 23.96875 
Q 49.8125 26.078125 47.015625 27.4375 
Q 44.234375 28.8125 40.375 29.734375 
Q 36.53125 30.671875 31.84375 31.734375 
Q 28.953125 32.375 26.046875 33.125 
Q 23.140625 33.890625 20.484375 34.9375 
Q 17.828125 35.984375 15.484375 37.390625 
Q 13.140625 38.8125 11.421875 40.796875 
Q 9.71875 42.78125 8.734375 45.390625 
Q 7.765625 48 7.765625 51.421875 
Q 7.765625 56.296875 9.734375 59.78125 
Q 11.71875 63.28125 15.234375 65.53125 
Q 18.75 67.78125 23.53125 68.796875 
Q 28.328125 69.828125 33.890625 69.828125 
Q 40.28125 69.828125 44.8125 68.828125 
Q 49.359375 67.828125 52.484375 65.8125 
Q 55.609375 63.8125 57.484375 60.859375 
Q 59.375 57.90625 60.5 54 
L 51.3125 52.390625 
Q 50.640625 54.890625 49.34375 56.84375 
Q 48.046875 58.796875 45.9375 60.109375 
Q 43.84375 61.421875 40.84375 62.109375 
Q 37.84375 62.796875 33.796875 62.796875 
Q 29 62.796875 25.75 61.9375 
Q 22.515625 61.078125 20.53125 59.609375 
Q 18.5625 58.15625 17.703125 56.171875 
Q 16.84375 54.203125 16.84375 51.90625 
Q 16.84375 48.828125 18.375 46.84375 
Q 19.921875 44.875 22.5625 43.546875 
Q 25.203125 42.234375 28.65625 41.359375 
Q 32.125 40.484375 36.03125 39.59375 
Q 39.203125 38.875 42.359375 38.109375 
Q 45.515625 37.359375 48.390625 36.296875 
Q 51.265625 35.25 53.78125 33.828125 
Q 56.296875 32.421875 58.15625 30.375 
Q 60.015625 28.328125 61.0625 25.53125 
Q 62.109375 22.75 62.109375 19 
" id="LiberationSans-53"/>
      <path d="M 56.984375 0 
L 49.125 20.125 
L 17.78125 20.125 
L 9.859375 0 
L 0.203125 0 
L 28.265625 68.796875 
L 38.875 68.796875 
L 66.5 0 
z
M 37.5 50.09375 
Q 36.71875 52.046875 36 54.046875 
Q 35.296875 56.0625 34.765625 57.6875 
Q 34.234375 59.328125 33.859375 60.421875 
Q 33.5 61.53125 33.453125 61.765625 
Q 33.34375 61.53125 33 60.40625 
Q 32.671875 59.28125 32.109375 57.609375 
Q 31.546875 55.953125 30.828125 53.953125 
Q 30.125 51.953125 29.390625 50 
L 20.609375 27.390625 
L 46.34375 27.390625 
z
" id="LiberationSans-41"/>
     </defs>
     <g style="fill:#262626;" transform="translate(186.24 122.052)scale(0.192 -0.192)">
      <use xlink:href="#LiberationSans-41"/>
      <use x="66.69921875" xlink:href="#LiberationSans-53"/>
      <use x="133.3984375" xlink:href="#LiberationSans-44"/>
     </g>
    </g>
   </g>
  </g>
 </g>
 <defs>
  <clipPath id="p9a8b84780e">
   <rect height="491.04" width="714.24" x="115.2" y="63.36"/>
  </clipPath>
 </defs>
</svg>
