<?xml version="1.0" encoding="utf-8" standalone="no"?>
<!DOCTYPE svg PUBLIC "-//W3C//DTD SVG 1.1//EN"
  "http://www.w3.org/Graphics/SVG/1.1/DTD/svg11.dtd">
<!-- Created with matplotlib (http://matplotlib.org/) -->
<svg height="633pt" version="1.1" viewBox="0 0 921 633" width="921pt" xmlns="http://www.w3.org/2000/svg" xmlns:xlink="http://www.w3.org/1999/xlink">
 <defs>
  <style type="text/css">
*{stroke-linecap:butt;stroke-linejoin:round;}
  </style>
 </defs>
 <g id="figure_1">
  <g id="patch_1">
   <path d="M 0 633.6 
L 921.6 633.6 
L 921.6 0 
L 0 0 
z
" style="fill:#ffffff;"/>
  </g>
  <g id="axes_1">
   <g id="patch_2">
    <path d="M 115.2 554.4 
L 829.44 554.4 
L 829.44 76.032 
L 115.2 76.032 
z
" style="fill:#ffffff;"/>
   </g>
   <g id="matplotlib.axis_1">
    <g id="xtick_1">
     <g id="line2d_1">
      <defs>
       <path d="M 0 0 
L 0 6 
" id="m02fc565560" style="stroke:#262626;stroke-width:1.6;"/>
      </defs>
      <g>
       <use style="fill:#262626;stroke:#262626;stroke-width:1.6;" x="293.76" xlink:href="#m02fc565560" y="564.4"/>
      </g>
     </g>
     <g id="text_1">
      <!-- Pre -->
      <defs>
       <path d="M 7.71875 0 
L 7.71875 71.578125 
L 34.71875 71.578125 
Q 41.84375 71.578125 45.609375 70.90625 
Q 50.875 70.015625 54.4375 67.546875 
Q 58.015625 65.09375 60.1875 60.640625 
Q 62.359375 56.203125 62.359375 50.875 
Q 62.359375 41.75 56.546875 35.421875 
Q 50.734375 29.109375 35.546875 29.109375 
L 17.1875 29.109375 
L 17.1875 0 
z
M 17.1875 37.546875 
L 35.6875 37.546875 
Q 44.875 37.546875 48.734375 40.96875 
Q 52.59375 44.390625 52.59375 50.59375 
Q 52.59375 55.078125 50.3125 58.265625 
Q 48.046875 61.46875 44.34375 62.5 
Q 41.9375 63.140625 35.5 63.140625 
L 17.1875 63.140625 
z
" id="ArialMT-50"/>
       <path d="M 6.5 0 
L 6.5 51.859375 
L 14.40625 51.859375 
L 14.40625 44 
Q 17.4375 49.515625 20 51.265625 
Q 22.5625 53.03125 25.640625 53.03125 
Q 30.078125 53.03125 34.671875 50.203125 
L 31.640625 42.046875 
Q 28.421875 43.953125 25.203125 43.953125 
Q 22.3125 43.953125 20.015625 42.21875 
Q 17.71875 40.484375 16.75 37.40625 
Q 15.28125 32.71875 15.28125 27.15625 
L 15.28125 0 
z
" id="ArialMT-72"/>
       <path d="M 42.09375 16.703125 
L 51.171875 15.578125 
Q 49.03125 7.625 43.21875 3.21875 
Q 37.40625 -1.171875 28.375 -1.171875 
Q 17 -1.171875 10.328125 5.828125 
Q 3.65625 12.84375 3.65625 25.484375 
Q 3.65625 38.578125 10.390625 45.796875 
Q 17.140625 53.03125 27.875 53.03125 
Q 38.28125 53.03125 44.875 45.953125 
Q 51.46875 38.875 51.46875 26.03125 
Q 51.46875 25.25 51.421875 23.6875 
L 12.75 23.6875 
Q 13.234375 15.140625 17.578125 10.59375 
Q 21.921875 6.0625 28.421875 6.0625 
Q 33.25 6.0625 36.671875 8.59375 
Q 40.09375 11.140625 42.09375 16.703125 
z
M 13.234375 30.90625 
L 42.1875 30.90625 
Q 41.609375 37.453125 38.875 40.71875 
Q 34.671875 45.796875 27.984375 45.796875 
Q 21.921875 45.796875 17.796875 41.75 
Q 13.671875 37.703125 13.234375 30.90625 
z
" id="ArialMT-65"/>
      </defs>
      <g style="fill:#262626;" transform="translate(281.31125 593.0525)scale(0.16 -0.16)">
       <use xlink:href="#ArialMT-50"/>
       <use x="66.699219" xlink:href="#ArialMT-72"/>
       <use x="100" xlink:href="#ArialMT-65"/>
      </g>
     </g>
    </g>
    <g id="xtick_2">
     <g id="line2d_2">
      <g>
       <use style="fill:#262626;stroke:#262626;stroke-width:1.6;" x="650.88" xlink:href="#m02fc565560" y="564.4"/>
      </g>
     </g>
     <g id="text_2">
      <!-- Post -->
      <defs>
       <path d="M 3.328125 25.921875 
Q 3.328125 40.328125 11.328125 47.265625 
Q 18.015625 53.03125 27.640625 53.03125 
Q 38.328125 53.03125 45.109375 46.015625 
Q 51.90625 39.015625 51.90625 26.65625 
Q 51.90625 16.65625 48.90625 10.90625 
Q 45.90625 5.171875 40.15625 2 
Q 34.421875 -1.171875 27.640625 -1.171875 
Q 16.75 -1.171875 10.03125 5.8125 
Q 3.328125 12.796875 3.328125 25.921875 
z
M 12.359375 25.921875 
Q 12.359375 15.96875 16.703125 11.015625 
Q 21.046875 6.0625 27.640625 6.0625 
Q 34.1875 6.0625 38.53125 11.03125 
Q 42.875 16.015625 42.875 26.21875 
Q 42.875 35.84375 38.5 40.796875 
Q 34.125 45.75 27.640625 45.75 
Q 21.046875 45.75 16.703125 40.8125 
Q 12.359375 35.890625 12.359375 25.921875 
z
" id="ArialMT-6f"/>
       <path d="M 3.078125 15.484375 
L 11.765625 16.84375 
Q 12.5 11.625 15.84375 8.84375 
Q 19.1875 6.0625 25.203125 6.0625 
Q 31.25 6.0625 34.171875 8.515625 
Q 37.109375 10.984375 37.109375 14.3125 
Q 37.109375 17.28125 34.515625 19 
Q 32.71875 20.171875 25.53125 21.96875 
Q 15.875 24.421875 12.140625 26.203125 
Q 8.40625 27.984375 6.46875 31.125 
Q 4.546875 34.28125 4.546875 38.09375 
Q 4.546875 41.546875 6.125 44.5 
Q 7.71875 47.46875 10.453125 49.421875 
Q 12.5 50.921875 16.03125 51.96875 
Q 19.578125 53.03125 23.640625 53.03125 
Q 29.734375 53.03125 34.34375 51.265625 
Q 38.96875 49.515625 41.15625 46.5 
Q 43.359375 43.5 44.1875 38.484375 
L 35.59375 37.3125 
Q 35.015625 41.3125 32.203125 43.546875 
Q 29.390625 45.796875 24.265625 45.796875 
Q 18.21875 45.796875 15.625 43.796875 
Q 13.03125 41.796875 13.03125 39.109375 
Q 13.03125 37.40625 14.109375 36.03125 
Q 15.1875 34.625 17.484375 33.6875 
Q 18.796875 33.203125 25.25 31.453125 
Q 34.578125 28.953125 38.25 27.359375 
Q 41.9375 25.78125 44.03125 22.75 
Q 46.140625 19.734375 46.140625 15.234375 
Q 46.140625 10.84375 43.578125 6.953125 
Q 41.015625 3.078125 36.171875 0.953125 
Q 31.34375 -1.171875 25.25 -1.171875 
Q 15.140625 -1.171875 9.84375 3.03125 
Q 4.546875 7.234375 3.078125 15.484375 
z
" id="ArialMT-73"/>
       <path d="M 25.78125 7.859375 
L 27.046875 0.09375 
Q 23.34375 -0.6875 20.40625 -0.6875 
Q 15.625 -0.6875 12.984375 0.828125 
Q 10.359375 2.34375 9.28125 4.8125 
Q 8.203125 7.28125 8.203125 15.1875 
L 8.203125 45.015625 
L 1.765625 45.015625 
L 1.765625 51.859375 
L 8.203125 51.859375 
L 8.203125 64.703125 
L 16.9375 69.96875 
L 16.9375 51.859375 
L 25.78125 51.859375 
L 25.78125 45.015625 
L 16.9375 45.015625 
L 16.9375 14.703125 
Q 16.9375 10.9375 17.40625 9.859375 
Q 17.875 8.796875 18.921875 8.15625 
Q 19.96875 7.515625 21.921875 7.515625 
Q 23.390625 7.515625 25.78125 7.859375 
z
" id="ArialMT-74"/>
      </defs>
      <g style="fill:#262626;" transform="translate(634.8725 593.0525)scale(0.16 -0.16)">
       <use xlink:href="#ArialMT-50"/>
       <use x="66.699219" xlink:href="#ArialMT-6f"/>
       <use x="122.314453" xlink:href="#ArialMT-73"/>
       <use x="172.314453" xlink:href="#ArialMT-74"/>
      </g>
     </g>
    </g>
   </g>
   <g id="matplotlib.axis_2">
    <g id="ytick_1">
     <g id="line2d_3">
      <defs>
       <path d="M 0 0 
L -6 0 
" id="mac74a8b413" style="stroke:#262626;stroke-width:1.6;"/>
      </defs>
      <g>
       <use style="fill:#262626;stroke:#262626;stroke-width:1.6;" x="105.2" xlink:href="#mac74a8b413" y="518.6661"/>
      </g>
     </g>
     <g id="text_3">
      <!-- 0.0 -->
      <defs>
       <path d="M 4.15625 35.296875 
Q 4.15625 48 6.765625 55.734375 
Q 9.375 63.484375 14.515625 67.671875 
Q 19.671875 71.875 27.484375 71.875 
Q 33.25 71.875 37.59375 69.546875 
Q 41.9375 67.234375 44.765625 62.859375 
Q 47.609375 58.5 49.21875 52.21875 
Q 50.828125 45.953125 50.828125 35.296875 
Q 50.828125 22.703125 48.234375 14.96875 
Q 45.65625 7.234375 40.5 3 
Q 35.359375 -1.21875 27.484375 -1.21875 
Q 17.140625 -1.21875 11.234375 6.203125 
Q 4.15625 15.140625 4.15625 35.296875 
z
M 13.1875 35.296875 
Q 13.1875 17.671875 17.3125 11.828125 
Q 21.4375 6 27.484375 6 
Q 33.546875 6 37.671875 11.859375 
Q 41.796875 17.71875 41.796875 35.296875 
Q 41.796875 52.984375 37.671875 58.78125 
Q 33.546875 64.59375 27.390625 64.59375 
Q 21.34375 64.59375 17.71875 59.46875 
Q 13.1875 52.9375 13.1875 35.296875 
z
" id="ArialMT-30"/>
       <path d="M 9.078125 0 
L 9.078125 10.015625 
L 19.09375 10.015625 
L 19.09375 0 
z
" id="ArialMT-2e"/>
      </defs>
      <g style="fill:#262626;" transform="translate(65.76 524.39235)scale(0.16 -0.16)">
       <use xlink:href="#ArialMT-30"/>
       <use x="55.615234" xlink:href="#ArialMT-2e"/>
       <use x="83.398438" xlink:href="#ArialMT-30"/>
      </g>
     </g>
    </g>
    <g id="ytick_2">
     <g id="line2d_4">
      <g>
       <use style="fill:#262626;stroke:#262626;stroke-width:1.6;" x="105.2" xlink:href="#mac74a8b413" y="439.496361"/>
      </g>
     </g>
     <g id="text_4">
      <!-- 0.2 -->
      <defs>
       <path d="M 50.34375 8.453125 
L 50.34375 0 
L 3.03125 0 
Q 2.9375 3.171875 4.046875 6.109375 
Q 5.859375 10.9375 9.828125 15.625 
Q 13.8125 20.3125 21.34375 26.46875 
Q 33.015625 36.03125 37.109375 41.625 
Q 41.21875 47.21875 41.21875 52.203125 
Q 41.21875 57.421875 37.46875 61 
Q 33.734375 64.59375 27.734375 64.59375 
Q 21.390625 64.59375 17.578125 60.78125 
Q 13.765625 56.984375 13.71875 50.25 
L 4.6875 51.171875 
Q 5.609375 61.28125 11.65625 66.578125 
Q 17.71875 71.875 27.9375 71.875 
Q 38.234375 71.875 44.234375 66.15625 
Q 50.25 60.453125 50.25 52 
Q 50.25 47.703125 48.484375 43.546875 
Q 46.734375 39.40625 42.65625 34.8125 
Q 38.578125 30.21875 29.109375 22.21875 
Q 21.1875 15.578125 18.9375 13.203125 
Q 16.703125 10.84375 15.234375 8.453125 
z
" id="ArialMT-32"/>
      </defs>
      <g style="fill:#262626;" transform="translate(65.76 445.222611)scale(0.16 -0.16)">
       <use xlink:href="#ArialMT-30"/>
       <use x="55.615234" xlink:href="#ArialMT-2e"/>
       <use x="83.398438" xlink:href="#ArialMT-32"/>
      </g>
     </g>
    </g>
    <g id="ytick_3">
     <g id="line2d_5">
      <g>
       <use style="fill:#262626;stroke:#262626;stroke-width:1.6;" x="105.2" xlink:href="#mac74a8b413" y="360.326621"/>
      </g>
     </g>
     <g id="text_5">
      <!-- 0.4 -->
      <defs>
       <path d="M 32.328125 0 
L 32.328125 17.140625 
L 1.265625 17.140625 
L 1.265625 25.203125 
L 33.9375 71.578125 
L 41.109375 71.578125 
L 41.109375 25.203125 
L 50.78125 25.203125 
L 50.78125 17.140625 
L 41.109375 17.140625 
L 41.109375 0 
z
M 32.328125 25.203125 
L 32.328125 57.46875 
L 9.90625 25.203125 
z
" id="ArialMT-34"/>
      </defs>
      <g style="fill:#262626;" transform="translate(65.76 366.052871)scale(0.16 -0.16)">
       <use xlink:href="#ArialMT-30"/>
       <use x="55.615234" xlink:href="#ArialMT-2e"/>
       <use x="83.398438" xlink:href="#ArialMT-34"/>
      </g>
     </g>
    </g>
    <g id="ytick_4">
     <g id="line2d_6">
      <g>
       <use style="fill:#262626;stroke:#262626;stroke-width:1.6;" x="105.2" xlink:href="#mac74a8b413" y="281.156882"/>
      </g>
     </g>
     <g id="text_6">
      <!-- 0.6 -->
      <defs>
       <path d="M 49.75 54.046875 
L 41.015625 53.375 
Q 39.84375 58.546875 37.703125 60.890625 
Q 34.125 64.65625 28.90625 64.65625 
Q 24.703125 64.65625 21.53125 62.3125 
Q 17.390625 59.28125 14.984375 53.46875 
Q 12.59375 47.65625 12.5 36.921875 
Q 15.671875 41.75 20.265625 44.09375 
Q 24.859375 46.4375 29.890625 46.4375 
Q 38.671875 46.4375 44.84375 39.96875 
Q 51.03125 33.5 51.03125 23.25 
Q 51.03125 16.5 48.125 10.71875 
Q 45.21875 4.9375 40.140625 1.859375 
Q 35.0625 -1.21875 28.609375 -1.21875 
Q 17.625 -1.21875 10.6875 6.859375 
Q 3.765625 14.9375 3.765625 33.5 
Q 3.765625 54.25 11.421875 63.671875 
Q 18.109375 71.875 29.4375 71.875 
Q 37.890625 71.875 43.28125 67.140625 
Q 48.6875 62.40625 49.75 54.046875 
z
M 13.875 23.1875 
Q 13.875 18.65625 15.796875 14.5 
Q 17.71875 10.359375 21.1875 8.171875 
Q 24.65625 6 28.46875 6 
Q 34.03125 6 38.03125 10.484375 
Q 42.046875 14.984375 42.046875 22.703125 
Q 42.046875 30.125 38.078125 34.390625 
Q 34.125 38.671875 28.125 38.671875 
Q 22.171875 38.671875 18.015625 34.390625 
Q 13.875 30.125 13.875 23.1875 
z
" id="ArialMT-36"/>
      </defs>
      <g style="fill:#262626;" transform="translate(65.76 286.883132)scale(0.16 -0.16)">
       <use xlink:href="#ArialMT-30"/>
       <use x="55.615234" xlink:href="#ArialMT-2e"/>
       <use x="83.398438" xlink:href="#ArialMT-36"/>
      </g>
     </g>
    </g>
    <g id="ytick_5">
     <g id="line2d_7">
      <g>
       <use style="fill:#262626;stroke:#262626;stroke-width:1.6;" x="105.2" xlink:href="#mac74a8b413" y="201.987143"/>
      </g>
     </g>
     <g id="text_7">
      <!-- 0.8 -->
      <defs>
       <path d="M 17.671875 38.8125 
Q 12.203125 40.828125 9.5625 44.53125 
Q 6.9375 48.25 6.9375 53.421875 
Q 6.9375 61.234375 12.546875 66.546875 
Q 18.171875 71.875 27.484375 71.875 
Q 36.859375 71.875 42.578125 66.421875 
Q 48.296875 60.984375 48.296875 53.171875 
Q 48.296875 48.1875 45.671875 44.5 
Q 43.0625 40.828125 37.75 38.8125 
Q 44.34375 36.671875 47.78125 31.875 
Q 51.21875 27.09375 51.21875 20.453125 
Q 51.21875 11.28125 44.71875 5.03125 
Q 38.234375 -1.21875 27.640625 -1.21875 
Q 17.046875 -1.21875 10.546875 5.046875 
Q 4.046875 11.328125 4.046875 20.703125 
Q 4.046875 27.6875 7.59375 32.390625 
Q 11.140625 37.109375 17.671875 38.8125 
z
M 15.921875 53.71875 
Q 15.921875 48.640625 19.1875 45.40625 
Q 22.46875 42.1875 27.6875 42.1875 
Q 32.765625 42.1875 36.015625 45.375 
Q 39.265625 48.578125 39.265625 53.21875 
Q 39.265625 58.0625 35.90625 61.359375 
Q 32.5625 64.65625 27.59375 64.65625 
Q 22.5625 64.65625 19.234375 61.421875 
Q 15.921875 58.203125 15.921875 53.71875 
z
M 13.09375 20.65625 
Q 13.09375 16.890625 14.875 13.375 
Q 16.65625 9.859375 20.171875 7.921875 
Q 23.6875 6 27.734375 6 
Q 34.03125 6 38.125 10.046875 
Q 42.234375 14.109375 42.234375 20.359375 
Q 42.234375 26.703125 38.015625 30.859375 
Q 33.796875 35.015625 27.4375 35.015625 
Q 21.234375 35.015625 17.15625 30.90625 
Q 13.09375 26.8125 13.09375 20.65625 
z
" id="ArialMT-38"/>
      </defs>
      <g style="fill:#262626;" transform="translate(65.76 207.713393)scale(0.16 -0.16)">
       <use xlink:href="#ArialMT-30"/>
       <use x="55.615234" xlink:href="#ArialMT-2e"/>
       <use x="83.398438" xlink:href="#ArialMT-38"/>
      </g>
     </g>
    </g>
    <g id="ytick_6">
     <g id="line2d_8">
      <g>
       <use style="fill:#262626;stroke:#262626;stroke-width:1.6;" x="105.2" xlink:href="#mac74a8b413" y="122.817403"/>
      </g>
     </g>
     <g id="text_8">
      <!-- 1.0 -->
      <defs>
       <path d="M 37.25 0 
L 28.46875 0 
L 28.46875 56 
Q 25.296875 52.984375 20.140625 49.953125 
Q 14.984375 46.921875 10.890625 45.40625 
L 10.890625 53.90625 
Q 18.265625 57.375 23.78125 62.296875 
Q 29.296875 67.234375 31.59375 71.875 
L 37.25 71.875 
z
" id="ArialMT-31"/>
      </defs>
      <g style="fill:#262626;" transform="translate(65.76 128.543653)scale(0.16 -0.16)">
       <use xlink:href="#ArialMT-31"/>
       <use x="55.615234" xlink:href="#ArialMT-2e"/>
       <use x="83.398438" xlink:href="#ArialMT-30"/>
      </g>
     </g>
    </g>
    <g id="text_9">
     <!-- Mean accuracy -->
     <defs>
      <path d="M 7.421875 0 
L 7.421875 71.578125 
L 21.6875 71.578125 
L 38.625 20.90625 
Q 40.96875 13.8125 42.046875 10.296875 
Q 43.265625 14.203125 45.84375 21.78125 
L 62.984375 71.578125 
L 75.734375 71.578125 
L 75.734375 0 
L 66.609375 0 
L 66.609375 59.90625 
L 45.796875 0 
L 37.25 0 
L 16.546875 60.9375 
L 16.546875 0 
z
" id="ArialMT-4d"/>
      <path d="M 40.4375 6.390625 
Q 35.546875 2.25 31.03125 0.53125 
Q 26.515625 -1.171875 21.34375 -1.171875 
Q 12.796875 -1.171875 8.203125 3 
Q 3.609375 7.171875 3.609375 13.671875 
Q 3.609375 17.484375 5.34375 20.625 
Q 7.078125 23.78125 9.890625 25.6875 
Q 12.703125 27.59375 16.21875 28.5625 
Q 18.796875 29.25 24.03125 29.890625 
Q 34.671875 31.15625 39.703125 32.90625 
Q 39.75 34.71875 39.75 35.203125 
Q 39.75 40.578125 37.25 42.78125 
Q 33.890625 45.75 27.25 45.75 
Q 21.046875 45.75 18.09375 43.578125 
Q 15.140625 41.40625 13.71875 35.890625 
L 5.125 37.0625 
Q 6.296875 42.578125 8.984375 45.96875 
Q 11.671875 49.359375 16.75 51.1875 
Q 21.828125 53.03125 28.515625 53.03125 
Q 35.15625 53.03125 39.296875 51.46875 
Q 43.453125 49.90625 45.40625 47.53125 
Q 47.359375 45.171875 48.140625 41.546875 
Q 48.578125 39.3125 48.578125 33.453125 
L 48.578125 21.734375 
Q 48.578125 9.46875 49.140625 6.21875 
Q 49.703125 2.984375 51.375 0 
L 42.1875 0 
Q 40.828125 2.734375 40.4375 6.390625 
z
M 39.703125 26.03125 
Q 34.90625 24.078125 25.34375 22.703125 
Q 19.921875 21.921875 17.671875 20.9375 
Q 15.4375 19.96875 14.203125 18.09375 
Q 12.984375 16.21875 12.984375 13.921875 
Q 12.984375 10.40625 15.640625 8.0625 
Q 18.3125 5.71875 23.4375 5.71875 
Q 28.515625 5.71875 32.46875 7.9375 
Q 36.421875 10.15625 38.28125 14.015625 
Q 39.703125 17 39.703125 22.796875 
z
" id="ArialMT-61"/>
      <path d="M 6.59375 0 
L 6.59375 51.859375 
L 14.5 51.859375 
L 14.5 44.484375 
Q 20.21875 53.03125 31 53.03125 
Q 35.6875 53.03125 39.625 51.34375 
Q 43.5625 49.65625 45.515625 46.921875 
Q 47.46875 44.1875 48.25 40.4375 
Q 48.734375 37.984375 48.734375 31.890625 
L 48.734375 0 
L 39.9375 0 
L 39.9375 31.546875 
Q 39.9375 36.921875 38.90625 39.578125 
Q 37.890625 42.234375 35.28125 43.8125 
Q 32.671875 45.40625 29.15625 45.40625 
Q 23.53125 45.40625 19.453125 41.84375 
Q 15.375 38.28125 15.375 28.328125 
L 15.375 0 
z
" id="ArialMT-6e"/>
      <path id="ArialMT-20"/>
      <path d="M 40.4375 19 
L 49.078125 17.875 
Q 47.65625 8.9375 41.8125 3.875 
Q 35.984375 -1.171875 27.484375 -1.171875 
Q 16.84375 -1.171875 10.375 5.78125 
Q 3.90625 12.75 3.90625 25.734375 
Q 3.90625 34.125 6.6875 40.421875 
Q 9.46875 46.734375 15.15625 49.875 
Q 20.84375 53.03125 27.546875 53.03125 
Q 35.984375 53.03125 41.359375 48.75 
Q 46.734375 44.484375 48.25 36.625 
L 39.703125 35.296875 
Q 38.484375 40.53125 35.375 43.15625 
Q 32.28125 45.796875 27.875 45.796875 
Q 21.234375 45.796875 17.078125 41.03125 
Q 12.9375 36.28125 12.9375 25.984375 
Q 12.9375 15.53125 16.9375 10.796875 
Q 20.953125 6.0625 27.390625 6.0625 
Q 32.5625 6.0625 36.03125 9.234375 
Q 39.5 12.40625 40.4375 19 
z
" id="ArialMT-63"/>
      <path d="M 40.578125 0 
L 40.578125 7.625 
Q 34.515625 -1.171875 24.125 -1.171875 
Q 19.53125 -1.171875 15.546875 0.578125 
Q 11.578125 2.34375 9.640625 5 
Q 7.71875 7.671875 6.9375 11.53125 
Q 6.390625 14.109375 6.390625 19.734375 
L 6.390625 51.859375 
L 15.1875 51.859375 
L 15.1875 23.09375 
Q 15.1875 16.21875 15.71875 13.8125 
Q 16.546875 10.359375 19.234375 8.375 
Q 21.921875 6.390625 25.875 6.390625 
Q 29.828125 6.390625 33.296875 8.421875 
Q 36.765625 10.453125 38.203125 13.9375 
Q 39.65625 17.4375 39.65625 24.078125 
L 39.65625 51.859375 
L 48.4375 51.859375 
L 48.4375 0 
z
" id="ArialMT-75"/>
      <path d="M 6.203125 -19.96875 
L 5.21875 -11.71875 
Q 8.109375 -12.5 10.25 -12.5 
Q 13.1875 -12.5 14.9375 -11.515625 
Q 16.703125 -10.546875 17.828125 -8.796875 
Q 18.65625 -7.46875 20.515625 -2.25 
Q 20.75 -1.515625 21.296875 -0.09375 
L 1.609375 51.859375 
L 11.078125 51.859375 
L 21.875 21.828125 
Q 23.96875 16.109375 25.640625 9.8125 
Q 27.15625 15.875 29.25 21.625 
L 40.328125 51.859375 
L 49.125 51.859375 
L 29.390625 -0.875 
Q 26.21875 -9.421875 24.46875 -12.640625 
Q 22.125 -17 19.09375 -19.015625 
Q 16.0625 -21.046875 11.859375 -21.046875 
Q 9.328125 -21.046875 6.203125 -19.96875 
z
" id="ArialMT-79"/>
     </defs>
     <g style="fill:#262626;" transform="translate(58.05575 374.88275)rotate(-90)scale(0.176 -0.176)">
      <use xlink:href="#ArialMT-4d"/>
      <use x="83.300781" xlink:href="#ArialMT-65"/>
      <use x="138.916016" xlink:href="#ArialMT-61"/>
      <use x="194.53125" xlink:href="#ArialMT-6e"/>
      <use x="250.146484" xlink:href="#ArialMT-20"/>
      <use x="277.929688" xlink:href="#ArialMT-61"/>
      <use x="333.544922" xlink:href="#ArialMT-63"/>
      <use x="383.544922" xlink:href="#ArialMT-63"/>
      <use x="433.544922" xlink:href="#ArialMT-75"/>
      <use x="489.160156" xlink:href="#ArialMT-72"/>
      <use x="522.460938" xlink:href="#ArialMT-61"/>
      <use x="578.076172" xlink:href="#ArialMT-63"/>
      <use x="628.076172" xlink:href="#ArialMT-79"/>
     </g>
    </g>
   </g>
   <g id="PolyCollection_1">
    <defs>
     <path d="M 293.76 -104.759621 
L 293.374739 -104.759621 
L 293.163772 -107.304618 
L 292.869371 -109.849616 
L 292.472897 -112.394614 
L 291.955452 -114.939611 
L 291.297486 -117.484609 
L 290.47716 -120.029607 
L 289.46742 -122.574604 
L 288.232266 -125.119602 
L 286.723271 -127.6646 
L 284.877762 -130.209597 
L 282.620197 -132.754595 
L 279.867868 -135.299593 
L 276.541223 -137.844591 
L 272.577867 -140.389588 
L 267.947915 -142.934586 
L 262.667183 -145.479584 
L 256.804267 -148.024581 
L 250.478162 -150.569579 
L 243.844966 -153.114577 
L 237.074971 -155.659574 
L 230.32445 -158.204572 
L 223.70864 -160.74957 
L 217.283095 -163.294567 
L 211.039136 -165.839565 
L 204.915929 -168.384563 
L 198.827362 -170.92956 
L 192.697636 -173.474558 
L 186.496581 -176.019556 
L 180.265241 -178.564553 
L 174.124587 -181.109551 
L 168.264905 -183.654549 
L 162.918957 -186.199546 
L 158.326625 -188.744544 
L 154.700681 -191.289542 
L 152.201909 -193.834539 
L 150.927568 -196.379537 
L 150.912 -198.924535 
L 152.134133 -201.469532 
L 154.525514 -204.01453 
L 157.974512 -206.559528 
L 162.326511 -209.104525 
L 167.38405 -211.649523 
L 172.912916 -214.194521 
L 178.658875 -216.739518 
L 184.375499 -219.284516 
L 189.858148 -221.829514 
L 194.975033 -224.374511 
L 199.685576 -226.919509 
L 204.039449 -229.464507 
L 208.155753 -232.009504 
L 212.188181 -234.554502 
L 216.286218 -237.0995 
L 220.562795 -239.644497 
L 225.075534 -242.189495 
L 229.823538 -244.734493 
L 234.756794 -247.27949 
L 239.792593 -249.824488 
L 244.833228 -252.369486 
L 249.780997 -254.914483 
L 254.548735 -257.459481 
L 259.06584 -260.004479 
L 263.280452 -262.549476 
L 267.158666 -265.094474 
L 270.681631 -267.639472 
L 273.841603 -270.184469 
L 276.638165 -272.729467 
L 279.075791 -275.274465 
L 281.163382 -277.819462 
L 282.915615 -280.36446 
L 284.355114 -282.909458 
L 285.514114 -285.454455 
L 286.434441 -287.999453 
L 287.165246 -290.544451 
L 287.7587 -293.089448 
L 288.26443 -295.634446 
L 288.723825 -298.179444 
L 289.165338 -300.724441 
L 289.601761 -303.269439 
L 290.030104 -305.814437 
L 290.43433 -308.359434 
L 290.790619 -310.904432 
L 291.074293 -313.44943 
L 291.267055 -315.994427 
L 291.362934 -318.539425 
L 291.371499 -321.084423 
L 291.317443 -323.62942 
L 291.236495 -326.174418 
L 291.16858 -328.719416 
L 291.149895 -331.264413 
L 291.20589 -333.809411 
L 291.34688 -336.354409 
L 291.567242 -338.899406 
L 291.848153 -341.444404 
L 292.162807 -343.989402 
L 292.482551 -346.534399 
L 292.782314 -349.079397 
L 293.044185 -351.624395 
L 293.258727 -354.169392 
L 293.424279 -356.71439 
L 293.76 -356.71439 
L 293.76 -356.71439 
L 293.76 -354.169392 
L 293.76 -351.624395 
L 293.76 -349.079397 
L 293.76 -346.534399 
L 293.76 -343.989402 
L 293.76 -341.444404 
L 293.76 -338.899406 
L 293.76 -336.354409 
L 293.76 -333.809411 
L 293.76 -331.264413 
L 293.76 -328.719416 
L 293.76 -326.174418 
L 293.76 -323.62942 
L 293.76 -321.084423 
L 293.76 -318.539425 
L 293.76 -315.994427 
L 293.76 -313.44943 
L 293.76 -310.904432 
L 293.76 -308.359434 
L 293.76 -305.814437 
L 293.76 -303.269439 
L 293.76 -300.724441 
L 293.76 -298.179444 
L 293.76 -295.634446 
L 293.76 -293.089448 
L 293.76 -290.544451 
L 293.76 -287.999453 
L 293.76 -285.454455 
L 293.76 -282.909458 
L 293.76 -280.36446 
L 293.76 -277.819462 
L 293.76 -275.274465 
L 293.76 -272.729467 
L 293.76 -270.184469 
L 293.76 -267.639472 
L 293.76 -265.094474 
L 293.76 -262.549476 
L 293.76 -260.004479 
L 293.76 -257.459481 
L 293.76 -254.914483 
L 293.76 -252.369486 
L 293.76 -249.824488 
L 293.76 -247.27949 
L 293.76 -244.734493 
L 293.76 -242.189495 
L 293.76 -239.644497 
L 293.76 -237.0995 
L 293.76 -234.554502 
L 293.76 -232.009504 
L 293.76 -229.464507 
L 293.76 -226.919509 
L 293.76 -224.374511 
L 293.76 -221.829514 
L 293.76 -219.284516 
L 293.76 -216.739518 
L 293.76 -214.194521 
L 293.76 -211.649523 
L 293.76 -209.104525 
L 293.76 -206.559528 
L 293.76 -204.01453 
L 293.76 -201.469532 
L 293.76 -198.924535 
L 293.76 -196.379537 
L 293.76 -193.834539 
L 293.76 -191.289542 
L 293.76 -188.744544 
L 293.76 -186.199546 
L 293.76 -183.654549 
L 293.76 -181.109551 
L 293.76 -178.564553 
L 293.76 -176.019556 
L 293.76 -173.474558 
L 293.76 -170.92956 
L 293.76 -168.384563 
L 293.76 -165.839565 
L 293.76 -163.294567 
L 293.76 -160.74957 
L 293.76 -158.204572 
L 293.76 -155.659574 
L 293.76 -153.114577 
L 293.76 -150.569579 
L 293.76 -148.024581 
L 293.76 -145.479584 
L 293.76 -142.934586 
L 293.76 -140.389588 
L 293.76 -137.844591 
L 293.76 -135.299593 
L 293.76 -132.754595 
L 293.76 -130.209597 
L 293.76 -127.6646 
L 293.76 -125.119602 
L 293.76 -122.574604 
L 293.76 -120.029607 
L 293.76 -117.484609 
L 293.76 -114.939611 
L 293.76 -112.394614 
L 293.76 -109.849616 
L 293.76 -107.304618 
L 293.76 -104.759621 
z
" id="m462232d478" style="stroke:#5875a4;stroke-width:2.8;"/>
    </defs>
    <g clip-path="url(#p276bb14fcf)">
     <use style="fill:#5875a4;stroke:#5875a4;stroke-width:2.8;" x="0" xlink:href="#m462232d478" y="633.6"/>
    </g>
   </g>
   <g id="PolyCollection_2">
    <defs>
     <path d="M 294.334047 -100.944 
L 293.76 -100.944 
L 293.76 -103.397624 
L 293.76 -105.851248 
L 293.76 -108.304871 
L 293.76 -110.758495 
L 293.76 -113.212119 
L 293.76 -115.665743 
L 293.76 -118.119366 
L 293.76 -120.57299 
L 293.76 -123.026614 
L 293.76 -125.480238 
L 293.76 -127.933861 
L 293.76 -130.387485 
L 293.76 -132.841109 
L 293.76 -135.294733 
L 293.76 -137.748357 
L 293.76 -140.20198 
L 293.76 -142.655604 
L 293.76 -145.109228 
L 293.76 -147.562852 
L 293.76 -150.016475 
L 293.76 -152.470099 
L 293.76 -154.923723 
L 293.76 -157.377347 
L 293.76 -159.83097 
L 293.76 -162.284594 
L 293.76 -164.738218 
L 293.76 -167.191842 
L 293.76 -169.645465 
L 293.76 -172.099089 
L 293.76 -174.552713 
L 293.76 -177.006337 
L 293.76 -179.459961 
L 293.76 -181.913584 
L 293.76 -184.367208 
L 293.76 -186.820832 
L 293.76 -189.274456 
L 293.76 -191.728079 
L 293.76 -194.181703 
L 293.76 -196.635327 
L 293.76 -199.088951 
L 293.76 -201.542574 
L 293.76 -203.996198 
L 293.76 -206.449822 
L 293.76 -208.903446 
L 293.76 -211.35707 
L 293.76 -213.810693 
L 293.76 -216.264317 
L 293.76 -218.717941 
L 293.76 -221.171565 
L 293.76 -223.625188 
L 293.76 -226.078812 
L 293.76 -228.532436 
L 293.76 -230.98606 
L 293.76 -233.439683 
L 293.76 -235.893307 
L 293.76 -238.346931 
L 293.76 -240.800555 
L 293.76 -243.254179 
L 293.76 -245.707802 
L 293.76 -248.161426 
L 293.76 -250.61505 
L 293.76 -253.068674 
L 293.76 -255.522297 
L 293.76 -257.975921 
L 293.76 -260.429545 
L 293.76 -262.883169 
L 293.76 -265.336792 
L 293.76 -267.790416 
L 293.76 -270.24404 
L 293.76 -272.697664 
L 293.76 -275.151288 
L 293.76 -277.604911 
L 293.76 -280.058535 
L 293.76 -282.512159 
L 293.76 -284.965783 
L 293.76 -287.419406 
L 293.76 -289.87303 
L 293.76 -292.326654 
L 293.76 -294.780278 
L 293.76 -297.233901 
L 293.76 -299.687525 
L 293.76 -302.141149 
L 293.76 -304.594773 
L 293.76 -307.048396 
L 293.76 -309.50202 
L 293.76 -311.955644 
L 293.76 -314.409268 
L 293.76 -316.862892 
L 293.76 -319.316515 
L 293.76 -321.770139 
L 293.76 -324.223763 
L 293.76 -326.677387 
L 293.76 -329.13101 
L 293.76 -331.584634 
L 293.76 -334.038258 
L 293.76 -336.491882 
L 293.76 -338.945505 
L 293.76 -341.399129 
L 293.76 -343.852753 
L 294.160296 -343.852753 
L 294.160296 -343.852753 
L 294.331005 -341.399129 
L 294.551484 -338.945505 
L 294.826603 -336.491882 
L 295.158226 -334.038258 
L 295.544295 -331.584634 
L 295.978352 -329.13101 
L 296.449681 -326.677387 
L 296.944209 -324.223763 
L 297.446138 -321.770139 
L 297.940162 -319.316515 
L 298.41396 -316.862892 
L 298.86055 -314.409268 
L 299.280082 -311.955644 
L 299.680663 -309.50202 
L 300.077927 -307.048396 
L 300.493291 -304.594773 
L 300.95104 -302.141149 
L 301.474697 -299.687525 
L 302.083344 -297.233901 
L 302.788716 -294.780278 
L 303.593873 -292.326654 
L 304.494023 -289.87303 
L 305.479624 -287.419406 
L 306.541348 -284.965783 
L 307.675866 -282.512159 
L 308.891036 -280.058535 
L 310.208957 -277.604911 
L 311.665681 -275.151288 
L 313.307107 -272.697664 
L 315.181517 -270.24404 
L 317.330181 -267.790416 
L 319.778133 -265.336792 
L 322.527379 -262.883169 
L 325.55435 -260.429545 
L 328.812453 -257.975921 
L 332.239309 -255.522297 
L 335.767051 -253.068674 
L 339.333227 -250.61505 
L 342.889685 -248.161426 
L 346.407332 -245.707802 
L 349.8758 -243.254179 
L 353.298503 -240.800555 
L 356.684906 -238.346931 
L 360.042673 -235.893307 
L 363.372491 -233.439683 
L 366.667553 -230.98606 
L 369.918244 -228.532436 
L 373.120799 -226.078812 
L 376.287108 -223.625188 
L 379.451995 -221.171565 
L 382.674499 -218.717941 
L 386.030997 -216.264317 
L 389.600138 -213.810693 
L 393.442008 -211.35707 
L 397.575848 -208.903446 
L 401.961626 -206.449822 
L 406.490342 -203.996198 
L 410.986205 -201.542574 
L 415.22138 -199.088951 
L 418.94126 -196.635327 
L 421.89608 -194.181703 
L 423.8735 -191.728079 
L 424.726686 -189.274456 
L 424.393383 -186.820832 
L 422.903042 -184.367208 
L 420.371004 -181.913584 
L 416.980663 -179.459961 
L 412.956289 -177.006337 
L 408.530574 -174.552713 
L 403.911938 -172.099089 
L 399.256866 -169.645465 
L 394.65198 -167.191842 
L 390.109056 -164.738218 
L 385.57391 -162.284594 
L 380.947385 -159.83097 
L 376.114216 -157.377347 
L 370.973853 -154.923723 
L 365.466991 -152.470099 
L 359.592637 -150.016475 
L 353.412818 -147.562852 
L 347.044882 -145.109228 
L 340.64402 -142.655604 
L 334.38047 -140.20198 
L 328.416462 -137.748357 
L 322.887287 -135.294733 
L 317.889327 -132.841109 
L 313.475895 -130.387485 
L 309.659991 -127.933861 
L 306.421846 -125.480238 
L 303.718737 -123.026614 
L 301.494761 -120.57299 
L 299.688981 -118.119366 
L 298.241211 -115.665743 
L 297.095417 -113.212119 
L 296.201232 -110.758495 
L 295.514242 -108.304871 
L 294.995675 -105.851248 
L 294.61191 -103.397624 
L 294.334047 -100.944 
z
" id="m63b0eb6252" style="stroke:#5f9e6e;stroke-width:2.8;"/>
    </defs>
    <g clip-path="url(#p276bb14fcf)">
     <use style="fill:#5f9e6e;stroke:#5f9e6e;stroke-width:2.8;" x="0" xlink:href="#m63b0eb6252" y="633.6"/>
    </g>
   </g>
   <g id="PolyCollection_3">
    <defs>
     <path d="M 650.88 -185.112903 
L 650.39421 -185.112903 
L 650.166896 -188.574636 
L 649.865536 -192.03637 
L 649.480444 -195.498103 
L 649.005922 -198.959836 
L 648.441584 -202.421569 
L 647.792833 -205.883303 
L 647.070149 -209.345036 
L 646.287079 -212.806769 
L 645.457237 -216.268502 
L 644.590977 -219.730235 
L 643.692685 -223.191969 
L 642.759597 -226.653702 
L 641.782734 -230.115435 
L 640.749922 -233.577168 
L 639.650134 -237.038902 
L 638.477849 -240.500635 
L 637.235886 -243.962368 
L 635.935509 -247.424101 
L 634.593334 -250.885835 
L 633.225592 -254.347568 
L 631.841216 -257.809301 
L 630.435728 -261.271034 
L 628.987807 -264.732767 
L 627.459725 -268.194501 
L 625.801713 -271.656234 
L 623.959222 -275.117967 
L 621.88115 -278.5797 
L 619.526951 -282.041434 
L 616.870897 -285.503167 
L 613.902737 -288.9649 
L 610.625095 -292.426633 
L 607.048893 -295.888366 
L 603.188559 -299.3501 
L 599.058605 -302.811833 
L 594.672577 -306.273566 
L 590.044465 -309.735299 
L 585.191889 -313.197033 
L 580.139935 -316.658766 
L 574.924456 -320.120499 
L 569.593955 -323.582232 
L 564.209566 -327.043966 
L 558.843009 -330.505699 
L 553.572623 -333.967432 
L 548.477761 -337.429165 
L 543.631993 -340.890898 
L 539.095915 -344.352632 
L 534.910715 -347.814365 
L 531.093883 -351.276098 
L 527.638386 -354.737831 
L 524.516117 -358.199565 
L 521.685508 -361.661298 
L 519.102222 -365.123031 
L 516.730984 -368.584764 
L 514.556291 -372.046497 
L 512.589953 -375.508231 
L 510.874085 -378.969964 
L 509.4791 -382.431697 
L 508.49713 -385.89343 
L 508.032 -389.355164 
L 508.1873 -392.816897 
L 509.054261 -396.27863 
L 510.701099 -399.740363 
L 513.165237 -403.202097 
L 516.449401 -406.66383 
L 520.521976 -410.125563 
L 525.321341 -413.587296 
L 530.763206 -417.049029 
L 536.749517 -420.510763 
L 543.177284 -423.972496 
L 549.945859 -427.434229 
L 556.961613 -430.895962 
L 564.139578 -434.357696 
L 571.402232 -437.819429 
L 578.676165 -441.281162 
L 585.887728 -444.742895 
L 592.959011 -448.204628 
L 599.805485 -451.666362 
L 606.336442 -455.128095 
L 612.458798 -458.589828 
L 618.084139 -462.051561 
L 623.137958 -465.513295 
L 627.569301 -468.975028 
L 631.358604 -472.436761 
L 634.52166 -475.898494 
L 637.108406 -479.360228 
L 639.196357 -482.821961 
L 640.879855 -486.283694 
L 642.257252 -489.745427 
L 643.418653 -493.20716 
L 644.43655 -496.668894 
L 645.360847 -500.130627 
L 646.218633 -503.59236 
L 647.017938 -507.054093 
L 647.753935 -510.515827 
L 648.415819 -513.97756 
L 648.992788 -517.439293 
L 649.478156 -520.901026 
L 649.871262 -524.362759 
L 650.177445 -527.824493 
L 650.88 -527.824493 
L 650.88 -527.824493 
L 650.88 -524.362759 
L 650.88 -520.901026 
L 650.88 -517.439293 
L 650.88 -513.97756 
L 650.88 -510.515827 
L 650.88 -507.054093 
L 650.88 -503.59236 
L 650.88 -500.130627 
L 650.88 -496.668894 
L 650.88 -493.20716 
L 650.88 -489.745427 
L 650.88 -486.283694 
L 650.88 -482.821961 
L 650.88 -479.360228 
L 650.88 -475.898494 
L 650.88 -472.436761 
L 650.88 -468.975028 
L 650.88 -465.513295 
L 650.88 -462.051561 
L 650.88 -458.589828 
L 650.88 -455.128095 
L 650.88 -451.666362 
L 650.88 -448.204628 
L 650.88 -444.742895 
L 650.88 -441.281162 
L 650.88 -437.819429 
L 650.88 -434.357696 
L 650.88 -430.895962 
L 650.88 -427.434229 
L 650.88 -423.972496 
L 650.88 -420.510763 
L 650.88 -417.049029 
L 650.88 -413.587296 
L 650.88 -410.125563 
L 650.88 -406.66383 
L 650.88 -403.202097 
L 650.88 -399.740363 
L 650.88 -396.27863 
L 650.88 -392.816897 
L 650.88 -389.355164 
L 650.88 -385.89343 
L 650.88 -382.431697 
L 650.88 -378.969964 
L 650.88 -375.508231 
L 650.88 -372.046497 
L 650.88 -368.584764 
L 650.88 -365.123031 
L 650.88 -361.661298 
L 650.88 -358.199565 
L 650.88 -354.737831 
L 650.88 -351.276098 
L 650.88 -347.814365 
L 650.88 -344.352632 
L 650.88 -340.890898 
L 650.88 -337.429165 
L 650.88 -333.967432 
L 650.88 -330.505699 
L 650.88 -327.043966 
L 650.88 -323.582232 
L 650.88 -320.120499 
L 650.88 -316.658766 
L 650.88 -313.197033 
L 650.88 -309.735299 
L 650.88 -306.273566 
L 650.88 -302.811833 
L 650.88 -299.3501 
L 650.88 -295.888366 
L 650.88 -292.426633 
L 650.88 -288.9649 
L 650.88 -285.503167 
L 650.88 -282.041434 
L 650.88 -278.5797 
L 650.88 -275.117967 
L 650.88 -271.656234 
L 650.88 -268.194501 
L 650.88 -264.732767 
L 650.88 -261.271034 
L 650.88 -257.809301 
L 650.88 -254.347568 
L 650.88 -250.885835 
L 650.88 -247.424101 
L 650.88 -243.962368 
L 650.88 -240.500635 
L 650.88 -237.038902 
L 650.88 -233.577168 
L 650.88 -230.115435 
L 650.88 -226.653702 
L 650.88 -223.191969 
L 650.88 -219.730235 
L 650.88 -216.268502 
L 650.88 -212.806769 
L 650.88 -209.345036 
L 650.88 -205.883303 
L 650.88 -202.421569 
L 650.88 -198.959836 
L 650.88 -195.498103 
L 650.88 -192.03637 
L 650.88 -188.574636 
L 650.88 -185.112903 
z
" id="m1b96e0a5e8" style="stroke:#5875a4;stroke-width:2.8;"/>
    </defs>
    <g clip-path="url(#p276bb14fcf)">
     <use style="fill:#5875a4;stroke:#5875a4;stroke-width:2.8;" x="0" xlink:href="#m1b96e0a5e8" y="633.6"/>
    </g>
   </g>
   <g id="PolyCollection_4">
    <defs>
     <path d="M 651.315811 -148.587303 
L 650.88 -148.587303 
L 650.88 -152.498785 
L 650.88 -156.410267 
L 650.88 -160.321749 
L 650.88 -164.23323 
L 650.88 -168.144712 
L 650.88 -172.056194 
L 650.88 -175.967676 
L 650.88 -179.879158 
L 650.88 -183.790639 
L 650.88 -187.702121 
L 650.88 -191.613603 
L 650.88 -195.525085 
L 650.88 -199.436567 
L 650.88 -203.348048 
L 650.88 -207.25953 
L 650.88 -211.171012 
L 650.88 -215.082494 
L 650.88 -218.993975 
L 650.88 -222.905457 
L 650.88 -226.816939 
L 650.88 -230.728421 
L 650.88 -234.639903 
L 650.88 -238.551384 
L 650.88 -242.462866 
L 650.88 -246.374348 
L 650.88 -250.28583 
L 650.88 -254.197312 
L 650.88 -258.108793 
L 650.88 -262.020275 
L 650.88 -265.931757 
L 650.88 -269.843239 
L 650.88 -273.75472 
L 650.88 -277.666202 
L 650.88 -281.577684 
L 650.88 -285.489166 
L 650.88 -289.400648 
L 650.88 -293.312129 
L 650.88 -297.223611 
L 650.88 -301.135093 
L 650.88 -305.046575 
L 650.88 -308.958057 
L 650.88 -312.869538 
L 650.88 -316.78102 
L 650.88 -320.692502 
L 650.88 -324.603984 
L 650.88 -328.515465 
L 650.88 -332.426947 
L 650.88 -336.338429 
L 650.88 -340.249911 
L 650.88 -344.161393 
L 650.88 -348.072874 
L 650.88 -351.984356 
L 650.88 -355.895838 
L 650.88 -359.80732 
L 650.88 -363.718801 
L 650.88 -367.630283 
L 650.88 -371.541765 
L 650.88 -375.453247 
L 650.88 -379.364729 
L 650.88 -383.27621 
L 650.88 -387.187692 
L 650.88 -391.099174 
L 650.88 -395.010656 
L 650.88 -398.922138 
L 650.88 -402.833619 
L 650.88 -406.745101 
L 650.88 -410.656583 
L 650.88 -414.568065 
L 650.88 -418.479546 
L 650.88 -422.391028 
L 650.88 -426.30251 
L 650.88 -430.213992 
L 650.88 -434.125474 
L 650.88 -438.036955 
L 650.88 -441.948437 
L 650.88 -445.859919 
L 650.88 -449.771401 
L 650.88 -453.682883 
L 650.88 -457.594364 
L 650.88 -461.505846 
L 650.88 -465.417328 
L 650.88 -469.32881 
L 650.88 -473.240291 
L 650.88 -477.151773 
L 650.88 -481.063255 
L 650.88 -484.974737 
L 650.88 -488.886219 
L 650.88 -492.7977 
L 650.88 -496.709182 
L 650.88 -500.620664 
L 650.88 -504.532146 
L 650.88 -508.443628 
L 650.88 -512.355109 
L 650.88 -516.266591 
L 650.88 -520.178073 
L 650.88 -524.089555 
L 650.88 -528.001036 
L 650.88 -531.912518 
L 650.88 -535.824 
L 651.333246 -535.824 
L 651.333246 -535.824 
L 651.53636 -531.912518 
L 651.809731 -528.001036 
L 652.16973 -524.089555 
L 652.63444 -520.178073 
L 653.223671 -516.266591 
L 653.959152 -512.355109 
L 654.86494 -508.443628 
L 655.968033 -504.532146 
L 657.29909 -500.620664 
L 658.893067 -496.709182 
L 660.789519 -492.7977 
L 663.032226 -488.886219 
L 665.667796 -484.974737 
L 668.742908 -481.063255 
L 672.299963 -477.151773 
L 676.371086 -473.240291 
L 680.970779 -469.32881 
L 686.087866 -465.417328 
L 691.67788 -461.505846 
L 697.657365 -457.594364 
L 703.901769 -453.682883 
L 710.248414 -449.771401 
L 716.505489 -445.859919 
L 722.467022 -441.948437 
L 727.932662 -438.036955 
L 732.729902 -434.125474 
L 736.735531 -430.213992 
L 739.892801 -426.30251 
L 742.221129 -422.391028 
L 743.81627 -418.479546 
L 744.840374 -414.568065 
L 745.503114 -410.656583 
L 746.036608 -406.745101 
L 746.667905 -402.833619 
L 747.593103 -398.922138 
L 748.956675 -395.010656 
L 750.838431 -391.099174 
L 753.248957 -387.187692 
L 756.132881 -383.27621 
L 759.378079 -379.364729 
L 762.82841 -375.453247 
L 766.297681 -371.541765 
L 769.583201 -367.630283 
L 772.47819 -363.718801 
L 774.783075 -359.80732 
L 776.316112 -355.895838 
L 776.923647 -351.984356 
L 776.489854 -348.072874 
L 774.945155 -344.161393 
L 772.272124 -340.249911 
L 768.507631 -336.338429 
L 763.740491 -332.426947 
L 758.104648 -328.515465 
L 751.768842 -324.603984 
L 744.924338 -320.692502 
L 737.772511 -316.78102 
L 730.513813 -312.869538 
L 723.338972 -308.958057 
L 716.42254 -305.046575 
L 709.918242 -301.135093 
L 703.955303 -297.223611 
L 698.635045 -293.312129 
L 694.027423 -289.400648 
L 690.167745 -285.489166 
L 687.054236 -281.577684 
L 684.64737 -277.666202 
L 682.871784 -273.75472 
L 681.621257 -269.843239 
L 680.766762 -265.931757 
L 680.167009 -262.020275 
L 679.680463 -258.108793 
L 679.177504 -254.197312 
L 678.551252 -250.28583 
L 677.725716 -246.374348 
L 676.660226 -242.462866 
L 675.349601 -238.551384 
L 673.82015 -234.639903 
L 672.122207 -230.728421 
L 670.320467 -226.816939 
L 668.483693 -222.905457 
L 666.675395 -218.993975 
L 664.946809 -215.082494 
L 663.332966 -211.171012 
L 661.852024 -207.25953 
L 660.50739 -203.348048 
L 659.291742 -199.436567 
L 658.191821 -195.525085 
L 657.192937 -191.613603 
L 656.282397 -187.702121 
L 655.451426 -183.790639 
L 654.695584 -179.879158 
L 654.013975 -175.967676 
L 653.407724 -172.056194 
L 652.878274 -168.144712 
L 652.42591 -164.23323 
L 652.04881 -160.321749 
L 651.742705 -156.410267 
L 651.501087 -152.498785 
L 651.315811 -148.587303 
z
" id="mc5a8b494d4" style="stroke:#5f9e6e;stroke-width:2.8;"/>
    </defs>
    <g clip-path="url(#p276bb14fcf)">
     <use style="fill:#5f9e6e;stroke:#5f9e6e;stroke-width:2.8;" x="0" xlink:href="#mc5a8b494d4" y="633.6"/>
    </g>
   </g>
   <g id="patch_3">
    <path clip-path="url(#p276bb14fcf)" d="M 293.76 518.6661 
L 293.76 518.6661 
L 293.76 518.6661 
L 293.76 518.6661 
z
" style="fill:#5875a4;stroke:#4c4c4c;stroke-linejoin:miter;stroke-width:1.4;"/>
   </g>
   <g id="patch_4">
    <path clip-path="url(#p276bb14fcf)" d="M 293.76 518.6661 
L 293.76 518.6661 
L 293.76 518.6661 
L 293.76 518.6661 
z
" style="fill:#5f9e6e;stroke:#4c4c4c;stroke-linejoin:miter;stroke-width:1.4;"/>
   </g>
   <g id="line2d_9">
    <path clip-path="url(#p276bb14fcf)" d="M 175.320941 451.573101 
L 293.76 451.573101 
" style="fill:none;stroke:#4c4c4c;stroke-dasharray:11.76,11.76;stroke-dashoffset:0;stroke-width:2.8;"/>
   </g>
   <g id="line2d_10">
    <path clip-path="url(#p276bb14fcf)" d="M 153.550392 431.445201 
L 293.76 431.445201 
" style="fill:none;stroke:#4c4c4c;stroke-dasharray:23.52,23.52;stroke-dashoffset:0;stroke-width:2.8;"/>
   </g>
   <g id="line2d_11">
    <path clip-path="url(#p276bb14fcf)" d="M 195.962883 409.46646 
L 293.76 409.46646 
" style="fill:none;stroke:#4c4c4c;stroke-dasharray:11.76,11.76;stroke-dashoffset:0;stroke-width:2.8;"/>
   </g>
   <g id="line2d_12">
    <path clip-path="url(#p276bb14fcf)" d="M 293.76 457.241302 
L 411.764326 457.241302 
" style="fill:none;stroke:#4c4c4c;stroke-dasharray:11.76,11.76;stroke-dashoffset:0;stroke-width:2.8;"/>
   </g>
   <g id="line2d_13">
    <path clip-path="url(#p276bb14fcf)" d="M 293.76 438.154501 
L 417.689448 438.154501 
" style="fill:none;stroke:#4c4c4c;stroke-dasharray:23.52,23.52;stroke-dashoffset:0;stroke-width:2.8;"/>
   </g>
   <g id="line2d_14">
    <path clip-path="url(#p276bb14fcf)" d="M 293.76 411.317301 
L 378.595075 411.317301 
" style="fill:none;stroke:#4c4c4c;stroke-dasharray:11.76,11.76;stroke-dashoffset:0;stroke-width:2.8;"/>
   </g>
   <g id="line2d_15">
    <path clip-path="url(#p276bb14fcf)" d="M 540.213755 290.549902 
L 650.88 290.549902 
" style="fill:none;stroke:#4c4c4c;stroke-dasharray:11.76,11.76;stroke-dashoffset:0;stroke-width:2.8;"/>
   </g>
   <g id="line2d_16">
    <path clip-path="url(#p276bb14fcf)" d="M 513.972853 257.003402 
L 650.88 257.003402 
" style="fill:none;stroke:#4c4c4c;stroke-dasharray:23.52,23.52;stroke-dashoffset:0;stroke-width:2.8;"/>
   </g>
   <g id="line2d_17">
    <path clip-path="url(#p276bb14fcf)" d="M 521.825557 225.192066 
L 650.88 225.192066 
" style="fill:none;stroke:#4c4c4c;stroke-dasharray:11.76,11.76;stroke-dashoffset:0;stroke-width:2.8;"/>
   </g>
   <g id="line2d_18">
    <path clip-path="url(#p276bb14fcf)" d="M 650.88 303.379967 
L 757.032402 303.379967 
" style="fill:none;stroke:#4c4c4c;stroke-dasharray:11.76,11.76;stroke-dashoffset:0;stroke-width:2.8;"/>
   </g>
   <g id="line2d_19">
    <path clip-path="url(#p276bb14fcf)" d="M 650.88 272.966909 
L 773.544044 272.966909 
" style="fill:none;stroke:#4c4c4c;stroke-dasharray:23.52,23.52;stroke-dashoffset:0;stroke-width:2.8;"/>
   </g>
   <g id="line2d_20">
    <path clip-path="url(#p276bb14fcf)" d="M 650.88 223.456902 
L 744.556883 223.456902 
" style="fill:none;stroke:#4c4c4c;stroke-dasharray:11.76,11.76;stroke-dashoffset:0;stroke-width:2.8;"/>
   </g>
   <g id="patch_5">
    <path d="M 105.2 518.6661 
L 105.2 122.817403 
" style="fill:none;stroke:#262626;stroke-linecap:square;stroke-linejoin:miter;stroke-width:1.25;"/>
   </g>
   <g id="patch_6">
    <path d="M 293.76 564.4 
L 650.88 564.4 
" style="fill:none;stroke:#262626;stroke-linecap:square;stroke-linejoin:miter;stroke-width:1.25;"/>
   </g>
   <g id="legend_1">
    <g id="patch_7">
     <path d="M 132.48 107.055 
L 170.88 107.055 
L 170.88 93.615 
L 132.48 93.615 
z
" style="fill:#5875a4;stroke:#4c4c4c;stroke-linejoin:miter;stroke-width:1.4;"/>
    </g>
    <g id="text_10">
     <!-- Low AQ -->
     <defs>
      <path d="M 7.328125 0 
L 7.328125 71.578125 
L 16.796875 71.578125 
L 16.796875 8.453125 
L 52.046875 8.453125 
L 52.046875 0 
z
" id="ArialMT-4c"/>
      <path d="M 16.15625 0 
L 0.296875 51.859375 
L 9.375 51.859375 
L 17.625 21.921875 
L 20.703125 10.796875 
Q 20.90625 11.625 23.390625 21.484375 
L 31.640625 51.859375 
L 40.671875 51.859375 
L 48.4375 21.78125 
L 51.03125 11.859375 
L 54 21.875 
L 62.890625 51.859375 
L 71.4375 51.859375 
L 55.21875 0 
L 46.09375 0 
L 37.84375 31.0625 
L 35.84375 39.890625 
L 25.34375 0 
z
" id="ArialMT-77"/>
      <path d="M -0.140625 0 
L 27.34375 71.578125 
L 37.546875 71.578125 
L 66.84375 0 
L 56.0625 0 
L 47.703125 21.6875 
L 17.78125 21.6875 
L 9.90625 0 
z
M 20.515625 29.390625 
L 44.78125 29.390625 
L 37.3125 49.21875 
Q 33.890625 58.25 32.234375 64.0625 
Q 30.859375 57.171875 28.375 50.390625 
z
" id="ArialMT-41"/>
      <path d="M 61.96875 7.671875 
Q 68.5625 3.125 74.125 1.03125 
L 71.34375 -5.5625 
Q 63.625 -2.78125 55.953125 3.21875 
Q 48 -1.21875 38.375 -1.21875 
Q 28.65625 -1.21875 20.75 3.46875 
Q 12.84375 8.15625 8.5625 16.640625 
Q 4.296875 25.140625 4.296875 35.796875 
Q 4.296875 46.390625 8.59375 55.078125 
Q 12.890625 63.765625 20.828125 68.3125 
Q 28.765625 72.859375 38.578125 72.859375 
Q 48.484375 72.859375 56.4375 68.140625 
Q 64.40625 63.421875 68.578125 54.953125 
Q 72.75 46.484375 72.75 35.84375 
Q 72.75 27 70.0625 19.9375 
Q 67.390625 12.890625 61.96875 7.671875 
z
M 41.109375 19.78125 
Q 49.3125 17.484375 54.640625 12.9375 
Q 62.984375 20.5625 62.984375 35.84375 
Q 62.984375 44.53125 60.03125 51.015625 
Q 57.078125 57.515625 51.390625 61.109375 
Q 45.703125 64.703125 38.625 64.703125 
Q 28.03125 64.703125 21.046875 57.453125 
Q 14.0625 50.203125 14.0625 35.796875 
Q 14.0625 21.828125 20.96875 14.359375 
Q 27.875 6.890625 38.625 6.890625 
Q 43.703125 6.890625 48.1875 8.796875 
Q 43.75 11.671875 38.8125 12.890625 
z
" id="ArialMT-51"/>
     </defs>
     <g style="fill:#262626;" transform="translate(186.24 107.055)scale(0.192 -0.192)">
      <use xlink:href="#ArialMT-4c"/>
      <use x="55.615234" xlink:href="#ArialMT-6f"/>
      <use x="111.230469" xlink:href="#ArialMT-77"/>
      <use x="183.447266" xlink:href="#ArialMT-20"/>
      <use x="211.152344" xlink:href="#ArialMT-41"/>
      <use x="277.851562" xlink:href="#ArialMT-51"/>
     </g>
    </g>
    <g id="patch_8">
     <path d="M 132.48 134.46 
L 170.88 134.46 
L 170.88 121.02 
L 132.48 121.02 
z
" style="fill:#5f9e6e;stroke:#4c4c4c;stroke-linejoin:miter;stroke-width:1.4;"/>
    </g>
    <g id="text_11">
     <!-- High AQ -->
     <defs>
      <path d="M 8.015625 0 
L 8.015625 71.578125 
L 17.484375 71.578125 
L 17.484375 42.1875 
L 54.6875 42.1875 
L 54.6875 71.578125 
L 64.15625 71.578125 
L 64.15625 0 
L 54.6875 0 
L 54.6875 33.734375 
L 17.484375 33.734375 
L 17.484375 0 
z
" id="ArialMT-48"/>
      <path d="M 6.640625 61.46875 
L 6.640625 71.578125 
L 15.4375 71.578125 
L 15.4375 61.46875 
z
M 6.640625 0 
L 6.640625 51.859375 
L 15.4375 51.859375 
L 15.4375 0 
z
" id="ArialMT-69"/>
      <path d="M 4.984375 -4.296875 
L 13.53125 -5.5625 
Q 14.0625 -9.515625 16.5 -11.328125 
Q 19.78125 -13.765625 25.4375 -13.765625 
Q 31.546875 -13.765625 34.859375 -11.328125 
Q 38.1875 -8.890625 39.359375 -4.5 
Q 40.046875 -1.8125 39.984375 6.78125 
Q 34.234375 0 25.640625 0 
Q 14.9375 0 9.078125 7.71875 
Q 3.21875 15.4375 3.21875 26.21875 
Q 3.21875 33.640625 5.90625 39.90625 
Q 8.59375 46.1875 13.6875 49.609375 
Q 18.796875 53.03125 25.6875 53.03125 
Q 34.859375 53.03125 40.828125 45.609375 
L 40.828125 51.859375 
L 48.921875 51.859375 
L 48.921875 7.03125 
Q 48.921875 -5.078125 46.453125 -10.125 
Q 44 -15.1875 38.640625 -18.109375 
Q 33.296875 -21.046875 25.484375 -21.046875 
Q 16.21875 -21.046875 10.5 -16.875 
Q 4.78125 -12.703125 4.984375 -4.296875 
z
M 12.25 26.859375 
Q 12.25 16.65625 16.296875 11.96875 
Q 20.359375 7.28125 26.46875 7.28125 
Q 32.515625 7.28125 36.609375 11.9375 
Q 40.71875 16.609375 40.71875 26.5625 
Q 40.71875 36.078125 36.5 40.90625 
Q 32.28125 45.75 26.3125 45.75 
Q 20.453125 45.75 16.34375 40.984375 
Q 12.25 36.234375 12.25 26.859375 
z
" id="ArialMT-67"/>
      <path d="M 6.59375 0 
L 6.59375 71.578125 
L 15.375 71.578125 
L 15.375 45.90625 
Q 21.53125 53.03125 30.90625 53.03125 
Q 36.671875 53.03125 40.921875 50.75 
Q 45.171875 48.484375 47 44.484375 
Q 48.828125 40.484375 48.828125 32.859375 
L 48.828125 0 
L 40.046875 0 
L 40.046875 32.859375 
Q 40.046875 39.453125 37.1875 42.453125 
Q 34.328125 45.453125 29.109375 45.453125 
Q 25.203125 45.453125 21.75 43.421875 
Q 18.3125 41.40625 16.84375 37.9375 
Q 15.375 34.46875 15.375 28.375 
L 15.375 0 
z
" id="ArialMT-68"/>
     </defs>
     <g style="fill:#262626;" transform="translate(186.24 134.46)scale(0.192 -0.192)">
      <use xlink:href="#ArialMT-48"/>
      <use x="72.216797" xlink:href="#ArialMT-69"/>
      <use x="94.433594" xlink:href="#ArialMT-67"/>
      <use x="150.048828" xlink:href="#ArialMT-68"/>
      <use x="205.664062" xlink:href="#ArialMT-20"/>
      <use x="233.369141" xlink:href="#ArialMT-41"/>
      <use x="300.068359" xlink:href="#ArialMT-51"/>
     </g>
    </g>
   </g>
  </g>
 </g>
 <defs>
  <clipPath id="p276bb14fcf">
   <rect height="478.368" width="714.24" x="115.2" y="76.032"/>
  </clipPath>
 </defs>
</svg>
