<?xml version="1.0" encoding="utf-8" standalone="no"?>
<!DOCTYPE svg PUBLIC "-//W3C//DTD SVG 1.1//EN"
  "http://www.w3.org/Graphics/SVG/1.1/DTD/svg11.dtd">
<!-- Created with matplotlib (http://matplotlib.org/) -->
<svg height="633pt" version="1.1" viewBox="0 0 921 633" width="921pt" xmlns="http://www.w3.org/2000/svg" xmlns:xlink="http://www.w3.org/1999/xlink">
 <defs>
  <style type="text/css">
*{stroke-linecap:butt;stroke-linejoin:round;stroke-miterlimit:100000;}
  </style>
 </defs>
 <g id="figure_1">
  <g id="patch_1">
   <path d="M 0 633.6 
L 921.6 633.6 
L 921.6 0 
L 0 0 
z
" style="fill:#ffffff;"/>
  </g>
  <g id="axes_1">
   <g id="patch_2">
    <path d="M 115.2 554.4 
L 829.44 554.4 
L 829.44 63.36 
L 115.2 63.36 
z
" style="fill:#ffffff;"/>
   </g>
   <g id="matplotlib.axis_1">
    <g id="xtick_1">
     <g id="line2d_1">
      <defs>
       <path d="M 0 0 
L 0 6 
" id="m9d4d673dca" style="stroke:#262626;stroke-width:1.6;"/>
      </defs>
      <g>
       <use style="fill:#262626;stroke:#262626;stroke-width:1.6;" x="293.76" xlink:href="#m9d4d673dca" y="564.4"/>
      </g>
     </g>
     <g id="text_1">
      <!-- Pre -->
      <defs>
       <path d="M 6.9375 0 
L 6.9375 40.53125 
Q 6.9375 42.1875 6.90625 43.921875 
Q 6.890625 45.65625 6.828125 47.265625 
Q 6.78125 48.875 6.734375 50.28125 
Q 6.6875 51.703125 6.640625 52.828125 
L 14.9375 52.828125 
Q 14.984375 51.703125 15.0625 50.265625 
Q 15.140625 48.828125 15.203125 47.3125 
Q 15.28125 45.796875 15.296875 44.40625 
Q 15.328125 43.015625 15.328125 42.046875 
L 15.53125 42.046875 
Q 16.453125 45.0625 17.5 47.28125 
Q 18.5625 49.515625 19.96875 50.953125 
Q 21.390625 52.390625 23.34375 53.09375 
Q 25.296875 53.8125 28.078125 53.8125 
Q 29.15625 53.8125 30.125 53.640625 
Q 31.109375 53.46875 31.640625 53.328125 
L 31.640625 45.265625 
Q 30.765625 45.515625 29.59375 45.625 
Q 28.421875 45.75 26.953125 45.75 
Q 23.921875 45.75 21.796875 44.375 
Q 19.671875 43.015625 18.328125 40.59375 
Q 17 38.1875 16.359375 34.84375 
Q 15.71875 31.5 15.71875 27.546875 
L 15.71875 0 
z
" id="LiberationSans-72"/>
       <path d="M 61.421875 48.09375 
Q 61.421875 43.609375 59.9375 39.71875 
Q 58.453125 35.84375 55.5 32.984375 
Q 52.546875 30.125 48.09375 28.46875 
Q 43.65625 26.8125 37.75 26.8125 
L 17.53125 26.8125 
L 17.53125 0 
L 8.203125 0 
L 8.203125 68.796875 
L 37.15625 68.796875 
Q 43.265625 68.796875 47.796875 67.3125 
Q 52.34375 65.828125 55.375 63.109375 
Q 58.40625 60.40625 59.90625 56.5625 
Q 61.421875 52.734375 61.421875 48.09375 
M 52.046875 48 
Q 52.046875 54.546875 48.046875 57.9375 
Q 44.046875 61.328125 36.03125 61.328125 
L 17.53125 61.328125 
L 17.53125 34.1875 
L 36.421875 34.1875 
Q 44.484375 34.1875 48.265625 37.75 
Q 52.046875 41.3125 52.046875 48 
" id="LiberationSans-50"/>
       <path d="M 13.484375 24.5625 
Q 13.484375 20.40625 14.328125 16.90625 
Q 15.1875 13.421875 16.96875 10.90625 
Q 18.75 8.40625 21.53125 7 
Q 24.3125 5.609375 28.21875 5.609375 
Q 33.9375 5.609375 37.375 7.90625 
Q 40.828125 10.203125 42.046875 13.71875 
L 49.75 11.53125 
Q 48.921875 9.328125 47.4375 7.109375 
Q 45.953125 4.890625 43.453125 3.09375 
Q 40.96875 1.3125 37.234375 0.15625 
Q 33.5 -0.984375 28.21875 -0.984375 
Q 16.5 -0.984375 10.375 6 
Q 4.25 12.984375 4.25 26.765625 
Q 4.25 34.1875 6.09375 39.328125 
Q 7.953125 44.484375 11.171875 47.703125 
Q 14.40625 50.921875 18.703125 52.359375 
Q 23 53.8125 27.875 53.8125 
Q 34.515625 53.8125 38.984375 51.65625 
Q 43.453125 49.515625 46.15625 45.71875 
Q 48.875 41.9375 50.015625 36.8125 
Q 51.171875 31.6875 51.171875 25.734375 
L 51.171875 24.5625 
z
M 42.09375 31.296875 
Q 41.359375 39.65625 37.84375 43.484375 
Q 34.328125 47.3125 27.734375 47.3125 
Q 25.53125 47.3125 23.109375 46.609375 
Q 20.703125 45.90625 18.65625 44.09375 
Q 16.609375 42.28125 15.1875 39.171875 
Q 13.765625 36.078125 13.578125 31.296875 
z
" id="LiberationSans-65"/>
      </defs>
      <g style="fill:#262626;" transform="translate(281.31125 593.195)scale(0.16 -0.16)">
       <use xlink:href="#LiberationSans-50"/>
       <use x="66.69921875" xlink:href="#LiberationSans-72"/>
       <use x="100.0" xlink:href="#LiberationSans-65"/>
      </g>
     </g>
    </g>
    <g id="xtick_2">
     <g id="line2d_2">
      <g>
       <use style="fill:#262626;stroke:#262626;stroke-width:1.6;" x="650.88" xlink:href="#m9d4d673dca" y="564.4"/>
      </g>
     </g>
     <g id="text_2">
      <!-- Post -->
      <defs>
       <path d="M 46.390625 14.59375 
Q 46.390625 10.890625 44.9375 7.984375 
Q 43.5 5.078125 40.765625 3.09375 
Q 38.03125 1.125 34.046875 0.0625 
Q 30.078125 -0.984375 24.953125 -0.984375 
Q 20.359375 -0.984375 16.671875 -0.265625 
Q 12.984375 0.4375 10.203125 2 
Q 7.421875 3.5625 5.53125 6.125 
Q 3.65625 8.6875 2.78125 12.40625 
L 10.546875 13.921875 
Q 11.671875 9.671875 15.1875 7.6875 
Q 18.703125 5.71875 24.953125 5.71875 
Q 27.78125 5.71875 30.140625 6.109375 
Q 32.515625 6.5 34.21875 7.453125 
Q 35.9375 8.40625 36.890625 9.984375 
Q 37.84375 11.578125 37.84375 13.921875 
Q 37.84375 16.3125 36.71875 17.84375 
Q 35.59375 19.390625 33.59375 20.40625 
Q 31.59375 21.4375 28.734375 22.1875 
Q 25.875 22.953125 22.46875 23.875 
Q 19.28125 24.703125 16.15625 25.734375 
Q 13.03125 26.765625 10.515625 28.4375 
Q 8.015625 30.125 6.453125 32.609375 
Q 4.890625 35.109375 4.890625 38.875 
Q 4.890625 46.09375 10.03125 49.875 
Q 15.1875 53.65625 25.046875 53.65625 
Q 33.796875 53.65625 38.9375 50.578125 
Q 44.09375 47.515625 45.453125 40.71875 
L 37.546875 39.75 
Q 37.109375 41.796875 35.9375 43.1875 
Q 34.765625 44.578125 33.109375 45.4375 
Q 31.453125 46.296875 29.375 46.65625 
Q 27.296875 47.015625 25.046875 47.015625 
Q 19.09375 47.015625 16.25 45.203125 
Q 13.421875 43.40625 13.421875 39.75 
Q 13.421875 37.59375 14.46875 36.203125 
Q 15.53125 34.8125 17.40625 33.859375 
Q 19.28125 32.90625 21.921875 32.203125 
Q 24.5625 31.5 27.734375 30.71875 
Q 29.828125 30.171875 32.03125 29.5625 
Q 34.234375 28.953125 36.296875 28.09375 
Q 38.375 27.25 40.203125 26.09375 
Q 42.046875 24.953125 43.40625 23.34375 
Q 44.78125 21.734375 45.578125 19.578125 
Q 46.390625 17.4375 46.390625 14.59375 
" id="LiberationSans-73"/>
       <path d="M 51.421875 26.46875 
Q 51.421875 12.59375 45.3125 5.796875 
Q 39.203125 -0.984375 27.59375 -0.984375 
Q 22.078125 -0.984375 17.71875 0.671875 
Q 13.375 2.34375 10.375 5.765625 
Q 7.375 9.1875 5.78125 14.328125 
Q 4.203125 19.484375 4.203125 26.46875 
Q 4.203125 53.8125 27.875 53.8125 
Q 34.03125 53.8125 38.5 52.09375 
Q 42.96875 50.390625 45.828125 46.96875 
Q 48.6875 43.5625 50.046875 38.421875 
Q 51.421875 33.296875 51.421875 26.46875 
M 42.1875 26.46875 
Q 42.1875 32.625 41.234375 36.625 
Q 40.28125 40.625 38.453125 43.015625 
Q 36.625 45.40625 33.984375 46.359375 
Q 31.34375 47.3125 28.03125 47.3125 
Q 24.65625 47.3125 21.9375 46.3125 
Q 19.234375 45.3125 17.328125 42.890625 
Q 15.4375 40.484375 14.421875 36.46875 
Q 13.421875 32.46875 13.421875 26.46875 
Q 13.421875 20.3125 14.5 16.28125 
Q 15.578125 12.25 17.453125 9.859375 
Q 19.34375 7.46875 21.90625 6.484375 
Q 24.46875 5.515625 27.484375 5.515625 
Q 30.859375 5.515625 33.59375 6.46875 
Q 36.328125 7.421875 38.234375 9.8125 
Q 40.140625 12.203125 41.15625 16.25 
Q 42.1875 20.3125 42.1875 26.46875 
" id="LiberationSans-6f"/>
       <path d="M 27.046875 0.390625 
Q 25.046875 -0.140625 22.96875 -0.453125 
Q 20.90625 -0.78125 18.171875 -0.78125 
Q 7.625 -0.78125 7.625 11.1875 
L 7.625 46.4375 
L 1.515625 46.4375 
L 1.515625 52.828125 
L 7.953125 52.828125 
L 10.546875 64.65625 
L 16.40625 64.65625 
L 16.40625 52.828125 
L 26.171875 52.828125 
L 26.171875 46.4375 
L 16.40625 46.4375 
L 16.40625 13.09375 
Q 16.40625 9.28125 17.640625 7.734375 
Q 18.890625 6.203125 21.96875 6.203125 
Q 23.25 6.203125 24.4375 6.390625 
Q 25.640625 6.59375 27.046875 6.890625 
z
" id="LiberationSans-74"/>
      </defs>
      <g style="fill:#262626;" transform="translate(634.8725 593.195)scale(0.16 -0.16)">
       <use xlink:href="#LiberationSans-50"/>
       <use x="66.69921875" xlink:href="#LiberationSans-6f"/>
       <use x="122.314453125" xlink:href="#LiberationSans-73"/>
       <use x="172.314453125" xlink:href="#LiberationSans-74"/>
      </g>
     </g>
    </g>
   </g>
   <g id="matplotlib.axis_2">
    <g id="ytick_1">
     <g id="line2d_3">
      <defs>
       <path d="M 0 0 
L -6 0 
" id="m025c223e27" style="stroke:#262626;stroke-width:1.6;"/>
      </defs>
      <g>
       <use style="fill:#262626;stroke:#262626;stroke-width:1.6;" x="105.2" xlink:href="#m025c223e27" y="554.4"/>
      </g>
     </g>
     <g id="text_3">
      <!-- −0.2 -->
      <defs>
       <path d="M 5.03125 0 
L 5.03125 6.203125 
Q 7.515625 11.921875 11.109375 16.28125 
Q 14.703125 20.65625 18.65625 24.1875 
Q 22.609375 27.734375 26.484375 30.765625 
Q 30.375 33.796875 33.5 36.8125 
Q 36.625 39.84375 38.546875 43.15625 
Q 40.484375 46.484375 40.484375 50.6875 
Q 40.484375 53.609375 39.59375 55.828125 
Q 38.71875 58.0625 37.0625 59.5625 
Q 35.40625 61.078125 33.078125 61.828125 
Q 30.765625 62.59375 27.9375 62.59375 
Q 25.296875 62.59375 22.96875 61.859375 
Q 20.65625 61.140625 18.84375 59.671875 
Q 17.046875 58.203125 15.890625 56.03125 
Q 14.75 53.859375 14.40625 50.984375 
L 5.421875 51.8125 
Q 5.859375 55.515625 7.46875 58.78125 
Q 9.078125 62.0625 11.90625 64.53125 
Q 14.75 67 18.71875 68.40625 
Q 22.703125 69.828125 27.9375 69.828125 
Q 33.0625 69.828125 37.0625 68.609375 
Q 41.0625 67.390625 43.8125 64.984375 
Q 46.578125 62.59375 48.046875 59.078125 
Q 49.515625 55.5625 49.515625 50.984375 
Q 49.515625 47.515625 48.265625 44.390625 
Q 47.015625 41.265625 44.9375 38.421875 
Q 42.875 35.59375 40.140625 32.953125 
Q 37.40625 30.328125 34.421875 27.8125 
Q 31.453125 25.296875 28.421875 22.828125 
Q 25.390625 20.359375 22.71875 17.859375 
Q 20.0625 15.375 17.96875 12.8125 
Q 15.875 10.25 14.703125 7.46875 
L 50.59375 7.46875 
L 50.59375 0 
z
" id="LiberationSans-32"/>
       <path d="M 4.9375 29.6875 
L 4.9375 36.8125 
L 53.515625 36.8125 
L 53.515625 29.6875 
z
" id="LiberationSans-2212"/>
       <path d="M 9.125 0 
L 9.125 10.6875 
L 18.65625 10.6875 
L 18.65625 0 
z
" id="LiberationSans-2e"/>
       <path d="M 51.703125 34.421875 
Q 51.703125 24.515625 49.828125 17.75 
Q 47.953125 10.984375 44.703125 6.8125 
Q 41.453125 2.640625 37.0625 0.828125 
Q 32.671875 -0.984375 27.6875 -0.984375 
Q 22.65625 -0.984375 18.3125 0.828125 
Q 13.96875 2.640625 10.765625 6.78125 
Q 7.5625 10.9375 5.734375 17.703125 
Q 3.90625 24.46875 3.90625 34.421875 
Q 3.90625 44.828125 5.734375 51.640625 
Q 7.5625 58.453125 10.78125 62.5 
Q 14.015625 66.546875 18.40625 68.1875 
Q 22.796875 69.828125 27.984375 69.828125 
Q 32.90625 69.828125 37.21875 68.1875 
Q 41.546875 66.546875 44.765625 62.5 
Q 48 58.453125 49.84375 51.640625 
Q 51.703125 44.828125 51.703125 34.421875 
M 42.78125 34.421875 
Q 42.78125 42.625 41.796875 48.0625 
Q 40.828125 53.515625 38.921875 56.765625 
Q 37.015625 60.015625 34.25 61.359375 
Q 31.5 62.703125 27.984375 62.703125 
Q 24.265625 62.703125 21.4375 61.328125 
Q 18.609375 59.96875 16.671875 56.71875 
Q 14.75 53.46875 13.765625 48.015625 
Q 12.796875 42.578125 12.796875 34.421875 
Q 12.796875 26.515625 13.796875 21.09375 
Q 14.796875 15.671875 16.71875 12.375 
Q 18.65625 9.078125 21.4375 7.640625 
Q 24.21875 6.203125 27.78125 6.203125 
Q 31.25 6.203125 34.03125 7.640625 
Q 36.8125 9.078125 38.734375 12.375 
Q 40.671875 15.671875 41.71875 21.09375 
Q 42.78125 26.515625 42.78125 34.421875 
" id="LiberationSans-30"/>
      </defs>
      <g style="fill:#262626;" transform="translate(56.415 558.5375)scale(0.16 -0.16)">
       <use xlink:href="#LiberationSans-2212"/>
       <use x="58.3984375" xlink:href="#LiberationSans-30"/>
       <use x="114.013671875" xlink:href="#LiberationSans-2e"/>
       <use x="141.796875" xlink:href="#LiberationSans-32"/>
      </g>
     </g>
    </g>
    <g id="ytick_2">
     <g id="line2d_4">
      <g>
       <use style="fill:#262626;stroke:#262626;stroke-width:1.6;" x="105.2" xlink:href="#m025c223e27" y="484.251428571"/>
      </g>
     </g>
     <g id="text_4">
      <!-- 0.0 -->
      <g style="fill:#262626;" transform="translate(65.76 488.388928571)scale(0.16 -0.16)">
       <use xlink:href="#LiberationSans-30"/>
       <use x="55.615234375" xlink:href="#LiberationSans-2e"/>
       <use x="83.3984375" xlink:href="#LiberationSans-30"/>
      </g>
     </g>
    </g>
    <g id="ytick_3">
     <g id="line2d_5">
      <g>
       <use style="fill:#262626;stroke:#262626;stroke-width:1.6;" x="105.2" xlink:href="#m025c223e27" y="414.102857143"/>
      </g>
     </g>
     <g id="text_5">
      <!-- 0.2 -->
      <g style="fill:#262626;" transform="translate(65.76 418.240357143)scale(0.16 -0.16)">
       <use xlink:href="#LiberationSans-30"/>
       <use x="55.615234375" xlink:href="#LiberationSans-2e"/>
       <use x="83.3984375" xlink:href="#LiberationSans-32"/>
      </g>
     </g>
    </g>
    <g id="ytick_4">
     <g id="line2d_6">
      <g>
       <use style="fill:#262626;stroke:#262626;stroke-width:1.6;" x="105.2" xlink:href="#m025c223e27" y="343.954285714"/>
      </g>
     </g>
     <g id="text_6">
      <!-- 0.4 -->
      <defs>
       <path d="M 43.015625 15.578125 
L 43.015625 0 
L 34.71875 0 
L 34.71875 15.578125 
L 2.296875 15.578125 
L 2.296875 22.40625 
L 33.796875 68.796875 
L 43.015625 68.796875 
L 43.015625 22.515625 
L 52.6875 22.515625 
L 52.6875 15.578125 
z
M 34.71875 58.890625 
Q 34.625 58.640625 34.234375 57.9375 
Q 33.84375 57.234375 33.34375 56.34375 
Q 32.859375 55.46875 32.34375 54.5625 
Q 31.84375 53.65625 31.453125 53.078125 
L 13.8125 27.09375 
Q 13.578125 26.703125 13.109375 26.0625 
Q 12.640625 25.4375 12.15625 24.78125 
Q 11.671875 24.125 11.171875 23.484375 
Q 10.6875 22.859375 10.40625 22.515625 
L 34.71875 22.515625 
z
" id="LiberationSans-34"/>
      </defs>
      <g style="fill:#262626;" transform="translate(65.76 348.091785714)scale(0.16 -0.16)">
       <use xlink:href="#LiberationSans-30"/>
       <use x="55.615234375" xlink:href="#LiberationSans-2e"/>
       <use x="83.3984375" xlink:href="#LiberationSans-34"/>
      </g>
     </g>
    </g>
    <g id="ytick_5">
     <g id="line2d_7">
      <g>
       <use style="fill:#262626;stroke:#262626;stroke-width:1.6;" x="105.2" xlink:href="#m025c223e27" y="273.805714286"/>
      </g>
     </g>
     <g id="text_7">
      <!-- 0.6 -->
      <defs>
       <path d="M 51.21875 22.515625 
Q 51.21875 17.328125 49.78125 13 
Q 48.34375 8.6875 45.53125 5.578125 
Q 42.71875 2.484375 38.5625 0.75 
Q 34.421875 -0.984375 29 -0.984375 
Q 23 -0.984375 18.5 1.3125 
Q 14.015625 3.609375 11.03125 7.921875 
Q 8.0625 12.25 6.5625 18.53125 
Q 5.078125 24.8125 5.078125 32.8125 
Q 5.078125 42 6.765625 48.921875 
Q 8.453125 55.859375 11.625 60.5 
Q 14.796875 65.140625 19.359375 67.484375 
Q 23.921875 69.828125 29.6875 69.828125 
Q 33.203125 69.828125 36.28125 69.09375 
Q 39.359375 68.359375 41.875 66.71875 
Q 44.390625 65.09375 46.28125 62.40625 
Q 48.1875 59.71875 49.3125 55.8125 
L 40.921875 54.296875 
Q 39.546875 58.734375 36.546875 60.71875 
Q 33.546875 62.703125 29.59375 62.703125 
Q 25.984375 62.703125 23.046875 60.984375 
Q 20.125 59.28125 18.0625 55.875 
Q 16.015625 52.484375 14.90625 47.359375 
Q 13.8125 42.234375 13.8125 35.40625 
Q 16.21875 39.84375 20.5625 42.15625 
Q 24.90625 44.484375 30.515625 44.484375 
Q 35.203125 44.484375 39.015625 42.96875 
Q 42.828125 41.453125 45.53125 38.59375 
Q 48.25 35.75 49.734375 31.671875 
Q 51.21875 27.59375 51.21875 22.515625 
M 42.28125 22.125 
Q 42.28125 25.6875 41.40625 28.5625 
Q 40.53125 31.453125 38.765625 33.46875 
Q 37.015625 35.5 34.421875 36.59375 
Q 31.84375 37.703125 28.421875 37.703125 
Q 26.03125 37.703125 23.578125 36.984375 
Q 21.140625 36.28125 19.15625 34.6875 
Q 17.1875 33.109375 15.9375 30.515625 
Q 14.703125 27.9375 14.703125 24.21875 
Q 14.703125 20.40625 15.671875 17.109375 
Q 16.65625 13.8125 18.484375 11.375 
Q 20.3125 8.9375 22.890625 7.515625 
Q 25.484375 6.109375 28.71875 6.109375 
Q 31.890625 6.109375 34.40625 7.203125 
Q 36.921875 8.296875 38.671875 10.375 
Q 40.4375 12.453125 41.359375 15.421875 
Q 42.28125 18.40625 42.28125 22.125 
" id="LiberationSans-36"/>
      </defs>
      <g style="fill:#262626;" transform="translate(65.76 277.943214286)scale(0.16 -0.16)">
       <use xlink:href="#LiberationSans-30"/>
       <use x="55.615234375" xlink:href="#LiberationSans-2e"/>
       <use x="83.3984375" xlink:href="#LiberationSans-36"/>
      </g>
     </g>
    </g>
    <g id="ytick_6">
     <g id="line2d_8">
      <g>
       <use style="fill:#262626;stroke:#262626;stroke-width:1.6;" x="105.2" xlink:href="#m025c223e27" y="203.657142857"/>
      </g>
     </g>
     <g id="text_8">
      <!-- 0.8 -->
      <defs>
       <path d="M 51.265625 19.1875 
Q 51.265625 14.796875 49.875 11.109375 
Q 48.484375 7.421875 45.625 4.734375 
Q 42.78125 2.046875 38.328125 0.53125 
Q 33.890625 -0.984375 27.828125 -0.984375 
Q 21.78125 -0.984375 17.359375 0.53125 
Q 12.9375 2.046875 10.03125 4.703125 
Q 7.125 7.375 5.734375 11.0625 
Q 4.34375 14.75 4.34375 19.09375 
Q 4.34375 22.859375 5.484375 25.78125 
Q 6.640625 28.71875 8.5625 30.828125 
Q 10.5 32.953125 12.96875 34.25 
Q 15.4375 35.546875 18.0625 35.984375 
L 18.0625 36.1875 
Q 15.1875 36.859375 12.90625 38.375 
Q 10.640625 39.890625 9.09375 42.015625 
Q 7.5625 44.140625 6.75 46.71875 
Q 5.953125 49.3125 5.953125 52.203125 
Q 5.953125 55.8125 7.34375 59 
Q 8.734375 62.203125 11.46875 64.625 
Q 14.203125 67.046875 18.25 68.4375 
Q 22.3125 69.828125 27.640625 69.828125 
Q 33.25 69.828125 37.375 68.40625 
Q 41.5 67 44.203125 64.578125 
Q 46.921875 62.15625 48.234375 58.9375 
Q 49.5625 55.71875 49.5625 52.09375 
Q 49.5625 49.265625 48.75 46.671875 
Q 47.953125 44.09375 46.40625 41.96875 
Q 44.875 39.84375 42.59375 38.34375 
Q 40.328125 36.859375 37.359375 36.28125 
L 37.359375 36.078125 
Q 40.328125 35.59375 42.859375 34.296875 
Q 45.40625 33.015625 47.265625 30.890625 
Q 49.125 28.765625 50.1875 25.828125 
Q 51.265625 22.90625 51.265625 19.1875 
M 40.4375 51.609375 
Q 40.4375 54.203125 39.765625 56.34375 
Q 39.109375 58.5 37.59375 60.03125 
Q 36.078125 61.578125 33.640625 62.421875 
Q 31.203125 63.28125 27.640625 63.28125 
Q 24.171875 63.28125 21.78125 62.421875 
Q 19.390625 61.578125 17.84375 60.03125 
Q 16.3125 58.5 15.625 56.34375 
Q 14.9375 54.203125 14.9375 51.609375 
Q 14.9375 49.5625 15.46875 47.40625 
Q 16.015625 45.265625 17.421875 43.5 
Q 18.84375 41.75 21.328125 40.625 
Q 23.828125 39.5 27.734375 39.5 
Q 31.890625 39.5 34.40625 40.625 
Q 36.921875 41.75 38.25 43.5 
Q 39.59375 45.265625 40.015625 47.40625 
Q 40.4375 49.5625 40.4375 51.609375 
M 42.140625 20.015625 
Q 42.140625 22.515625 41.453125 24.828125 
Q 40.765625 27.15625 39.109375 28.9375 
Q 37.453125 30.71875 34.640625 31.8125 
Q 31.84375 32.90625 27.640625 32.90625 
Q 23.78125 32.90625 21.0625 31.8125 
Q 18.359375 30.71875 16.671875 28.90625 
Q 14.984375 27.09375 14.203125 24.71875 
Q 13.421875 22.359375 13.421875 19.828125 
Q 13.421875 16.65625 14.203125 14.03125 
Q 14.984375 11.421875 16.6875 9.546875 
Q 18.40625 7.671875 21.1875 6.640625 
Q 23.96875 5.609375 27.9375 5.609375 
Q 31.9375 5.609375 34.671875 6.640625 
Q 37.40625 7.671875 39.0625 9.546875 
Q 40.71875 11.421875 41.421875 14.078125 
Q 42.140625 16.75 42.140625 20.015625 
" id="LiberationSans-38"/>
      </defs>
      <g style="fill:#262626;" transform="translate(65.76 207.794642857)scale(0.16 -0.16)">
       <use xlink:href="#LiberationSans-30"/>
       <use x="55.615234375" xlink:href="#LiberationSans-2e"/>
       <use x="83.3984375" xlink:href="#LiberationSans-38"/>
      </g>
     </g>
    </g>
    <g id="ytick_7">
     <g id="line2d_9">
      <g>
       <use style="fill:#262626;stroke:#262626;stroke-width:1.6;" x="105.2" xlink:href="#m025c223e27" y="133.508571429"/>
      </g>
     </g>
     <g id="text_9">
      <!-- 1.0 -->
      <defs>
       <path d="M 7.625 0 
L 7.625 7.46875 
L 25.140625 7.46875 
L 25.140625 60.40625 
L 9.625 49.3125 
L 9.625 57.625 
L 25.875 68.796875 
L 33.984375 68.796875 
L 33.984375 7.46875 
L 50.734375 7.46875 
L 50.734375 0 
z
" id="LiberationSans-31"/>
      </defs>
      <g style="fill:#262626;" transform="translate(65.76 137.646071429)scale(0.16 -0.16)">
       <use xlink:href="#LiberationSans-31"/>
       <use x="55.615234375" xlink:href="#LiberationSans-2e"/>
       <use x="83.3984375" xlink:href="#LiberationSans-30"/>
      </g>
     </g>
    </g>
    <g id="ytick_8">
     <g id="line2d_10">
      <g>
       <use style="fill:#262626;stroke:#262626;stroke-width:1.6;" x="105.2" xlink:href="#m025c223e27" y="63.36"/>
      </g>
     </g>
     <g id="text_10">
      <!-- 1.2 -->
      <g style="fill:#262626;" transform="translate(65.76 67.4975)scale(0.16 -0.16)">
       <use xlink:href="#LiberationSans-31"/>
       <use x="55.615234375" xlink:href="#LiberationSans-2e"/>
       <use x="83.3984375" xlink:href="#LiberationSans-32"/>
      </g>
     </g>
    </g>
    <g id="text_11">
     <!-- Mean accuracy -->
     <defs>
      <path d="M 20.21875 -0.984375 
Q 12.25 -0.984375 8.25 3.21875 
Q 4.25 7.421875 4.25 14.75 
Q 4.25 19.96875 6.21875 23.3125 
Q 8.203125 26.65625 11.390625 28.5625 
Q 14.59375 30.46875 18.6875 31.203125 
Q 22.796875 31.9375 27.046875 32.03125 
L 38.921875 32.234375 
L 38.921875 35.109375 
Q 38.921875 38.375 38.234375 40.671875 
Q 37.546875 42.96875 36.125 44.375 
Q 34.71875 45.796875 32.59375 46.453125 
Q 30.46875 47.125 27.59375 47.125 
Q 25.046875 47.125 23 46.75 
Q 20.953125 46.390625 19.4375 45.4375 
Q 17.921875 44.484375 16.984375 42.84375 
Q 16.0625 41.21875 15.765625 38.71875 
L 6.59375 39.546875 
Q 7.078125 42.671875 8.4375 45.28125 
Q 9.8125 47.90625 12.328125 49.796875 
Q 14.84375 51.703125 18.625 52.75 
Q 22.40625 53.8125 27.78125 53.8125 
Q 37.75 53.8125 42.765625 49.234375 
Q 47.796875 44.671875 47.796875 36.03125 
L 47.796875 13.28125 
Q 47.796875 9.375 48.828125 7.390625 
Q 49.859375 5.421875 52.734375 5.421875 
Q 53.46875 5.421875 54.203125 5.515625 
Q 54.9375 5.609375 55.609375 5.765625 
L 55.609375 0.296875 
Q 53.953125 -0.09375 52.3125 -0.28125 
Q 50.6875 -0.484375 48.828125 -0.484375 
Q 46.34375 -0.484375 44.5625 0.171875 
Q 42.78125 0.828125 41.65625 2.171875 
Q 40.53125 3.515625 39.9375 5.484375 
Q 39.359375 7.46875 39.203125 10.109375 
L 38.921875 10.109375 
Q 37.5 7.5625 35.8125 5.515625 
Q 34.125 3.46875 31.875 2.03125 
Q 29.640625 0.59375 26.78125 -0.1875 
Q 23.921875 -0.984375 20.21875 -0.984375 
M 22.21875 5.609375 
Q 26.421875 5.609375 29.5625 7.140625 
Q 32.71875 8.6875 34.78125 11.078125 
Q 36.859375 13.484375 37.890625 16.3125 
Q 38.921875 19.140625 38.921875 21.734375 
L 38.921875 26.078125 
L 29.296875 25.875 
Q 26.078125 25.828125 23.171875 25.40625 
Q 20.265625 25 18.0625 23.78125 
Q 15.875 22.5625 14.578125 20.359375 
Q 13.28125 18.171875 13.28125 14.59375 
Q 13.28125 10.296875 15.59375 7.953125 
Q 17.921875 5.609375 22.21875 5.609375 
" id="LiberationSans-61"/>
      <path d="M 15.328125 52.828125 
L 15.328125 19.34375 
Q 15.328125 15.484375 15.890625 12.890625 
Q 16.453125 10.296875 17.71875 8.703125 
Q 19 7.125 21.0625 6.46875 
Q 23.140625 5.8125 26.21875 5.8125 
Q 29.34375 5.8125 31.859375 6.90625 
Q 34.375 8.015625 36.15625 10.078125 
Q 37.9375 12.15625 38.90625 15.203125 
Q 39.890625 18.265625 39.890625 22.21875 
L 39.890625 52.828125 
L 48.6875 52.828125 
L 48.6875 11.28125 
Q 48.6875 9.625 48.703125 7.78125 
Q 48.734375 5.953125 48.78125 4.3125 
Q 48.828125 2.6875 48.875 1.515625 
Q 48.921875 0.34375 48.96875 0 
L 40.671875 0 
Q 40.625 0.25 40.578125 1.3125 
Q 40.53125 2.390625 40.453125 3.78125 
Q 40.375 5.171875 40.328125 6.609375 
Q 40.28125 8.0625 40.28125 9.03125 
L 40.140625 9.03125 
Q 38.875 6.734375 37.359375 4.875 
Q 35.84375 3.03125 33.84375 1.734375 
Q 31.84375 0.4375 29.25 -0.265625 
Q 26.65625 -0.984375 23.25 -0.984375 
Q 18.84375 -0.984375 15.671875 0.09375 
Q 12.5 1.171875 10.453125 3.421875 
Q 8.40625 5.671875 7.453125 9.1875 
Q 6.5 12.703125 6.5 17.625 
L 6.5 52.828125 
z
" id="LiberationSans-75"/>
      <path d="M 13.421875 26.65625 
Q 13.421875 22.125 14.078125 18.3125 
Q 14.75 14.5 16.3125 11.734375 
Q 17.875 8.984375 20.4375 7.46875 
Q 23 5.953125 26.765625 5.953125 
Q 31.453125 5.953125 34.59375 8.484375 
Q 37.75 11.03125 38.484375 16.3125 
L 47.359375 15.71875 
Q 46.921875 12.453125 45.453125 9.421875 
Q 44 6.390625 41.484375 4.09375 
Q 38.96875 1.8125 35.34375 0.40625 
Q 31.734375 -0.984375 27 -0.984375 
Q 20.796875 -0.984375 16.453125 1.109375 
Q 12.109375 3.21875 9.390625 6.90625 
Q 6.6875 10.59375 5.46875 15.59375 
Q 4.25 20.609375 4.25 26.46875 
Q 4.25 31.78125 5.125 35.859375 
Q 6 39.9375 7.59375 42.984375 
Q 9.1875 46.046875 11.328125 48.125 
Q 13.484375 50.203125 15.984375 51.4375 
Q 18.5 52.6875 21.28125 53.25 
Q 24.078125 53.8125 26.90625 53.8125 
Q 31.34375 53.8125 34.8125 52.59375 
Q 38.28125 51.375 40.796875 49.25 
Q 43.3125 47.125 44.875 44.234375 
Q 46.4375 41.359375 47.078125 38.03125 
L 38.03125 37.359375 
Q 37.359375 41.75 34.5625 44.328125 
Q 31.78125 46.921875 26.65625 46.921875 
Q 22.90625 46.921875 20.390625 45.671875 
Q 17.875 44.4375 16.3125 41.921875 
Q 14.75 39.40625 14.078125 35.59375 
Q 13.421875 31.78125 13.421875 26.65625 
" id="LiberationSans-63"/>
      <path d="M 66.703125 0 
L 66.703125 45.90625 
Q 66.703125 48.390625 66.75 50.96875 
Q 66.796875 53.5625 66.890625 55.71875 
Q 67 58.203125 67.140625 60.546875 
Q 66.453125 58.0625 65.71875 55.609375 
Q 65.09375 53.515625 64.328125 51.140625 
Q 63.578125 48.78125 62.84375 46.875 
L 45.0625 0 
L 38.53125 0 
L 20.515625 46.875 
Q 20.21875 47.609375 19.890625 48.578125 
Q 19.578125 49.5625 19.203125 50.65625 
Q 18.84375 51.765625 18.46875 52.90625 
Q 18.109375 54.046875 17.78125 55.171875 
Q 16.9375 57.765625 16.15625 60.546875 
Q 16.21875 57.8125 16.3125 55.125 
Q 16.40625 52.828125 16.453125 50.3125 
Q 16.5 47.796875 16.5 45.90625 
L 16.5 0 
L 8.203125 0 
L 8.203125 68.796875 
L 20.453125 68.796875 
L 38.765625 21.09375 
Q 39.109375 20.125 39.59375 18.578125 
Q 40.09375 17.046875 40.53125 15.421875 
Q 40.96875 13.8125 41.328125 12.375 
Q 41.703125 10.9375 41.84375 10.15625 
Q 42 10.9375 42.390625 12.40625 
Q 42.78125 13.875 43.28125 15.484375 
Q 43.796875 17.09375 44.28125 18.609375 
Q 44.78125 20.125 45.171875 21.09375 
L 63.140625 68.796875 
L 75.09375 68.796875 
L 75.09375 0 
z
" id="LiberationSans-4d"/>
      <path d="M 40.28125 0 
L 40.28125 33.5 
Q 40.28125 37.359375 39.71875 39.9375 
Q 39.15625 42.53125 37.890625 44.109375 
Q 36.625 45.703125 34.546875 46.359375 
Q 32.46875 47.015625 29.390625 47.015625 
Q 26.265625 47.015625 23.75 45.921875 
Q 21.234375 44.828125 19.453125 42.75 
Q 17.671875 40.671875 16.6875 37.625 
Q 15.71875 34.578125 15.71875 30.609375 
L 15.71875 0 
L 6.9375 0 
L 6.9375 41.546875 
Q 6.9375 43.21875 6.90625 45.046875 
Q 6.890625 46.875 6.828125 48.5 
Q 6.78125 50.140625 6.734375 51.3125 
Q 6.6875 52.484375 6.640625 52.828125 
L 14.9375 52.828125 
Q 14.984375 52.59375 15.03125 51.515625 
Q 15.09375 50.4375 15.15625 49.046875 
Q 15.234375 47.65625 15.28125 46.21875 
Q 15.328125 44.78125 15.328125 43.796875 
L 15.484375 43.796875 
Q 16.75 46.09375 18.265625 47.953125 
Q 19.78125 49.8125 21.78125 51.09375 
Q 23.78125 52.390625 26.359375 53.09375 
Q 28.953125 53.8125 32.375 53.8125 
Q 36.765625 53.8125 39.9375 52.734375 
Q 43.109375 51.65625 45.15625 49.40625 
Q 47.21875 47.171875 48.171875 43.625 
Q 49.125 40.09375 49.125 35.203125 
L 49.125 0 
z
" id="LiberationSans-6e"/>
      <path id="LiberationSans-20"/>
      <path d="M 29.5 0 
Q 27.640625 -4.78125 25.703125 -8.609375 
Q 23.78125 -12.453125 21.390625 -15.15625 
Q 19 -17.875 16.0625 -19.3125 
Q 13.140625 -20.75 9.328125 -20.75 
Q 7.671875 -20.75 6.25 -20.65625 
Q 4.828125 -20.5625 3.265625 -20.21875 
L 3.265625 -13.625 
Q 4.203125 -13.765625 5.375 -13.84375 
Q 6.546875 -13.921875 7.375 -13.921875 
Q 11.234375 -13.921875 14.546875 -11.03125 
Q 17.875 -8.15625 20.359375 -1.859375 
L 21.1875 0.25 
L 0.25 52.828125 
L 9.625 52.828125 
L 20.75 23.640625 
Q 21.234375 22.3125 21.984375 20.109375 
Q 22.75 17.921875 23.5 15.71875 
Q 24.265625 13.53125 24.84375 11.765625 
Q 25.4375 10.015625 25.53125 9.578125 
Q 25.6875 10.109375 26.25 11.6875 
Q 26.8125 13.28125 27.515625 15.234375 
Q 28.21875 17.1875 28.953125 19.1875 
Q 29.6875 21.1875 30.171875 22.65625 
L 40.53125 52.828125 
L 49.8125 52.828125 
z
" id="LiberationSans-79"/>
     </defs>
     <g style="fill:#262626;" transform="translate(47.763 368.54675)rotate(-90.0)scale(0.176 -0.176)">
      <use xlink:href="#LiberationSans-4d"/>
      <use x="83.30078125" xlink:href="#LiberationSans-65"/>
      <use x="138.916015625" xlink:href="#LiberationSans-61"/>
      <use x="194.53125" xlink:href="#LiberationSans-6e"/>
      <use x="250.146484375" xlink:href="#LiberationSans-20"/>
      <use x="277.9296875" xlink:href="#LiberationSans-61"/>
      <use x="333.544921875" xlink:href="#LiberationSans-63"/>
      <use x="383.544921875" xlink:href="#LiberationSans-63"/>
      <use x="433.544921875" xlink:href="#LiberationSans-75"/>
      <use x="489.16015625" xlink:href="#LiberationSans-72"/>
      <use x="522.4609375" xlink:href="#LiberationSans-61"/>
      <use x="578.076171875" xlink:href="#LiberationSans-63"/>
      <use x="628.076171875" xlink:href="#LiberationSans-79"/>
     </g>
    </g>
   </g>
   <g id="PolyCollection_1">
    <defs>
     <path d="M 293.76 -140.646517 
L 293.381981 -140.646517 
L 293.172804 -142.895198 
L 292.880507 -145.143879 
L 292.486765 -147.392561 
L 291.973183 -149.641242 
L 291.320782 -151.889923 
L 290.508054 -154.138604 
L 289.507529 -156.387286 
L 288.281374 -158.635967 
L 286.777187 -160.884648 
L 284.925615 -163.13333 
L 282.641633 -165.382011 
L 279.830958 -167.630692 
L 276.402202 -169.879374 
L 272.283915 -172.128055 
L 267.443796 -174.376736 
L 261.905672 -176.625417 
L 255.758837 -178.874099 
L 249.154938 -181.12278 
L 242.289985 -183.371461 
L 235.373086 -185.620143 
L 228.587933 -187.868824 
L 222.056511 -190.117505 
L 215.815328 -192.366186 
L 209.812194 -194.614868 
L 203.926474 -196.863549 
L 198.009353 -199.11223 
L 191.934871 -201.360912 
L 185.649057 -203.609593 
L 179.204508 -205.858274 
L 172.77118 -208.106955 
L 166.620103 -210.355637 
L 161.083577 -212.604318 
L 156.501293 -214.852999 
L 153.165051 -217.101681 
L 151.274418 -219.350362 
L 150.912 -221.599043 
L 152.041082 -223.847724 
L 154.522494 -226.096406 
L 158.143363 -228.345087 
L 162.649298 -230.593768 
L 167.773259 -232.84245 
L 173.257742 -235.091131 
L 178.870368 -237.339812 
L 184.415006 -239.588494 
L 189.740836 -241.837175 
L 194.750432 -244.085856 
L 199.406053 -246.334537 
L 203.731753 -248.583219 
L 207.808576 -250.8319 
L 211.761073 -253.080581 
L 215.735575 -255.329263 
L 219.873193 -257.577944 
L 224.282541 -259.826625 
L 229.017823 -262.075306 
L 234.067014 -264.323988 
L 239.3525 -266.572669 
L 244.743735 -268.82135 
L 250.078861 -271.070032 
L 255.190611 -273.318713 
L 259.931379 -275.567394 
L 264.192975 -277.816075 
L 267.917989 -280.064757 
L 271.101539 -282.313438 
L 273.784068 -284.562119 
L 276.037584 -286.810801 
L 277.948806 -289.059482 
L 279.603079 -291.308163 
L 281.072275 -293.556844 
L 282.408576 -295.805526 
L 283.64423 -298.054207 
L 284.79576 -300.302888 
L 285.870123 -302.55157 
L 286.870265 -304.800251 
L 287.79835 -307.048932 
L 288.656214 -309.297614 
L 289.443824 -311.546295 
L 290.157218 -313.794976 
L 290.787363 -316.043657 
L 291.32085 -318.292339 
L 291.742481 -320.54102 
L 292.039169 -322.789701 
L 292.2042 -325.038383 
L 292.240852 -327.287064 
L 292.164558 -329.535745 
L 292.003008 -331.784426 
L 291.793925 -334.033108 
L 291.580597 -336.281789 
L 291.405788 -338.53047 
L 291.305128 -340.779152 
L 291.301451 -343.027833 
L 291.40147 -345.276514 
L 291.595676 -347.525195 
L 291.861471 -349.773877 
L 292.168629 -352.022558 
L 292.4856 -354.271239 
L 292.785055 -356.519921 
L 293.047518 -358.768602 
L 293.262634 -361.017283 
L 293.428348 -363.265964 
L 293.76 -363.265964 
L 293.76 -363.265964 
L 293.76 -361.017283 
L 293.76 -358.768602 
L 293.76 -356.519921 
L 293.76 -354.271239 
L 293.76 -352.022558 
L 293.76 -349.773877 
L 293.76 -347.525195 
L 293.76 -345.276514 
L 293.76 -343.027833 
L 293.76 -340.779152 
L 293.76 -338.53047 
L 293.76 -336.281789 
L 293.76 -334.033108 
L 293.76 -331.784426 
L 293.76 -329.535745 
L 293.76 -327.287064 
L 293.76 -325.038383 
L 293.76 -322.789701 
L 293.76 -320.54102 
L 293.76 -318.292339 
L 293.76 -316.043657 
L 293.76 -313.794976 
L 293.76 -311.546295 
L 293.76 -309.297614 
L 293.76 -307.048932 
L 293.76 -304.800251 
L 293.76 -302.55157 
L 293.76 -300.302888 
L 293.76 -298.054207 
L 293.76 -295.805526 
L 293.76 -293.556844 
L 293.76 -291.308163 
L 293.76 -289.059482 
L 293.76 -286.810801 
L 293.76 -284.562119 
L 293.76 -282.313438 
L 293.76 -280.064757 
L 293.76 -277.816075 
L 293.76 -275.567394 
L 293.76 -273.318713 
L 293.76 -271.070032 
L 293.76 -268.82135 
L 293.76 -266.572669 
L 293.76 -264.323988 
L 293.76 -262.075306 
L 293.76 -259.826625 
L 293.76 -257.577944 
L 293.76 -255.329263 
L 293.76 -253.080581 
L 293.76 -250.8319 
L 293.76 -248.583219 
L 293.76 -246.334537 
L 293.76 -244.085856 
L 293.76 -241.837175 
L 293.76 -239.588494 
L 293.76 -237.339812 
L 293.76 -235.091131 
L 293.76 -232.84245 
L 293.76 -230.593768 
L 293.76 -228.345087 
L 293.76 -226.096406 
L 293.76 -223.847724 
L 293.76 -221.599043 
L 293.76 -219.350362 
L 293.76 -217.101681 
L 293.76 -214.852999 
L 293.76 -212.604318 
L 293.76 -210.355637 
L 293.76 -208.106955 
L 293.76 -205.858274 
L 293.76 -203.609593 
L 293.76 -201.360912 
L 293.76 -199.11223 
L 293.76 -196.863549 
L 293.76 -194.614868 
L 293.76 -192.366186 
L 293.76 -190.117505 
L 293.76 -187.868824 
L 293.76 -185.620143 
L 293.76 -183.371461 
L 293.76 -181.12278 
L 293.76 -178.874099 
L 293.76 -176.625417 
L 293.76 -174.376736 
L 293.76 -172.128055 
L 293.76 -169.879374 
L 293.76 -167.630692 
L 293.76 -165.382011 
L 293.76 -163.13333 
L 293.76 -160.884648 
L 293.76 -158.635967 
L 293.76 -156.387286 
L 293.76 -154.138604 
L 293.76 -151.889923 
L 293.76 -149.641242 
L 293.76 -147.392561 
L 293.76 -145.143879 
L 293.76 -142.895198 
L 293.76 -140.646517 
z
" id="m7934f23d54" style="stroke:#4c4c4c;stroke-width:2.8;"/>
    </defs>
    <g clip-path="url(#p330fc12a7e)">
     <use style="fill:#5875a4;stroke:#4c4c4c;stroke-width:2.8;" x="0.0" xlink:href="#m7934f23d54" y="633.6"/>
    </g>
   </g>
   <g id="PolyCollection_2">
    <defs>
     <path d="M 294.348522 -137.353499 
L 293.76 -137.353499 
L 293.76 -139.519444 
L 293.76 -141.685389 
L 293.76 -143.851334 
L 293.76 -146.017279 
L 293.76 -148.183224 
L 293.76 -150.349169 
L 293.76 -152.515114 
L 293.76 -154.681059 
L 293.76 -156.847004 
L 293.76 -159.012949 
L 293.76 -161.178894 
L 293.76 -163.344839 
L 293.76 -165.510784 
L 293.76 -167.676729 
L 293.76 -169.842674 
L 293.76 -172.008619 
L 293.76 -174.174564 
L 293.76 -176.340509 
L 293.76 -178.506454 
L 293.76 -180.672399 
L 293.76 -182.838344 
L 293.76 -185.004289 
L 293.76 -187.170233 
L 293.76 -189.336178 
L 293.76 -191.502123 
L 293.76 -193.668068 
L 293.76 -195.834013 
L 293.76 -197.999958 
L 293.76 -200.165903 
L 293.76 -202.331848 
L 293.76 -204.497793 
L 293.76 -206.663738 
L 293.76 -208.829683 
L 293.76 -210.995628 
L 293.76 -213.161573 
L 293.76 -215.327518 
L 293.76 -217.493463 
L 293.76 -219.659408 
L 293.76 -221.825353 
L 293.76 -223.991298 
L 293.76 -226.157243 
L 293.76 -228.323188 
L 293.76 -230.489133 
L 293.76 -232.655078 
L 293.76 -234.821023 
L 293.76 -236.986968 
L 293.76 -239.152913 
L 293.76 -241.318857 
L 293.76 -243.484802 
L 293.76 -245.650747 
L 293.76 -247.816692 
L 293.76 -249.982637 
L 293.76 -252.148582 
L 293.76 -254.314527 
L 293.76 -256.480472 
L 293.76 -258.646417 
L 293.76 -260.812362 
L 293.76 -262.978307 
L 293.76 -265.144252 
L 293.76 -267.310197 
L 293.76 -269.476142 
L 293.76 -271.642087 
L 293.76 -273.808032 
L 293.76 -275.973977 
L 293.76 -278.139922 
L 293.76 -280.305867 
L 293.76 -282.471812 
L 293.76 -284.637757 
L 293.76 -286.803702 
L 293.76 -288.969647 
L 293.76 -291.135592 
L 293.76 -293.301536 
L 293.76 -295.467481 
L 293.76 -297.633426 
L 293.76 -299.799371 
L 293.76 -301.965316 
L 293.76 -304.131261 
L 293.76 -306.297206 
L 293.76 -308.463151 
L 293.76 -310.629096 
L 293.76 -312.795041 
L 293.76 -314.960986 
L 293.76 -317.126931 
L 293.76 -319.292876 
L 293.76 -321.458821 
L 293.76 -323.624766 
L 293.76 -325.790711 
L 293.76 -327.956656 
L 293.76 -330.122601 
L 293.76 -332.288546 
L 293.76 -334.454491 
L 293.76 -336.620436 
L 293.76 -338.786381 
L 293.76 -340.952326 
L 293.76 -343.118271 
L 293.76 -345.284216 
L 293.76 -347.45016 
L 293.76 -349.616105 
L 293.76 -351.78205 
L 294.154354 -351.78205 
L 294.154354 -351.78205 
L 294.324544 -349.616105 
L 294.544607 -347.45016 
L 294.819126 -345.284216 
L 295.149351 -343.118271 
L 295.532189 -340.952326 
L 295.959638 -338.786381 
L 296.418901 -336.620436 
L 296.893321 -334.454491 
L 297.364154 -332.288546 
L 297.813043 -330.122601 
L 298.2249 -327.956656 
L 298.5908 -325.790711 
L 298.910381 -323.624766 
L 299.193266 -321.458821 
L 299.459053 -319.292876 
L 299.735568 -317.126931 
L 300.055362 -314.960986 
L 300.45073 -312.795041 
L 300.948035 -310.629096 
L 301.562421 -308.463151 
L 302.294304 -306.297206 
L 303.128895 -304.131261 
L 304.039596 -301.965316 
L 304.995241 -299.799371 
L 305.97016 -297.633426 
L 306.955003 -295.467481 
L 307.965684 -293.301536 
L 309.04779 -291.135592 
L 310.274545 -288.969647 
L 311.73781 -286.803702 
L 313.533279 -284.637757 
L 315.742615 -282.471812 
L 318.416299 -280.305867 
L 321.561062 -278.139922 
L 325.134925 -275.973977 
L 329.051245 -273.808032 
L 333.191081 -271.642087 
L 337.421322 -269.476142 
L 341.614696 -267.310197 
L 345.667473 -265.144252 
L 349.511395 -262.978307 
L 353.117912 -260.812362 
L 356.494844 -258.646417 
L 359.677406 -256.480472 
L 362.716798 -254.314527 
L 365.669803 -252.148582 
L 368.592032 -249.982637 
L 371.535873 -247.816692 
L 374.552271 -245.650747 
L 377.693886 -243.484802 
L 381.016408 -241.318857 
L 384.57519 -239.152913 
L 388.415886 -236.986968 
L 392.559945 -234.821023 
L 396.987973 -232.655078 
L 401.625491 -230.489133 
L 406.335779 -228.323188 
L 410.923355 -226.157243 
L 415.149297 -223.991298 
L 418.756833 -221.825353 
L 421.503095 -219.659408 
L 423.191398 -217.493463 
L 423.698127 -215.327518 
L 422.989387 -213.161573 
L 421.124559 -210.995628 
L 418.246324 -208.829683 
L 414.559037 -206.663738 
L 410.299163 -204.497793 
L 405.702588 -202.331848 
L 400.973954 -200.165903 
L 396.262683 -197.999958 
L 391.649232 -195.834013 
L 387.143405 -193.668068 
L 382.694542 -191.502123 
L 378.211341 -189.336178 
L 373.587413 -187.170233 
L 368.727715 -185.004289 
L 363.571017 -182.838344 
L 358.104547 -180.672399 
L 352.368732 -178.506454 
L 346.45206 -176.340509 
L 340.47803 -174.174564 
L 334.587494 -172.008619 
L 328.920194 -169.842674 
L 323.59886 -167.676729 
L 318.718177 -165.510784 
L 314.339541 -163.344839 
L 310.491206 -161.178894 
L 307.172499 -159.012949 
L 304.360328 -156.847004 
L 302.016316 -154.681059 
L 300.093272 -152.515114 
L 298.540318 -150.349169 
L 297.306475 -148.183224 
L 296.342927 -146.017279 
L 295.604304 -143.851334 
L 295.049384 -141.685389 
L 294.641458 -139.519444 
L 294.348522 -137.353499 
z
" id="m282b49e890" style="stroke:#4c4c4c;stroke-width:2.8;"/>
    </defs>
    <g clip-path="url(#p330fc12a7e)">
     <use style="fill:#5f9e6e;stroke:#4c4c4c;stroke-width:2.8;" x="0.0" xlink:href="#m282b49e890" y="633.6"/>
    </g>
   </g>
   <g id="PolyCollection_3">
    <defs>
     <path d="M 650.88 -211.602505 
L 650.393274 -211.602505 
L 650.165099 -214.668336 
L 649.862488 -217.734168 
L 649.475705 -220.799999 
L 648.999031 -223.865831 
L 648.432086 -226.931662 
L 647.780266 -229.997494 
L 647.053948 -233.063325 
L 646.266351 -236.129157 
L 645.430346 -239.194988 
L 644.554906 -242.26082 
L 643.642148 -245.326651 
L 642.68596 -248.392483 
L 641.672831 -251.458314 
L 640.584969 -254.524145 
L 639.405037 -257.589977 
L 638.121262 -260.655808 
L 636.731442 -263.72164 
L 635.24456 -266.787471 
L 633.679376 -269.853303 
L 632.060199 -272.919134 
L 630.410881 -275.984966 
L 628.748523 -279.050797 
L 627.07843 -282.116629 
L 625.391396 -285.18246 
L 623.663688 -288.248291 
L 621.859372 -291.314123 
L 619.934069 -294.379954 
L 617.83907 -297.445786 
L 615.524953 -300.511617 
L 612.944262 -303.577449 
L 610.053374 -306.64328 
L 606.814028 -309.709112 
L 603.195164 -312.774943 
L 599.175518 -315.840775 
L 594.747041 -318.906606 
L 589.918727 -321.972438 
L 584.720016 -325.038269 
L 579.202848 -328.1041 
L 573.441502 -331.169932 
L 567.529806 -334.235763 
L 561.575753 -337.301595 
L 555.694059 -340.367426 
L 549.99754 -343.433258 
L 544.5883 -346.499089 
L 539.549745 -349.564921 
L 534.940322 -352.630752 
L 530.789737 -355.696584 
L 527.098262 -358.762415 
L 523.839529 -361.828246 
L 520.966934 -364.894078 
L 518.423299 -367.959909 
L 516.152882 -371.025741 
L 514.114172 -374.091572 
L 512.291407 -377.157404 
L 510.702576 -380.223235 
L 509.401914 -383.289067 
L 508.475775 -386.354898 
L 508.032 -389.42073 
L 508.18431 -392.486561 
L 509.0345 -395.552393 
L 510.655837 -398.618224 
L 513.080992 -401.684055 
L 516.296896 -404.749887 
L 520.24746 -407.815718 
L 524.843391 -410.88155 
L 529.976845 -413.947381 
L 535.537698 -417.013213 
L 541.428011 -420.079044 
L 547.571803 -423.144876 
L 553.918366 -426.210707 
L 560.438801 -429.276539 
L 567.116901 -432.34237 
L 573.936642 -435.408202 
L 580.869224 -438.474033 
L 587.862612 -441.539864 
L 594.836032 -444.605696 
L 601.680861 -447.671527 
L 608.268056 -450.737359 
L 614.461008 -453.80319 
L 620.131548 -456.869022 
L 625.176196 -459.934853 
L 629.529607 -463.000685 
L 633.172673 -466.066516 
L 636.13377 -469.132348 
L 638.482965 -472.198179 
L 640.320394 -475.26401 
L 641.761125 -478.329842 
L 642.919396 -481.395673 
L 643.895062 -484.461505 
L 644.764386 -487.527336 
L 645.576209 -490.593168 
L 646.353321 -493.658999 
L 647.09782 -496.724831 
L 647.798622 -499.790662 
L 648.439224 -502.856494 
L 649.004155 -505.922325 
L 649.483222 -508.988157 
L 649.873328 -512.053988 
L 650.17825 -515.119819 
L 650.88 -515.119819 
L 650.88 -515.119819 
L 650.88 -512.053988 
L 650.88 -508.988157 
L 650.88 -505.922325 
L 650.88 -502.856494 
L 650.88 -499.790662 
L 650.88 -496.724831 
L 650.88 -493.658999 
L 650.88 -490.593168 
L 650.88 -487.527336 
L 650.88 -484.461505 
L 650.88 -481.395673 
L 650.88 -478.329842 
L 650.88 -475.26401 
L 650.88 -472.198179 
L 650.88 -469.132348 
L 650.88 -466.066516 
L 650.88 -463.000685 
L 650.88 -459.934853 
L 650.88 -456.869022 
L 650.88 -453.80319 
L 650.88 -450.737359 
L 650.88 -447.671527 
L 650.88 -444.605696 
L 650.88 -441.539864 
L 650.88 -438.474033 
L 650.88 -435.408202 
L 650.88 -432.34237 
L 650.88 -429.276539 
L 650.88 -426.210707 
L 650.88 -423.144876 
L 650.88 -420.079044 
L 650.88 -417.013213 
L 650.88 -413.947381 
L 650.88 -410.88155 
L 650.88 -407.815718 
L 650.88 -404.749887 
L 650.88 -401.684055 
L 650.88 -398.618224 
L 650.88 -395.552393 
L 650.88 -392.486561 
L 650.88 -389.42073 
L 650.88 -386.354898 
L 650.88 -383.289067 
L 650.88 -380.223235 
L 650.88 -377.157404 
L 650.88 -374.091572 
L 650.88 -371.025741 
L 650.88 -367.959909 
L 650.88 -364.894078 
L 650.88 -361.828246 
L 650.88 -358.762415 
L 650.88 -355.696584 
L 650.88 -352.630752 
L 650.88 -349.564921 
L 650.88 -346.499089 
L 650.88 -343.433258 
L 650.88 -340.367426 
L 650.88 -337.301595 
L 650.88 -334.235763 
L 650.88 -331.169932 
L 650.88 -328.1041 
L 650.88 -325.038269 
L 650.88 -321.972438 
L 650.88 -318.906606 
L 650.88 -315.840775 
L 650.88 -312.774943 
L 650.88 -309.709112 
L 650.88 -306.64328 
L 650.88 -303.577449 
L 650.88 -300.511617 
L 650.88 -297.445786 
L 650.88 -294.379954 
L 650.88 -291.314123 
L 650.88 -288.248291 
L 650.88 -285.18246 
L 650.88 -282.116629 
L 650.88 -279.050797 
L 650.88 -275.984966 
L 650.88 -272.919134 
L 650.88 -269.853303 
L 650.88 -266.787471 
L 650.88 -263.72164 
L 650.88 -260.655808 
L 650.88 -257.589977 
L 650.88 -254.524145 
L 650.88 -251.458314 
L 650.88 -248.392483 
L 650.88 -245.326651 
L 650.88 -242.26082 
L 650.88 -239.194988 
L 650.88 -236.129157 
L 650.88 -233.063325 
L 650.88 -229.997494 
L 650.88 -226.931662 
L 650.88 -223.865831 
L 650.88 -220.799999 
L 650.88 -217.734168 
L 650.88 -214.668336 
L 650.88 -211.602505 
z
" id="m195c4edbaf" style="stroke:#4c4c4c;stroke-width:2.8;"/>
    </defs>
    <g clip-path="url(#p330fc12a7e)">
     <use style="fill:#5875a4;stroke:#4c4c4c;stroke-width:2.8;" x="0.0" xlink:href="#m195c4edbaf" y="633.6"/>
    </g>
   </g>
   <g id="PolyCollection_4">
    <defs>
     <path d="M 651.322473 -179.06388 
L 650.88 -179.06388 
L 650.88 -182.531748 
L 650.88 -185.999616 
L 650.88 -189.467484 
L 650.88 -192.935352 
L 650.88 -196.40322 
L 650.88 -199.871088 
L 650.88 -203.338956 
L 650.88 -206.806824 
L 650.88 -210.274692 
L 650.88 -213.74256 
L 650.88 -217.210428 
L 650.88 -220.678297 
L 650.88 -224.146165 
L 650.88 -227.614033 
L 650.88 -231.081901 
L 650.88 -234.549769 
L 650.88 -238.017637 
L 650.88 -241.485505 
L 650.88 -244.953373 
L 650.88 -248.421241 
L 650.88 -251.889109 
L 650.88 -255.356977 
L 650.88 -258.824845 
L 650.88 -262.292714 
L 650.88 -265.760582 
L 650.88 -269.22845 
L 650.88 -272.696318 
L 650.88 -276.164186 
L 650.88 -279.632054 
L 650.88 -283.099922 
L 650.88 -286.56779 
L 650.88 -290.035658 
L 650.88 -293.503526 
L 650.88 -296.971394 
L 650.88 -300.439263 
L 650.88 -303.907131 
L 650.88 -307.374999 
L 650.88 -310.842867 
L 650.88 -314.310735 
L 650.88 -317.778603 
L 650.88 -321.246471 
L 650.88 -324.714339 
L 650.88 -328.182207 
L 650.88 -331.650075 
L 650.88 -335.117943 
L 650.88 -338.585811 
L 650.88 -342.05368 
L 650.88 -345.521548 
L 650.88 -348.989416 
L 650.88 -352.457284 
L 650.88 -355.925152 
L 650.88 -359.39302 
L 650.88 -362.860888 
L 650.88 -366.328756 
L 650.88 -369.796624 
L 650.88 -373.264492 
L 650.88 -376.73236 
L 650.88 -380.200228 
L 650.88 -383.668097 
L 650.88 -387.135965 
L 650.88 -390.603833 
L 650.88 -394.071701 
L 650.88 -397.539569 
L 650.88 -401.007437 
L 650.88 -404.475305 
L 650.88 -407.943173 
L 650.88 -411.411041 
L 650.88 -414.878909 
L 650.88 -418.346777 
L 650.88 -421.814646 
L 650.88 -425.282514 
L 650.88 -428.750382 
L 650.88 -432.21825 
L 650.88 -435.686118 
L 650.88 -439.153986 
L 650.88 -442.621854 
L 650.88 -446.089722 
L 650.88 -449.55759 
L 650.88 -453.025458 
L 650.88 -456.493326 
L 650.88 -459.961194 
L 650.88 -463.429063 
L 650.88 -466.896931 
L 650.88 -470.364799 
L 650.88 -473.832667 
L 650.88 -477.300535 
L 650.88 -480.768403 
L 650.88 -484.236271 
L 650.88 -487.704139 
L 650.88 -491.172007 
L 650.88 -494.639875 
L 650.88 -498.107743 
L 650.88 -501.575611 
L 650.88 -505.04348 
L 650.88 -508.511348 
L 650.88 -511.979216 
L 650.88 -515.447084 
L 650.88 -518.914952 
L 650.88 -522.38282 
L 651.386411 -522.38282 
L 651.386411 -522.38282 
L 651.613798 -518.914952 
L 651.918741 -515.447084 
L 652.317836 -511.979216 
L 652.828319 -508.511348 
L 653.46765 -505.04348 
L 654.253371 -501.575611 
L 655.203392 -498.107743 
L 656.336804 -494.639875 
L 657.67521 -491.172007 
L 659.244375 -487.704139 
L 661.07585 -484.236271 
L 663.208055 -480.768403 
L 665.686203 -477.300535 
L 668.560446 -473.832667 
L 671.881801 -470.364799 
L 675.695666 -466.896931 
L 680.03325 -463.429063 
L 684.901733 -459.961194 
L 690.274564 -456.493326 
L 696.083702 -453.025458 
L 702.215743 -449.55759 
L 708.51365 -446.089722 
L 714.785117 -442.621854 
L 720.81757 -439.153986 
L 726.398589 -435.686118 
L 731.339319 -432.21825 
L 735.497625 -428.750382 
L 738.797373 -425.282514 
L 741.240556 -421.814646 
L 742.909952 -418.346777 
L 743.961407 -414.878909 
L 744.60648 -411.411041 
L 745.087765 -407.943173 
L 745.650331 -404.475305 
L 746.513343 -401.007437 
L 747.845731 -397.539569 
L 749.748963 -394.071701 
L 752.248628 -390.603833 
L 755.294987 -387.135965 
L 758.771215 -383.668097 
L 762.507079 -380.200228 
L 766.295457 -376.73236 
L 769.90936 -373.264492 
L 773.117876 -369.796624 
L 775.700315 -366.328756 
L 777.458571 -362.860888 
L 778.227996 -359.39302 
L 777.886964 -355.925152 
L 776.364853 -352.457284 
L 773.647657 -348.989416 
L 769.78018 -345.521548 
L 764.86387 -342.05368 
L 759.049934 -338.585811 
L 752.528151 -335.117943 
L 745.5127 -331.650075 
L 738.226816 -328.182207 
L 730.888304 -324.714339 
L 723.697524 -321.246471 
L 716.82879 -317.778603 
L 710.425319 -314.310735 
L 704.597103 -310.842867 
L 699.42074 -307.374999 
L 694.940206 -303.907131 
L 691.167888 -300.439263 
L 688.085682 -296.971394 
L 685.646446 -293.503526 
L 683.776411 -290.035658 
L 682.379172 -286.56779 
L 681.341669 -283.099922 
L 680.542115 -279.632054 
L 679.859337 -276.164186 
L 679.182516 -272.696318 
L 678.420083 -269.22845 
L 677.506491 -265.760582 
L 676.405848 -262.292714 
L 675.111894 -258.824845 
L 673.64441 -255.356977 
L 672.042762 -251.889109 
L 670.357757 -248.421241 
L 668.643198 -244.953373 
L 666.948505 -241.485505 
L 665.313399 -238.017637 
L 663.765198 -234.549769 
L 662.318685 -231.081901 
L 660.978069 -227.614033 
L 659.740225 -224.146165 
L 658.598316 -220.678297 
L 657.545002 -217.210428 
L 656.574688 -213.74256 
L 655.684574 -210.274692 
L 654.874581 -206.806824 
L 654.146439 -203.338956 
L 653.502344 -199.871088 
L 652.943604 -196.40322 
L 652.469584 -192.935352 
L 652.077137 -189.467484 
L 651.760581 -185.999616 
L 651.512103 -182.531748 
L 651.322473 -179.06388 
z
" id="m86400fc211" style="stroke:#4c4c4c;stroke-width:2.8;"/>
    </defs>
    <g clip-path="url(#p330fc12a7e)">
     <use style="fill:#5f9e6e;stroke:#4c4c4c;stroke-width:2.8;" x="0.0" xlink:href="#m86400fc211" y="633.6"/>
    </g>
   </g>
   <g id="patch_3">
    <path clip-path="url(#p330fc12a7e)" d="M 293.76 484.251429 
L 293.76 484.251429 
L 293.76 484.251429 
L 293.76 484.251429 
z
" style="fill:#5875a4;stroke:#4c4c4c;stroke-linejoin:miter;stroke-width:1.4;"/>
   </g>
   <g id="patch_4">
    <path clip-path="url(#p330fc12a7e)" d="M 293.76 484.251429 
L 293.76 484.251429 
L 293.76 484.251429 
L 293.76 484.251429 
z
" style="fill:#5f9e6e;stroke:#4c4c4c;stroke-linejoin:miter;stroke-width:1.4;"/>
   </g>
   <g id="line2d_11">
    <path clip-path="url(#p330fc12a7e)" d="M 173.981068 424.803487 
L 293.76 424.803487 
" style="fill:none;stroke:#4c4c4c;stroke-dasharray:4.200000,4.200000;stroke-dashoffset:0.0;stroke-width:2.8;"/>
   </g>
   <g id="line2d_12">
    <path clip-path="url(#p330fc12a7e)" d="M 153.458272 410.410827 
L 293.76 410.410827 
" style="fill:none;stroke:#4c4c4c;stroke-dasharray:8.400000,8.400000;stroke-dashoffset:0.0;stroke-width:2.8;"/>
   </g>
   <g id="line2d_13">
    <path clip-path="url(#p330fc12a7e)" d="M 195.740528 389.134722 
L 293.76 389.134722 
" style="fill:none;stroke:#4c4c4c;stroke-dasharray:4.200000,4.200000;stroke-dashoffset:0.0;stroke-width:2.8;"/>
   </g>
   <g id="line2d_14">
    <path clip-path="url(#p330fc12a7e)" d="M 293.76 429.825813 
L 409.133771 429.825813 
" style="fill:none;stroke:#4c4c4c;stroke-dasharray:4.200000,4.200000;stroke-dashoffset:0.0;stroke-width:2.8;"/>
   </g>
   <g id="line2d_15">
    <path clip-path="url(#p330fc12a7e)" d="M 293.76 412.913898 
L 420.225664 412.913898 
" style="fill:none;stroke:#4c4c4c;stroke-dasharray:8.400000,8.400000;stroke-dashoffset:0.0;stroke-width:2.8;"/>
   </g>
   <g id="line2d_16">
    <path clip-path="url(#p330fc12a7e)" d="M 293.76 389.134722 
L 376.854547 389.134722 
" style="fill:none;stroke:#4c4c4c;stroke-dasharray:4.200000,4.200000;stroke-dashoffset:0.0;stroke-width:2.8;"/>
   </g>
   <g id="line2d_17">
    <path clip-path="url(#p330fc12a7e)" d="M 540.663047 284.690837 
L 650.88 284.690837 
" style="fill:none;stroke:#4c4c4c;stroke-dasharray:4.200000,4.200000;stroke-dashoffset:0.0;stroke-width:2.8;"/>
   </g>
   <g id="line2d_18">
    <path clip-path="url(#p330fc12a7e)" d="M 512.104351 254.454384 
L 650.88 254.454384 
" style="fill:none;stroke:#4c4c4c;stroke-dasharray:8.400000,8.400000;stroke-dashoffset:0.0;stroke-width:2.8;"/>
   </g>
   <g id="line2d_19">
    <path clip-path="url(#p330fc12a7e)" d="M 521.553785 225.809323 
L 650.88 225.809323 
" style="fill:none;stroke:#4c4c4c;stroke-dasharray:4.200000,4.200000;stroke-dashoffset:0.0;stroke-width:2.8;"/>
   </g>
   <g id="line2d_20">
    <path clip-path="url(#p330fc12a7e)" d="M 650.88 293.496541 
L 757.968234 293.496541 
" style="fill:none;stroke:#4c4c4c;stroke-dasharray:4.200000,4.200000;stroke-dashoffset:0.0;stroke-width:2.8;"/>
   </g>
   <g id="line2d_21">
    <path clip-path="url(#p330fc12a7e)" d="M 650.88 266.548966 
L 774.452112 266.548966 
" style="fill:none;stroke:#4c4c4c;stroke-dasharray:8.400000,8.400000;stroke-dashoffset:0.0;stroke-width:2.8;"/>
   </g>
   <g id="line2d_22">
    <path clip-path="url(#p330fc12a7e)" d="M 650.88 222.680484 
L 743.669216 222.680484 
" style="fill:none;stroke:#4c4c4c;stroke-dasharray:4.200000,4.200000;stroke-dashoffset:0.0;stroke-width:2.8;"/>
   </g>
   <g id="patch_5">
    <path d="M 293.76 564.4 
L 650.88 564.4 
" style="fill:none;stroke:#262626;stroke-linecap:square;stroke-linejoin:miter;stroke-width:1.25;"/>
   </g>
   <g id="patch_6">
    <path d="M 105.2 554.4 
L 105.2 63.36 
" style="fill:none;stroke:#262626;stroke-linecap:square;stroke-linejoin:miter;stroke-width:1.25;"/>
   </g>
   <g id="legend_1">
    <g id="patch_7">
     <path d="M 132.48 94.554 
L 170.88 94.554 
L 170.88 81.114 
L 132.48 81.114 
z
" style="fill:#5875a4;stroke:#4c4c4c;stroke-linejoin:miter;stroke-width:1.4;"/>
    </g>
    <g id="text_12">
     <!-- Low AQ -->
     <defs>
      <path d="M 73 34.71875 
Q 73 27.4375 71.109375 21.40625 
Q 69.234375 15.375 65.6875 10.828125 
Q 62.15625 6.296875 57 3.4375 
Q 51.859375 0.59375 45.3125 -0.296875 
Q 46.34375 -3.421875 47.625 -5.609375 
Q 48.921875 -7.8125 50.578125 -9.203125 
Q 52.25 -10.59375 54.265625 -11.25 
Q 56.296875 -11.921875 58.796875 -11.921875 
Q 60.15625 -11.921875 61.71875 -11.71875 
Q 63.28125 -11.53125 64.40625 -11.28125 
L 64.40625 -17.828125 
Q 62.546875 -18.265625 60.328125 -18.578125 
Q 58.109375 -18.890625 55.71875 -18.890625 
Q 51.515625 -18.890625 48.390625 -17.640625 
Q 45.265625 -16.40625 42.890625 -14.078125 
Q 40.53125 -11.765625 38.8125 -8.390625 
Q 37.109375 -5.03125 35.796875 -0.78125 
Q 28.078125 -0.390625 22.234375 2.40625 
Q 16.40625 5.21875 12.515625 9.9375 
Q 8.640625 14.65625 6.6875 20.96875 
Q 4.734375 27.296875 4.734375 34.71875 
Q 4.734375 42.78125 6.984375 49.265625 
Q 9.234375 55.765625 13.578125 60.328125 
Q 17.921875 64.890625 24.296875 67.359375 
Q 30.671875 69.828125 38.921875 69.828125 
Q 47.125 69.828125 53.484375 67.328125 
Q 59.859375 64.84375 64.171875 60.25 
Q 68.5 55.671875 70.75 49.171875 
Q 73 42.671875 73 34.71875 
M 63.484375 34.71875 
Q 63.484375 40.921875 61.890625 46 
Q 60.296875 51.078125 57.203125 54.6875 
Q 54.109375 58.296875 49.515625 60.25 
Q 44.921875 62.203125 38.921875 62.203125 
Q 32.765625 62.203125 28.125 60.25 
Q 23.484375 58.296875 20.375 54.6875 
Q 17.28125 51.078125 15.734375 46 
Q 14.203125 40.921875 14.203125 34.71875 
Q 14.203125 28.515625 15.796875 23.359375 
Q 17.390625 18.21875 20.484375 14.484375 
Q 23.578125 10.75 28.1875 8.671875 
Q 32.8125 6.59375 38.8125 6.59375 
Q 45.265625 6.59375 49.921875 8.6875 
Q 54.59375 10.796875 57.59375 14.53125 
Q 60.59375 18.265625 62.03125 23.4375 
Q 63.484375 28.609375 63.484375 34.71875 
" id="LiberationSans-51"/>
      <path d="M 57.328125 0 
L 47.125 0 
L 38.671875 34.078125 
Q 38.28125 35.40625 37.859375 37.359375 
Q 37.453125 39.3125 37.0625 41.15625 
Q 36.578125 43.3125 36.140625 45.609375 
Q 35.6875 43.40625 35.203125 41.265625 
Q 34.8125 39.40625 34.34375 37.40625 
Q 33.890625 35.40625 33.5 33.890625 
L 24.8125 0 
L 14.65625 0 
L -0.140625 52.828125 
L 8.546875 52.828125 
L 17.484375 16.9375 
Q 17.828125 15.828125 18.15625 14.1875 
Q 18.5 12.546875 18.84375 10.984375 
Q 19.1875 9.1875 19.578125 7.28125 
Q 19.96875 9.125 20.40625 10.890625 
Q 20.796875 12.40625 21.1875 13.96875 
Q 21.578125 15.53125 21.875 16.546875 
L 31.453125 52.828125 
L 40.875 52.828125 
L 50.09375 16.546875 
Q 50.4375 15.28125 50.828125 13.671875 
Q 51.21875 12.0625 51.5625 10.640625 
Q 51.953125 8.984375 52.34375 7.28125 
Q 52.734375 9.125 53.125 10.890625 
Q 53.46875 12.40625 53.828125 14.03125 
Q 54.203125 15.671875 54.546875 16.9375 
L 63.875 52.828125 
L 72.46875 52.828125 
z
" id="LiberationSans-77"/>
      <path d="M 8.203125 0 
L 8.203125 68.796875 
L 17.53125 68.796875 
L 17.53125 7.625 
L 52.296875 7.625 
L 52.296875 0 
z
" id="LiberationSans-4c"/>
      <path d="M 56.984375 0 
L 49.125 20.125 
L 17.78125 20.125 
L 9.859375 0 
L 0.203125 0 
L 28.265625 68.796875 
L 38.875 68.796875 
L 66.5 0 
z
M 37.5 50.09375 
Q 36.71875 52.046875 36 54.046875 
Q 35.296875 56.0625 34.765625 57.6875 
Q 34.234375 59.328125 33.859375 60.421875 
Q 33.5 61.53125 33.453125 61.765625 
Q 33.34375 61.53125 33 60.40625 
Q 32.671875 59.28125 32.109375 57.609375 
Q 31.546875 55.953125 30.828125 53.953125 
Q 30.125 51.953125 29.390625 50 
L 20.609375 27.390625 
L 46.34375 27.390625 
z
" id="LiberationSans-41"/>
     </defs>
     <g style="fill:#262626;" transform="translate(186.24 94.554)scale(0.192 -0.192)">
      <use xlink:href="#LiberationSans-4c"/>
      <use x="55.615234375" xlink:href="#LiberationSans-6f"/>
      <use x="111.23046875" xlink:href="#LiberationSans-77"/>
      <use x="183.447265625" xlink:href="#LiberationSans-20"/>
      <use x="211.15234375" xlink:href="#LiberationSans-41"/>
      <use x="277.8515625" xlink:href="#LiberationSans-51"/>
     </g>
    </g>
    <g id="patch_8">
     <path d="M 132.48 122.052 
L 170.88 122.052 
L 170.88 108.612 
L 132.48 108.612 
z
" style="fill:#5f9e6e;stroke:#4c4c4c;stroke-linejoin:miter;stroke-width:1.4;"/>
    </g>
    <g id="text_13">
     <!-- High AQ -->
     <defs>
      <path d="M 26.765625 -20.75 
Q 22.21875 -20.75 18.703125 -19.8125 
Q 15.1875 -18.890625 12.6875 -17.15625 
Q 10.203125 -15.4375 8.640625 -13.03125 
Q 7.078125 -10.640625 6.390625 -7.71875 
L 15.234375 -6.453125 
Q 16.109375 -10.109375 19.109375 -12.078125 
Q 22.125 -14.0625 27 -14.0625 
Q 29.984375 -14.0625 32.421875 -13.234375 
Q 34.859375 -12.40625 36.5625 -10.5625 
Q 38.28125 -8.734375 39.203125 -5.796875 
Q 40.140625 -2.875 40.140625 1.3125 
L 40.140625 9.8125 
L 40.046875 9.8125 
Q 39.0625 7.8125 37.625 5.984375 
Q 36.1875 4.15625 34.109375 2.734375 
Q 32.03125 1.3125 29.296875 0.453125 
Q 26.5625 -0.390625 23.046875 -0.390625 
Q 18.015625 -0.390625 14.421875 1.296875 
Q 10.84375 2.984375 8.5625 6.34375 
Q 6.296875 9.71875 5.25 14.71875 
Q 4.203125 19.734375 4.203125 26.3125 
Q 4.203125 32.671875 5.25 37.75 
Q 6.296875 42.828125 8.65625 46.359375 
Q 11.03125 49.90625 14.8125 51.78125 
Q 18.609375 53.65625 24.03125 53.65625 
Q 29.640625 53.65625 33.765625 51.09375 
Q 37.890625 48.53125 40.140625 43.796875 
L 40.234375 43.796875 
Q 40.234375 45.015625 40.296875 46.53125 
Q 40.375 48.046875 40.453125 49.390625 
Q 40.53125 50.734375 40.625 51.703125 
Q 40.71875 52.6875 40.828125 52.828125 
L 49.171875 52.828125 
Q 49.125 52.390625 49.078125 51.34375 
Q 49.03125 50.296875 48.96875 48.828125 
Q 48.921875 47.359375 48.890625 45.578125 
Q 48.875 43.796875 48.875 41.890625 
L 48.875 1.515625 
Q 48.875 -9.578125 43.421875 -15.15625 
Q 37.984375 -20.75 26.765625 -20.75 
M 40.140625 26.421875 
Q 40.140625 31.9375 38.9375 35.859375 
Q 37.75 39.796875 35.796875 42.28125 
Q 33.84375 44.78125 31.328125 45.953125 
Q 28.8125 47.125 26.171875 47.125 
Q 22.796875 47.125 20.375 45.953125 
Q 17.96875 44.78125 16.375 42.265625 
Q 14.796875 39.75 14.03125 35.8125 
Q 13.28125 31.890625 13.28125 26.421875 
Q 13.28125 20.703125 14.03125 16.8125 
Q 14.796875 12.9375 16.359375 10.546875 
Q 17.921875 8.15625 20.3125 7.125 
Q 22.703125 6.109375 26.03125 6.109375 
Q 28.65625 6.109375 31.171875 7.21875 
Q 33.6875 8.34375 35.6875 10.78125 
Q 37.703125 13.234375 38.921875 17.09375 
Q 40.140625 20.953125 40.140625 26.421875 
" id="LiberationSans-67"/>
      <path d="M 15.484375 43.796875 
Q 16.9375 46.484375 18.640625 48.359375 
Q 20.359375 50.25 22.40625 51.46875 
Q 24.46875 52.6875 26.90625 53.25 
Q 29.34375 53.8125 32.375 53.8125 
Q 37.453125 53.8125 40.703125 52.4375 
Q 43.953125 51.078125 45.828125 48.609375 
Q 47.703125 46.140625 48.40625 42.71875 
Q 49.125 39.3125 49.125 35.203125 
L 49.125 0 
L 40.28125 0 
L 40.28125 33.5 
Q 40.28125 36.859375 39.859375 39.390625 
Q 39.453125 41.9375 38.28125 43.625 
Q 37.109375 45.3125 34.953125 46.15625 
Q 32.8125 47.015625 29.390625 47.015625 
Q 26.265625 47.015625 23.75 45.890625 
Q 21.234375 44.78125 19.453125 42.71875 
Q 17.671875 40.671875 16.6875 37.734375 
Q 15.71875 34.8125 15.71875 31.15625 
L 15.71875 0 
L 6.9375 0 
L 6.9375 72.46875 
L 15.71875 72.46875 
L 15.71875 53.609375 
Q 15.71875 52 15.671875 50.390625 
Q 15.625 48.78125 15.546875 47.40625 
Q 15.484375 46.046875 15.421875 45.09375 
Q 15.375 44.140625 15.328125 43.796875 
z
" id="LiberationSans-68"/>
      <path d="M 6.6875 64.0625 
L 6.6875 72.46875 
L 15.484375 72.46875 
L 15.484375 64.0625 
z
M 6.6875 0 
L 6.6875 52.828125 
L 15.484375 52.828125 
L 15.484375 0 
z
" id="LiberationSans-69"/>
      <path d="M 54.734375 0 
L 54.734375 31.890625 
L 17.53125 31.890625 
L 17.53125 0 
L 8.203125 0 
L 8.203125 68.796875 
L 17.53125 68.796875 
L 17.53125 39.703125 
L 54.734375 39.703125 
L 54.734375 68.796875 
L 64.0625 68.796875 
L 64.0625 0 
z
" id="LiberationSans-48"/>
     </defs>
     <g style="fill:#262626;" transform="translate(186.24 122.052)scale(0.192 -0.192)">
      <use xlink:href="#LiberationSans-48"/>
      <use x="72.216796875" xlink:href="#LiberationSans-69"/>
      <use x="94.43359375" xlink:href="#LiberationSans-67"/>
      <use x="150.048828125" xlink:href="#LiberationSans-68"/>
      <use x="205.6640625" xlink:href="#LiberationSans-20"/>
      <use x="233.369140625" xlink:href="#LiberationSans-41"/>
      <use x="300.068359375" xlink:href="#LiberationSans-51"/>
     </g>
    </g>
   </g>
  </g>
 </g>
 <defs>
  <clipPath id="p330fc12a7e">
   <rect height="491.04" width="714.24" x="115.2" y="63.36"/>
  </clipPath>
 </defs>
</svg>
