<?xml version="1.0" encoding="utf-8" standalone="no"?>
<!DOCTYPE svg PUBLIC "-//W3C//DTD SVG 1.1//EN"
  "http://www.w3.org/Graphics/SVG/1.1/DTD/svg11.dtd">
<!-- Created with matplotlib (http://matplotlib.org/) -->
<svg height="403pt" version="1.1" viewBox="0 0 404 403" width="404pt" xmlns="http://www.w3.org/2000/svg" xmlns:xlink="http://www.w3.org/1999/xlink">
 <defs>
  <style type="text/css">
*{stroke-linecap:butt;stroke-linejoin:round;stroke-miterlimit:100000;}
  </style>
 </defs>
 <g id="figure_1">
  <g id="patch_1">
   <path d="M 0 403.6245 
L 404.087 403.6245 
L 404.087 0 
L 0 0 
z
" style="fill:#ffffff;"/>
  </g>
  <g id="axes_1">
   <g id="patch_2">
    <path d="M 62.0465 348.903 
L 339.485771 348.903 
L 339.485771 65.777657 
L 62.0465 65.777657 
z
" style="fill:#ffffff;"/>
   </g>
   <g id="matplotlib.axis_1">
    <g id="xtick_1">
     <g id="line2d_1">
      <defs>
       <path d="M 0 0 
L 0 0 
" id="m0c97fd6c50" style="stroke:#262626;stroke-width:1.6;"/>
      </defs>
      <g>
       <use style="fill:#262626;stroke:#262626;stroke-width:1.6;" x="62.0465" xlink:href="#m0c97fd6c50" y="348.903"/>
      </g>
     </g>
     <g id="text_1">
      <!-- 0 -->
      <defs>
       <path d="M 51.703125 34.421875 
Q 51.703125 24.515625 49.828125 17.75 
Q 47.953125 10.984375 44.703125 6.8125 
Q 41.453125 2.640625 37.0625 0.828125 
Q 32.671875 -0.984375 27.6875 -0.984375 
Q 22.65625 -0.984375 18.3125 0.828125 
Q 13.96875 2.640625 10.765625 6.78125 
Q 7.5625 10.9375 5.734375 17.703125 
Q 3.90625 24.46875 3.90625 34.421875 
Q 3.90625 44.828125 5.734375 51.640625 
Q 7.5625 58.453125 10.78125 62.5 
Q 14.015625 66.546875 18.40625 68.1875 
Q 22.796875 69.828125 27.984375 69.828125 
Q 32.90625 69.828125 37.21875 68.1875 
Q 41.546875 66.546875 44.765625 62.5 
Q 48 58.453125 49.84375 51.640625 
Q 51.703125 44.828125 51.703125 34.421875 
M 42.78125 34.421875 
Q 42.78125 42.625 41.796875 48.0625 
Q 40.828125 53.515625 38.921875 56.765625 
Q 37.015625 60.015625 34.25 61.359375 
Q 31.5 62.703125 27.984375 62.703125 
Q 24.265625 62.703125 21.4375 61.328125 
Q 18.609375 59.96875 16.671875 56.71875 
Q 14.75 53.46875 13.765625 48.015625 
Q 12.796875 42.578125 12.796875 34.421875 
Q 12.796875 26.515625 13.796875 21.09375 
Q 14.796875 15.671875 16.71875 12.375 
Q 18.65625 9.078125 21.4375 7.640625 
Q 24.21875 6.203125 27.78125 6.203125 
Q 31.25 6.203125 34.03125 7.640625 
Q 36.8125 9.078125 38.734375 12.375 
Q 40.671875 15.671875 41.71875 21.09375 
Q 42.78125 26.515625 42.78125 34.421875 
" id="LiberationSans-30"/>
      </defs>
      <g style="fill:#262626;" transform="translate(57.59775 371.698)scale(0.16 -0.16)">
       <use xlink:href="#LiberationSans-30"/>
      </g>
     </g>
    </g>
    <g id="xtick_2">
     <g id="line2d_2">
      <g>
       <use style="fill:#262626;stroke:#262626;stroke-width:1.6;" x="101.680681633" xlink:href="#m0c97fd6c50" y="348.903"/>
      </g>
     </g>
     <g id="text_2">
      <!-- 20 -->
      <defs>
       <path d="M 5.03125 0 
L 5.03125 6.203125 
Q 7.515625 11.921875 11.109375 16.28125 
Q 14.703125 20.65625 18.65625 24.1875 
Q 22.609375 27.734375 26.484375 30.765625 
Q 30.375 33.796875 33.5 36.8125 
Q 36.625 39.84375 38.546875 43.15625 
Q 40.484375 46.484375 40.484375 50.6875 
Q 40.484375 53.609375 39.59375 55.828125 
Q 38.71875 58.0625 37.0625 59.5625 
Q 35.40625 61.078125 33.078125 61.828125 
Q 30.765625 62.59375 27.9375 62.59375 
Q 25.296875 62.59375 22.96875 61.859375 
Q 20.65625 61.140625 18.84375 59.671875 
Q 17.046875 58.203125 15.890625 56.03125 
Q 14.75 53.859375 14.40625 50.984375 
L 5.421875 51.8125 
Q 5.859375 55.515625 7.46875 58.78125 
Q 9.078125 62.0625 11.90625 64.53125 
Q 14.75 67 18.71875 68.40625 
Q 22.703125 69.828125 27.9375 69.828125 
Q 33.0625 69.828125 37.0625 68.609375 
Q 41.0625 67.390625 43.8125 64.984375 
Q 46.578125 62.59375 48.046875 59.078125 
Q 49.515625 55.5625 49.515625 50.984375 
Q 49.515625 47.515625 48.265625 44.390625 
Q 47.015625 41.265625 44.9375 38.421875 
Q 42.875 35.59375 40.140625 32.953125 
Q 37.40625 30.328125 34.421875 27.8125 
Q 31.453125 25.296875 28.421875 22.828125 
Q 25.390625 20.359375 22.71875 17.859375 
Q 20.0625 15.375 17.96875 12.8125 
Q 15.875 10.25 14.703125 7.46875 
L 50.59375 7.46875 
L 50.59375 0 
z
" id="LiberationSans-32"/>
      </defs>
      <g style="fill:#262626;" transform="translate(92.7831816327 371.698)scale(0.16 -0.16)">
       <use xlink:href="#LiberationSans-32"/>
       <use x="55.615234375" xlink:href="#LiberationSans-30"/>
      </g>
     </g>
    </g>
    <g id="xtick_3">
     <g id="line2d_3">
      <g>
       <use style="fill:#262626;stroke:#262626;stroke-width:1.6;" x="141.314863265" xlink:href="#m0c97fd6c50" y="348.903"/>
      </g>
     </g>
     <g id="text_3">
      <!-- 40 -->
      <defs>
       <path d="M 43.015625 15.578125 
L 43.015625 0 
L 34.71875 0 
L 34.71875 15.578125 
L 2.296875 15.578125 
L 2.296875 22.40625 
L 33.796875 68.796875 
L 43.015625 68.796875 
L 43.015625 22.515625 
L 52.6875 22.515625 
L 52.6875 15.578125 
z
M 34.71875 58.890625 
Q 34.625 58.640625 34.234375 57.9375 
Q 33.84375 57.234375 33.34375 56.34375 
Q 32.859375 55.46875 32.34375 54.5625 
Q 31.84375 53.65625 31.453125 53.078125 
L 13.8125 27.09375 
Q 13.578125 26.703125 13.109375 26.0625 
Q 12.640625 25.4375 12.15625 24.78125 
Q 11.671875 24.125 11.171875 23.484375 
Q 10.6875 22.859375 10.40625 22.515625 
L 34.71875 22.515625 
z
" id="LiberationSans-34"/>
      </defs>
      <g style="fill:#262626;" transform="translate(132.417363265 371.698)scale(0.16 -0.16)">
       <use xlink:href="#LiberationSans-34"/>
       <use x="55.615234375" xlink:href="#LiberationSans-30"/>
      </g>
     </g>
    </g>
    <g id="xtick_4">
     <g id="line2d_4">
      <g>
       <use style="fill:#262626;stroke:#262626;stroke-width:1.6;" x="180.949044898" xlink:href="#m0c97fd6c50" y="348.903"/>
      </g>
     </g>
     <g id="text_4">
      <!-- 60 -->
      <defs>
       <path d="M 51.21875 22.515625 
Q 51.21875 17.328125 49.78125 13 
Q 48.34375 8.6875 45.53125 5.578125 
Q 42.71875 2.484375 38.5625 0.75 
Q 34.421875 -0.984375 29 -0.984375 
Q 23 -0.984375 18.5 1.3125 
Q 14.015625 3.609375 11.03125 7.921875 
Q 8.0625 12.25 6.5625 18.53125 
Q 5.078125 24.8125 5.078125 32.8125 
Q 5.078125 42 6.765625 48.921875 
Q 8.453125 55.859375 11.625 60.5 
Q 14.796875 65.140625 19.359375 67.484375 
Q 23.921875 69.828125 29.6875 69.828125 
Q 33.203125 69.828125 36.28125 69.09375 
Q 39.359375 68.359375 41.875 66.71875 
Q 44.390625 65.09375 46.28125 62.40625 
Q 48.1875 59.71875 49.3125 55.8125 
L 40.921875 54.296875 
Q 39.546875 58.734375 36.546875 60.71875 
Q 33.546875 62.703125 29.59375 62.703125 
Q 25.984375 62.703125 23.046875 60.984375 
Q 20.125 59.28125 18.0625 55.875 
Q 16.015625 52.484375 14.90625 47.359375 
Q 13.8125 42.234375 13.8125 35.40625 
Q 16.21875 39.84375 20.5625 42.15625 
Q 24.90625 44.484375 30.515625 44.484375 
Q 35.203125 44.484375 39.015625 42.96875 
Q 42.828125 41.453125 45.53125 38.59375 
Q 48.25 35.75 49.734375 31.671875 
Q 51.21875 27.59375 51.21875 22.515625 
M 42.28125 22.125 
Q 42.28125 25.6875 41.40625 28.5625 
Q 40.53125 31.453125 38.765625 33.46875 
Q 37.015625 35.5 34.421875 36.59375 
Q 31.84375 37.703125 28.421875 37.703125 
Q 26.03125 37.703125 23.578125 36.984375 
Q 21.140625 36.28125 19.15625 34.6875 
Q 17.1875 33.109375 15.9375 30.515625 
Q 14.703125 27.9375 14.703125 24.21875 
Q 14.703125 20.40625 15.671875 17.109375 
Q 16.65625 13.8125 18.484375 11.375 
Q 20.3125 8.9375 22.890625 7.515625 
Q 25.484375 6.109375 28.71875 6.109375 
Q 31.890625 6.109375 34.40625 7.203125 
Q 36.921875 8.296875 38.671875 10.375 
Q 40.4375 12.453125 41.359375 15.421875 
Q 42.28125 18.40625 42.28125 22.125 
" id="LiberationSans-36"/>
      </defs>
      <g style="fill:#262626;" transform="translate(172.051544898 371.698)scale(0.16 -0.16)">
       <use xlink:href="#LiberationSans-36"/>
       <use x="55.615234375" xlink:href="#LiberationSans-30"/>
      </g>
     </g>
    </g>
    <g id="xtick_5">
     <g id="line2d_5">
      <g>
       <use style="fill:#262626;stroke:#262626;stroke-width:1.6;" x="220.583226531" xlink:href="#m0c97fd6c50" y="348.903"/>
      </g>
     </g>
     <g id="text_5">
      <!-- 80 -->
      <defs>
       <path d="M 51.265625 19.1875 
Q 51.265625 14.796875 49.875 11.109375 
Q 48.484375 7.421875 45.625 4.734375 
Q 42.78125 2.046875 38.328125 0.53125 
Q 33.890625 -0.984375 27.828125 -0.984375 
Q 21.78125 -0.984375 17.359375 0.53125 
Q 12.9375 2.046875 10.03125 4.703125 
Q 7.125 7.375 5.734375 11.0625 
Q 4.34375 14.75 4.34375 19.09375 
Q 4.34375 22.859375 5.484375 25.78125 
Q 6.640625 28.71875 8.5625 30.828125 
Q 10.5 32.953125 12.96875 34.25 
Q 15.4375 35.546875 18.0625 35.984375 
L 18.0625 36.1875 
Q 15.1875 36.859375 12.90625 38.375 
Q 10.640625 39.890625 9.09375 42.015625 
Q 7.5625 44.140625 6.75 46.71875 
Q 5.953125 49.3125 5.953125 52.203125 
Q 5.953125 55.8125 7.34375 59 
Q 8.734375 62.203125 11.46875 64.625 
Q 14.203125 67.046875 18.25 68.4375 
Q 22.3125 69.828125 27.640625 69.828125 
Q 33.25 69.828125 37.375 68.40625 
Q 41.5 67 44.203125 64.578125 
Q 46.921875 62.15625 48.234375 58.9375 
Q 49.5625 55.71875 49.5625 52.09375 
Q 49.5625 49.265625 48.75 46.671875 
Q 47.953125 44.09375 46.40625 41.96875 
Q 44.875 39.84375 42.59375 38.34375 
Q 40.328125 36.859375 37.359375 36.28125 
L 37.359375 36.078125 
Q 40.328125 35.59375 42.859375 34.296875 
Q 45.40625 33.015625 47.265625 30.890625 
Q 49.125 28.765625 50.1875 25.828125 
Q 51.265625 22.90625 51.265625 19.1875 
M 40.4375 51.609375 
Q 40.4375 54.203125 39.765625 56.34375 
Q 39.109375 58.5 37.59375 60.03125 
Q 36.078125 61.578125 33.640625 62.421875 
Q 31.203125 63.28125 27.640625 63.28125 
Q 24.171875 63.28125 21.78125 62.421875 
Q 19.390625 61.578125 17.84375 60.03125 
Q 16.3125 58.5 15.625 56.34375 
Q 14.9375 54.203125 14.9375 51.609375 
Q 14.9375 49.5625 15.46875 47.40625 
Q 16.015625 45.265625 17.421875 43.5 
Q 18.84375 41.75 21.328125 40.625 
Q 23.828125 39.5 27.734375 39.5 
Q 31.890625 39.5 34.40625 40.625 
Q 36.921875 41.75 38.25 43.5 
Q 39.59375 45.265625 40.015625 47.40625 
Q 40.4375 49.5625 40.4375 51.609375 
M 42.140625 20.015625 
Q 42.140625 22.515625 41.453125 24.828125 
Q 40.765625 27.15625 39.109375 28.9375 
Q 37.453125 30.71875 34.640625 31.8125 
Q 31.84375 32.90625 27.640625 32.90625 
Q 23.78125 32.90625 21.0625 31.8125 
Q 18.359375 30.71875 16.671875 28.90625 
Q 14.984375 27.09375 14.203125 24.71875 
Q 13.421875 22.359375 13.421875 19.828125 
Q 13.421875 16.65625 14.203125 14.03125 
Q 14.984375 11.421875 16.6875 9.546875 
Q 18.40625 7.671875 21.1875 6.640625 
Q 23.96875 5.609375 27.9375 5.609375 
Q 31.9375 5.609375 34.671875 6.640625 
Q 37.40625 7.671875 39.0625 9.546875 
Q 40.71875 11.421875 41.421875 14.078125 
Q 42.140625 16.75 42.140625 20.015625 
" id="LiberationSans-38"/>
      </defs>
      <g style="fill:#262626;" transform="translate(211.685726531 371.698)scale(0.16 -0.16)">
       <use xlink:href="#LiberationSans-38"/>
       <use x="55.615234375" xlink:href="#LiberationSans-30"/>
      </g>
     </g>
    </g>
    <g id="xtick_6">
     <g id="line2d_6">
      <g>
       <use style="fill:#262626;stroke:#262626;stroke-width:1.6;" x="260.217408163" xlink:href="#m0c97fd6c50" y="348.903"/>
      </g>
     </g>
     <g id="text_6">
      <!-- 100 -->
      <defs>
       <path d="M 7.625 0 
L 7.625 7.46875 
L 25.140625 7.46875 
L 25.140625 60.40625 
L 9.625 49.3125 
L 9.625 57.625 
L 25.875 68.796875 
L 33.984375 68.796875 
L 33.984375 7.46875 
L 50.734375 7.46875 
L 50.734375 0 
z
" id="LiberationSans-31"/>
      </defs>
      <g style="fill:#262626;" transform="translate(246.871158163 371.698)scale(0.16 -0.16)">
       <use xlink:href="#LiberationSans-31"/>
       <use x="55.615234375" xlink:href="#LiberationSans-30"/>
       <use x="111.23046875" xlink:href="#LiberationSans-30"/>
      </g>
     </g>
    </g>
    <g id="xtick_7">
     <g id="line2d_7">
      <g>
       <use style="fill:#262626;stroke:#262626;stroke-width:1.6;" x="299.851589796" xlink:href="#m0c97fd6c50" y="348.903"/>
      </g>
     </g>
     <g id="text_7">
      <!-- 120 -->
      <g style="fill:#262626;" transform="translate(286.505339796 371.698)scale(0.16 -0.16)">
       <use xlink:href="#LiberationSans-31"/>
       <use x="55.615234375" xlink:href="#LiberationSans-32"/>
       <use x="111.23046875" xlink:href="#LiberationSans-30"/>
      </g>
     </g>
    </g>
    <g id="xtick_8">
     <g id="line2d_8">
      <g>
       <use style="fill:#262626;stroke:#262626;stroke-width:1.6;" x="339.485771429" xlink:href="#m0c97fd6c50" y="348.903"/>
      </g>
     </g>
     <g id="text_8">
      <!-- 140 -->
      <g style="fill:#262626;" transform="translate(326.139521429 371.698)scale(0.16 -0.16)">
       <use xlink:href="#LiberationSans-31"/>
       <use x="55.615234375" xlink:href="#LiberationSans-34"/>
       <use x="111.23046875" xlink:href="#LiberationSans-30"/>
      </g>
     </g>
    </g>
    <g id="text_9">
     <!-- SRS -->
     <defs>
      <path d="M 62.109375 19 
Q 62.109375 14.65625 60.421875 10.984375 
Q 58.734375 7.328125 55.21875 4.65625 
Q 51.703125 2 46.359375 0.5 
Q 41.015625 -0.984375 33.6875 -0.984375 
Q 20.84375 -0.984375 13.671875 3.515625 
Q 6.5 8.015625 4.546875 16.5 
L 13.578125 18.3125 
Q 14.265625 15.625 15.671875 13.421875 
Q 17.09375 11.234375 19.5 9.640625 
Q 21.921875 8.0625 25.484375 7.171875 
Q 29.046875 6.296875 34.03125 6.296875 
Q 38.1875 6.296875 41.65625 7 
Q 45.125 7.71875 47.609375 9.171875 
Q 50.09375 10.640625 51.484375 12.953125 
Q 52.875 15.28125 52.875 18.5 
Q 52.875 21.875 51.34375 23.96875 
Q 49.8125 26.078125 47.015625 27.4375 
Q 44.234375 28.8125 40.375 29.734375 
Q 36.53125 30.671875 31.84375 31.734375 
Q 28.953125 32.375 26.046875 33.125 
Q 23.140625 33.890625 20.484375 34.9375 
Q 17.828125 35.984375 15.484375 37.390625 
Q 13.140625 38.8125 11.421875 40.796875 
Q 9.71875 42.78125 8.734375 45.390625 
Q 7.765625 48 7.765625 51.421875 
Q 7.765625 56.296875 9.734375 59.78125 
Q 11.71875 63.28125 15.234375 65.53125 
Q 18.75 67.78125 23.53125 68.796875 
Q 28.328125 69.828125 33.890625 69.828125 
Q 40.28125 69.828125 44.8125 68.828125 
Q 49.359375 67.828125 52.484375 65.8125 
Q 55.609375 63.8125 57.484375 60.859375 
Q 59.375 57.90625 60.5 54 
L 51.3125 52.390625 
Q 50.640625 54.890625 49.34375 56.84375 
Q 48.046875 58.796875 45.9375 60.109375 
Q 43.84375 61.421875 40.84375 62.109375 
Q 37.84375 62.796875 33.796875 62.796875 
Q 29 62.796875 25.75 61.9375 
Q 22.515625 61.078125 20.53125 59.609375 
Q 18.5625 58.15625 17.703125 56.171875 
Q 16.84375 54.203125 16.84375 51.90625 
Q 16.84375 48.828125 18.375 46.84375 
Q 19.921875 44.875 22.5625 43.546875 
Q 25.203125 42.234375 28.65625 41.359375 
Q 32.125 40.484375 36.03125 39.59375 
Q 39.203125 38.875 42.359375 38.109375 
Q 45.515625 37.359375 48.390625 36.296875 
Q 51.265625 35.25 53.78125 33.828125 
Q 56.296875 32.421875 58.15625 30.375 
Q 60.015625 28.328125 61.0625 25.53125 
Q 62.109375 22.75 62.109375 19 
" id="LiberationSans-53"/>
      <path d="M 56.84375 0 
L 38.96875 28.5625 
L 17.53125 28.5625 
L 17.53125 0 
L 8.203125 0 
L 8.203125 68.796875 
L 40.578125 68.796875 
Q 46.4375 68.796875 50.953125 67.453125 
Q 55.46875 66.109375 58.546875 63.5625 
Q 61.625 61.03125 63.234375 57.375 
Q 64.84375 53.71875 64.84375 49.125 
Q 64.84375 45.84375 63.890625 42.671875 
Q 62.9375 39.5 60.890625 36.859375 
Q 58.84375 34.234375 55.65625 32.328125 
Q 52.484375 30.421875 48.046875 29.640625 
L 67.578125 0 
z
M 55.46875 49.03125 
Q 55.46875 52.15625 54.390625 54.4375 
Q 53.328125 56.734375 51.265625 58.265625 
Q 49.21875 59.8125 46.28125 60.5625 
Q 43.359375 61.328125 39.65625 61.328125 
L 17.53125 61.328125 
L 17.53125 35.9375 
L 40.046875 35.9375 
Q 44.046875 35.9375 46.96875 36.9375 
Q 49.90625 37.9375 51.78125 39.6875 
Q 53.65625 41.453125 54.5625 43.84375 
Q 55.46875 46.234375 55.46875 49.03125 
" id="LiberationSans-52"/>
     </defs>
     <g style="fill:#262626;" transform="translate(182.671135714 392.7725)scale(0.176 -0.176)">
      <use xlink:href="#LiberationSans-53"/>
      <use x="66.69921875" xlink:href="#LiberationSans-52"/>
      <use x="138.916015625" xlink:href="#LiberationSans-53"/>
     </g>
    </g>
   </g>
   <g id="matplotlib.axis_2">
    <g id="ytick_1">
     <g id="line2d_9">
      <g>
       <use style="fill:#262626;stroke:#262626;stroke-width:1.6;" x="62.0465" xlink:href="#m0c97fd6c50" y="348.903"/>
      </g>
     </g>
     <g id="text_10">
      <!-- 0.0 -->
      <defs>
       <path d="M 9.125 0 
L 9.125 10.6875 
L 18.65625 10.6875 
L 18.65625 0 
z
" id="LiberationSans-2e"/>
      </defs>
      <g style="fill:#262626;" transform="translate(28.6065 353.0405)scale(0.16 -0.16)">
       <use xlink:href="#LiberationSans-30"/>
       <use x="55.615234375" xlink:href="#LiberationSans-2e"/>
       <use x="83.3984375" xlink:href="#LiberationSans-30"/>
      </g>
     </g>
    </g>
    <g id="ytick_2">
     <g id="line2d_10">
      <g>
       <use style="fill:#262626;stroke:#262626;stroke-width:1.6;" x="62.0465" xlink:href="#m0c97fd6c50" y="317.444628571"/>
      </g>
     </g>
     <g id="text_11">
      <!-- 0.1 -->
      <g style="fill:#262626;" transform="translate(28.6065 321.582128571)scale(0.16 -0.16)">
       <use xlink:href="#LiberationSans-30"/>
       <use x="55.615234375" xlink:href="#LiberationSans-2e"/>
       <use x="83.3984375" xlink:href="#LiberationSans-31"/>
      </g>
     </g>
    </g>
    <g id="ytick_3">
     <g id="line2d_11">
      <g>
       <use style="fill:#262626;stroke:#262626;stroke-width:1.6;" x="62.0465" xlink:href="#m0c97fd6c50" y="285.986257143"/>
      </g>
     </g>
     <g id="text_12">
      <!-- 0.2 -->
      <g style="fill:#262626;" transform="translate(28.6065 290.123757143)scale(0.16 -0.16)">
       <use xlink:href="#LiberationSans-30"/>
       <use x="55.615234375" xlink:href="#LiberationSans-2e"/>
       <use x="83.3984375" xlink:href="#LiberationSans-32"/>
      </g>
     </g>
    </g>
    <g id="ytick_4">
     <g id="line2d_12">
      <g>
       <use style="fill:#262626;stroke:#262626;stroke-width:1.6;" x="62.0465" xlink:href="#m0c97fd6c50" y="254.527885714"/>
      </g>
     </g>
     <g id="text_13">
      <!-- 0.3 -->
      <defs>
       <path d="M 51.21875 19 
Q 51.21875 14.265625 49.671875 10.546875 
Q 48.140625 6.84375 45.1875 4.265625 
Q 42.234375 1.703125 37.859375 0.359375 
Q 33.5 -0.984375 27.875 -0.984375 
Q 21.484375 -0.984375 17.109375 0.609375 
Q 12.75 2.203125 9.90625 4.8125 
Q 7.078125 7.421875 5.65625 10.765625 
Q 4.25 14.109375 3.8125 17.671875 
L 12.890625 18.5 
Q 13.28125 15.765625 14.328125 13.515625 
Q 15.375 11.28125 17.1875 9.671875 
Q 19 8.0625 21.625 7.171875 
Q 24.265625 6.296875 27.875 6.296875 
Q 34.515625 6.296875 38.296875 9.5625 
Q 42.09375 12.84375 42.09375 19.28125 
Q 42.09375 23.09375 40.40625 25.40625 
Q 38.71875 27.734375 36.203125 29.03125 
Q 33.6875 30.328125 30.734375 30.765625 
Q 27.78125 31.203125 25.296875 31.203125 
L 20.3125 31.203125 
L 20.3125 38.8125 
L 25.09375 38.8125 
Q 27.59375 38.8125 30.265625 39.328125 
Q 32.953125 39.84375 35.171875 41.1875 
Q 37.40625 42.53125 38.84375 44.828125 
Q 40.28125 47.125 40.28125 50.6875 
Q 40.28125 56.203125 37.03125 59.390625 
Q 33.796875 62.59375 27.390625 62.59375 
Q 21.578125 62.59375 17.984375 59.609375 
Q 14.40625 56.640625 13.8125 51.21875 
L 4.984375 51.90625 
Q 5.515625 56.453125 7.46875 59.8125 
Q 9.421875 63.1875 12.421875 65.40625 
Q 15.4375 67.625 19.28125 68.71875 
Q 23.140625 69.828125 27.484375 69.828125 
Q 33.25 69.828125 37.390625 68.375 
Q 41.546875 66.9375 44.1875 64.46875 
Q 46.828125 62.015625 48.0625 58.6875 
Q 49.3125 55.375 49.3125 51.609375 
Q 49.3125 48.578125 48.484375 45.9375 
Q 47.65625 43.3125 45.890625 41.203125 
Q 44.140625 39.109375 41.421875 37.59375 
Q 38.71875 36.078125 34.90625 35.296875 
L 34.90625 35.109375 
Q 39.0625 34.671875 42.140625 33.21875 
Q 45.21875 31.78125 47.21875 29.625 
Q 49.21875 27.484375 50.21875 24.75 
Q 51.21875 22.015625 51.21875 19 
" id="LiberationSans-33"/>
      </defs>
      <g style="fill:#262626;" transform="translate(28.6065 258.665385714)scale(0.16 -0.16)">
       <use xlink:href="#LiberationSans-30"/>
       <use x="55.615234375" xlink:href="#LiberationSans-2e"/>
       <use x="83.3984375" xlink:href="#LiberationSans-33"/>
      </g>
     </g>
    </g>
    <g id="ytick_5">
     <g id="line2d_13">
      <g>
       <use style="fill:#262626;stroke:#262626;stroke-width:1.6;" x="62.0465" xlink:href="#m0c97fd6c50" y="223.069514286"/>
      </g>
     </g>
     <g id="text_14">
      <!-- 0.4 -->
      <g style="fill:#262626;" transform="translate(28.6065 227.207014286)scale(0.16 -0.16)">
       <use xlink:href="#LiberationSans-30"/>
       <use x="55.615234375" xlink:href="#LiberationSans-2e"/>
       <use x="83.3984375" xlink:href="#LiberationSans-34"/>
      </g>
     </g>
    </g>
    <g id="ytick_6">
     <g id="line2d_14">
      <g>
       <use style="fill:#262626;stroke:#262626;stroke-width:1.6;" x="62.0465" xlink:href="#m0c97fd6c50" y="191.611142857"/>
      </g>
     </g>
     <g id="text_15">
      <!-- 0.5 -->
      <defs>
       <path d="M 51.421875 22.40625 
Q 51.421875 17.234375 49.859375 12.9375 
Q 48.296875 8.640625 45.21875 5.53125 
Q 42.140625 2.4375 37.578125 0.71875 
Q 33.015625 -0.984375 27 -0.984375 
Q 21.578125 -0.984375 17.546875 0.28125 
Q 13.53125 1.5625 10.734375 3.78125 
Q 7.953125 6 6.3125 8.984375 
Q 4.6875 11.96875 4 15.375 
L 12.890625 16.40625 
Q 13.421875 14.453125 14.390625 12.625 
Q 15.375 10.796875 17.0625 9.34375 
Q 18.75 7.90625 21.21875 7.046875 
Q 23.6875 6.203125 27.203125 6.203125 
Q 30.609375 6.203125 33.390625 7.25 
Q 36.1875 8.296875 38.15625 10.34375 
Q 40.140625 12.40625 41.203125 15.375 
Q 42.28125 18.359375 42.28125 22.21875 
Q 42.28125 25.390625 41.25 28.046875 
Q 40.234375 30.71875 38.328125 32.640625 
Q 36.421875 34.578125 33.65625 35.640625 
Q 30.90625 36.71875 27.390625 36.71875 
Q 25.203125 36.71875 23.34375 36.328125 
Q 21.484375 35.9375 19.890625 35.25 
Q 18.3125 34.578125 17.015625 33.671875 
Q 15.71875 32.765625 14.59375 31.78125 
L 6 31.78125 
L 8.296875 68.796875 
L 47.40625 68.796875 
L 47.40625 61.328125 
L 16.3125 61.328125 
L 14.984375 39.5 
Q 17.328125 41.3125 20.84375 42.59375 
Q 24.359375 43.890625 29.203125 43.890625 
Q 34.328125 43.890625 38.421875 42.328125 
Q 42.53125 40.765625 45.40625 37.90625 
Q 48.296875 35.0625 49.859375 31.109375 
Q 51.421875 27.15625 51.421875 22.40625 
" id="LiberationSans-35"/>
      </defs>
      <g style="fill:#262626;" transform="translate(28.6065 195.748642857)scale(0.16 -0.16)">
       <use xlink:href="#LiberationSans-30"/>
       <use x="55.615234375" xlink:href="#LiberationSans-2e"/>
       <use x="83.3984375" xlink:href="#LiberationSans-35"/>
      </g>
     </g>
    </g>
    <g id="ytick_7">
     <g id="line2d_15">
      <g>
       <use style="fill:#262626;stroke:#262626;stroke-width:1.6;" x="62.0465" xlink:href="#m0c97fd6c50" y="160.152771429"/>
      </g>
     </g>
     <g id="text_16">
      <!-- 0.6 -->
      <g style="fill:#262626;" transform="translate(28.6065 164.290271429)scale(0.16 -0.16)">
       <use xlink:href="#LiberationSans-30"/>
       <use x="55.615234375" xlink:href="#LiberationSans-2e"/>
       <use x="83.3984375" xlink:href="#LiberationSans-36"/>
      </g>
     </g>
    </g>
    <g id="ytick_8">
     <g id="line2d_16">
      <g>
       <use style="fill:#262626;stroke:#262626;stroke-width:1.6;" x="62.0465" xlink:href="#m0c97fd6c50" y="128.6944"/>
      </g>
     </g>
     <g id="text_17">
      <!-- 0.7 -->
      <defs>
       <path d="M 50.59375 61.671875 
Q 45.40625 53.765625 41.0625 46.453125 
Q 36.71875 39.15625 33.59375 31.75 
Q 30.46875 24.359375 28.734375 16.578125 
Q 27 8.796875 27 0 
L 17.828125 0 
Q 17.828125 8.25 19.78125 16.1875 
Q 21.734375 24.125 25.046875 31.765625 
Q 28.375 39.40625 32.765625 46.78125 
Q 37.15625 54.15625 42.09375 61.328125 
L 5.125 61.328125 
L 5.125 68.796875 
L 50.59375 68.796875 
z
" id="LiberationSans-37"/>
      </defs>
      <g style="fill:#262626;" transform="translate(28.6065 132.8319)scale(0.16 -0.16)">
       <use xlink:href="#LiberationSans-30"/>
       <use x="55.615234375" xlink:href="#LiberationSans-2e"/>
       <use x="83.3984375" xlink:href="#LiberationSans-37"/>
      </g>
     </g>
    </g>
    <g id="ytick_9">
     <g id="line2d_17">
      <g>
       <use style="fill:#262626;stroke:#262626;stroke-width:1.6;" x="62.0465" xlink:href="#m0c97fd6c50" y="97.2360285714"/>
      </g>
     </g>
     <g id="text_18">
      <!-- 0.8 -->
      <g style="fill:#262626;" transform="translate(28.6065 101.373528571)scale(0.16 -0.16)">
       <use xlink:href="#LiberationSans-30"/>
       <use x="55.615234375" xlink:href="#LiberationSans-2e"/>
       <use x="83.3984375" xlink:href="#LiberationSans-38"/>
      </g>
     </g>
    </g>
    <g id="ytick_10">
     <g id="line2d_18">
      <g>
       <use style="fill:#262626;stroke:#262626;stroke-width:1.6;" x="62.0465" xlink:href="#m0c97fd6c50" y="65.7776571429"/>
      </g>
     </g>
     <g id="text_19">
      <!-- 0.9 -->
      <defs>
       <path d="M 50.875 35.796875 
Q 50.875 26.609375 49.140625 19.703125 
Q 47.40625 12.796875 44.1875 8.203125 
Q 40.96875 3.609375 36.34375 1.3125 
Q 31.734375 -0.984375 25.984375 -0.984375 
Q 22.015625 -0.984375 18.84375 -0.171875 
Q 15.671875 0.640625 13.171875 2.34375 
Q 10.6875 4.046875 8.921875 6.78125 
Q 7.171875 9.515625 6.109375 13.375 
L 14.5 14.703125 
Q 15.875 10.25 18.78125 8.171875 
Q 21.6875 6.109375 26.125 6.109375 
Q 29.6875 6.109375 32.640625 7.78125 
Q 35.59375 9.46875 37.671875 12.84375 
Q 39.75 16.21875 40.921875 21.296875 
Q 42.09375 26.375 42.1875 33.203125 
Q 41.15625 30.90625 39.375 29.09375 
Q 37.59375 27.296875 35.328125 26.046875 
Q 33.0625 24.8125 30.421875 24.140625 
Q 27.78125 23.484375 25.09375 23.484375 
Q 20.40625 23.484375 16.625 25.171875 
Q 12.84375 26.859375 10.203125 29.875 
Q 7.5625 32.90625 6.125 37.171875 
Q 4.6875 41.453125 4.6875 46.6875 
Q 4.6875 52 6.21875 56.296875 
Q 7.765625 60.59375 10.6875 63.59375 
Q 13.625 66.609375 17.890625 68.21875 
Q 22.171875 69.828125 27.59375 69.828125 
Q 39.0625 69.828125 44.96875 61.328125 
Q 50.875 52.828125 50.875 35.796875 
M 41.3125 44.28125 
Q 41.3125 48.09375 40.40625 51.453125 
Q 39.5 54.828125 37.71875 57.3125 
Q 35.9375 59.8125 33.328125 61.25 
Q 30.71875 62.703125 27.296875 62.703125 
Q 24.125 62.703125 21.578125 61.578125 
Q 19.046875 60.453125 17.28125 58.375 
Q 15.53125 56.296875 14.578125 53.3125 
Q 13.625 50.34375 13.625 46.6875 
Q 13.625 43.21875 14.46875 40.234375 
Q 15.328125 37.25 17.03125 35.078125 
Q 18.75 32.90625 21.28125 31.65625 
Q 23.828125 30.421875 27.203125 30.421875 
Q 29.640625 30.421875 32.15625 31.25 
Q 34.671875 32.078125 36.6875 33.78125 
Q 38.71875 35.5 40.015625 38.109375 
Q 41.3125 40.71875 41.3125 44.28125 
" id="LiberationSans-39"/>
      </defs>
      <g style="fill:#262626;" transform="translate(28.6065 69.9151571429)scale(0.16 -0.16)">
       <use xlink:href="#LiberationSans-30"/>
       <use x="55.615234375" xlink:href="#LiberationSans-2e"/>
       <use x="83.3984375" xlink:href="#LiberationSans-39"/>
      </g>
     </g>
    </g>
    <g id="text_20">
     <!-- Difference score -->
     <defs>
      <path d="M 46.390625 14.59375 
Q 46.390625 10.890625 44.9375 7.984375 
Q 43.5 5.078125 40.765625 3.09375 
Q 38.03125 1.125 34.046875 0.0625 
Q 30.078125 -0.984375 24.953125 -0.984375 
Q 20.359375 -0.984375 16.671875 -0.265625 
Q 12.984375 0.4375 10.203125 2 
Q 7.421875 3.5625 5.53125 6.125 
Q 3.65625 8.6875 2.78125 12.40625 
L 10.546875 13.921875 
Q 11.671875 9.671875 15.1875 7.6875 
Q 18.703125 5.71875 24.953125 5.71875 
Q 27.78125 5.71875 30.140625 6.109375 
Q 32.515625 6.5 34.21875 7.453125 
Q 35.9375 8.40625 36.890625 9.984375 
Q 37.84375 11.578125 37.84375 13.921875 
Q 37.84375 16.3125 36.71875 17.84375 
Q 35.59375 19.390625 33.59375 20.40625 
Q 31.59375 21.4375 28.734375 22.1875 
Q 25.875 22.953125 22.46875 23.875 
Q 19.28125 24.703125 16.15625 25.734375 
Q 13.03125 26.765625 10.515625 28.4375 
Q 8.015625 30.125 6.453125 32.609375 
Q 4.890625 35.109375 4.890625 38.875 
Q 4.890625 46.09375 10.03125 49.875 
Q 15.1875 53.65625 25.046875 53.65625 
Q 33.796875 53.65625 38.9375 50.578125 
Q 44.09375 47.515625 45.453125 40.71875 
L 37.546875 39.75 
Q 37.109375 41.796875 35.9375 43.1875 
Q 34.765625 44.578125 33.109375 45.4375 
Q 31.453125 46.296875 29.375 46.65625 
Q 27.296875 47.015625 25.046875 47.015625 
Q 19.09375 47.015625 16.25 45.203125 
Q 13.421875 43.40625 13.421875 39.75 
Q 13.421875 37.59375 14.46875 36.203125 
Q 15.53125 34.8125 17.40625 33.859375 
Q 19.28125 32.90625 21.921875 32.203125 
Q 24.5625 31.5 27.734375 30.71875 
Q 29.828125 30.171875 32.03125 29.5625 
Q 34.234375 28.953125 36.296875 28.09375 
Q 38.375 27.25 40.203125 26.09375 
Q 42.046875 24.953125 43.40625 23.34375 
Q 44.78125 21.734375 45.578125 19.578125 
Q 46.390625 17.4375 46.390625 14.59375 
" id="LiberationSans-73"/>
      <path d="M 13.484375 24.5625 
Q 13.484375 20.40625 14.328125 16.90625 
Q 15.1875 13.421875 16.96875 10.90625 
Q 18.75 8.40625 21.53125 7 
Q 24.3125 5.609375 28.21875 5.609375 
Q 33.9375 5.609375 37.375 7.90625 
Q 40.828125 10.203125 42.046875 13.71875 
L 49.75 11.53125 
Q 48.921875 9.328125 47.4375 7.109375 
Q 45.953125 4.890625 43.453125 3.09375 
Q 40.96875 1.3125 37.234375 0.15625 
Q 33.5 -0.984375 28.21875 -0.984375 
Q 16.5 -0.984375 10.375 6 
Q 4.25 12.984375 4.25 26.765625 
Q 4.25 34.1875 6.09375 39.328125 
Q 7.953125 44.484375 11.171875 47.703125 
Q 14.40625 50.921875 18.703125 52.359375 
Q 23 53.8125 27.875 53.8125 
Q 34.515625 53.8125 38.984375 51.65625 
Q 43.453125 49.515625 46.15625 45.71875 
Q 48.875 41.9375 50.015625 36.8125 
Q 51.171875 31.6875 51.171875 25.734375 
L 51.171875 24.5625 
z
M 42.09375 31.296875 
Q 41.359375 39.65625 37.84375 43.484375 
Q 34.328125 47.3125 27.734375 47.3125 
Q 25.53125 47.3125 23.109375 46.609375 
Q 20.703125 45.90625 18.65625 44.09375 
Q 16.609375 42.28125 15.1875 39.171875 
Q 13.765625 36.078125 13.578125 31.296875 
z
" id="LiberationSans-65"/>
      <path d="M 17.625 46.4375 
L 17.625 0 
L 8.84375 0 
L 8.84375 46.4375 
L 1.421875 46.4375 
L 1.421875 52.828125 
L 8.84375 52.828125 
L 8.84375 58.796875 
Q 8.84375 61.671875 9.375 64.140625 
Q 9.90625 66.609375 11.34375 68.4375 
Q 12.796875 70.265625 15.28125 71.3125 
Q 17.78125 72.359375 21.734375 72.359375 
Q 23.296875 72.359375 24.96875 72.21875 
Q 26.65625 72.078125 27.9375 71.78125 
L 27.9375 65.09375 
Q 27.09375 65.234375 26 65.359375 
Q 24.90625 65.484375 24.03125 65.484375 
Q 22.078125 65.484375 20.828125 64.9375 
Q 19.578125 64.40625 18.875 63.40625 
Q 18.171875 62.40625 17.890625 60.9375 
Q 17.625 59.46875 17.625 57.5625 
L 17.625 52.828125 
L 27.9375 52.828125 
L 27.9375 46.4375 
z
" id="LiberationSans-66"/>
      <path d="M 6.9375 0 
L 6.9375 40.53125 
Q 6.9375 42.1875 6.90625 43.921875 
Q 6.890625 45.65625 6.828125 47.265625 
Q 6.78125 48.875 6.734375 50.28125 
Q 6.6875 51.703125 6.640625 52.828125 
L 14.9375 52.828125 
Q 14.984375 51.703125 15.0625 50.265625 
Q 15.140625 48.828125 15.203125 47.3125 
Q 15.28125 45.796875 15.296875 44.40625 
Q 15.328125 43.015625 15.328125 42.046875 
L 15.53125 42.046875 
Q 16.453125 45.0625 17.5 47.28125 
Q 18.5625 49.515625 19.96875 50.953125 
Q 21.390625 52.390625 23.34375 53.09375 
Q 25.296875 53.8125 28.078125 53.8125 
Q 29.15625 53.8125 30.125 53.640625 
Q 31.109375 53.46875 31.640625 53.328125 
L 31.640625 45.265625 
Q 30.765625 45.515625 29.59375 45.625 
Q 28.421875 45.75 26.953125 45.75 
Q 23.921875 45.75 21.796875 44.375 
Q 19.671875 43.015625 18.328125 40.59375 
Q 17 38.1875 16.359375 34.84375 
Q 15.71875 31.5 15.71875 27.546875 
L 15.71875 0 
z
" id="LiberationSans-72"/>
      <path d="M 13.421875 26.65625 
Q 13.421875 22.125 14.078125 18.3125 
Q 14.75 14.5 16.3125 11.734375 
Q 17.875 8.984375 20.4375 7.46875 
Q 23 5.953125 26.765625 5.953125 
Q 31.453125 5.953125 34.59375 8.484375 
Q 37.75 11.03125 38.484375 16.3125 
L 47.359375 15.71875 
Q 46.921875 12.453125 45.453125 9.421875 
Q 44 6.390625 41.484375 4.09375 
Q 38.96875 1.8125 35.34375 0.40625 
Q 31.734375 -0.984375 27 -0.984375 
Q 20.796875 -0.984375 16.453125 1.109375 
Q 12.109375 3.21875 9.390625 6.90625 
Q 6.6875 10.59375 5.46875 15.59375 
Q 4.25 20.609375 4.25 26.46875 
Q 4.25 31.78125 5.125 35.859375 
Q 6 39.9375 7.59375 42.984375 
Q 9.1875 46.046875 11.328125 48.125 
Q 13.484375 50.203125 15.984375 51.4375 
Q 18.5 52.6875 21.28125 53.25 
Q 24.078125 53.8125 26.90625 53.8125 
Q 31.34375 53.8125 34.8125 52.59375 
Q 38.28125 51.375 40.796875 49.25 
Q 43.3125 47.125 44.875 44.234375 
Q 46.4375 41.359375 47.078125 38.03125 
L 38.03125 37.359375 
Q 37.359375 41.75 34.5625 44.328125 
Q 31.78125 46.921875 26.65625 46.921875 
Q 22.90625 46.921875 20.390625 45.671875 
Q 17.875 44.4375 16.3125 41.921875 
Q 14.75 39.40625 14.078125 35.59375 
Q 13.421875 31.78125 13.421875 26.65625 
" id="LiberationSans-63"/>
      <path d="M 6.6875 64.0625 
L 6.6875 72.46875 
L 15.484375 72.46875 
L 15.484375 64.0625 
z
M 6.6875 0 
L 6.6875 52.828125 
L 15.484375 52.828125 
L 15.484375 0 
z
" id="LiberationSans-69"/>
      <path d="M 40.28125 0 
L 40.28125 33.5 
Q 40.28125 37.359375 39.71875 39.9375 
Q 39.15625 42.53125 37.890625 44.109375 
Q 36.625 45.703125 34.546875 46.359375 
Q 32.46875 47.015625 29.390625 47.015625 
Q 26.265625 47.015625 23.75 45.921875 
Q 21.234375 44.828125 19.453125 42.75 
Q 17.671875 40.671875 16.6875 37.625 
Q 15.71875 34.578125 15.71875 30.609375 
L 15.71875 0 
L 6.9375 0 
L 6.9375 41.546875 
Q 6.9375 43.21875 6.90625 45.046875 
Q 6.890625 46.875 6.828125 48.5 
Q 6.78125 50.140625 6.734375 51.3125 
Q 6.6875 52.484375 6.640625 52.828125 
L 14.9375 52.828125 
Q 14.984375 52.59375 15.03125 51.515625 
Q 15.09375 50.4375 15.15625 49.046875 
Q 15.234375 47.65625 15.28125 46.21875 
Q 15.328125 44.78125 15.328125 43.796875 
L 15.484375 43.796875 
Q 16.75 46.09375 18.265625 47.953125 
Q 19.78125 49.8125 21.78125 51.09375 
Q 23.78125 52.390625 26.359375 53.09375 
Q 28.953125 53.8125 32.375 53.8125 
Q 36.765625 53.8125 39.9375 52.734375 
Q 43.109375 51.65625 45.15625 49.40625 
Q 47.21875 47.171875 48.171875 43.625 
Q 49.125 40.09375 49.125 35.203125 
L 49.125 0 
z
" id="LiberationSans-6e"/>
      <path d="M 51.421875 26.46875 
Q 51.421875 12.59375 45.3125 5.796875 
Q 39.203125 -0.984375 27.59375 -0.984375 
Q 22.078125 -0.984375 17.71875 0.671875 
Q 13.375 2.34375 10.375 5.765625 
Q 7.375 9.1875 5.78125 14.328125 
Q 4.203125 19.484375 4.203125 26.46875 
Q 4.203125 53.8125 27.875 53.8125 
Q 34.03125 53.8125 38.5 52.09375 
Q 42.96875 50.390625 45.828125 46.96875 
Q 48.6875 43.5625 50.046875 38.421875 
Q 51.421875 33.296875 51.421875 26.46875 
M 42.1875 26.46875 
Q 42.1875 32.625 41.234375 36.625 
Q 40.28125 40.625 38.453125 43.015625 
Q 36.625 45.40625 33.984375 46.359375 
Q 31.34375 47.3125 28.03125 47.3125 
Q 24.65625 47.3125 21.9375 46.3125 
Q 19.234375 45.3125 17.328125 42.890625 
Q 15.4375 40.484375 14.421875 36.46875 
Q 13.421875 32.46875 13.421875 26.46875 
Q 13.421875 20.3125 14.5 16.28125 
Q 15.578125 12.25 17.453125 9.859375 
Q 19.34375 7.46875 21.90625 6.484375 
Q 24.46875 5.515625 27.484375 5.515625 
Q 30.859375 5.515625 33.59375 6.46875 
Q 36.328125 7.421875 38.234375 9.8125 
Q 40.140625 12.203125 41.15625 16.25 
Q 42.1875 20.3125 42.1875 26.46875 
" id="LiberationSans-6f"/>
      <path id="LiberationSans-20"/>
      <path d="M 67.4375 35.109375 
Q 67.4375 26.515625 64.84375 19.9375 
Q 62.25 13.375 57.75 8.953125 
Q 53.265625 4.546875 47.140625 2.265625 
Q 41.015625 0 33.9375 0 
L 8.203125 0 
L 8.203125 68.796875 
L 30.953125 68.796875 
Q 38.921875 68.796875 45.625 66.8125 
Q 52.34375 64.84375 57.171875 60.71875 
Q 62.015625 56.59375 64.71875 50.234375 
Q 67.4375 43.890625 67.4375 35.109375 
M 58.0625 35.109375 
Q 58.0625 42.09375 56.046875 47.046875 
Q 54.046875 52 50.4375 55.171875 
Q 46.828125 58.34375 41.796875 59.828125 
Q 36.765625 61.328125 30.765625 61.328125 
L 17.53125 61.328125 
L 17.53125 7.46875 
L 32.859375 7.46875 
Q 38.28125 7.46875 42.890625 9.21875 
Q 47.515625 10.984375 50.875 14.453125 
Q 54.25 17.921875 56.15625 23.09375 
Q 58.0625 28.265625 58.0625 35.109375 
" id="LiberationSans-44"/>
     </defs>
     <g style="fill:#262626;" transform="translate(19.9545 271.405703571)rotate(-90.0)scale(0.176 -0.176)">
      <use xlink:href="#LiberationSans-44"/>
      <use x="72.216796875" xlink:href="#LiberationSans-69"/>
      <use x="94.43359375" xlink:href="#LiberationSans-66"/>
      <use x="122.201171875" xlink:href="#LiberationSans-66"/>
      <use x="149.984375" xlink:href="#LiberationSans-65"/>
      <use x="205.599609375" xlink:href="#LiberationSans-72"/>
      <use x="238.900390625" xlink:href="#LiberationSans-65"/>
      <use x="294.515625" xlink:href="#LiberationSans-6e"/>
      <use x="350.130859375" xlink:href="#LiberationSans-63"/>
      <use x="400.130859375" xlink:href="#LiberationSans-65"/>
      <use x="455.74609375" xlink:href="#LiberationSans-20"/>
      <use x="483.529296875" xlink:href="#LiberationSans-73"/>
      <use x="533.529296875" xlink:href="#LiberationSans-63"/>
      <use x="583.529296875" xlink:href="#LiberationSans-6f"/>
      <use x="639.14453125" xlink:href="#LiberationSans-72"/>
      <use x="672.4453125" xlink:href="#LiberationSans-65"/>
     </g>
    </g>
   </g>
   <g id="PathCollection_1">
    <defs>
     <path d="M 0 2.236068 
C 0.593012 2.236068 1.161816 2.000462 1.581139 1.581139 
C 2.000462 1.161816 2.236068 0.593012 2.236068 0 
C 2.236068 -0.593012 2.000462 -1.161816 1.581139 -1.581139 
C 1.161816 -2.000462 0.593012 -2.236068 0 -2.236068 
C -0.593012 -2.236068 -1.161816 -2.000462 -1.581139 -1.581139 
C -2.000462 -1.161816 -2.236068 -0.593012 -2.236068 0 
C -2.236068 0.593012 -2.000462 1.161816 -1.581139 1.581139 
C -1.161816 2.000462 -0.593012 2.236068 0 2.236068 
z
" id="mfa54be158e"/>
    </defs>
    <g clip-path="url(#pb1d2078bb9)">
     <use style="fill:#4c72b0;fill-opacity:0.8;" x="135.36973602" xlink:href="#mfa54be158e" y="202.097266667"/>
     <use style="fill:#4c72b0;fill-opacity:0.8;" x="157.168535918" xlink:href="#mfa54be158e" y="265.014009524"/>
     <use style="fill:#4c72b0;fill-opacity:0.8;" x="173.022208571" xlink:href="#mfa54be158e" y="191.611142857"/>
     <use style="fill:#4c72b0;fill-opacity:0.8;" x="151.223408673" xlink:href="#mfa54be158e" y="181.125019048"/>
     <use style="fill:#4c72b0;fill-opacity:0.8;" x="159.150245" xlink:href="#mfa54be158e" y="149.666647619"/>
     <use style="fill:#4c72b0;fill-opacity:0.8;" x="184.912463061" xlink:href="#mfa54be158e" y="249.28482381"/>
     <use style="fill:#4c72b0;fill-opacity:0.8;" x="139.333154184" xlink:href="#mfa54be158e" y="212.583390476"/>
     <use style="fill:#4c72b0;fill-opacity:0.8;" x="155.186826837" xlink:href="#mfa54be158e" y="249.28482381"/>
     <use style="fill:#4c72b0;fill-opacity:0.8;" x="135.36973602" xlink:href="#mfa54be158e" y="170.638895238"/>
     <use style="fill:#4c72b0;fill-opacity:0.8;" x="159.150245" xlink:href="#mfa54be158e" y="280.743195238"/>
     <use style="fill:#4c72b0;fill-opacity:0.8;" x="194.821008469" xlink:href="#mfa54be158e" y="223.069514286"/>
     <use style="fill:#4c72b0;fill-opacity:0.8;" x="153.205117755" xlink:href="#mfa54be158e" y="196.854204762"/>
     <use style="fill:#4c72b0;fill-opacity:0.8;" x="165.095372245" xlink:href="#mfa54be158e" y="186.368080952"/>
     <use style="fill:#4c72b0;fill-opacity:0.8;" x="137.351445102" xlink:href="#mfa54be158e" y="170.638895238"/>
     <use style="fill:#4c72b0;fill-opacity:0.8;" x="155.186826837" xlink:href="#mfa54be158e" y="186.368080952"/>
     <use style="fill:#4c72b0;fill-opacity:0.8;" x="194.821008469" xlink:href="#mfa54be158e" y="170.638895238"/>
     <use style="fill:#4c72b0;fill-opacity:0.8;" x="159.150245" xlink:href="#mfa54be158e" y="160.152771429"/>
     <use style="fill:#4c72b0;fill-opacity:0.8;" x="153.205117755" xlink:href="#mfa54be158e" y="186.368080952"/>
     <use style="fill:#4c72b0;fill-opacity:0.8;" x="135.36973602" xlink:href="#mfa54be158e" y="175.881957143"/>
     <use style="fill:#4c72b0;fill-opacity:0.8;" x="145.278281429" xlink:href="#mfa54be158e" y="175.881957143"/>
     <use style="fill:#4c72b0;fill-opacity:0.8;" x="182.93075398" xlink:href="#mfa54be158e" y="223.069514286"/>
     <use style="fill:#4c72b0;fill-opacity:0.8;" x="175.003917653" xlink:href="#mfa54be158e" y="228.31257619"/>
     <use style="fill:#4c72b0;fill-opacity:0.8;" x="176.985626735" xlink:href="#mfa54be158e" y="223.069514286"/>
     <use style="fill:#4c72b0;fill-opacity:0.8;" x="163.113663163" xlink:href="#mfa54be158e" y="191.611142857"/>
     <use style="fill:#4c72b0;fill-opacity:0.8;" x="244.36373551" xlink:href="#mfa54be158e" y="228.31257619"/>
     <use style="fill:#4c72b0;fill-opacity:0.8;" x="242.382026429" xlink:href="#mfa54be158e" y="191.611142857"/>
     <use style="fill:#4c72b0;fill-opacity:0.8;" x="262.199117245" xlink:href="#mfa54be158e" y="191.611142857"/>
     <use style="fill:#4c72b0;fill-opacity:0.8;" x="224.546644694" xlink:href="#mfa54be158e" y="238.7987"/>
     <use style="fill:#4c72b0;fill-opacity:0.8;" x="268.14424449" xlink:href="#mfa54be158e" y="223.069514286"/>
     <use style="fill:#4c72b0;fill-opacity:0.8;" x="200.766135714" xlink:href="#mfa54be158e" y="212.583390476"/>
     <use style="fill:#4c72b0;fill-opacity:0.8;" x="200.766135714" xlink:href="#mfa54be158e" y="165.395833333"/>
     <use style="fill:#4c72b0;fill-opacity:0.8;" x="226.528353776" xlink:href="#mfa54be158e" y="144.423585714"/>
     <use style="fill:#4c72b0;fill-opacity:0.8;" x="220.583226531" xlink:href="#mfa54be158e" y="191.611142857"/>
     <use style="fill:#4c72b0;fill-opacity:0.8;" x="194.821008469" xlink:href="#mfa54be158e" y="254.527885714"/>
     <use style="fill:#4c72b0;fill-opacity:0.8;" x="218.601517449" xlink:href="#mfa54be158e" y="175.881957143"/>
     <use style="fill:#4c72b0;fill-opacity:0.8;" x="218.601517449" xlink:href="#mfa54be158e" y="270.257071429"/>
     <use style="fill:#4c72b0;fill-opacity:0.8;" x="260.217408163" xlink:href="#mfa54be158e" y="175.881957143"/>
     <use style="fill:#4c72b0;fill-opacity:0.8;" x="218.601517449" xlink:href="#mfa54be158e" y="175.881957143"/>
     <use style="fill:#4c72b0;fill-opacity:0.8;" x="220.583226531" xlink:href="#mfa54be158e" y="223.069514286"/>
     <use style="fill:#4c72b0;fill-opacity:0.8;" x="202.747844796" xlink:href="#mfa54be158e" y="212.583390476"/>
     <use style="fill:#4c72b0;fill-opacity:0.8;" x="206.711262959" xlink:href="#mfa54be158e" y="207.340328571"/>
     <use style="fill:#4c72b0;fill-opacity:0.8;" x="226.528353776" xlink:href="#mfa54be158e" y="170.638895238"/>
     <use style="fill:#4c72b0;fill-opacity:0.8;" x="175.003917653" xlink:href="#mfa54be158e" y="196.854204762"/>
     <use style="fill:#4c72b0;fill-opacity:0.8;" x="196.802717551" xlink:href="#mfa54be158e" y="181.125019048"/>
     <use style="fill:#4c72b0;fill-opacity:0.8;" x="220.583226531" xlink:href="#mfa54be158e" y="186.368080952"/>
     <use style="fill:#4c72b0;fill-opacity:0.8;" x="220.583226531" xlink:href="#mfa54be158e" y="175.881957143"/>
     <use style="fill:#4c72b0;fill-opacity:0.8;" x="214.638099286" xlink:href="#mfa54be158e" y="181.125019048"/>
    </g>
   </g>
   <g id="PolyCollection_1">
    <defs>
     <path d="M 62.0465 -233.221658 
L 62.0465 -172.04872 
L 64.848917 -172.528185 
L 67.651334 -173.007649 
L 70.453751 -173.656536 
L 73.256168 -174.401823 
L 76.058584 -174.987318 
L 78.861001 -175.667952 
L 81.663418 -176.351641 
L 84.465835 -177.01567 
L 87.268252 -177.454749 
L 90.070669 -178.122324 
L 92.873086 -178.80454 
L 95.675503 -179.486755 
L 98.477919 -180.168971 
L 101.280336 -180.715742 
L 104.082753 -181.21298 
L 106.88517 -181.624269 
L 109.687587 -182.035557 
L 112.490004 -182.446846 
L 115.292421 -182.873406 
L 118.094838 -183.263006 
L 120.897255 -183.667358 
L 123.699671 -184.074209 
L 126.502088 -184.620055 
L 129.304505 -185.207321 
L 132.106922 -185.63645 
L 134.909339 -186.057817 
L 137.711756 -186.486035 
L 140.514173 -187.022156 
L 143.31659 -187.441735 
L 146.119006 -187.89958 
L 148.921423 -188.289553 
L 151.72384 -188.726749 
L 154.526257 -189.22287 
L 157.328674 -189.758083 
L 160.131091 -190.240684 
L 162.933508 -190.46542 
L 165.735925 -190.855585 
L 168.538342 -191.417656 
L 171.340758 -191.930767 
L 174.143175 -192.153591 
L 176.945592 -192.475207 
L 179.748009 -192.783947 
L 182.550426 -192.814113 
L 185.352843 -192.939921 
L 188.15526 -193.114151 
L 190.957677 -193.0736 
L 193.760094 -193.133181 
L 196.56251 -193.189904 
L 199.364927 -193.110127 
L 202.167344 -193.063122 
L 204.969761 -192.819773 
L 207.772178 -192.647023 
L 210.574595 -192.407524 
L 213.377012 -192.030195 
L 216.179429 -191.337682 
L 218.981845 -190.885633 
L 221.784262 -190.31736 
L 224.586679 -189.744572 
L 227.389096 -189.180046 
L 230.191513 -188.617296 
L 232.99393 -188.054115 
L 235.796347 -187.509482 
L 238.598764 -187.106073 
L 241.401181 -186.705862 
L 244.203597 -186.343815 
L 247.006014 -185.749104 
L 249.808431 -185.505142 
L 252.610848 -184.853823 
L 255.413265 -184.277751 
L 258.215682 -183.981636 
L 261.018099 -183.23841 
L 263.820516 -182.476574 
L 266.622932 -181.812346 
L 269.425349 -181.303233 
L 272.227766 -180.479658 
L 275.030183 -179.658468 
L 277.8326 -178.937737 
L 280.635017 -178.366561 
L 283.437434 -177.795765 
L 286.239851 -177.225672 
L 289.042268 -176.657726 
L 291.844684 -176.08978 
L 294.647101 -175.521834 
L 297.449518 -174.953887 
L 300.251935 -174.383402 
L 303.054352 -173.691008 
L 305.856769 -172.998614 
L 308.659186 -172.306219 
L 311.461603 -171.614743 
L 314.264019 -170.926011 
L 317.066436 -170.237279 
L 319.868853 -169.548547 
L 322.67127 -168.859815 
L 325.473687 -168.171083 
L 328.276104 -167.48012 
L 331.078521 -166.787686 
L 333.880938 -166.151105 
L 336.683355 -165.648998 
L 339.485771 -165.020418 
L 339.485771 -235.37333 
L 339.485771 -235.37333 
L 336.683355 -234.910735 
L 333.880938 -234.448141 
L 331.078521 -233.985547 
L 328.276104 -233.522952 
L 325.473687 -233.060358 
L 322.67127 -232.597764 
L 319.868853 -232.135169 
L 317.066436 -231.670915 
L 314.264019 -231.202822 
L 311.461603 -230.734728 
L 308.659186 -230.194752 
L 305.856769 -229.544741 
L 303.054352 -228.894731 
L 300.251935 -228.24472 
L 297.449518 -227.590494 
L 294.647101 -226.932178 
L 291.844684 -226.273862 
L 289.042268 -225.615546 
L 286.239851 -224.957229 
L 283.437434 -224.302576 
L 280.635017 -223.652053 
L 277.8326 -222.997207 
L 275.030183 -222.36581 
L 272.227766 -221.699046 
L 269.425349 -221.031666 
L 266.622932 -220.379489 
L 263.820516 -219.94266 
L 261.018099 -219.594589 
L 258.215682 -218.971963 
L 255.413265 -218.516443 
L 252.610848 -217.874361 
L 249.808431 -217.363919 
L 247.006014 -216.692739 
L 244.203597 -216.088611 
L 241.401181 -215.551105 
L 238.598764 -215.208398 
L 235.796347 -214.724535 
L 232.99393 -214.460052 
L 230.191513 -214.187419 
L 227.389096 -213.816225 
L 224.586679 -213.577874 
L 221.784262 -213.411416 
L 218.981845 -213.149204 
L 216.179429 -212.807204 
L 213.377012 -212.450858 
L 210.574595 -212.228725 
L 207.772178 -212.009971 
L 204.969761 -211.873124 
L 202.167344 -211.885241 
L 199.364927 -211.741953 
L 196.56251 -211.739831 
L 193.760094 -211.938332 
L 190.957677 -211.671256 
L 188.15526 -211.559311 
L 185.352843 -211.856962 
L 182.550426 -211.692341 
L 179.748009 -211.773772 
L 176.945592 -212.022889 
L 174.143175 -212.360519 
L 171.340758 -212.604545 
L 168.538342 -212.987116 
L 165.735925 -213.256752 
L 162.933508 -213.771678 
L 160.131091 -214.149273 
L 157.328674 -214.59813 
L 154.526257 -215.141093 
L 151.72384 -215.544188 
L 148.921423 -215.954787 
L 146.119006 -216.381528 
L 143.31659 -216.835563 
L 140.514173 -217.298119 
L 137.711756 -217.898702 
L 134.909339 -218.30182 
L 132.106922 -218.965973 
L 129.304505 -219.813963 
L 126.502088 -220.28052 
L 123.699671 -220.848419 
L 120.897255 -221.499844 
L 118.094838 -221.971487 
L 115.292421 -222.492776 
L 112.490004 -222.99172 
L 109.687587 -223.41518 
L 106.88517 -223.961698 
L 104.082753 -224.477188 
L 101.280336 -224.975832 
L 98.477919 -225.524918 
L 95.675503 -226.101491 
L 92.873086 -226.715725 
L 90.070669 -227.341239 
L 87.268252 -228.011658 
L 84.465835 -228.642822 
L 81.663418 -229.148331 
L 78.861001 -229.652226 
L 76.058584 -230.156121 
L 73.256168 -230.736558 
L 70.453751 -231.368121 
L 67.651334 -231.997214 
L 64.848917 -232.495985 
L 62.0465 -233.221658 
z
" id="me694caf187" style="stroke:#000000;stroke-opacity:0.15;stroke-width:0.48;"/>
    </defs>
    <g clip-path="url(#pb1d2078bb9)">
     <use style="fill:#4c72b0;fill-opacity:0.15;stroke:#000000;stroke-opacity:0.15;stroke-width:0.48;" x="0.0" xlink:href="#me694caf187" y="403.6245"/>
    </g>
   </g>
   <g id="line2d_19">
    <path clip-path="url(#pb1d2078bb9)" d="M 62.0465 198.233263 
L 64.848917 198.283714 
L 67.651334 198.334165 
L 70.453751 198.384616 
L 73.256168 198.435067 
L 76.058584 198.485518 
L 78.861001 198.535969 
L 81.663418 198.58642 
L 84.465835 198.636871 
L 87.268252 198.687322 
L 90.070669 198.737772 
L 92.873086 198.788223 
L 95.675503 198.838674 
L 98.477919 198.889125 
L 101.280336 198.939576 
L 104.082753 198.990027 
L 106.88517 199.040478 
L 109.687587 199.090929 
L 112.490004 199.14138 
L 115.292421 199.191831 
L 118.094838 199.242281 
L 120.897255 199.292732 
L 123.699671 199.343183 
L 126.502088 199.393634 
L 129.304505 199.444085 
L 132.106922 199.494536 
L 134.909339 199.544987 
L 137.711756 199.595438 
L 140.514173 199.645889 
L 143.31659 199.69634 
L 146.119006 199.74679 
L 148.921423 199.797241 
L 151.72384 199.847692 
L 154.526257 199.898143 
L 157.328674 199.948594 
L 160.131091 199.999045 
L 162.933508 200.049496 
L 165.735925 200.099947 
L 168.538342 200.150398 
L 171.340758 200.200848 
L 174.143175 200.251299 
L 176.945592 200.30175 
L 179.748009 200.352201 
L 182.550426 200.402652 
L 185.352843 200.453103 
L 188.15526 200.503554 
L 190.957677 200.554005 
L 193.760094 200.604456 
L 196.56251 200.654907 
L 199.364927 200.705357 
L 202.167344 200.755808 
L 204.969761 200.806259 
L 207.772178 200.85671 
L 210.574595 200.907161 
L 213.377012 200.957612 
L 216.179429 201.008063 
L 218.981845 201.058514 
L 221.784262 201.108965 
L 224.586679 201.159416 
L 227.389096 201.209866 
L 230.191513 201.260317 
L 232.99393 201.310768 
L 235.796347 201.361219 
L 238.598764 201.41167 
L 241.401181 201.462121 
L 244.203597 201.512572 
L 247.006014 201.563023 
L 249.808431 201.613474 
L 252.610848 201.663925 
L 255.413265 201.714375 
L 258.215682 201.764826 
L 261.018099 201.815277 
L 263.820516 201.865728 
L 266.622932 201.916179 
L 269.425349 201.96663 
L 272.227766 202.017081 
L 275.030183 202.067532 
L 277.8326 202.117983 
L 280.635017 202.168433 
L 283.437434 202.218884 
L 286.239851 202.269335 
L 289.042268 202.319786 
L 291.844684 202.370237 
L 294.647101 202.420688 
L 297.449518 202.471139 
L 300.251935 202.52159 
L 303.054352 202.572041 
L 305.856769 202.622492 
L 308.659186 202.672942 
L 311.461603 202.723393 
L 314.264019 202.773844 
L 317.066436 202.824295 
L 319.868853 202.874746 
L 322.67127 202.925197 
L 325.473687 202.975648 
L 328.276104 203.026099 
L 331.078521 203.07655 
L 333.880938 203.127001 
L 336.683355 203.177451 
L 339.485771 203.227902 
" style="fill:none;stroke:#4c72b0;stroke-linecap:round;stroke-width:4.2;"/>
   </g>
   <g id="patch_3">
    <path d="M 62.0465 348.903 
L 339.485771 348.903 
" style="fill:none;stroke:#262626;stroke-linecap:square;stroke-linejoin:miter;stroke-width:1.25;"/>
   </g>
   <g id="patch_4">
    <path d="M 62.0465 348.903 
L 62.0465 65.777657 
" style="fill:none;stroke:#262626;stroke-linecap:square;stroke-linejoin:miter;stroke-width:1.25;"/>
   </g>
   <g id="legend_1">
    <g id="line2d_20"/>
    <g id="line2d_21"/>
    <g id="text_21">
     <!-- pearsonr = -0.021; p = 0.89 -->
     <defs>
      <path d="M 51.421875 26.65625 
Q 51.421875 20.65625 50.4375 15.578125 
Q 49.46875 10.5 47.1875 6.828125 
Q 44.921875 3.171875 41.1875 1.09375 
Q 37.453125 -0.984375 31.984375 -0.984375 
Q 26.3125 -0.984375 22.0625 1.171875 
Q 17.828125 3.328125 15.578125 8.203125 
L 15.328125 8.203125 
Q 15.375 8.109375 15.40625 7.328125 
Q 15.4375 6.546875 15.453125 5.375 
Q 15.484375 4.203125 15.5 2.75 
Q 15.53125 1.3125 15.53125 -0.09375 
L 15.53125 -20.75 
L 6.734375 -20.75 
L 6.734375 42.046875 
Q 6.734375 43.953125 6.703125 45.703125 
Q 6.6875 47.46875 6.640625 48.90625 
Q 6.59375 50.34375 6.546875 51.359375 
Q 6.5 52.390625 6.453125 52.828125 
L 14.9375 52.828125 
Q 14.984375 52.6875 15.0625 51.796875 
Q 15.140625 50.921875 15.203125 49.671875 
Q 15.28125 48.4375 15.359375 47.015625 
Q 15.4375 45.609375 15.4375 44.34375 
L 15.625 44.34375 
Q 16.84375 46.875 18.40625 48.65625 
Q 19.96875 50.4375 21.96875 51.578125 
Q 23.96875 52.734375 26.4375 53.25 
Q 28.90625 53.765625 31.984375 53.765625 
Q 37.453125 53.765625 41.1875 51.8125 
Q 44.921875 49.859375 47.1875 46.3125 
Q 49.46875 42.78125 50.4375 37.765625 
Q 51.421875 32.765625 51.421875 26.65625 
M 42.1875 26.46875 
Q 42.1875 31.34375 41.59375 35.15625 
Q 41.015625 38.96875 39.578125 41.59375 
Q 38.140625 44.234375 35.734375 45.59375 
Q 33.34375 46.96875 29.734375 46.96875 
Q 26.8125 46.96875 24.21875 46.140625 
Q 21.625 45.3125 19.703125 42.96875 
Q 17.78125 40.625 16.65625 36.5 
Q 15.53125 32.375 15.53125 25.78125 
Q 15.53125 20.171875 16.453125 16.28125 
Q 17.390625 12.40625 19.171875 10.015625 
Q 20.953125 7.625 23.578125 6.5625 
Q 26.21875 5.515625 29.640625 5.515625 
Q 33.296875 5.515625 35.71875 6.921875 
Q 38.140625 8.34375 39.578125 11.03125 
Q 41.015625 13.71875 41.59375 17.59375 
Q 42.1875 21.484375 42.1875 26.46875 
" id="LiberationSans-70"/>
      <path d="M 4.4375 22.65625 
L 4.4375 30.46875 
L 28.859375 30.46875 
L 28.859375 22.65625 
z
" id="LiberationSans-2d"/>
      <path d="M 20.21875 -0.984375 
Q 12.25 -0.984375 8.25 3.21875 
Q 4.25 7.421875 4.25 14.75 
Q 4.25 19.96875 6.21875 23.3125 
Q 8.203125 26.65625 11.390625 28.5625 
Q 14.59375 30.46875 18.6875 31.203125 
Q 22.796875 31.9375 27.046875 32.03125 
L 38.921875 32.234375 
L 38.921875 35.109375 
Q 38.921875 38.375 38.234375 40.671875 
Q 37.546875 42.96875 36.125 44.375 
Q 34.71875 45.796875 32.59375 46.453125 
Q 30.46875 47.125 27.59375 47.125 
Q 25.046875 47.125 23 46.75 
Q 20.953125 46.390625 19.4375 45.4375 
Q 17.921875 44.484375 16.984375 42.84375 
Q 16.0625 41.21875 15.765625 38.71875 
L 6.59375 39.546875 
Q 7.078125 42.671875 8.4375 45.28125 
Q 9.8125 47.90625 12.328125 49.796875 
Q 14.84375 51.703125 18.625 52.75 
Q 22.40625 53.8125 27.78125 53.8125 
Q 37.75 53.8125 42.765625 49.234375 
Q 47.796875 44.671875 47.796875 36.03125 
L 47.796875 13.28125 
Q 47.796875 9.375 48.828125 7.390625 
Q 49.859375 5.421875 52.734375 5.421875 
Q 53.46875 5.421875 54.203125 5.515625 
Q 54.9375 5.609375 55.609375 5.765625 
L 55.609375 0.296875 
Q 53.953125 -0.09375 52.3125 -0.28125 
Q 50.6875 -0.484375 48.828125 -0.484375 
Q 46.34375 -0.484375 44.5625 0.171875 
Q 42.78125 0.828125 41.65625 2.171875 
Q 40.53125 3.515625 39.9375 5.484375 
Q 39.359375 7.46875 39.203125 10.109375 
L 38.921875 10.109375 
Q 37.5 7.5625 35.8125 5.515625 
Q 34.125 3.46875 31.875 2.03125 
Q 29.640625 0.59375 26.78125 -0.1875 
Q 23.921875 -0.984375 20.21875 -0.984375 
M 22.21875 5.609375 
Q 26.421875 5.609375 29.5625 7.140625 
Q 32.71875 8.6875 34.78125 11.078125 
Q 36.859375 13.484375 37.890625 16.3125 
Q 38.921875 19.140625 38.921875 21.734375 
L 38.921875 26.078125 
L 29.296875 25.875 
Q 26.078125 25.828125 23.171875 25.40625 
Q 20.265625 25 18.0625 23.78125 
Q 15.875 22.5625 14.578125 20.359375 
Q 13.28125 18.171875 13.28125 14.59375 
Q 13.28125 10.296875 15.59375 7.953125 
Q 17.921875 5.609375 22.21875 5.609375 
" id="LiberationSans-61"/>
      <path d="M 4.890625 41.796875 
L 4.890625 49.03125 
L 53.46875 49.03125 
L 53.46875 41.796875 
z
M 4.890625 16.796875 
L 4.890625 24.03125 
L 53.46875 24.03125 
L 53.46875 16.796875 
z
" id="LiberationSans-3d"/>
      <path d="M 18.796875 10.109375 
L 18.796875 2.484375 
Q 18.796875 -0.09375 18.578125 -2.21875 
Q 18.359375 -4.34375 17.875 -6.171875 
Q 17.390625 -8.015625 16.671875 -9.625 
Q 15.96875 -11.234375 14.984375 -12.796875 
L 8.984375 -12.796875 
Q 11.1875 -9.625 12.375 -6.390625 
Q 13.578125 -3.171875 13.578125 0 
L 9.28125 0 
L 9.28125 10.109375 
z
M 9.28125 42.71875 
L 9.28125 52.828125 
L 18.796875 52.828125 
L 18.796875 42.71875 
z
" id="LiberationSans-3b"/>
     </defs>
     <g style="fill:#262626;" transform="translate(131.185771429 91.7726571429)scale(0.16 -0.16)">
      <use xlink:href="#LiberationSans-70"/>
      <use x="55.615234375" xlink:href="#LiberationSans-65"/>
      <use x="111.23046875" xlink:href="#LiberationSans-61"/>
      <use x="166.845703125" xlink:href="#LiberationSans-72"/>
      <use x="200.146484375" xlink:href="#LiberationSans-73"/>
      <use x="250.146484375" xlink:href="#LiberationSans-6f"/>
      <use x="305.76171875" xlink:href="#LiberationSans-6e"/>
      <use x="361.376953125" xlink:href="#LiberationSans-72"/>
      <use x="394.677734375" xlink:href="#LiberationSans-20"/>
      <use x="422.4609375" xlink:href="#LiberationSans-3d"/>
      <use x="480.859375" xlink:href="#LiberationSans-20"/>
      <use x="508.642578125" xlink:href="#LiberationSans-2d"/>
      <use x="541.943359375" xlink:href="#LiberationSans-30"/>
      <use x="597.55859375" xlink:href="#LiberationSans-2e"/>
      <use x="625.341796875" xlink:href="#LiberationSans-30"/>
      <use x="680.95703125" xlink:href="#LiberationSans-32"/>
      <use x="736.572265625" xlink:href="#LiberationSans-31"/>
      <use x="792.1875" xlink:href="#LiberationSans-3b"/>
      <use x="819.970703125" xlink:href="#LiberationSans-20"/>
      <use x="847.75390625" xlink:href="#LiberationSans-70"/>
      <use x="903.369140625" xlink:href="#LiberationSans-20"/>
      <use x="931.15234375" xlink:href="#LiberationSans-3d"/>
      <use x="989.55078125" xlink:href="#LiberationSans-20"/>
      <use x="1017.33398438" xlink:href="#LiberationSans-30"/>
      <use x="1072.94921875" xlink:href="#LiberationSans-2e"/>
      <use x="1100.73242188" xlink:href="#LiberationSans-38"/>
      <use x="1156.34765625" xlink:href="#LiberationSans-39"/>
     </g>
    </g>
   </g>
  </g>
  <g id="axes_2">
   <g id="patch_5">
    <path d="M 62.0465 56.014714 
L 339.485771 56.014714 
L 339.485771 7.2 
L 62.0465 7.2 
z
" style="fill:#ffffff;"/>
   </g>
   <g id="matplotlib.axis_3">
    <g id="xtick_9">
     <g id="line2d_22">
      <g>
       <use style="fill:#262626;stroke:#262626;stroke-width:1.6;" x="62.0465" xlink:href="#m0c97fd6c50" y="56.0147142857"/>
      </g>
     </g>
    </g>
    <g id="xtick_10">
     <g id="line2d_23">
      <g>
       <use style="fill:#262626;stroke:#262626;stroke-width:1.6;" x="101.680681633" xlink:href="#m0c97fd6c50" y="56.0147142857"/>
      </g>
     </g>
    </g>
    <g id="xtick_11">
     <g id="line2d_24">
      <g>
       <use style="fill:#262626;stroke:#262626;stroke-width:1.6;" x="141.314863265" xlink:href="#m0c97fd6c50" y="56.0147142857"/>
      </g>
     </g>
    </g>
    <g id="xtick_12">
     <g id="line2d_25">
      <g>
       <use style="fill:#262626;stroke:#262626;stroke-width:1.6;" x="180.949044898" xlink:href="#m0c97fd6c50" y="56.0147142857"/>
      </g>
     </g>
    </g>
    <g id="xtick_13">
     <g id="line2d_26">
      <g>
       <use style="fill:#262626;stroke:#262626;stroke-width:1.6;" x="220.583226531" xlink:href="#m0c97fd6c50" y="56.0147142857"/>
      </g>
     </g>
    </g>
    <g id="xtick_14">
     <g id="line2d_27">
      <g>
       <use style="fill:#262626;stroke:#262626;stroke-width:1.6;" x="260.217408163" xlink:href="#m0c97fd6c50" y="56.0147142857"/>
      </g>
     </g>
    </g>
    <g id="xtick_15">
     <g id="line2d_28">
      <g>
       <use style="fill:#262626;stroke:#262626;stroke-width:1.6;" x="299.851589796" xlink:href="#m0c97fd6c50" y="56.0147142857"/>
      </g>
     </g>
    </g>
    <g id="xtick_16">
     <g id="line2d_29">
      <g>
       <use style="fill:#262626;stroke:#262626;stroke-width:1.6;" x="339.485771429" xlink:href="#m0c97fd6c50" y="56.0147142857"/>
      </g>
     </g>
    </g>
   </g>
   <g id="matplotlib.axis_4">
    <g id="ytick_11"/>
    <g id="ytick_12"/>
    <g id="ytick_13"/>
    <g id="ytick_14"/>
    <g id="ytick_15"/>
    <g id="ytick_16"/>
   </g>
   <g id="patch_6">
    <path clip-path="url(#p8bb6a6397a)" d="M 135.369736 56.014714 
L 168.563363 56.014714 
L 168.563363 13.85021 
L 135.369736 13.85021 
z
" style="fill:#4c72b0;opacity:0.4;stroke:#000000;stroke-linejoin:miter;stroke-width:0.48;"/>
   </g>
   <g id="patch_7">
    <path clip-path="url(#p8bb6a6397a)" d="M 168.563363 56.014714 
L 201.75699 56.014714 
L 201.75699 26.251535 
L 168.563363 26.251535 
z
" style="fill:#4c72b0;opacity:0.4;stroke:#000000;stroke-linejoin:miter;stroke-width:0.48;"/>
   </g>
   <g id="patch_8">
    <path clip-path="url(#p8bb6a6397a)" d="M 201.75699 56.014714 
L 234.950617 56.014714 
L 234.950617 23.77127 
L 201.75699 23.77127 
z
" style="fill:#4c72b0;opacity:0.4;stroke:#000000;stroke-linejoin:miter;stroke-width:0.48;"/>
   </g>
   <g id="patch_9">
    <path clip-path="url(#p8bb6a6397a)" d="M 234.950617 56.014714 
L 268.144244 56.014714 
L 268.144244 43.61339 
L 234.950617 43.61339 
z
" style="fill:#4c72b0;opacity:0.4;stroke:#000000;stroke-linejoin:miter;stroke-width:0.48;"/>
   </g>
   <g id="line2d_30">
    <path clip-path="url(#p8bb6a6397a)" d="M 81.110774 55.890349 
L 88.710536 55.67786 
L 94.410357 55.278184 
L 98.210238 54.823059 
L 102.010119 54.156532 
L 105.81 53.222479 
L 109.60988 51.96847 
L 113.409761 50.354517 
L 117.209642 48.362287 
L 121.009523 46.003075 
L 124.809404 43.322814 
L 130.509225 38.887279 
L 138.108987 32.848612 
L 141.908867 30.098379 
L 145.708748 27.710826 
L 147.608689 26.687944 
L 149.508629 25.792888 
L 151.408569 25.032474 
L 153.30851 24.410303 
L 155.20845 23.926601 
L 157.108391 23.578176 
L 159.008331 23.358499 
L 162.808212 23.263967 
L 166.608093 23.535037 
L 172.307914 24.326308 
L 178.007735 25.158211 
L 181.807616 25.544909 
L 185.607497 25.719039 
L 189.407378 25.665135 
L 193.207258 25.413029 
L 206.506841 24.217979 
L 210.306722 24.266906 
L 214.106603 24.693498 
L 216.006543 25.071075 
L 217.906484 25.564481 
L 221.706365 26.897389 
L 225.506245 28.65431 
L 229.306126 30.745654 
L 235.005947 34.226997 
L 240.705769 37.704403 
L 244.505649 39.831095 
L 248.30553 41.730574 
L 252.105411 43.391195 
L 255.905292 44.83921 
L 261.605113 46.721711 
L 269.204875 48.949758 
L 278.704577 51.510385 
L 284.404398 52.85474 
L 290.104219 53.959361 
L 295.804041 54.782811 
L 301.503862 55.336476 
L 307.203683 55.670315 
L 314.803445 55.878762 
L 322.403206 55.908143 
L 322.403206 55.908143 
" style="fill:none;stroke:#4c72b0;stroke-linecap:round;stroke-width:2.8;"/>
   </g>
   <g id="patch_10">
    <path d="M 62.0465 56.014714 
L 339.485771 56.014714 
" style="fill:none;stroke:#262626;stroke-linecap:square;stroke-linejoin:miter;stroke-width:1.25;"/>
   </g>
  </g>
  <g id="axes_3">
   <g id="patch_11">
    <path d="M 349.052643 348.903 
L 396.887 348.903 
L 396.887 65.777657 
L 349.052643 65.777657 
z
" style="fill:#ffffff;"/>
   </g>
   <g id="matplotlib.axis_5">
    <g id="xtick_17"/>
    <g id="xtick_18"/>
    <g id="xtick_19"/>
    <g id="xtick_20"/>
    <g id="xtick_21"/>
    <g id="xtick_22"/>
    <g id="xtick_23"/>
   </g>
   <g id="matplotlib.axis_6">
    <g id="ytick_17">
     <g id="line2d_31">
      <g>
       <use style="fill:#262626;stroke:#262626;stroke-width:1.6;" x="349.052642857" xlink:href="#m0c97fd6c50" y="348.903"/>
      </g>
     </g>
    </g>
    <g id="ytick_18">
     <g id="line2d_32">
      <g>
       <use style="fill:#262626;stroke:#262626;stroke-width:1.6;" x="349.052642857" xlink:href="#m0c97fd6c50" y="317.444628571"/>
      </g>
     </g>
    </g>
    <g id="ytick_19">
     <g id="line2d_33">
      <g>
       <use style="fill:#262626;stroke:#262626;stroke-width:1.6;" x="349.052642857" xlink:href="#m0c97fd6c50" y="285.986257143"/>
      </g>
     </g>
    </g>
    <g id="ytick_20">
     <g id="line2d_34">
      <g>
       <use style="fill:#262626;stroke:#262626;stroke-width:1.6;" x="349.052642857" xlink:href="#m0c97fd6c50" y="254.527885714"/>
      </g>
     </g>
    </g>
    <g id="ytick_21">
     <g id="line2d_35">
      <g>
       <use style="fill:#262626;stroke:#262626;stroke-width:1.6;" x="349.052642857" xlink:href="#m0c97fd6c50" y="223.069514286"/>
      </g>
     </g>
    </g>
    <g id="ytick_22">
     <g id="line2d_36">
      <g>
       <use style="fill:#262626;stroke:#262626;stroke-width:1.6;" x="349.052642857" xlink:href="#m0c97fd6c50" y="191.611142857"/>
      </g>
     </g>
    </g>
    <g id="ytick_23">
     <g id="line2d_37">
      <g>
       <use style="fill:#262626;stroke:#262626;stroke-width:1.6;" x="349.052642857" xlink:href="#m0c97fd6c50" y="160.152771429"/>
      </g>
     </g>
    </g>
    <g id="ytick_24">
     <g id="line2d_38">
      <g>
       <use style="fill:#262626;stroke:#262626;stroke-width:1.6;" x="349.052642857" xlink:href="#m0c97fd6c50" y="128.6944"/>
      </g>
     </g>
    </g>
    <g id="ytick_25">
     <g id="line2d_39">
      <g>
       <use style="fill:#262626;stroke:#262626;stroke-width:1.6;" x="349.052642857" xlink:href="#m0c97fd6c50" y="97.2360285714"/>
      </g>
     </g>
    </g>
    <g id="ytick_26">
     <g id="line2d_40">
      <g>
       <use style="fill:#262626;stroke:#262626;stroke-width:1.6;" x="349.052642857" xlink:href="#m0c97fd6c50" y="65.7776571429"/>
      </g>
     </g>
    </g>
   </g>
   <g id="patch_12">
    <path clip-path="url(#pdb8a2171eb)" d="M 349.052643 280.743195 
L 356.09862 280.743195 
L 356.09862 258.02326 
L 349.052643 258.02326 
z
" style="fill:#4c72b0;opacity:0.4;stroke:#000000;stroke-linejoin:miter;stroke-width:0.48;"/>
   </g>
   <g id="patch_13">
    <path clip-path="url(#pdb8a2171eb)" d="M 349.052643 258.02326 
L 358.447279 258.02326 
L 358.447279 235.303325 
L 349.052643 235.303325 
z
" style="fill:#4c72b0;opacity:0.4;stroke:#000000;stroke-linejoin:miter;stroke-width:0.48;"/>
   </g>
   <g id="patch_14">
    <path clip-path="url(#pdb8a2171eb)" d="M 349.052643 235.303325 
L 367.841916 235.303325 
L 367.841916 212.58339 
L 349.052643 212.58339 
z
" style="fill:#4c72b0;opacity:0.4;stroke:#000000;stroke-linejoin:miter;stroke-width:0.48;"/>
   </g>
   <g id="patch_15">
    <path clip-path="url(#pdb8a2171eb)" d="M 349.052643 212.58339 
L 374.887893 212.58339 
L 374.887893 189.863456 
L 349.052643 189.863456 
z
" style="fill:#4c72b0;opacity:0.4;stroke:#000000;stroke-linejoin:miter;stroke-width:0.48;"/>
   </g>
   <g id="patch_16">
    <path clip-path="url(#pdb8a2171eb)" d="M 349.052643 189.863456 
L 388.979848 189.863456 
L 388.979848 167.143521 
L 349.052643 167.143521 
z
" style="fill:#4c72b0;opacity:0.4;stroke:#000000;stroke-linejoin:miter;stroke-width:0.48;"/>
   </g>
   <g id="patch_17">
    <path clip-path="url(#pdb8a2171eb)" d="M 349.052643 167.143521 
L 358.447279 167.143521 
L 358.447279 144.423586 
L 349.052643 144.423586 
z
" style="fill:#4c72b0;opacity:0.4;stroke:#000000;stroke-linejoin:miter;stroke-width:0.48;"/>
   </g>
   <g id="line2d_41">
    <path clip-path="url(#pdb8a2171eb)" d="M 349.086431 327.927637 
L 349.213793 315.212523 
L 349.481782 307.946744 
L 349.851924 302.497409 
L 350.407972 297.048075 
L 351.157775 291.59874 
L 352.400967 284.332961 
L 356.375573 262.535623 
L 357.97597 253.453399 
L 359.136804 248.004065 
L 360.563563 242.55473 
L 362.255543 237.105396 
L 367.612816 220.757392 
L 370.453976 211.675168 
L 371.790001 208.042278 
L 373.309694 204.409389 
L 375.858068 198.960054 
L 378.364586 193.51072 
L 379.700363 189.87783 
L 380.189475 188.061385 
L 380.527542 186.24494 
L 380.694656 184.428496 
L 380.675349 182.612051 
L 380.459381 180.795606 
L 380.042289 178.979161 
L 379.425631 177.162716 
L 378.616936 175.346272 
L 377.629359 173.529827 
L 376.481059 171.713382 
L 373.794631 168.080492 
L 370.766501 164.447603 
L 364.548177 157.181823 
L 361.708807 153.548934 
L 359.193126 149.916044 
L 357.038786 146.283154 
L 355.240745 142.650265 
L 353.768167 139.017375 
L 352.57972 135.384485 
L 351.633877 131.751596 
L 350.893592 128.118706 
L 350.326799 124.485816 
L 349.74015 119.036482 
L 349.392499 113.587147 
L 349.168276 106.321368 
L 349.087719 97.239144 
L 349.087719 97.239144 
" style="fill:none;stroke:#4c72b0;stroke-linecap:round;stroke-width:2.8;"/>
   </g>
   <g id="patch_18">
    <path d="M 349.052643 348.903 
L 349.052643 65.777657 
" style="fill:none;stroke:#262626;stroke-linecap:square;stroke-linejoin:miter;stroke-width:1.25;"/>
   </g>
  </g>
 </g>
 <defs>
  <clipPath id="p8bb6a6397a">
   <rect height="48.8147142857" width="277.439271429" x="62.0465" y="7.2"/>
  </clipPath>
  <clipPath id="pdb8a2171eb">
   <rect height="283.125342857" width="47.8343571429" x="349.052642857" y="65.7776571429"/>
  </clipPath>
  <clipPath id="pb1d2078bb9">
   <rect height="283.125342857" width="277.439271429" x="62.0465" y="65.7776571429"/>
  </clipPath>
 </defs>
</svg>
